<svg width="1438" height="744" viewBox="0 0 1438 744" fill="none" xmlns="http://www.w3.org/2000/svg">
<g opacity="0.6">
<path opacity="0.73" d="M1438 1145.66V-154.826C907.724 -80.0976 502.164 330.669 502.164 826.27C502.164 938.003 522.796 1045.42 560.805 1145.66H1438Z" fill="url(#paint0_radial)"/>
<path opacity="0.73" d="M336.457 1145.66C413.483 936.549 460.533 657.385 460.533 350.685C460.533 90.355 426.601 -150.119 369.242 -344.78H0V1145.66H336.457Z" fill="url(#paint1_radial)"/>
<path opacity="0.59" d="M1438 -344.78H1180.36C1175.48 -255.717 1172.94 -164.407 1172.94 -71.3763C1172.94 292.792 1211.7 630.7 1277.91 909.891H1438V-344.78Z" fill="url(#paint2_radial)"/>
<path opacity="0.54" d="M168.299 1145.66C475.126 1030.04 692.429 742.726 692.429 406.539C692.429 57.8119 458.62 -238.323 133.601 -344.78H0V1145.66H168.299Z" fill="url(#paint3_radial)"/>
<path opacity="0.3" d="M486.354 -344.78H0V1081.64H544.176C795.768 921.34 957.976 669.198 957.976 385.582C957.976 80.8094 770.643 -187.633 486.354 -344.78Z" fill="url(#paint4_radial)"/>
<path d="M1438 1145.66V-344.78H1341.36C995.669 -185.924 751.063 206.468 751.063 665.438C751.063 837.867 785.597 1000.88 847.036 1145.66H1438Z" fill="url(#paint5_radial)"/>
<path opacity="0.2" d="M668.984 1145.66C1017.38 1029.51 1246.4 833.014 1246.4 610.101C1246.4 263.947 694.039 -18.5932 0.000976562 -35.2334V1145.66H668.984Z" fill="url(#paint6_radial)"/>
<path opacity="0.35" d="M1438 -344.78H474.5C534.433 283.149 720.825 769.871 978.174 877.14C1106.97 930.826 1236.79 882.454 1355.72 754.102L1438 -108.951V-344.78Z" fill="url(#paint7_radial)"/>
<path opacity="0.2" d="M1248.44 1145.66C1239.84 688.578 907.386 321.014 498.502 321.014C307.131 321.014 132.525 401.565 0 534.102V1145.66H1248.44Z" fill="url(#paint8_radial)"/>
<path opacity="0.25" d="M1438 -344.78H249.052C258.22 111.739 590.459 478.647 998.982 478.647C1162.93 478.647 1314.57 419.518 1438 319.245L1438 -344.78Z" fill="url(#paint9_radial)"/>
<path opacity="0.2" d="M1438 1145.66V-65.494C1365.76 -113.72 1288.42 -139.884 1208.01 -139.884C834.678 -139.884 527.518 423.325 489.771 1145.66H1438Z" fill="url(#paint10_radial)"/>
</g>
<defs>
<radialGradient id="paint0_radial" cx="0" cy="0" r="1" gradientUnits="userSpaceOnUse" gradientTransform="translate(1611.95 826.277) scale(1109.7 993.3)">
<stop stop-color="#00B7FA"/>
<stop offset="0.0212" stop-color="#00A9EC"/>
<stop offset="0.101" stop-color="#0079BA"/>
<stop offset="0.1801" stop-color="#005291"/>
<stop offset="0.2569" stop-color="#003371"/>
<stop offset="0.3308" stop-color="#001D5A"/>
<stop offset="0.4006" stop-color="#00104D"/>
<stop offset="0.462" stop-color="#000B48"/>
<stop offset="1"/>
</radialGradient>
<radialGradient id="paint1_radial" cx="0" cy="0" r="1" gradientUnits="userSpaceOnUse" gradientTransform="translate(-8.98858 350.697) rotate(-90) scale(1173.91 469.52)">
<stop stop-color="#00B7FA"/>
<stop offset="0.0212" stop-color="#00A9EC"/>
<stop offset="0.101" stop-color="#0079BA"/>
<stop offset="0.1801" stop-color="#005291"/>
<stop offset="0.2569" stop-color="#003371"/>
<stop offset="0.3308" stop-color="#001D5A"/>
<stop offset="0.4006" stop-color="#00104D"/>
<stop offset="0.462" stop-color="#000B48"/>
<stop offset="1"/>
</radialGradient>
<radialGradient id="paint2_radial" cx="0" cy="0" r="1" gradientUnits="userSpaceOnUse" gradientTransform="translate(1773.61 -71.366) scale(600.681 1737.41)">
<stop stop-color="#2986FF"/>
<stop offset="0.0465" stop-color="#2578E5"/>
<stop offset="0.1511" stop-color="#1C5CB0"/>
<stop offset="0.26" stop-color="#154481"/>
<stop offset="0.3708" stop-color="#0E2F59"/>
<stop offset="0.4842" stop-color="#091E39"/>
<stop offset="0.6008" stop-color="#051120"/>
<stop offset="0.722" stop-color="#02070E"/>
<stop offset="0.8507" stop-color="#010203"/>
<stop offset="1"/>
</radialGradient>
<radialGradient id="paint3_radial" cx="0" cy="0" r="1" gradientUnits="userSpaceOnUse" gradientTransform="translate(-132.354 405.282) scale(825.331 794.275)">
<stop stop-color="#047A3F"/>
<stop offset="1"/>
</radialGradient>
<radialGradient id="paint4_radial" cx="0" cy="0" r="1" gradientUnits="userSpaceOnUse" gradientTransform="translate(-98.5361 385.59) scale(1056.09 876.681)">
<stop stop-color="#05AFFD"/>
<stop offset="1" stop-color="#00101E"/>
</radialGradient>
<radialGradient id="paint5_radial" cx="0" cy="0" r="1" gradientUnits="userSpaceOnUse" gradientTransform="translate(1683.51 665.44) rotate(180) scale(932.098 1085.33)">
<stop stop-color="#27A9E0"/>
<stop offset="0.1037" stop-color="#1E84AF"/>
<stop offset="0.2167" stop-color="#166181"/>
<stop offset="0.334" stop-color="#104359"/>
<stop offset="0.454" stop-color="#0A2B39"/>
<stop offset="0.5774" stop-color="#061820"/>
<stop offset="0.7057" stop-color="#020B0E"/>
<stop offset="0.842" stop-color="#010303"/>
<stop offset="1"/>
</radialGradient>
<radialGradient id="paint6_radial" cx="0" cy="0" r="1" gradientUnits="userSpaceOnUse" gradientTransform="translate(-64.7557 610.116) scale(1310.58 645.766)">
<stop stop-color="#2CD6A8"/>
<stop offset="1" stop-color="#000403"/>
</radialGradient>
<radialGradient id="paint7_radial" cx="0" cy="0" r="1" gradientUnits="userSpaceOnUse" gradientTransform="translate(1156.16 -989.585) rotate(-84.5531) scale(1875.04 702.995)">
<stop stop-color="#2986FF"/>
<stop offset="1"/>
</radialGradient>
<radialGradient id="paint8_radial" cx="0" cy="0" r="1" gradientUnits="userSpaceOnUse" gradientTransform="translate(498.492 1163.82) scale(750.126 842.784)">
<stop stop-color="#0568FD"/>
<stop offset="1" stop-color="#01080B"/>
</radialGradient>
<radialGradient id="paint9_radial" cx="0" cy="0" r="1" gradientUnits="userSpaceOnUse" gradientTransform="translate(998.987 -364.151) rotate(180) scale(750.126 842.784)">
<stop stop-color="#05AFFD"/>
<stop offset="1" stop-color="#000B10"/>
</radialGradient>
<radialGradient id="paint10_radial" cx="0" cy="0" r="1" gradientUnits="userSpaceOnUse" gradientTransform="translate(1208.01 1295.75) scale(722.14 1435.63)">
<stop stop-color="#45FCCA"/>
<stop offset="1" stop-color="#002023"/>
</radialGradient>
</defs>
</svg>
