<svg width="49" height="82" viewBox="0 0 49 82" fill="none" xmlns="http://www.w3.org/2000/svg">
<g opacity="0.12">
<circle r="5.19699" transform="matrix(-1 8.74228e-08 8.74228e-08 1 43.803 5.19699)" fill="white"/>
<circle r="5.19699" transform="matrix(-1 8.74228e-08 8.74228e-08 1 24.4998 18.5612)" fill="white"/>
<circle r="5.19699" transform="matrix(-1 8.74228e-08 8.74228e-08 1 5.19657 5.19699)" fill="white"/>
<circle r="5.19699" transform="matrix(-1 8.74228e-08 8.74228e-08 1 43.803 24.4997)" fill="white"/>
<circle r="5.19699" transform="matrix(-1 8.74228e-08 8.74228e-08 1 24.4998 37.864)" fill="white"/>
<circle r="5.19699" transform="matrix(-1 8.74228e-08 8.74228e-08 1 5.19657 24.4997)" fill="white"/>
<circle r="5.19699" transform="matrix(-1 8.74228e-08 8.74228e-08 1 43.803 43.8034)" fill="white"/>
<circle r="5.19699" transform="matrix(-1 8.74228e-08 8.74228e-08 1 24.4998 57.1667)" fill="white"/>
<circle r="5.19699" transform="matrix(-1 8.74228e-08 8.74228e-08 1 5.19657 43.8034)" fill="white"/>
<circle r="5.19699" transform="matrix(-1 8.74228e-08 8.74228e-08 1 43.803 63.1062)" fill="white"/>
<circle r="5.19699" transform="matrix(-1 8.74228e-08 8.74228e-08 1 24.4998 76.4694)" fill="white"/>
<circle r="5.19699" transform="matrix(-1 8.74228e-08 8.74228e-08 1 5.19657 63.1062)" fill="white"/>
</g>
</svg>
