<svg width="169" height="382" viewBox="0 0 169 382" fill="none" xmlns="http://www.w3.org/2000/svg">
<path opacity="0.5" d="M85.5495 103.428C89.0794 93.9693 90.8443 89.2399 93.7999 85.5195C96.415 82.2277 99.6929 79.5223 103.421 77.5787C107.634 75.3821 112.612 74.5459 122.569 72.8735L212.708 57.7325C222.665 56.0601 227.643 55.2239 232.343 55.9234C236.501 56.5422 240.483 58.0282 244.03 60.2849C248.039 62.8355 251.252 66.7286 257.679 74.5149L315.861 145.008C322.288 152.794 325.501 156.687 327.245 161.107C328.788 165.018 329.492 169.209 329.312 173.409C329.107 178.156 327.342 182.886 323.812 192.344L291.855 277.978C288.325 287.437 286.56 292.166 283.605 295.887C280.99 299.178 277.712 301.884 273.984 303.827C269.771 306.024 264.792 306.86 254.836 308.533L164.696 323.674C154.74 325.346 149.762 326.182 145.062 325.483C140.904 324.864 136.922 323.378 133.375 321.121C129.366 318.571 126.152 314.677 119.726 306.891L61.5435 236.398C55.117 228.612 51.9037 224.719 50.1595 220.299C48.6163 216.389 47.9123 212.197 48.0931 207.997C48.2974 203.25 50.0623 198.52 53.5922 189.062L85.5495 103.428Z" fill="url(#paint0_linear)"/>
<defs>
<linearGradient id="paint0_linear" x1="84.2874" y1="108.672" x2="48.6046" y2="337.026" gradientUnits="userSpaceOnUse">
<stop stop-color="#00D46A"/>
<stop offset="1" stop-color="#1262FF"/>
</linearGradient>
</defs>
</svg>
