<svg width="83" height="82" viewBox="0 0 83 82" fill="none" xmlns="http://www.w3.org/2000/svg">
<g clip-path="url(#clip0)">
<path d="M78.3883 48.5188C78.3883 43.8324 76.1172 39.5769 72.3442 36.9828C74.057 34.8235 75.0108 32.131 75.0108 29.3376C75.0108 25.0269 72.7253 21.0325 69.0892 18.8206C69.213 18.1943 69.2755 17.556 69.2755 16.9109C69.2755 11.4996 64.8731 7.09712 59.4617 7.09712C58.7871 7.09712 58.1238 7.16419 57.4755 7.2977C56.7412 3.22132 53.1678 0.119141 48.8832 0.119141C45.9373 0.119141 43.3277 1.58547 41.7459 3.82671C40.1641 1.58547 37.5545 0.119141 34.6086 0.119141C30.3238 0.119141 26.7501 3.22211 26.0161 7.29866C25.7384 7.24162 25.4579 7.19622 25.1749 7.1634C24.3005 7.0616 23.5099 7.68754 23.4081 8.56154C23.3063 9.43538 23.9324 10.2264 24.8063 10.3282C25.4921 10.4082 26.1576 10.5944 26.7845 10.8815C26.7912 10.8847 26.7972 10.8885 26.8039 10.8917C28.0552 11.4684 29.0809 12.4037 29.7696 13.5968C30.0648 14.1079 30.6002 14.3937 31.1508 14.3937C31.421 14.3937 31.695 14.3248 31.946 14.1799C32.708 13.7401 32.9691 12.7657 32.5292 12.0037C31.6874 10.5458 30.5056 9.34856 29.077 8.49447C29.2607 5.60259 31.6708 3.30543 34.6086 3.30543C37.6657 3.30543 40.1527 5.7925 40.1527 8.84958V41.3713C37.4728 41.0265 34.9946 39.8175 33.0526 37.8754C32.4304 37.2536 31.4217 37.2535 30.7995 37.8754C30.1773 38.4976 30.1773 39.5063 30.7995 40.1286C33.3446 42.6737 36.6198 44.2229 40.1527 44.5816V70.7593C40.1527 75.0286 36.6794 78.502 32.41 78.502C29.4659 78.502 26.8352 76.8279 25.5318 74.3142C26.4227 74.2745 27.3075 74.1398 28.1693 73.9088C29.019 73.6809 29.5234 72.8073 29.2956 71.9575C29.0676 71.1075 28.1941 70.6028 27.3442 70.8311C26.1001 71.1646 24.7814 71.2299 23.5128 71.0218C23.5087 71.0212 23.5047 71.021 23.5005 71.0204C19.1224 70.3036 15.9363 66.5884 15.8759 62.1566C16.9357 62.4093 18.0215 62.5386 19.123 62.5386C20.3472 62.5386 21.5681 62.3779 22.7514 62.0608C23.6014 61.8332 24.1058 60.9597 23.8781 60.1099C23.6505 59.2599 22.7772 58.7552 21.927 58.9832C21.0122 59.2281 20.0689 59.3523 19.1229 59.3523C17.7249 59.3523 16.3588 59.0866 15.0624 58.5626C15.0518 58.5583 15.0408 58.5554 15.0301 58.5515C10.9348 56.8788 8.28981 52.945 8.28981 48.5188C8.28981 44.3549 10.6105 40.6313 14.3482 38.7926C14.3575 38.7883 14.3669 38.7854 14.3761 38.781C14.9981 38.4778 15.6517 38.2333 16.3191 38.0545C17.1691 37.8269 17.6734 36.9535 17.4459 36.1035C17.2184 35.2536 16.3444 34.7487 15.4948 34.9769C14.9997 35.1096 14.5114 35.273 14.0323 35.4598C12.5195 33.7913 11.6673 31.6094 11.6673 29.3375C11.6673 26.3431 13.1564 23.555 15.5627 21.8673C16.4177 23.3275 17.6401 24.5536 19.1234 25.4097C19.3743 25.5545 19.6481 25.6235 19.9185 25.6235C20.4691 25.6235 21.0046 25.3377 21.2996 24.8266C21.7396 24.0646 21.4785 23.0904 20.7165 22.6504C19.3431 21.8573 18.2983 20.5963 17.7746 19.0996C17.7724 19.093 17.7692 19.0871 17.767 19.0806C17.6108 18.6298 17.5031 18.1612 17.4479 17.6874C17.3459 16.8136 16.5544 16.1887 15.6809 16.2897C14.8069 16.3917 14.1811 17.1827 14.2831 18.0569C14.313 18.3126 14.353 18.5676 14.403 18.8205C10.7668 21.0324 8.48099 25.0269 8.48099 29.3375C8.48099 32.1309 9.43464 34.8235 11.1476 36.9826C7.37455 39.5769 5.10352 43.8324 5.10352 48.5188C5.10352 53.8416 8.05848 58.6146 12.7299 60.9997C12.7012 61.3422 12.6869 61.6861 12.6869 62.029C12.6869 64.9663 13.7392 67.8096 15.6501 70.0357C17.3064 71.9648 19.5158 73.3303 21.955 73.95C23.3396 78.4921 27.5771 81.6883 32.41 81.6883C36.359 81.6883 39.8252 79.5832 41.7459 76.4363C43.6666 79.5832 47.133 81.6883 51.0817 81.6883C55.9149 81.6883 60.1523 78.4921 61.5368 73.95C63.976 73.3301 66.1854 71.9648 67.8416 70.0357C69.7526 67.8096 70.8049 64.9663 70.8049 62.029C70.8049 61.6861 70.7906 61.3422 70.7619 60.9997C75.4331 58.6146 78.3883 53.8416 78.3883 48.5188ZM68.4292 58.565C67.7261 58.8494 67.3212 59.5902 67.461 60.3355C67.5655 60.8926 67.6186 61.4623 67.6186 62.0288C67.6186 66.5204 64.4065 70.3027 59.9812 71.0221C59.3251 71.1287 58.8044 71.6314 58.6744 72.2831C57.9558 75.8867 54.7627 78.502 51.0817 78.502C46.8124 78.502 43.339 75.0286 43.339 70.7593V64.1687H45.3956L46.9926 65.7659C46.1465 67.5421 46.4568 69.7362 47.9254 71.2047C48.8572 72.1365 50.0811 72.6022 51.3049 72.6022C52.5288 72.6022 53.7528 72.1364 54.6845 71.2047C56.548 69.3412 56.548 66.3091 54.6845 64.4455C53.2159 62.9769 51.0218 62.6666 49.2456 63.5127L47.182 61.4489C46.8833 61.1502 46.478 60.9823 46.0555 60.9823H43.339V55.8148H48.5767C48.8064 56.4675 49.1814 57.08 49.7025 57.6012C50.6344 58.533 51.8582 58.9987 53.0821 58.9987C54.3059 58.9987 55.53 58.5327 56.4616 57.6012C58.325 55.7376 58.325 52.7056 56.4616 50.8419C54.5981 48.9786 51.5659 48.9786 49.7024 50.8419C49.1813 51.363 48.8061 51.9756 48.5765 52.6285H43.339V44.6624H59.122L60.7169 46.2575C60.4128 46.893 60.2519 47.5933 60.2519 48.3187C60.2519 49.5954 60.7491 50.7957 61.6518 51.6984C62.5836 52.6301 63.8075 53.0957 65.0313 53.0957C66.2552 53.0957 67.4792 52.6299 68.411 51.6984C69.3137 50.7955 69.8108 49.5954 69.8108 48.3187C69.8108 47.0419 69.3137 45.8418 68.411 44.9391C66.9425 43.4706 64.7484 43.1604 62.9722 44.0064L60.9086 41.9426C60.6099 41.6439 60.2046 41.476 59.7821 41.476H43.339V36.4993H55.89C56.3125 36.4993 56.7178 36.3314 57.0165 36.0327L59.0781 33.9711C59.7136 34.2753 60.4141 34.4363 61.1394 34.4363C62.4162 34.4363 63.6163 33.9391 64.519 33.0364C65.4216 32.1337 65.9189 30.9335 65.9189 29.6567C65.9189 28.38 65.4216 27.1799 64.519 26.2772C63.6163 25.3745 62.416 24.8773 61.1394 24.8773C59.8628 24.8773 58.6626 25.3745 57.7599 26.2772C56.857 27.1799 56.36 28.38 56.36 29.6567C56.36 30.3821 56.5209 31.0826 56.825 31.7181L55.2301 33.3131H43.339V25.8652H48.0039C48.4264 25.8652 48.8317 25.6973 49.1304 25.3986L51.192 23.3369C51.8275 23.641 52.5278 23.8019 53.2532 23.8019C54.5299 23.8019 55.7301 23.3047 56.6327 22.402C57.5356 21.4993 58.0326 20.2992 58.0326 19.0225C58.0326 17.7457 57.5354 16.5454 56.6327 15.6428C55.7301 14.7401 54.5298 14.2429 53.2532 14.2429C51.9766 14.2429 50.7763 14.7401 49.8736 15.6428C48.971 16.5454 48.4738 17.7457 48.4738 19.0225C48.4738 19.7478 48.6347 20.4483 48.9388 21.0837L47.3439 22.6787H43.339V8.84958C43.339 5.79265 45.8261 3.30543 48.8832 3.30543C51.9403 3.30543 54.4273 5.7925 54.4273 8.84958V9.44367C54.4273 9.98693 54.7042 10.4929 55.1619 10.7857C55.6193 11.0786 56.1948 11.1177 56.6882 10.8901C57.5603 10.4877 58.4935 10.2834 59.4617 10.2834C63.116 10.2834 66.0892 13.2564 66.0892 16.9109C66.0892 17.6613 65.9646 18.398 65.7189 19.1004C65.4486 19.8734 65.8081 20.7254 66.5506 21.0708C69.7544 22.5615 71.8245 25.8066 71.8245 29.3376C71.8245 31.9405 70.7064 34.4255 68.7572 36.1553C68.3597 36.5082 68.1642 37.0359 68.2361 37.5625C68.3081 38.0892 68.6379 38.5452 69.1155 38.7784C72.8698 40.6122 75.202 44.3446 75.202 48.5189C75.202 52.9566 72.5435 56.9 68.4292 58.565ZM51.3049 66.2327C51.7129 66.2327 52.1209 66.3882 52.4314 66.6987C53.0526 67.3197 53.0526 68.3305 52.4314 68.9517C51.8104 69.5727 50.7996 69.5727 50.1784 68.9517C49.5572 68.3307 49.5572 67.3198 50.1784 66.6987C50.4891 66.3882 50.8971 66.2327 51.3049 66.2327ZM51.9556 53.0953C52.5769 52.4739 53.5876 52.4742 54.2088 53.0953C54.8299 53.7163 54.8299 54.7271 54.2088 55.3483C53.5877 55.9694 52.5767 55.9693 51.9557 55.3483C51.3346 54.7273 51.3346 53.7164 51.9556 53.0953ZM63.9048 47.1926C64.2153 46.882 64.6233 46.7266 65.0313 46.7266C65.4393 46.7266 65.8473 46.8821 66.158 47.1926C66.4588 47.4936 66.6245 47.8935 66.6245 48.319C66.6245 48.7447 66.4588 49.1447 66.158 49.4455C65.537 50.0664 64.5261 50.0667 63.9048 49.4455C63.6039 49.1446 63.4382 48.7447 63.4382 48.319C63.4382 47.8935 63.6039 47.4934 63.9048 47.1926ZM60.0129 30.7837C59.712 30.4828 59.5463 30.0829 59.5463 29.6572C59.5463 29.2317 59.712 28.8316 60.0129 28.5308C60.3139 28.2299 60.7139 28.0642 61.1394 28.0642C61.565 28.0642 61.965 28.2299 62.2659 28.5308C62.5669 28.8318 62.7326 29.2317 62.7326 29.6572C62.7326 30.0829 62.5669 30.4829 62.2659 30.7837C61.965 31.0847 61.5651 31.2503 61.1394 31.2503C60.7139 31.2502 60.3139 31.0845 60.0129 30.7837ZM52.1268 20.1493C52.1267 20.1493 52.1267 20.1493 52.1268 20.1493C51.8259 19.8484 51.6602 19.4485 51.6602 19.0229C51.6602 18.5973 51.8259 18.1972 52.1268 17.8964C52.4278 17.5955 52.8278 17.4298 53.2533 17.4298C53.6789 17.4298 54.0789 17.5955 54.3799 17.8964C54.6808 18.1974 54.8465 18.5973 54.8465 19.0229C54.8465 19.4485 54.6808 19.8485 54.3799 20.1493C54.0789 20.4502 53.679 20.6159 53.2533 20.6159C52.8278 20.6158 52.4278 20.4501 52.1268 20.1493Z" fill="url(#paint0_linear)"/>
<path d="M22.882 36.0914C22.882 38.3153 21.3818 40.2702 19.2339 40.846C18.3841 41.0738 17.8797 41.9473 18.1074 42.7973C18.2981 43.5091 18.9417 43.9784 19.6452 43.9784C19.7816 43.9784 19.9205 43.9607 20.0587 43.9236C23.597 42.9754 26.0685 39.7547 26.0685 36.0914C26.0685 34.67 25.6928 33.268 24.9821 32.0372C24.5421 31.2752 23.5679 31.0139 22.8059 31.4541C22.0439 31.8941 21.7828 32.8683 22.2228 33.6303C22.6539 34.3775 22.882 35.2286 22.882 36.0914Z" fill="url(#paint1_linear)"/>
<path d="M31.1028 63.2202C31.2411 63.2572 31.3799 63.275 31.5164 63.275C32.2196 63.275 32.8634 62.8057 33.0541 62.094C33.2375 61.4101 33.3305 60.7038 33.3305 59.9952C33.3305 55.5242 29.6931 51.8867 25.2221 51.8867C24.3422 51.8867 23.6289 52.6001 23.6289 53.4799C23.6289 54.3596 24.3422 55.073 25.2221 55.073C27.9361 55.073 30.1442 57.2811 30.1442 59.9952C30.1442 60.4254 30.0878 60.8539 29.9765 61.2688C29.7488 62.1187 30.2531 62.9922 31.1028 63.2202Z" fill="url(#paint2_linear)"/>
<path d="M37.1994 21.2236C37.8216 20.6013 37.8216 19.5927 37.1994 18.9704C36.5773 18.3484 35.5685 18.3484 34.9464 18.9704C34.0168 19.9001 32.7807 20.4122 31.4659 20.4122C30.151 20.4122 28.9151 19.9001 27.9853 18.9704C27.3633 18.3486 26.3544 18.3486 25.7323 18.9704C25.1102 19.5925 25.11 20.6011 25.7323 21.2236C27.2638 22.7551 29.3 23.5985 31.4659 23.5985C33.6317 23.5985 35.6679 22.7551 37.1994 21.2236Z" fill="url(#paint3_linear)"/>
<path d="M18.2167 12.6902C19.0966 12.6902 19.8098 11.9768 19.8098 11.0971C19.8098 10.2173 19.0966 9.50391 18.2167 9.50391H18.2156C17.3357 9.50391 16.623 10.2173 16.623 11.0971C16.623 11.9768 17.3368 12.6902 18.2167 12.6902Z" fill="url(#paint4_linear)"/>
</g>
<defs>
<linearGradient id="paint0_linear" x1="41.7459" y1="0.119141" x2="41.7459" y2="81.6883" gradientUnits="userSpaceOnUse">
<stop stop-color="#00D46A"/>
<stop offset="1" stop-color="#1262FF"/>
</linearGradient>
<linearGradient id="paint1_linear" x1="22.0606" y1="31.2402" x2="22.0606" y2="43.9784" gradientUnits="userSpaceOnUse">
<stop stop-color="#00D46A"/>
<stop offset="1" stop-color="#1262FF"/>
</linearGradient>
<linearGradient id="paint2_linear" x1="28.4797" y1="51.8867" x2="28.4797" y2="63.275" gradientUnits="userSpaceOnUse">
<stop stop-color="#00D46A"/>
<stop offset="1" stop-color="#1262FF"/>
</linearGradient>
<linearGradient id="paint3_linear" x1="31.4658" y1="18.5039" x2="31.4658" y2="23.5985" gradientUnits="userSpaceOnUse">
<stop stop-color="#00D46A"/>
<stop offset="1" stop-color="#1262FF"/>
</linearGradient>
<linearGradient id="paint4_linear" x1="18.2164" y1="9.50391" x2="18.2164" y2="12.6902" gradientUnits="userSpaceOnUse">
<stop stop-color="#00D46A"/>
<stop offset="1" stop-color="#1262FF"/>
</linearGradient>
<clipPath id="clip0">
<rect width="81.5691" height="81.5691" fill="white" transform="translate(0.960938 0.119141)"/>
</clipPath>
</defs>
</svg>
