<svg width="69" height="259" viewBox="0 0 69 259" fill="none" xmlns="http://www.w3.org/2000/svg">
<path opacity="0.5" d="M54.4341 78.2344C57.964 68.7757 59.7289 64.0464 62.6845 60.326C65.2997 57.0342 68.5775 54.3287 72.3055 52.3852C76.5188 50.1886 81.497 49.3524 91.4534 47.68L135.412 40.2961C145.368 38.6237 150.347 37.7875 155.046 38.487C159.205 39.1058 163.187 40.5918 166.734 42.8485C170.743 45.3991 173.956 49.2922 180.382 57.0785L208.756 91.4558C215.183 99.2421 218.396 103.135 220.14 107.555C221.684 111.466 222.388 115.657 222.207 119.857C222.002 124.605 220.238 129.334 216.708 138.793L201.123 180.554C197.593 190.013 195.828 194.742 192.873 198.462C190.257 201.754 186.98 204.46 183.252 206.403C179.038 208.6 174.06 209.436 164.104 211.108L120.145 218.492C110.189 220.165 105.211 221.001 100.511 220.301C96.3524 219.682 92.3706 218.196 88.8234 215.94C84.8145 213.389 81.6012 209.496 75.1746 201.71L46.8008 167.332C40.3742 159.546 37.1609 155.653 35.4168 151.233C33.8736 147.322 33.1695 143.131 33.3503 138.931C33.5547 134.184 35.3196 129.454 38.8495 119.996L54.4341 78.2344Z" fill="url(#paint0_linear)"/>
<defs>
<linearGradient id="paint0_linear" x1="56.6648" y1="73.5251" x2="32.3623" y2="229.05" gradientUnits="userSpaceOnUse">
<stop stop-color="#00D46A"/>
<stop offset="1" stop-color="#1262FF"/>
</linearGradient>
</defs>
</svg>
