<svg width="80" height="80" viewBox="0 0 80 80" fill="none" xmlns="http://www.w3.org/2000/svg">
<path d="M40.8127 0.00970278C21.6476 -0.439042 5.74734 14.7337 5.29883 33.899C5.29788 34.3216 5.44976 34.7301 5.72666 35.0494L38.8977 79.8193H39.1544L39.2875 79.9143L39.4301 79.9999H39.8484H39.9625H40.7136H40.7801H40.8657H40.9322L41.0844 79.8953L41.322 79.6957C41.381 79.6301 41.4352 79.5602 41.4837 79.4865L74.2744 35.0494C74.5513 34.7301 74.7032 34.3216 74.7022 33.899C74.2682 15.3652 59.3467 0.443474 40.8127 0.00970278ZM8.88285 33.3761C9.24104 30.2075 11.8496 27.7699 15.035 27.6268C18.6124 27.4661 21.6426 30.236 21.8033 33.8134C21.8033 33.8419 21.8033 33.899 21.8033 33.899C21.8033 34.1376 21.8518 34.3736 21.9459 34.593L34.0772 67.5358L8.88285 33.3761ZM38.2607 33.8895C38.2562 33.9622 38.2562 34.0354 38.2607 34.1081V68.7052L25.3212 33.6233C25.5777 30.3765 28.2027 27.8238 31.4554 27.6581C35.0318 27.4761 38.0786 30.2275 38.2607 33.8039C38.2607 33.8324 38.2607 33.8895 38.2607 33.8895ZM40.01 28.4513C39.6404 27.9132 39.219 27.4124 38.7522 26.956C38.3405 26.5541 37.8947 26.1886 37.42 25.8636C32.8708 22.7488 26.658 23.9118 23.5434 28.4608C20.4929 24.0128 14.4632 22.7883 9.91939 25.6942C12.8284 15.045 21.148 6.72543 31.7971 3.81643C48.4209 -0.724737 65.5785 9.0704 70.1197 25.6942C68.512 24.6605 66.6403 24.1126 64.729 24.116C61.4355 24.1171 58.3534 25.7384 56.4862 28.4513C55.7912 27.4388 54.9156 26.5631 53.9031 25.8682C49.3531 22.745 43.1329 23.9016 40.01 28.4513ZM41.7689 33.9275C41.8533 30.5923 44.4549 27.8654 47.7825 27.6246C51.3542 27.366 54.4593 30.0516 54.7178 33.6233L41.7689 68.7052V33.9275ZM45.9426 67.5358L58.1405 34.4979C58.218 34.285 58.2534 34.0589 58.2451 33.8324C58.3815 30.6434 60.8185 28.0282 63.9896 27.6672C67.5477 27.2622 70.7602 29.8182 71.1655 33.3761L45.9426 67.5358Z" fill="url(#paint0_linear)"/>
<defs>
<linearGradient id="paint0_linear" x1="40.6158" y1="0" x2="40.6158" y2="80" gradientUnits="userSpaceOnUse">
<stop stop-color="#00D46A"/>
<stop offset="1" stop-color="#1262FF"/>
</linearGradient>
</defs>
</svg>
