<svg width="70" height="70" viewBox="0 0 70 70" fill="none" xmlns="http://www.w3.org/2000/svg">
<path d="M68.6328 67.2656H64.8047V16.1328C64.8047 15.3777 64.1927 14.7656 63.4375 14.7656H50.5859V1.36719C50.5859 0.61203 49.9739 0 49.2188 0H35C34.2448 0 33.6328 0.61203 33.6328 1.36719V44.2969H22.1484V30.3516C22.1484 29.5964 21.5364 28.9844 20.7812 28.9844H6.5625C5.80734 28.9844 5.19531 29.5964 5.19531 30.3516V44.0234C5.19531 44.7786 5.80734 45.3906 6.5625 45.3906C7.31766 45.3906 7.92969 44.7786 7.92969 44.0234V31.7188H19.4141V67.2656H7.92969V54.9609C7.92969 54.2058 7.31766 53.5938 6.5625 53.5938C5.80734 53.5938 5.19531 54.2058 5.19531 54.9609V67.2656H1.36719C0.61203 67.2656 0 67.8777 0 68.6328C0 69.388 0.61203 70 1.36719 70H68.6328C69.388 70 70 69.388 70 68.6328C70 67.8777 69.388 67.2656 68.6328 67.2656ZM22.1484 47.0312H33.6328V67.2656H22.1484V47.0312ZM36.3672 2.73438H47.8516V67.2656H36.3672V2.73438ZM50.5859 67.2656V17.5H62.0703V67.2656H50.5859Z" fill="url(#paint0_linear)"/>
<path d="M6.5625 50.8594C6.92192 50.8594 7.27493 50.713 7.52914 50.4588C7.78336 50.2046 7.92969 49.8516 7.92969 49.4922C7.92969 49.1328 7.78336 48.7798 7.52914 48.5255C7.27493 48.2713 6.92192 48.125 6.5625 48.125C6.20308 48.125 5.85007 48.2713 5.59586 48.5255C5.34164 48.7798 5.19531 49.1328 5.19531 49.4922C5.19531 49.8516 5.34164 50.2046 5.59586 50.4588C5.85007 50.713 6.20308 50.8594 6.5625 50.8594Z" fill="url(#paint1_linear)"/>
<defs>
<linearGradient id="paint0_linear" x1="35" y1="0" x2="35" y2="70" gradientUnits="userSpaceOnUse">
<stop stop-color="#00D46A"/>
<stop offset="1" stop-color="#1262FF"/>
</linearGradient>
<linearGradient id="paint1_linear" x1="6.5625" y1="48.125" x2="6.5625" y2="50.8594" gradientUnits="userSpaceOnUse">
<stop stop-color="#00D46A"/>
<stop offset="1" stop-color="#1262FF"/>
</linearGradient>
</defs>
</svg>
