
<svg width="445" height="301" viewBox="0 0 445 301" fill="none" xmlns="http://www.w3.org/2000/svg">
<g clip-path="url(#clip0)">
<path d="M49.8083 322.009C49.8083 322.009 66.878 330.7 85.9666 327.492C86.8176 327.345 87.6748 327.174 88.5382 326.985C89.1159 326.857 89.6936 326.717 90.2651 326.571C90.6875 326.455 90.6254 274.216 91.7683 270.977C93.3834 266.445 97.2098 263.06 98.6633 258.455C100.017 254.162 100.632 249.941 100.589 245.428C100.514 238.847 99.4895 232.308 97.9614 225.91C97.862 225.508 97.8123 225.093 97.7937 224.672C97.5328 219.628 102.26 213.108 104.769 208.979C107.068 205.204 110.248 202.246 112.733 198.659C113.093 198.147 113.422 197.629 113.739 197.098C115.143 194.756 116.398 190.194 114.95 187.596C114.901 187.504 114.783 187.388 114.596 187.254C113.217 186.223 108.527 184.162 107.968 184.625C107.813 184.753 102.688 188.98 102.688 188.98L99.2224 191.536L90.0228 183.277C90.0228 183.277 79.1213 187.132 70.2386 190.365C64.3934 192.505 59.4302 194.353 59.0202 194.664C53.6658 198.781 50.8643 207.186 49.6219 210.748C46.6714 219.268 45.5905 221.757 46.9074 226.484C48.0069 230.424 49.6406 233.278 50.6282 237.255C52.5911 245.196 54.3056 253.235 56.5728 261.096C56.6163 261.237 57.3803 263.524 57.43 263.487C58.132 262.841 49.8083 322.009 49.8083 322.009Z" fill="#D1BFB1"/>
<path d="M49.8031 322.009C49.8031 322.009 66.8728 330.7 85.9613 327.492C86.8123 327.345 87.6696 327.174 88.533 326.985C88.6013 326.796 88.738 326.619 88.7069 326.424C87.5515 319.49 87.8683 272.715 88.2783 270.337C88.6696 267.976 90.0549 266.445 91.7382 264.896C93.316 263.445 94.2664 261.468 95.1671 259.529C97.1362 255.272 98.3102 250.661 98.6456 245.995C99.155 238.902 97.0803 232.266 95.7448 225.398C94.7882 220.464 99.4035 214.609 102.106 210.894C105.292 206.515 108.473 202.148 111.659 197.769C112.951 196 114.274 194.152 114.684 192.011C115.082 189.925 114.361 187.943 112.765 186.528C112.057 185.894 108.932 183.832 107.963 184.619C107.808 184.747 102.683 188.974 102.683 188.974L99.2171 191.529L90.0176 183.277C90.0176 183.277 60.0337 193.884 59.0212 194.664C53.6667 198.781 50.8653 207.186 49.6229 210.748C46.6724 219.268 45.5915 221.757 46.9084 226.484C48.0079 230.424 49.6415 233.278 50.6292 237.255C52.5921 245.196 54.3065 253.235 56.5738 261.096C56.6173 261.237 57.3813 263.524 57.431 263.487C58.1267 262.841 49.8031 322.009 49.8031 322.009Z" fill="#F8EDE8"/>
<path d="M60.4845 251.116C60.1739 250.28 59.9813 249.384 59.913 248.42C59.5279 242.858 60.5963 236.819 61.7765 231.391C62.5033 228.061 63.8885 224.853 64.5718 221.541C65.2488 218.284 63.8636 218.51 62.8822 215.54C62.1057 213.198 64.6774 209.965 65.6961 207.824C66.4663 206.208 69.479 201.841 69.1125 200.029C69.1436 200.176 71.9388 214.057 71.9388 214.057C74.8273 212.411 77.7157 210.776 80.6042 209.129C83.4802 207.495 86.3562 205.866 89.2322 204.232C91.5554 202.908 92.8971 200.365 95.0091 198.645C97.1335 196.919 99.5623 195.553 102.159 194.65C102.817 194.418 103.513 194.217 104.215 194.26C104.917 194.302 105.637 194.644 105.96 195.254C106.383 196.065 105.991 197.096 105.314 197.712C104.637 198.34 103.73 198.651 102.873 199.011C98.6553 200.78 95.0898 203.951 92.7667 207.818C89.6981 212.935 88.9216 219.717 91.5305 225.127C93.5431 229.299 94.8911 233.782 95.4253 238.369C96.1582 244.706 95.9036 252.592 91.7852 257.892C88.8222 261.704 83.9709 262.222 79.4488 262.265C75.4547 262.302 71.5351 261.051 68.1497 259.002C64.8575 257.002 61.7516 254.556 60.4845 251.116Z" fill="#D1BFB1"/>
<path d="M72.8944 214.975C81.3485 207.113 102.53 201.166 112.73 198.653C113.09 198.141 113.42 197.623 113.736 197.092C115.14 194.75 116.395 190.188 114.948 187.589C114.898 187.498 114.78 187.382 114.594 187.248C113.215 186.217 108.525 184.156 107.966 184.619C107.81 184.747 102.686 188.974 102.686 188.974L99.2196 191.529L90.0139 183.277C90.0139 183.277 79.1123 187.132 70.2296 190.365C67.7698 204.246 65.8007 221.562 72.8944 214.975Z" fill="#F4E7E1"/>
<path d="M123.225 167.025C123.225 188.537 106.52 205.974 85.9152 205.974C65.3106 205.974 48.6055 188.537 48.6055 167.025C48.6055 145.515 65.3106 128.078 85.9152 128.078C106.52 128.078 123.225 145.515 123.225 167.025Z" fill="#00743A"/>
<path d="M120.216 167.025C120.216 188.537 103.511 205.974 82.9084 205.974C62.3018 205.974 45.5986 188.537 45.5986 167.025C45.5986 145.515 62.3018 128.078 82.9084 128.078C103.511 128.078 120.216 145.515 120.216 167.025Z" fill="#00D46A"/>
<path d="M117.712 167.025C117.712 188.537 101.007 205.974 80.4026 205.974C59.7979 205.974 43.0947 188.537 43.0947 167.025C43.0947 145.515 59.7979 128.078 80.4026 128.078C101.007 128.078 117.712 145.515 117.712 167.025Z" fill="#11F985"/>
<path d="M112.2 167.024C112.2 185.357 97.9641 200.216 80.4027 200.216C62.8432 200.216 48.6055 185.357 48.6055 167.024C48.6055 148.693 62.8432 133.832 80.4027 133.832C97.9641 133.834 112.2 148.693 112.2 167.024Z" fill="url(#paint0_linear)"/>
<path d="M83.7095 196.763C66.1499 196.763 51.9141 181.906 51.9141 163.571C51.9141 155.284 54.8294 147.714 59.6399 141.898C52.8853 147.983 48.6055 156.98 48.6055 167.025C48.6055 185.358 62.8431 200.217 80.4027 200.217C90.0256 200.217 98.6416 195.75 104.474 188.698C98.9013 193.72 91.6479 196.763 83.7095 196.763Z" fill="#33C47B"/>
<g opacity="0.8" clip-path="url(#clip1)">
<path d="M83.4326 189.347C83.1831 189.347 82.9455 189.232 82.7826 189.032L63.2657 164.828C63.04 164.548 63.0027 164.151 63.1707 163.832L70.0135 150.824C70.1628 150.54 70.4479 150.363 70.7568 150.363H96.1084C96.419 150.363 96.7041 150.54 96.8517 150.824L103.693 163.832C103.863 164.153 103.823 164.548 103.598 164.828L84.0809 189.032C83.9197 189.232 83.6821 189.347 83.4326 189.347ZM64.9408 164.151L83.4326 187.086L101.924 164.151L95.606 152.135H71.2592L64.9408 164.151Z" fill="#8DFFC6"/>
<path d="M102.524 165.424H64.3388C63.8704 165.424 63.4902 165.027 63.4902 164.538C63.4902 164.049 63.8704 163.652 64.3388 163.652H102.524C102.992 163.652 103.373 164.049 103.373 164.538C103.373 165.027 102.992 165.424 102.524 165.424Z" fill="#8DFFC6"/>
<path d="M92.0217 164.927C91.7553 164.927 91.4922 164.796 91.3276 164.55L83.4343 152.796L75.6412 164.488C75.3764 164.89 74.8452 164.988 74.4617 164.709C74.0747 164.429 73.9814 163.878 74.2495 163.476L82.7351 150.742C82.8929 150.505 83.1526 150.363 83.4292 150.363H83.4309C83.7076 150.363 83.9655 150.503 84.1251 150.741L92.7159 163.533C92.9857 163.935 92.8924 164.486 92.5088 164.766C92.3629 164.874 92.1915 164.927 92.0217 164.927Z" fill="#8DFFC6"/>
<path d="M83.4312 189.346C83.0714 189.346 82.7523 189.11 82.6318 188.758L69.9561 151.546C69.7999 151.083 70.0307 150.576 70.4703 150.413C70.9149 150.243 71.3986 150.49 71.5547 150.95L83.4312 185.816L95.3076 150.95C95.4638 150.491 95.9474 150.247 96.3921 150.413C96.8333 150.576 97.0641 151.083 96.9063 151.546L84.2305 188.758C84.11 189.11 83.791 189.346 83.4312 189.346Z" fill="#8DFFC6"/>
</g>
<path d="M61.3144 233.476C57.1836 239.435 57.9663 246.296 59.8298 252.999C60.6559 255.97 61.8734 258.94 64.0537 261.16C67.1658 264.332 73.8682 263.215 77.8996 264.844C87.9874 268.93 93.6276 256.25 93.6959 248.248C93.7394 243.509 92.4474 238.819 90.9007 234.372C89.0185 228.963 87.4532 222.607 88.3042 216.88C88.8011 213.568 89.2297 210.244 89.7453 206.926C90.5404 201.773 91.056 196.381 92.3542 191.337C93.64 186.311 88.3725 180.712 83.0056 182.383C77.3654 184.14 76.0423 192.209 74.3527 196.905C72.6631 201.577 71.0108 206.255 69.3896 210.952C69.3834 210.958 63.9605 229.658 61.3144 233.476Z" fill="#F8EDE8"/>
<path d="M90.7478 189.282C90.4061 190.483 89.9589 192.094 89.5924 193.417C88.9153 195.832 86.3375 197.473 83.4677 197.083C79.896 196.595 77.5479 193.466 78.3617 190.581L79.5605 186.269C79.8773 185.159 81.0078 184.415 82.3309 184.494C83.3248 184.549 84.4864 184.701 85.7474 185.031C87.1388 185.391 88.3128 185.879 89.2694 186.36C90.4496 186.958 91.0584 188.172 90.7478 189.282Z" fill="#EAD4C1"/>
<path d="M82.8939 276.535H46.2324V372.999H82.8939V276.535Z" fill="#16405E"/>
<path d="M98.581 276.535H82.8965V372.999H98.581V276.535Z" fill="#1C4D6B"/>
<path d="M165.624 229.248C165.624 229.248 154.002 219.758 153.431 215.22C153.095 212.609 154.58 210.646 155.897 209.444C156.847 208.578 158.313 208.566 159.289 209.407L174.215 222.301L191.341 219.41L199.814 239.238L184.371 266.008C184.371 266.008 166.556 259.689 166.351 258.768C166.146 257.853 170.588 233.749 170.588 233.749L165.624 229.248Z" fill="#D1BFB1"/>
<path d="M164.981 205.324C164.981 205.324 158.993 205.172 161.099 212.692C163.211 220.212 184.747 234.112 184.747 234.112C184.747 234.112 193.021 225.946 193.27 225.275C193.518 224.598 164.981 205.324 164.981 205.324Z" fill="#D1BFB1"/>
<path d="M210.546 238.829L202.589 274.277L173.438 287.536C169.742 289.458 164.791 293.27 165.077 297.368L168.636 348.095L131.67 347.168C130.633 347.143 129.689 290.434 129.689 290.434C129.689 290.434 128.322 284.029 130.068 276.741C130.111 276.582 130.148 276.418 130.198 276.259C130.235 276.094 130.285 275.924 130.328 275.765C130.378 275.607 130.422 275.442 130.471 275.271C130.564 274.948 130.664 274.625 130.782 274.289C130.844 274.124 130.894 273.96 130.95 273.795C131.074 273.46 131.198 273.136 131.335 272.807C131.403 272.642 131.465 272.472 131.54 272.307C131.658 272.032 131.782 271.752 131.906 271.471C132.012 271.252 132.117 271.038 132.229 270.831C132.385 270.514 132.552 270.209 132.72 269.904C133.267 268.922 133.9 267.958 134.621 267.025C135.198 266.269 135.832 265.543 136.54 264.835C136.714 264.659 136.894 264.476 137.087 264.299C138 263.433 139.006 262.615 140.137 261.853C151.057 253.979 154.865 249.209 154.865 249.209C158.312 242.665 162.188 236.34 165.4 229.674C166.965 226.429 168.232 223.129 169.437 219.744C170.257 217.427 171.208 215.109 174.189 215.182C179.022 215.31 181.376 218.085 180.6 221.117C179.836 224.154 173.003 247.41 172.916 250.795C172.916 250.929 172.916 251.07 172.922 251.198C172.922 251.326 172.928 251.442 172.941 251.576C172.947 251.625 172.953 251.667 172.947 251.71C172.959 251.838 172.978 251.972 172.997 252.1C173.015 252.247 173.04 252.411 173.071 252.564C173.102 252.741 173.139 252.918 173.177 253.088C173.208 253.247 173.245 253.4 173.289 253.552C173.289 253.57 173.295 253.583 173.301 253.595C173.338 253.765 173.394 253.942 173.444 254.107C173.494 254.26 173.543 254.418 173.593 254.564C173.599 254.589 173.605 254.601 173.612 254.619C174.692 257.645 177.053 260.377 180.687 258.12C184.519 255.742 192.626 246.02 195.843 240.335C197.048 238.207 197.582 234.565 196.216 232.534C191.911 226.106 183.246 211.687 183.091 204.802C183.078 204.015 183.358 203.258 183.886 202.673C184.513 201.984 185.078 201.423 185.575 200.983C185.594 200.965 185.619 200.947 185.637 200.922C185.929 200.672 186.252 200.496 186.594 200.367C186.656 200.337 186.724 200.319 186.787 200.3C188.06 199.928 189.507 200.428 190.259 201.636L194.887 209.144L196.203 211.279L196.272 211.383L209.577 230.662L210.546 238.829Z" fill="#F8EDE8"/>
<path d="M195.22 209.827C194.524 210.218 193.798 210.455 193.065 210.437C192.785 210.297 192.394 210.083 191.94 209.797C188.052 207.284 187.008 202.148 186.76 200.3C188.033 199.928 189.48 200.428 190.232 201.636L194.86 209.144C194.984 209.37 195.096 209.602 195.22 209.827Z" fill="#EAD4C1"/>
<path d="M198.997 193.991C198.997 222.949 178.06 246.422 152.236 246.422C126.411 246.422 105.475 222.949 105.475 193.991C105.475 165.035 126.411 141.562 152.236 141.562C178.06 141.562 198.997 165.035 198.997 193.991Z" fill="#1755D0"/>
<path d="M195.226 193.991C195.226 222.949 174.289 246.422 148.467 246.422C122.641 246.422 101.706 222.949 101.706 193.991C101.706 165.035 122.641 141.562 148.467 141.562C174.289 141.562 195.226 165.035 195.226 193.991Z" fill="#1262FF"/>
<path d="M192.089 193.991C192.089 222.949 171.152 246.422 145.328 246.422C119.504 246.422 98.5693 222.949 98.5693 193.991C98.5693 165.035 119.504 141.562 145.328 141.562C171.152 141.562 192.089 165.035 192.089 193.991Z" fill="#42A6FF"/>
<path d="M185.179 193.99C185.179 218.669 167.337 238.672 145.327 238.672C123.319 238.672 105.475 218.669 105.475 193.99C105.475 169.314 123.319 149.309 145.327 149.309C167.337 149.311 185.179 169.314 185.179 193.99Z" fill="url(#paint1_linear)"/>
<path d="M149.471 234.021C127.463 234.021 109.621 214.021 109.621 189.339C109.621 178.183 113.275 167.993 119.304 160.164C110.839 168.355 105.475 180.466 105.475 193.989C105.475 218.668 123.319 238.67 145.327 238.67C157.387 238.67 168.186 232.656 175.496 223.164C168.512 229.924 159.421 234.021 149.471 234.021Z" fill="#1755D0"/>
<g opacity="0.6" clip-path="url(#clip2)">
<path d="M148.409 224.037C148.097 224.037 147.799 223.882 147.595 223.612L123.134 191.03C122.851 190.654 122.804 190.119 123.015 189.69L131.591 172.179C131.778 171.797 132.135 171.559 132.522 171.559H164.296C164.685 171.559 165.043 171.797 165.228 172.179L173.802 189.69C174.014 190.122 173.966 190.654 173.683 191.03L149.222 223.612C149.02 223.882 148.722 224.037 148.409 224.037ZM125.233 190.119L148.409 220.993L171.585 190.119L163.666 173.944H133.152L125.233 190.119Z" fill="#E1EBFF"/>
<path d="M172.337 191.835H124.479C123.891 191.835 123.415 191.3 123.415 190.642C123.415 189.984 123.891 189.449 124.479 189.449H172.337C172.924 189.449 173.4 189.984 173.4 190.642C173.4 191.3 172.924 191.835 172.337 191.835Z" fill="#E1EBFF"/>
<path d="M159.174 191.164C158.84 191.164 158.51 190.988 158.304 190.656L148.411 174.834L138.644 190.572C138.312 191.114 137.646 191.245 137.165 190.871C136.68 190.494 136.563 189.752 136.9 189.21L147.535 172.069C147.733 171.749 148.058 171.559 148.405 171.559H148.407C148.754 171.559 149.077 171.747 149.277 172.067L160.044 189.287C160.382 189.828 160.265 190.57 159.784 190.947C159.601 191.093 159.387 191.164 159.174 191.164Z" fill="#E1EBFF"/>
<path d="M148.408 224.037C147.957 224.037 147.557 223.719 147.406 223.245L131.519 173.152C131.324 172.529 131.613 171.847 132.164 171.627C132.721 171.398 133.327 171.73 133.523 172.35L148.408 219.285L163.293 172.35C163.489 171.732 164.095 171.403 164.652 171.627C165.205 171.847 165.494 172.529 165.297 173.152L149.41 223.245C149.259 223.719 148.859 224.037 148.408 224.037Z" fill="#E1EBFF"/>
</g>
<path d="M180.579 221.108C179.815 224.145 172.982 247.401 172.895 250.786C172.895 250.921 172.895 251.061 172.901 251.189C172.901 251.317 172.907 251.433 172.92 251.567C172.926 251.616 172.932 251.659 172.926 251.701C172.945 251.829 172.957 251.97 172.976 252.092C173.001 252.25 173.026 252.403 173.05 252.555C173.081 252.732 173.119 252.909 173.156 253.08C173.187 253.232 173.224 253.391 173.268 253.543C173.268 253.562 173.274 253.574 173.28 253.586C173.33 253.757 173.373 253.934 173.423 254.098C173.473 254.251 173.522 254.409 173.572 254.556C173.578 254.58 173.585 254.592 173.591 254.611C165.025 268.974 149.533 275.72 132.786 276.635C131.879 276.69 130.979 276.72 130.065 276.738C130.109 276.58 130.146 276.415 130.196 276.257C130.233 276.092 130.283 275.921 130.326 275.762C130.376 275.604 130.419 275.439 130.469 275.268C130.569 274.945 130.668 274.622 130.78 274.286C130.842 274.122 130.892 273.957 130.947 273.792C131.072 273.457 131.196 273.134 131.333 272.804C131.401 272.64 131.463 272.469 131.538 272.304C131.656 272.03 131.78 271.749 131.904 271.469C132.01 271.249 132.115 271.036 132.227 270.828C132.382 270.511 132.55 270.206 132.718 269.901C133.264 268.919 133.898 267.956 134.619 267.022C135.196 266.266 135.83 265.54 136.538 264.833C136.712 264.656 136.892 264.473 137.085 264.296C137.998 263.43 139.004 262.613 140.135 261.85C151.055 253.976 154.863 249.207 154.863 249.207C158.31 242.662 161.652 235.264 164.863 228.604C166.429 225.359 167.36 221.877 168.572 218.498C169.392 216.18 171.243 214.771 174.187 215.18C180.082 216.003 181.355 218.077 180.579 221.108Z" fill="#F8EDE8"/>
<path d="M170.828 217.636L169.599 222.503C169.015 224.79 170.158 227.254 172.394 228.108C175.065 229.12 177.978 227.571 178.649 224.93L179.935 219.862C180.208 218.782 179.543 217.691 178.444 217.428L173.319 216.178C172.214 215.897 171.102 216.556 170.828 217.636Z" fill="#EAD4C1"/>
<path d="M134.608 347.249L131.67 347.17C130.633 347.146 129.689 290.436 129.689 290.436C129.689 290.436 128.322 284.032 130.068 276.743C130.111 276.585 130.148 276.42 130.198 276.261C130.235 276.097 130.285 275.926 130.328 275.767C130.378 275.609 130.422 275.444 130.471 275.273C130.564 274.95 130.664 274.627 130.782 274.291C130.844 274.127 130.894 273.962 130.95 273.797C131.074 273.462 131.198 273.139 131.335 272.809C131.403 272.645 131.465 272.474 131.54 272.309C131.658 272.035 131.782 271.754 131.906 271.474C132.012 271.254 132.117 271.041 132.229 270.833C132.385 270.516 132.552 270.211 132.72 269.906C133.267 268.924 133.9 267.961 134.621 267.027C133.931 269.632 132.068 274.767 131.577 278.604C130.707 285.337 131.509 292.18 132.043 303.634C133.149 327.958 134.055 340.815 134.608 347.249Z" fill="#D1BFB1"/>
<path d="M327.04 188.397C333.481 187.037 338.513 183.56 342.128 177.967C343.687 175.137 344.619 172.197 345.103 169.209C343.438 160.774 339.73 154.028 334.518 152.741C319.896 149.136 307.609 153.528 307.609 153.528C307.609 153.528 309.15 171.136 315.579 187.262C319.3 188.616 323.524 189 327.04 188.397Z" fill="#D1BFB1"/>
<path d="M307.609 153.521L328.226 170.855C328.226 170.855 335.251 187.756 332.655 202.479C346.215 207.133 352.129 178.211 352.129 178.211C352.129 178.211 338.357 153.723 337.283 153.716C336.214 153.71 312.368 137.06 307.609 153.521Z" fill="#D1BFB1"/>
<path d="M345.104 169.203C344.62 172.192 343.688 175.138 342.129 177.961C338.514 183.554 333.482 187.031 327.041 188.391C323.525 189.001 319.301 188.611 315.58 187.25C319.059 195.978 323.966 204.273 330.83 209.122C344.433 205.158 348.111 184.433 345.104 169.203Z" fill="#C1C1C1"/>
<path d="M330.188 145.95C329.294 145.871 328.263 145.767 327.163 145.639C326.014 148.341 325.269 151.25 324.443 154.135C325.275 151.25 326.02 148.347 327.163 145.639C323.592 145.243 319.125 144.627 315.411 144.09C311.261 143.492 308.044 142.992 308.044 142.992C308.044 142.992 300.907 141.888 302.994 149.982C305.137 152.885 309.914 154.404 314.423 155.209C318.566 155.941 322.467 156.069 323.853 156.093C324.2 156.093 324.399 156.093 324.399 156.093C324.399 156.093 327.604 160.088 333.474 167.663C335.338 162.491 336.972 157.325 337.866 152.153C335.661 150.317 333.108 148.256 330.188 145.95Z" fill="#F8EDE8"/>
<path d="M358.044 130.013C358.044 163.351 333.137 190.373 302.417 190.373C271.696 190.373 246.789 163.351 246.789 130.013C246.789 96.6788 271.696 69.6562 302.417 69.6562C333.137 69.6562 358.044 96.6788 358.044 130.013Z" fill="#1755D0"/>
<path d="M353.558 130.013C353.558 163.351 328.651 190.373 297.933 190.373C267.21 190.373 242.306 163.351 242.306 130.013C242.306 96.6788 267.21 69.6562 297.933 69.6562C328.651 69.6562 353.558 96.6788 353.558 130.013Z" fill="#1262FF"/>
<path d="M349.826 130.013C349.826 163.351 324.92 190.373 294.199 190.373C263.478 190.373 238.574 163.351 238.574 130.013C238.574 96.6788 263.478 69.6562 294.199 69.6562C324.92 69.6562 349.826 96.6788 349.826 130.013Z" fill="#42A6FF"/>
<path d="M341.606 130.013C341.606 158.424 320.381 181.452 294.198 181.452C268.017 181.452 246.789 158.424 246.789 130.013C246.789 101.605 268.017 78.5742 294.198 78.5742C320.381 78.5773 341.606 101.605 341.606 130.013Z" fill="url(#paint2_linear)"/>
<path d="M299.128 176.1C272.947 176.1 251.722 153.075 251.722 124.661C251.722 111.818 256.069 100.087 263.241 91.0742C253.17 100.504 246.789 114.446 246.789 130.014C246.789 158.425 268.017 181.453 294.198 181.453C308.545 181.453 321.391 174.529 330.087 163.601C321.778 171.384 310.964 176.1 299.128 176.1Z" fill="#1755D0"/>
<g opacity="0.6" clip-path="url(#clip3)">
<path d="M297.283 160.86C296.911 160.86 296.557 160.681 296.314 160.371L267.215 122.862C266.879 122.428 266.823 121.813 267.073 121.319L277.276 101.159C277.498 100.72 277.924 100.445 278.384 100.445H316.182C316.645 100.445 317.071 100.72 317.291 101.159L327.491 121.319C327.744 121.816 327.685 122.428 327.349 122.862L298.25 160.371C298.009 160.681 297.655 160.86 297.283 160.86ZM269.713 121.813L297.283 157.356L324.854 121.813L315.433 103.191H279.133L269.713 121.813Z" fill="#E1EBFF"/>
<path d="M325.748 123.789H268.815C268.117 123.789 267.55 123.174 267.55 122.416C267.55 121.658 268.117 121.043 268.815 121.043H325.748C326.446 121.043 327.013 121.658 327.013 122.416C327.013 123.174 326.446 123.789 325.748 123.789Z" fill="#E1EBFF"/>
<path d="M310.089 123.016C309.692 123.016 309.299 122.812 309.054 122.431L297.285 104.216L285.666 122.335C285.271 122.958 284.479 123.109 283.907 122.678C283.331 122.244 283.191 121.39 283.591 120.767L296.243 101.033C296.478 100.665 296.865 100.445 297.278 100.445H297.28C297.693 100.445 298.077 100.662 298.315 101.03L311.124 120.854C311.526 121.478 311.387 122.332 310.815 122.766C310.598 122.933 310.342 123.016 310.089 123.016Z" fill="#E1EBFF"/>
<path d="M297.282 160.86C296.745 160.86 296.27 160.495 296.09 159.948L277.191 102.28C276.958 101.563 277.302 100.778 277.958 100.525C278.621 100.261 279.342 100.643 279.575 101.357L297.282 155.39L314.989 101.357C315.222 100.646 315.943 100.267 316.606 100.525C317.264 100.778 317.608 101.563 317.373 102.28L298.474 159.948C298.294 160.495 297.818 160.86 297.282 160.86Z" fill="#E1EBFF"/>
</g>
<path d="M353.521 236.31C353.62 222.63 360.18 203.356 359.888 194.226C356.671 186.867 351.549 168.01 350.626 164.571C350.529 164.209 350.402 163.857 350.215 163.532C349.924 163.028 349.42 162.255 348.831 161.781C346.535 166.275 338.357 175.579 337.927 176.387C337.498 177.195 337.55 175.96 338.215 176.82C339.873 196.49 334.836 198.636 329.103 200.349C329.016 200.337 328.935 200.325 328.848 200.313C318.723 198.709 317.015 180.924 314.71 173.422C313.393 169.11 312.157 163.517 306.803 162.882C302.579 162.388 297.311 165.182 298.212 169.957C298.92 173.708 305.244 190.45 307.076 205.271C307.076 205.271 307.076 205.29 307.082 205.326C307.095 205.381 307.101 205.436 307.107 205.491C307.12 205.589 307.132 205.704 307.157 205.851C307.48 208.644 307.635 211.358 307.561 213.889C307.095 230.028 321.009 246.13 323.848 249.655C326.68 253.186 324.469 303.15 324.469 303.15L326.351 303.047L366.665 300.967C366.665 300.967 355.9 255.272 353.521 236.31Z" fill="#F8EDE8"/>
<path d="M299.82 168.64L301.18 174.483C301.764 176.972 304.093 178.796 306.677 178.558C309.814 178.271 311.895 175.343 311.212 172.422L309.802 166.402C309.51 165.127 308.218 164.334 306.926 164.627L301.621 165.817C300.329 166.109 299.528 167.372 299.82 168.64Z" fill="#EAD4C1"/>
<path d="M326.354 303.048L324.472 303.151C324.472 303.151 326.684 253.193 323.851 249.656C321.012 246.13 307.098 230.029 307.564 213.89C307.638 211.359 307.477 208.645 307.16 205.852C307.601 209.163 309.918 225.582 313.359 230.547C317.186 236.067 321.901 243.593 324.025 246.417C326.149 249.241 327.292 256.725 327.292 274.034C327.292 285.824 326.727 297.076 326.354 303.048Z" fill="#D1BFB1"/>
<path d="M355.602 246.645H318.94V373.001H355.602V246.645Z" fill="#14B0BF"/>
<path d="M371.288 246.645H355.604V373.001H371.288V246.645Z" fill="#17C5CC"/>
<path d="M224.962 163.191C224.689 162.746 200.861 155.75 200.861 155.75C200.861 155.75 186.971 159.111 198.55 167.174C207.855 173.657 230.341 175.225 230.341 175.225C231.372 175.231 224.962 163.191 224.962 163.191Z" fill="#D1BFB1"/>
<path d="M234.465 175.748C234.08 175.376 207.326 169.148 207.326 169.148C207.326 169.148 198.704 177.687 209.96 186.196C242.981 211.172 243.081 185.268 242.783 186.043C243.783 185.787 234.465 175.748 234.465 175.748Z" fill="#D1BFB1"/>
<path d="M191.964 147.873C201.257 153.039 204.294 151.965 205.294 150.648L204.412 150.264L194.517 145.891C194.523 145.891 193.169 146.623 191.964 147.873Z" fill="#EAD4C1"/>
<path d="M223.249 158.595L221.684 157.9L205.298 150.648L204.416 150.264L194.52 145.891C194.52 145.891 193.16 146.623 191.961 147.873C191.831 148.019 191.688 148.166 191.564 148.318C189.557 150.715 188.11 152.106 197.552 158.839C203.67 163.188 209.795 165.566 214.69 168.97C215.205 169.311 215.677 169.677 216.162 170.055C216.491 170.312 216.808 170.58 217.125 170.836C220.336 173.386 223.417 176.106 226.473 178.844V159.919L223.249 158.595Z" fill="#F8EDE8"/>
<path d="M232.791 151.702C232.791 177.557 212.602 198.515 187.7 198.515C162.798 198.515 142.608 177.557 142.608 151.702C142.608 125.848 162.798 104.891 187.7 104.891C212.602 104.891 232.791 125.848 232.791 151.702Z" fill="#00743A"/>
<path d="M229.157 151.702C229.157 177.557 208.968 198.515 184.068 198.515C159.164 198.515 138.977 177.557 138.977 151.702C138.977 125.848 159.164 104.891 184.068 104.891C208.968 104.891 229.157 125.848 229.157 151.702Z" fill="#00D46A"/>
<path d="M226.131 151.702C226.131 177.557 205.942 198.515 181.039 198.515C156.137 198.515 135.95 177.557 135.95 151.702C135.95 125.848 156.137 104.891 181.039 104.891C205.942 104.891 226.131 125.848 226.131 151.702Z" fill="#11F985"/>
<path d="M219.467 151.703C219.467 173.738 202.262 191.597 181.038 191.597C159.816 191.597 142.608 173.738 142.608 151.703C142.608 129.671 159.816 111.809 181.038 111.809C202.262 111.811 219.467 129.671 219.467 151.703Z" fill="url(#paint3_linear)"/>
<path d="M185.034 187.443C163.812 187.443 146.607 169.586 146.607 147.549C146.607 137.589 150.13 128.49 155.944 121.5C147.781 128.813 142.608 139.626 142.608 151.701C142.608 173.735 159.816 191.595 181.038 191.595C192.668 191.595 203.081 186.225 210.13 177.75C203.395 183.786 194.628 187.443 185.034 187.443Z" fill="#33C47B"/>
<g opacity="0.8" clip-path="url(#clip4)">
<path d="M183.213 178.528C182.911 178.528 182.624 178.389 182.427 178.148L158.84 149.057C158.567 148.721 158.522 148.244 158.725 147.861L166.995 132.226C167.175 131.885 167.52 131.672 167.893 131.672H198.532C198.908 131.672 199.252 131.885 199.431 132.226L207.699 147.861C207.904 148.246 207.856 148.721 207.584 149.057L183.996 178.148C183.801 178.389 183.514 178.528 183.213 178.528ZM160.864 148.244L183.213 175.81L205.561 148.244L197.925 133.802H168.5L160.864 148.244Z" fill="#8DFFC6"/>
<path d="M206.285 149.778H160.136C159.57 149.778 159.11 149.301 159.11 148.713C159.11 148.126 159.57 147.648 160.136 147.648H206.285C206.852 147.648 207.311 148.126 207.311 148.713C207.311 149.301 206.852 149.778 206.285 149.778Z" fill="#8DFFC6"/>
<path d="M193.593 149.177C193.271 149.177 192.953 149.019 192.755 148.723L183.215 134.596L173.796 148.649C173.476 149.132 172.834 149.249 172.371 148.915C171.903 148.578 171.79 147.916 172.114 147.432L182.37 132.128C182.561 131.842 182.874 131.672 183.209 131.672H183.211C183.545 131.672 183.857 131.84 184.05 132.126L194.432 147.501C194.758 147.984 194.646 148.646 194.182 148.983C194.006 149.113 193.799 149.177 193.593 149.177Z" fill="#8DFFC6"/>
<path d="M183.211 178.531C182.776 178.531 182.39 178.247 182.245 177.824L166.925 133.098C166.737 132.542 167.015 131.933 167.547 131.737C168.084 131.532 168.669 131.828 168.857 132.382L183.211 174.288L197.564 132.382C197.753 131.83 198.338 131.537 198.875 131.737C199.408 131.933 199.687 132.542 199.497 133.098L184.177 177.824C184.031 178.247 183.646 178.531 183.211 178.531Z" fill="#8DFFC6"/>
</g>
<path d="M280.356 249.485C280.356 249.485 278.748 245.582 279.891 242.477C280.853 239.842 278.207 207.535 278.195 198.338C278.195 196.648 277.673 194.995 276.704 193.599C273.468 188.939 271.455 183.114 267.374 178.857C264.709 176.082 259.498 174.624 256.081 172.611C252.317 170.391 248.652 167.994 245.031 165.555C243.291 164.378 240.03 161.834 237.9 161.773C232.905 161.639 231.166 161.798 231.166 161.798L230.961 161.785L227.837 159.91C227.837 159.91 226.981 164.775 226.035 167.775C225.033 170.95 222.792 175.639 222.792 175.639C224.153 176.853 229.191 181.278 230.545 182.498C232.216 184.005 234.601 185.572 235.918 187.402C237.378 189.427 237.235 195.239 233.613 194.8C231.303 194.532 228.911 191.805 227.837 189.939C225.426 185.749 214.972 172.02 205.437 168.293C196.697 164.884 194.219 168.549 193.865 169.196C193.834 169.251 193.821 169.281 193.821 169.281L202.598 182.699C202.598 182.699 218.917 203.882 221.532 213.262C221.606 213.555 221.681 213.86 221.768 214.165C224.296 224.082 229.327 229.626 240.459 241.898C241.571 251.059 241.658 300.297 241.658 300.297L243.279 300.748L281.636 311.611L280.356 249.485Z" fill="#F8EDE8"/>
<path d="M227.813 159.91C229.472 161.215 230.376 162.177 232.01 163.506C235.873 166.684 239.712 169.88 243.563 173.057C245.141 174.369 246.713 175.692 248.322 176.961C250.378 178.583 253.31 178.48 255.484 180.065C256.832 181.053 258.111 182.31 259.037 183.694C259.888 184.975 259.975 186.866 261.118 187.927C261.087 187.903 261.087 186.177 261.049 185.902C260.708 183.591 260.18 181.108 258.043 179.706C256.428 178.65 254.515 177.839 252.663 177.29L232.724 161.725L232.519 161.713L227.813 159.91Z" fill="#D1BFB1"/>
<path d="M193.859 169.168L193.853 169.18C193.822 169.235 193.81 169.266 193.81 169.266L202.587 182.684C203.258 181.702 203.879 180.525 204.351 179.189C202.456 172.968 196.387 169.772 193.859 169.168Z" fill="#EAD4C1"/>
<path d="M221.52 213.246C221.594 213.539 221.669 213.844 221.756 214.149C224.284 224.066 229.315 229.61 240.447 241.882C241.558 251.043 241.645 300.281 241.645 300.281L243.267 300.732C243.906 287.015 244.018 241.644 244.018 241.644C244.018 241.644 231.098 232.16 221.52 213.246Z" fill="#D1BFB1"/>
<path d="M270.033 269.164H233.372V373.002H270.033V269.164Z" fill="#0087FF"/>
<path d="M285.721 269.164H270.036V373.002H285.721V269.164Z" fill="#0076DE"/>
<path d="M125.741 78.9023L126.623 81.199C127.166 82.6125 128.282 83.7296 129.693 84.2729L131.988 85.1561L129.693 86.0393C128.282 86.5827 127.166 87.6998 126.623 89.1132L125.741 91.4099L124.859 89.1132C124.316 87.6998 123.2 86.5827 121.788 86.0393L119.494 85.1561L121.788 84.2729C123.2 83.7296 124.316 82.6125 124.859 81.199L125.741 78.9023Z" fill="#3ABAD8"/>
</g>
<path d="M243.925 41L245.287 44.548C246.125 46.7304 247.849 48.4555 250.028 49.2948L253.572 50.6589L250.028 52.0231C247.849 52.8623 246.125 54.5875 245.287 56.7698L243.925 60.3178L242.562 56.7698C241.724 54.5875 240.001 52.8623 237.821 52.0231L234.277 50.6589L237.821 49.2948C240.001 48.4555 241.724 46.7304 242.562 44.548L243.925 41Z" fill="#3ABAD8"/>
<path d="M435.194 275.684L436.557 279.232C437.395 281.414 439.118 283.139 441.298 283.978L444.842 285.343L441.298 286.707C439.118 287.546 437.395 289.271 436.557 291.453L435.194 295.001L433.832 291.453C432.993 289.271 431.27 287.546 429.091 286.707L425.547 285.343L429.091 283.978C431.27 283.139 432.993 281.414 433.832 279.232L435.194 275.684Z" fill="#3ABAD8"/>
<path d="M393.666 183.59L394.408 185.521C394.863 186.709 395.802 187.648 396.987 188.103L398.916 188.845L396.987 189.588C395.801 190.045 394.863 190.984 394.408 192.172L393.666 194.103L392.924 192.172C392.467 190.984 391.53 190.045 390.343 189.588L388.414 188.845L390.343 188.103C391.53 187.646 392.467 186.708 392.924 185.521L393.666 183.59Z" fill="#3ABAD8"/>
<path d="M420.401 104.125L421.142 106.056C421.598 107.244 422.536 108.183 423.721 108.639L425.65 109.382L423.721 110.125C422.534 110.582 421.597 111.52 421.142 112.709L420.401 114.64L419.659 112.709C419.204 111.52 418.265 110.582 417.078 110.125L415.149 109.382L417.078 108.639C418.265 108.183 419.202 107.243 419.659 106.056L420.401 104.125Z" fill="#3ABAD8"/>
<path d="M6.95238 175.422L7.93485 177.979C8.53875 179.552 9.77961 180.794 11.351 181.399L13.9048 182.383L11.351 183.365C9.77961 183.969 8.53875 185.213 7.93485 186.785L6.95238 189.342L5.96992 186.785C5.36602 185.212 4.12517 183.969 2.55383 183.365L0 182.383L2.55383 181.399C4.12517 180.794 5.36602 179.552 5.96992 177.979L6.95238 175.422Z" fill="#3ABAD8"/>
<defs>
<linearGradient id="paint0_linear" x1="80.4027" y1="133.832" x2="80.4027" y2="200.216" gradientUnits="userSpaceOnUse">
<stop stop-color="#04C464"/>
<stop offset="1" stop-color="#02A76C"/>
</linearGradient>
<linearGradient id="paint1_linear" x1="145.327" y1="149.309" x2="145.327" y2="238.672" gradientUnits="userSpaceOnUse">
<stop stop-color="#0087FF"/>
<stop offset="1" stop-color="#1262FF"/>
</linearGradient>
<linearGradient id="paint2_linear" x1="294.198" y1="78.5742" x2="294.198" y2="181.452" gradientUnits="userSpaceOnUse">
<stop stop-color="#0087FF"/>
<stop offset="1" stop-color="#1262FF"/>
</linearGradient>
<linearGradient id="paint3_linear" x1="181.038" y1="111.809" x2="181.038" y2="191.597" gradientUnits="userSpaceOnUse">
<stop stop-color="#04C464"/>
<stop offset="1" stop-color="#02A76C"/>
</linearGradient>
<clipPath id="clip0">
<rect width="335" height="373" fill="white" transform="translate(37)"/>
</clipPath>
<clipPath id="clip1">
<rect width="40.7309" height="42.528" fill="white" transform="translate(63.0664 148.59)"/>
</clipPath>
<clipPath id="clip2">
<rect width="51.0489" height="57.2492" fill="white" transform="translate(122.884 169.172)"/>
</clipPath>
<clipPath id="clip3">
<rect width="60.7283" height="65.9069" fill="white" transform="translate(266.918 97.6992)"/>
</clipPath>
<clipPath id="clip4">
<rect width="49.2261" height="51.1153" fill="white" transform="translate(158.599 129.543)"/>
</clipPath>
</defs>
</svg>