<svg width="737" height="536" viewBox="0 0 737 536" fill="none" xmlns="http://www.w3.org/2000/svg">
<rect opacity="0.3" y="-47" width="788" height="617" fill="url(#paint0_radial)"/>
<g style="mix-blend-mode:overlay" opacity="0.5">
<path d="M229.054 317.889C229.987 317.887 230.898 317.608 231.672 317.088C232.446 316.568 233.049 315.83 233.404 314.968C233.759 314.105 233.85 313.157 233.667 312.243C233.483 311.328 233.033 310.489 232.373 309.83C231.712 309.172 230.872 308.724 229.957 308.543C229.042 308.362 228.094 308.456 227.233 308.814C226.371 309.171 225.635 309.776 225.117 310.551C224.6 311.327 224.323 312.238 224.323 313.171C224.323 313.792 224.446 314.406 224.684 314.98C224.922 315.553 225.27 316.074 225.71 316.512C226.149 316.95 226.671 317.297 227.245 317.534C227.819 317.77 228.434 317.891 229.054 317.889Z" fill="#B2EBF2"/>
</g>
<g style="mix-blend-mode:overlay" opacity="0.5">
<path d="M270.683 55.3129C271.616 55.3129 272.528 55.0362 273.304 54.5178C274.08 53.9993 274.685 53.2625 275.042 52.4004C275.399 51.5383 275.492 50.5897 275.31 49.6745C275.128 48.7593 274.679 47.9186 274.019 47.2588C273.359 46.599 272.518 46.1497 271.603 45.9676C270.688 45.7856 269.739 45.879 268.877 46.2361C268.015 46.5932 267.278 47.1979 266.76 47.9738C266.242 48.7496 265.965 49.6618 265.965 50.5949C265.965 51.8462 266.462 53.0462 267.347 53.931C268.232 54.8158 269.432 55.3129 270.683 55.3129Z" fill="#B2EBF2"/>
</g>
<g style="mix-blend-mode:overlay" opacity="0.5">
<path d="M157.718 114.436C158.651 114.436 159.563 114.159 160.339 113.641C161.115 113.122 161.72 112.386 162.077 111.523C162.434 110.661 162.527 109.713 162.345 108.798C162.163 107.882 161.714 107.042 161.054 106.382C160.394 105.722 159.554 105.273 158.638 105.091C157.723 104.909 156.775 105.002 155.913 105.359C155.05 105.716 154.314 106.321 153.795 107.097C153.277 107.873 153 108.785 153 109.718C153 110.969 153.497 112.169 154.382 113.054C155.267 113.939 156.467 114.436 157.718 114.436Z" fill="#B2EBF2"/>
</g>
<g style="mix-blend-mode:overlay" opacity="0.5">
<path d="M715.718 246.436C716.651 246.436 717.563 246.159 718.339 245.641C719.115 245.122 719.72 244.386 720.077 243.523C720.434 242.661 720.527 241.713 720.345 240.798C720.163 239.882 719.714 239.042 719.054 238.382C718.394 237.722 717.554 237.273 716.638 237.091C715.723 236.909 714.775 237.002 713.912 237.359C713.05 237.716 712.314 238.321 711.795 239.097C711.277 239.873 711 240.785 711 241.718C710.998 242.338 711.119 242.952 711.356 243.525C711.592 244.099 711.94 244.619 712.378 245.058C712.816 245.496 713.337 245.844 713.91 246.08C714.484 246.317 715.098 246.438 715.718 246.436Z" fill="#B2EBF2"/>
</g>
<g style="mix-blend-mode:overlay" opacity="0.5">
<path d="M665.718 467.436C666.651 467.436 667.563 467.159 668.339 466.641C669.115 466.122 669.72 465.386 670.077 464.523C670.434 463.661 670.527 462.713 670.345 461.798C670.163 460.882 669.714 460.042 669.054 459.382C668.394 458.722 667.554 458.273 666.638 458.091C665.723 457.909 664.775 458.002 663.912 458.359C663.05 458.716 662.314 459.321 661.795 460.097C661.277 460.873 661 461.785 661 462.718C661 463.969 661.497 465.169 662.382 466.054C663.267 466.939 664.467 467.436 665.718 467.436Z" fill="#B2EBF2"/>
</g>
<g style="mix-blend-mode:overlay" opacity="0.5">
<path d="M612.718 16.4359C613.651 16.4359 614.563 16.1593 615.339 15.6408C616.115 15.1224 616.72 14.3855 617.077 13.5234C617.434 12.6613 617.527 11.7128 617.345 10.7976C617.163 9.88236 616.714 9.04165 616.054 8.38183C615.394 7.72201 614.554 7.2727 613.638 7.09066C612.723 6.90861 611.775 7.00204 610.912 7.35913C610.05 7.71623 609.314 8.3209 608.795 9.09677C608.277 9.87263 608 10.7848 608 11.7179C607.998 12.338 608.119 12.9523 608.356 13.5255C608.592 14.0986 608.94 14.6195 609.378 15.0579C609.817 15.4963 610.337 15.8438 610.91 16.0803C611.484 16.3168 612.098 16.4376 612.718 16.4359Z" fill="#B2EBF2"/>
</g>
<path d="M262.796 478.083C262.796 478.083 282.515 488.125 304.567 484.418C305.55 484.249 306.54 484.052 307.537 483.833C308.205 483.685 308.872 483.523 309.532 483.354C310.02 483.22 309.949 422.858 311.269 419.116C313.135 413.88 317.555 409.968 319.234 404.647C320.799 399.686 321.509 394.809 321.459 389.594C321.373 381.989 320.189 374.434 318.423 367.042C318.308 366.576 318.251 366.097 318.23 365.611C317.928 359.783 323.389 352.249 326.288 347.478C328.943 343.115 332.617 339.697 335.488 335.553C335.904 334.961 336.284 334.362 336.65 333.749C338.272 331.043 339.721 325.771 338.049 322.769C337.992 322.663 337.856 322.529 337.64 322.374C336.047 321.183 330.63 318.801 329.984 319.337C329.804 319.485 323.884 324.369 323.884 324.369L319.88 327.322L309.253 317.779C309.253 317.779 296.659 322.233 286.397 325.969C279.645 328.442 273.911 330.578 273.438 330.937C267.252 335.694 264.016 345.406 262.58 349.521C259.172 359.367 257.923 362.242 259.445 367.704C260.715 372.257 262.602 375.555 263.743 380.15C266.011 389.326 267.991 398.615 270.61 407.699C270.661 407.861 271.543 410.504 271.601 410.461C272.411 409.714 262.796 478.083 262.796 478.083Z" fill="#D1BFB1"/>
<path d="M262.79 478.083C262.79 478.083 282.509 488.125 304.56 484.418C305.544 484.249 306.534 484.052 307.531 483.833C307.61 483.615 307.768 483.411 307.732 483.185C306.397 475.172 306.763 421.124 307.237 418.376C307.689 415.648 309.289 413.88 311.234 412.089C313.057 410.412 314.155 408.129 315.195 405.888C317.47 400.968 318.826 395.641 319.214 390.249C319.802 382.053 317.405 374.385 315.862 366.45C314.757 360.748 320.089 353.983 323.211 349.691C326.892 344.63 330.566 339.584 334.247 334.524C335.74 332.48 337.268 330.345 337.742 327.871C338.201 325.461 337.369 323.171 335.524 321.536C334.706 320.803 331.097 318.421 329.978 319.33C329.798 319.478 323.878 324.362 323.878 324.362L319.874 327.315L309.246 317.779C309.246 317.779 274.608 330.035 273.439 330.937C267.253 335.694 264.017 345.406 262.581 349.521C259.173 359.367 257.924 362.242 259.446 367.704C260.716 372.257 262.603 375.555 263.744 380.15C266.012 389.326 267.992 398.615 270.611 407.699C270.661 407.861 271.544 410.504 271.602 410.461C272.405 409.714 262.79 478.083 262.79 478.083Z" fill="#F8EDE8"/>
<path d="M275.131 396.161C274.772 395.195 274.549 394.159 274.47 393.046C274.025 386.618 275.26 379.641 276.623 373.369C277.463 369.521 279.063 365.814 279.852 361.987C280.634 358.224 279.034 358.485 277.9 355.053C277.003 352.346 279.974 348.611 281.151 346.137C282.041 344.27 285.521 339.224 285.098 337.131C285.134 337.3 288.363 353.34 288.363 353.34C291.7 351.437 295.036 349.548 298.373 347.646C301.696 345.757 305.018 343.875 308.341 341.986C311.024 340.457 312.574 337.518 315.014 335.531C317.468 333.536 320.274 331.958 323.274 330.915C324.034 330.647 324.838 330.414 325.649 330.464C326.46 330.513 327.292 330.908 327.665 331.612C328.153 332.55 327.701 333.741 326.919 334.453C326.137 335.178 325.089 335.538 324.099 335.954C319.226 337.998 315.107 341.662 312.424 346.13C308.879 352.043 307.982 359.88 310.996 366.131C313.321 370.952 314.878 376.132 315.495 381.431C316.342 388.754 316.048 397.866 311.29 403.991C307.867 408.395 302.263 408.994 297.039 409.044C292.424 409.086 287.896 407.641 283.986 405.273C280.182 402.962 276.594 400.136 275.131 396.161Z" fill="#D1BFB1"/>
<path d="M289.466 354.405C299.232 345.321 323.702 338.45 335.485 335.546C335.901 334.954 336.281 334.355 336.647 333.742C338.269 331.036 339.719 325.764 338.047 322.762C337.989 322.656 337.853 322.522 337.638 322.367C336.044 321.176 330.627 318.794 329.981 319.33C329.801 319.478 323.881 324.362 323.881 324.362L319.877 327.315L309.242 317.779C309.242 317.779 296.649 322.233 286.387 325.969C283.546 342.009 281.271 362.017 289.466 354.405Z" fill="#F4E7E1"/>
<path d="M347.609 298.997C347.609 323.854 328.31 344.002 304.507 344.002C280.704 344.002 261.406 323.854 261.406 298.997C261.406 274.142 280.704 253.994 304.507 253.994C328.31 253.994 347.609 274.142 347.609 298.997Z" fill="#00743A"/>
<path d="M344.134 298.997C344.134 323.854 324.836 344.002 301.035 344.002C277.23 344.002 257.934 323.854 257.934 298.997C257.934 274.142 277.23 253.994 301.035 253.994C324.836 253.994 344.134 274.142 344.134 298.997Z" fill="#00D46A"/>
<path d="M341.241 298.997C341.241 323.854 321.943 344.002 298.14 344.002C274.337 344.002 255.041 323.854 255.041 298.997C255.041 274.142 274.337 253.994 298.14 253.994C321.943 253.994 341.241 274.142 341.241 298.997Z" fill="#11F985"/>
<path d="M334.872 298.998C334.872 320.181 318.427 337.351 298.139 337.351C277.854 337.351 261.406 320.181 261.406 298.998C261.406 277.817 277.854 260.645 298.139 260.645C318.427 260.647 334.872 277.817 334.872 298.998Z" fill="url(#paint1_linear)"/>
<path d="M301.959 333.359C281.674 333.359 265.228 316.192 265.228 295.006C265.228 285.43 268.596 276.683 274.154 269.963C266.35 276.994 261.406 287.389 261.406 298.997C261.406 320.18 277.854 337.35 298.139 337.35C309.256 337.35 319.209 332.188 325.947 324.04C319.509 329.843 311.13 333.359 301.959 333.359Z" fill="#33C47B"/>
<g opacity="0.8" clip-path="url(#clip0)">
<path d="M301.64 324.786C301.352 324.786 301.077 324.653 300.889 324.422L278.343 296.454C278.082 296.131 278.039 295.672 278.233 295.304L286.138 280.273C286.31 279.945 286.64 279.74 286.996 279.74H316.283C316.642 279.74 316.971 279.945 317.142 280.273L325.045 295.304C325.241 295.674 325.196 296.131 324.935 296.454L302.389 324.422C302.203 324.653 301.928 324.786 301.64 324.786ZM280.278 295.672L301.64 322.173L323.002 295.672L315.703 281.788H287.577L280.278 295.672Z" fill="#8DFFC6"/>
<path d="M323.694 297.145H279.582C279.041 297.145 278.602 296.687 278.602 296.121C278.602 295.556 279.041 295.098 279.582 295.098H323.694C324.235 295.098 324.675 295.556 324.675 296.121C324.675 296.687 324.235 297.145 323.694 297.145Z" fill="#8DFFC6"/>
<path d="M311.562 296.569C311.254 296.569 310.95 296.417 310.76 296.133L301.642 282.552L292.639 296.061C292.333 296.526 291.719 296.639 291.276 296.317C290.829 295.994 290.721 295.357 291.031 294.892L300.834 280.178C301.016 279.904 301.316 279.74 301.636 279.74H301.638C301.957 279.74 302.255 279.902 302.44 280.176L312.364 294.958C312.676 295.422 312.568 296.059 312.125 296.383C311.956 296.508 311.758 296.569 311.562 296.569Z" fill="#8DFFC6"/>
<path d="M301.639 324.787C301.223 324.787 300.855 324.515 300.715 324.107L286.072 281.109C285.892 280.575 286.158 279.989 286.666 279.801C287.18 279.604 287.739 279.889 287.919 280.421L301.639 320.708L315.359 280.421C315.539 279.891 316.098 279.608 316.612 279.801C317.121 279.989 317.388 280.575 317.206 281.109L302.562 324.107C302.423 324.515 302.054 324.787 301.639 324.787Z" fill="#8DFFC6"/>
</g>
<path d="M276.088 375.78C271.316 382.665 272.221 390.594 274.373 398.339C275.328 401.771 276.734 405.203 279.253 407.769C282.848 411.433 290.591 410.144 295.248 412.025C306.902 416.747 313.417 402.095 313.496 392.849C313.547 387.373 312.054 381.954 310.267 376.816C308.093 370.565 306.285 363.221 307.268 356.604C307.842 352.777 308.337 348.936 308.932 345.102C309.851 339.147 310.447 332.917 311.946 327.088C313.432 321.281 307.347 314.812 301.147 316.743C294.631 318.772 293.102 328.096 291.151 333.523C289.199 338.921 287.29 344.327 285.417 349.753C285.41 349.76 279.145 371.368 276.088 375.78Z" fill="#F8EDE8"/>
<path d="M310.091 324.713C309.696 326.101 309.18 327.962 308.756 329.491C307.974 332.282 304.996 334.178 301.681 333.727C297.555 333.163 294.842 329.547 295.782 326.214L297.167 321.231C297.533 319.949 298.839 319.089 300.368 319.181C301.516 319.244 302.858 319.42 304.314 319.801C305.922 320.216 307.278 320.78 308.383 321.337C309.747 322.028 310.45 323.43 310.091 324.713Z" fill="#EAD4C1"/>
<path d="M301.018 425.535H258.666V536.999H301.018V425.535Z" fill="#16405E"/>
<path d="M319.141 425.535H301.021V536.999H319.141V425.535Z" fill="#1C4D6B"/>
<path d="M396.591 370.895C396.591 370.895 383.165 359.929 382.505 354.685C382.117 351.669 383.832 349.4 385.354 348.011C386.451 347.011 388.145 346.996 389.272 347.969L406.515 362.868L426.299 359.527L436.087 382.439L418.248 413.37C418.248 413.37 397.667 406.069 397.431 405.005C397.194 403.948 402.325 376.096 402.325 376.096L396.591 370.895Z" fill="#D1BFB1"/>
<path d="M395.847 343.254C395.847 343.254 388.93 343.078 391.362 351.768C393.802 360.457 418.681 376.519 418.681 376.519C418.681 376.519 428.239 367.082 428.526 366.307C428.813 365.524 395.847 343.254 395.847 343.254Z" fill="#D1BFB1"/>
<path d="M448.485 381.965L439.293 422.926L405.616 438.247C401.346 440.467 395.627 444.872 395.957 449.608L400.069 508.222L357.365 507.151C356.167 507.123 355.076 441.595 355.076 441.595C355.076 441.595 353.498 434.195 355.514 425.773C355.564 425.59 355.607 425.399 355.665 425.216C355.708 425.026 355.765 424.829 355.815 424.645C355.873 424.462 355.923 424.272 355.98 424.074C356.088 423.701 356.203 423.327 356.339 422.94C356.411 422.75 356.468 422.559 356.533 422.369C356.676 421.981 356.82 421.608 356.978 421.227C357.057 421.037 357.129 420.84 357.215 420.649C357.351 420.332 357.494 420.008 357.638 419.684C357.76 419.43 357.882 419.183 358.011 418.944C358.191 418.577 358.384 418.225 358.578 417.873C359.21 416.738 359.941 415.624 360.774 414.546C361.441 413.672 362.173 412.834 362.991 412.016C363.192 411.812 363.4 411.6 363.623 411.396C364.678 410.395 365.84 409.451 367.146 408.57C379.761 399.471 384.16 393.96 384.16 393.96C388.143 386.398 392.621 379.09 396.33 371.387C398.139 367.638 399.603 363.825 400.995 359.914C401.942 357.236 403.04 354.557 406.484 354.642C412.067 354.79 414.787 357.997 413.89 361.499C413.007 365.009 405.114 391.881 405.013 395.793C405.013 395.948 405.013 396.11 405.02 396.258C405.02 396.406 405.028 396.54 405.042 396.695C405.049 396.751 405.056 396.8 405.049 396.85C405.064 396.998 405.085 397.153 405.107 397.301C405.128 397.47 405.157 397.66 405.193 397.836C405.229 398.041 405.272 398.245 405.315 398.443C405.351 398.626 405.394 398.802 405.444 398.978C405.444 398.999 405.451 399.013 405.458 399.027C405.501 399.225 405.566 399.429 405.623 399.619C405.681 399.796 405.738 399.979 405.795 400.148C405.803 400.176 405.81 400.19 405.817 400.211C407.066 403.707 409.792 406.864 413.99 404.257C418.418 401.508 427.782 390.274 431.5 383.706C432.892 381.247 433.509 377.039 431.93 374.692C426.957 367.264 416.947 350.604 416.767 342.647C416.753 341.738 417.076 340.864 417.686 340.188C418.411 339.391 419.064 338.743 419.638 338.235C419.659 338.214 419.688 338.193 419.71 338.165C420.047 337.876 420.42 337.672 420.815 337.524C420.886 337.488 420.965 337.467 421.037 337.446C422.508 337.016 424.18 337.594 425.048 338.99L430.394 347.665L431.916 350.132L431.995 350.251L447.365 372.529L448.485 381.965Z" fill="#F8EDE8"/>
<path d="M430.779 348.454C429.976 348.905 429.136 349.18 428.289 349.159C427.967 348.997 427.514 348.75 426.991 348.419C422.498 345.516 421.293 339.581 421.006 337.446C422.477 337.016 424.149 337.594 425.017 338.99L430.363 347.665C430.507 347.926 430.636 348.194 430.779 348.454Z" fill="#EAD4C1"/>
<path d="M435.144 330.153C435.144 363.614 410.957 390.737 381.124 390.737C351.291 390.737 327.104 363.614 327.104 330.153C327.104 296.695 351.291 269.572 381.124 269.572C410.957 269.572 435.144 296.695 435.144 330.153Z" fill="#1755D0"/>
<path d="M430.787 330.153C430.787 363.614 406.601 390.737 376.771 390.737C346.935 390.737 322.751 363.614 322.751 330.153C322.751 296.695 346.935 269.572 376.771 269.572C406.601 269.572 430.787 296.695 430.787 330.153Z" fill="#1262FF"/>
<path d="M427.163 330.153C427.163 363.614 402.977 390.737 373.144 390.737C343.311 390.737 319.127 363.614 319.127 330.153C319.127 296.695 343.311 269.572 373.144 269.572C402.977 269.572 427.163 296.695 427.163 330.153Z" fill="#42A6FF"/>
<path d="M419.181 330.153C419.181 358.669 398.569 381.782 373.143 381.782C347.719 381.782 327.104 358.669 327.104 330.153C327.104 301.64 347.719 278.523 373.143 278.523C398.569 278.526 419.181 301.64 419.181 330.153Z" fill="url(#paint2_linear)"/>
<path d="M377.93 376.409C352.507 376.409 331.895 353.299 331.895 324.78C331.895 311.889 336.116 300.114 343.081 291.068C333.301 300.533 327.104 314.527 327.104 330.153C327.104 358.669 347.719 381.782 373.143 381.782C387.075 381.782 399.55 374.833 407.995 363.864C399.926 371.676 389.424 376.409 377.93 376.409Z" fill="#1755D0"/>
<g opacity="0.6" clip-path="url(#clip1)">
<path d="M376.702 364.871C376.341 364.871 375.997 364.692 375.761 364.38L347.503 326.732C347.177 326.297 347.123 325.679 347.366 325.183L357.273 304.949C357.49 304.508 357.902 304.232 358.35 304.232H395.055C395.505 304.232 395.918 304.508 396.131 304.949L406.036 325.183C406.282 325.682 406.226 326.297 405.899 326.732L377.641 364.38C377.408 364.692 377.064 364.871 376.702 364.871ZM349.929 325.679L376.702 361.354L403.476 325.679L394.328 306.989H359.077L349.929 325.679Z" fill="#E1EBFF"/>
<path d="M404.344 327.661H349.057C348.379 327.661 347.828 327.043 347.828 326.282C347.828 325.522 348.379 324.904 349.057 324.904H404.344C405.022 324.904 405.572 325.522 405.572 326.282C405.572 327.043 405.022 327.661 404.344 327.661Z" fill="#E1EBFF"/>
<path d="M389.139 326.886C388.753 326.886 388.372 326.682 388.134 326.299L376.705 308.017L365.422 326.203C365.038 326.829 364.269 326.98 363.714 326.547C363.154 326.112 363.019 325.255 363.407 324.629L375.693 304.822C375.921 304.453 376.297 304.232 376.698 304.232H376.7C377.101 304.232 377.474 304.45 377.705 304.82L390.144 324.717C390.534 325.343 390.399 326.2 389.844 326.636C389.633 326.804 389.384 326.886 389.139 326.886Z" fill="#E1EBFF"/>
<path d="M376.701 364.871C376.18 364.871 375.718 364.505 375.544 363.956L357.191 306.074C356.965 305.354 357.299 304.566 357.935 304.312C358.579 304.048 359.279 304.431 359.505 305.148L376.701 359.381L393.897 305.148C394.123 304.434 394.823 304.053 395.467 304.312C396.106 304.566 396.44 305.354 396.211 306.074L377.858 363.956C377.684 364.505 377.222 364.871 376.701 364.871Z" fill="#E1EBFF"/>
</g>
<path d="M413.867 361.486C412.984 364.996 405.091 391.868 404.991 395.779C404.991 395.934 404.991 396.097 404.998 396.245C404.998 396.393 405.005 396.526 405.019 396.681C405.026 396.738 405.034 396.787 405.026 396.837C405.048 396.985 405.062 397.147 405.084 397.288C405.113 397.471 405.141 397.647 405.17 397.823C405.206 398.028 405.249 398.232 405.292 398.429C405.328 398.605 405.371 398.789 405.421 398.965C405.421 398.986 405.428 399 405.435 399.014C405.493 399.212 405.543 399.416 405.6 399.606C405.658 399.782 405.715 399.966 405.773 400.135C405.78 400.163 405.787 400.177 405.794 400.198C395.899 416.795 378.002 424.59 358.656 425.647C357.608 425.71 356.568 425.746 355.513 425.767C355.563 425.583 355.606 425.393 355.663 425.21C355.706 425.02 355.764 424.822 355.814 424.639C355.871 424.456 355.922 424.266 355.979 424.068C356.094 423.695 356.209 423.321 356.338 422.934C356.41 422.743 356.467 422.553 356.532 422.363C356.675 421.975 356.819 421.602 356.977 421.221C357.056 421.031 357.127 420.833 357.213 420.643C357.35 420.326 357.493 420.002 357.637 419.678C357.759 419.424 357.881 419.177 358.01 418.938C358.189 418.571 358.383 418.219 358.577 417.866C359.208 416.732 359.94 415.618 360.773 414.54C361.44 413.666 362.172 412.827 362.99 412.01C363.191 411.806 363.399 411.594 363.621 411.39C364.676 410.389 365.839 409.445 367.145 408.564C379.76 399.465 384.159 393.954 384.159 393.954C388.142 386.392 392.002 377.843 395.712 370.148C397.52 366.398 398.597 362.374 399.996 358.47C400.943 355.792 403.082 354.164 406.483 354.636C413.293 355.587 414.764 357.983 413.867 361.486Z" fill="#F8EDE8"/>
<path d="M402.603 357.476L401.183 363.1C400.508 365.743 401.828 368.59 404.412 369.577C407.497 370.746 410.863 368.956 411.638 365.905L413.123 360.048C413.439 358.801 412.671 357.539 411.401 357.236L405.481 355.792C404.204 355.467 402.919 356.228 402.603 357.476Z" fill="#EAD4C1"/>
<path d="M360.76 507.243L357.365 507.152C356.167 507.123 355.076 441.595 355.076 441.595C355.076 441.595 353.498 434.195 355.514 425.774C355.564 425.59 355.607 425.4 355.665 425.217C355.708 425.027 355.765 424.829 355.815 424.646C355.873 424.463 355.923 424.272 355.98 424.075C356.088 423.702 356.203 423.328 356.339 422.941C356.411 422.75 356.468 422.56 356.533 422.37C356.676 421.982 356.82 421.609 356.978 421.228C357.057 421.038 357.129 420.84 357.215 420.65C357.351 420.333 357.494 420.009 357.638 419.685C357.76 419.431 357.882 419.184 358.011 418.945C358.191 418.578 358.384 418.226 358.578 417.873C359.21 416.739 359.941 415.625 360.774 414.547C359.977 417.556 357.825 423.49 357.258 427.923C356.253 435.704 357.179 443.611 357.796 456.846C359.073 484.952 360.121 499.808 360.76 507.243Z" fill="#D1BFB1"/>
<path d="M394.556 454.133H352.204V536.998H394.556V454.133Z" fill="#00D46A"/>
<path d="M412.679 454.133H394.56V536.998H412.679V454.133Z" fill="#00AE57"/>
<path d="M583.061 323.691C590.502 322.12 596.314 318.102 600.491 311.64C602.292 308.37 603.368 304.973 603.928 301.52C602.005 291.773 597.721 283.978 591.7 282.491C574.808 278.326 560.614 283.4 560.614 283.4C560.614 283.4 562.394 303.747 569.821 322.38C574.119 323.945 578.999 324.389 583.061 323.691Z" fill="#D1BFB1"/>
<path d="M560.614 283.392L584.431 303.421C584.431 303.421 592.547 322.949 589.548 339.962C605.213 345.339 612.044 311.92 612.044 311.92C612.044 311.92 596.135 283.624 594.894 283.617C593.659 283.61 566.111 264.37 560.614 283.392Z" fill="#D1BFB1"/>
<path d="M603.929 301.512C603.37 304.965 602.293 308.369 600.492 311.632C596.316 318.095 590.503 322.112 583.062 323.683C579 324.388 574.121 323.937 569.822 322.365C573.841 332.45 579.51 342.035 587.439 347.638C603.154 343.057 607.402 319.109 603.929 301.512Z" fill="#C1C1C1"/>
<path d="M586.699 274.647C585.665 274.555 584.474 274.435 583.204 274.287C581.876 277.409 581.015 280.771 580.061 284.104C581.023 280.771 581.884 277.416 583.204 274.287C579.078 273.829 573.918 273.117 569.627 272.497C564.834 271.806 561.117 271.229 561.117 271.229C561.117 271.229 552.871 269.953 555.283 279.305C557.758 282.66 563.277 284.414 568.486 285.345C573.273 286.19 577.779 286.338 579.379 286.367C579.781 286.367 580.011 286.367 580.011 286.367C580.011 286.367 583.713 290.983 590.495 299.736C592.647 293.759 594.535 287.79 595.568 281.814C593.021 279.693 590.071 277.311 586.699 274.647Z" fill="#F8EDE8"/>
<path d="M618.878 256.229C618.878 294.75 590.105 325.974 554.616 325.974C519.126 325.974 490.354 294.75 490.354 256.229C490.354 217.711 519.126 186.486 554.616 186.486C590.105 186.486 618.878 217.711 618.878 256.229Z" fill="#1755D0"/>
<path d="M613.696 256.229C613.696 294.75 584.923 325.974 549.437 325.974C513.944 325.974 485.175 294.75 485.175 256.229C485.175 217.711 513.944 186.486 549.437 186.486C584.923 186.486 613.696 217.711 613.696 256.229Z" fill="#1262FF"/>
<path d="M609.385 256.229C609.385 294.75 580.612 325.974 545.122 325.974C509.633 325.974 480.863 294.75 480.863 256.229C480.863 217.711 509.633 186.486 545.122 186.486C580.612 186.486 609.385 217.711 609.385 256.229Z" fill="#42A6FF"/>
<path d="M599.888 256.228C599.888 289.057 575.369 315.665 545.121 315.665C514.877 315.665 490.354 289.057 490.354 256.228C490.354 223.403 514.877 196.791 545.121 196.791C575.369 196.795 599.888 223.403 599.888 256.228Z" fill="url(#paint3_linear)"/>
<path d="M550.817 309.481C520.572 309.481 496.052 282.876 496.052 250.044C496.052 235.204 501.074 221.648 509.359 211.234C497.725 222.13 490.354 238.24 490.354 256.229C490.354 289.058 514.876 315.666 545.121 315.666C561.695 315.666 576.536 307.666 586.581 295.039C576.983 304.032 564.49 309.481 550.817 309.481Z" fill="#1755D0"/>
<g opacity="0.6" clip-path="url(#clip2)">
<path d="M548.685 291.869C548.255 291.869 547.846 291.663 547.566 291.305L513.95 247.963C513.561 247.461 513.497 246.751 513.786 246.18L525.572 222.886C525.829 222.378 526.32 222.061 526.852 222.061H570.518C571.053 222.061 571.544 222.378 571.798 222.886L583.581 246.18C583.874 246.754 583.806 247.461 583.418 247.963L549.802 291.305C549.524 291.663 549.115 291.869 548.685 291.869ZM516.835 246.751L548.685 287.82L580.535 246.751L569.653 225.234H527.718L516.835 246.751Z" fill="#E1EBFF"/>
<path d="M581.568 249.033H515.797C514.991 249.033 514.336 248.322 514.336 247.446C514.336 246.57 514.991 245.859 515.797 245.859H581.568C582.374 245.859 583.029 246.57 583.029 247.446C583.029 248.322 582.374 249.033 581.568 249.033Z" fill="#E1EBFF"/>
<path d="M563.479 248.141C563.02 248.141 562.567 247.906 562.283 247.465L548.688 226.417L535.265 247.354C534.809 248.074 533.894 248.248 533.233 247.75C532.567 247.249 532.406 246.262 532.868 245.542L547.483 222.74C547.755 222.314 548.202 222.061 548.679 222.061H548.682C549.158 222.061 549.603 222.311 549.877 222.736L564.674 245.643C565.139 246.364 564.978 247.35 564.318 247.852C564.066 248.045 563.771 248.141 563.479 248.141Z" fill="#E1EBFF"/>
<path d="M548.683 291.868C548.064 291.868 547.514 291.446 547.307 290.815L525.474 224.179C525.205 223.351 525.602 222.443 526.359 222.151C527.125 221.847 527.958 222.288 528.227 223.113L548.683 285.547L569.139 223.113C569.408 222.291 570.241 221.853 571.007 222.151C571.767 222.443 572.165 223.351 571.893 224.179L550.06 290.815C549.853 291.446 549.303 291.868 548.683 291.868Z" fill="#E1EBFF"/>
</g>
<path d="M613.652 379.057C613.767 363.249 621.345 340.979 621.008 330.429C617.26 321.855 611.276 299.773 610.282 296.067C610.185 295.705 610.061 295.365 609.876 295.039C609.549 294.46 608.946 293.511 608.234 292.939C605.582 298.132 596.134 308.882 595.638 309.816C595.142 310.75 595.203 309.323 595.97 310.317C597.886 333.045 592.067 335.524 585.444 337.505C585.343 337.491 585.25 337.477 585.15 337.462C573.453 335.609 571.48 315.058 568.817 306.39C567.296 301.407 565.868 294.945 559.682 294.212C554.803 293.641 548.718 296.869 549.758 302.387C550.576 306.721 557.881 326.067 559.998 343.192C559.998 343.192 559.998 343.213 560.005 343.256C560.02 343.319 560.027 343.382 560.034 343.446C560.048 343.559 560.063 343.693 560.091 343.862C560.465 347.089 560.644 350.226 560.558 353.15C560.02 371.798 576.094 390.404 579.373 394.477C582.645 398.558 580.091 456.291 580.091 456.291L582.265 456.171L628.836 453.768C628.836 453.768 616.401 400.968 613.652 379.057Z" fill="#F8EDE8"/>
<path d="M551.616 300.864L553.188 307.615C553.862 310.491 556.553 312.598 559.538 312.323C563.162 311.992 565.566 308.609 564.777 305.233L563.148 298.277C562.811 296.804 561.318 295.888 559.825 296.226L553.697 297.601C552.205 297.939 551.279 299.398 551.616 300.864Z" fill="#EAD4C1"/>
<path d="M582.269 456.171L580.095 456.291C580.095 456.291 582.65 398.564 579.377 394.477C576.098 390.403 560.024 371.798 560.562 353.15C560.648 350.225 560.462 347.089 560.096 343.861C560.605 347.688 563.282 366.66 567.257 372.397C571.678 378.775 577.124 387.472 579.578 390.735C582.032 393.998 583.353 402.645 583.353 422.646C583.353 436.269 582.7 449.271 582.269 456.171Z" fill="#D1BFB1"/>
<path d="M616.056 390.994H573.704V536.998H616.056V390.994Z" fill="#14B0BF"/>
<path d="M634.178 390.994H616.059V536.998H634.178V390.994Z" fill="#17C5CC"/>
<path d="M465.139 294.565C464.824 294.05 437.297 285.967 437.297 285.967C437.297 285.967 421.252 289.85 434.627 299.167C445.377 306.658 471.354 308.47 471.354 308.47C472.545 308.477 465.139 294.565 465.139 294.565Z" fill="#D1BFB1"/>
<path d="M476.118 309.075C475.673 308.645 444.766 301.449 444.766 301.449C444.766 301.449 434.806 311.316 447.809 321.147C485.956 350.007 486.071 320.076 485.727 320.971C486.882 320.675 476.118 309.075 476.118 309.075Z" fill="#D1BFB1"/>
<path d="M427.02 276.867C437.755 282.836 441.264 281.596 442.419 280.073L441.4 279.629L429.969 274.576C429.976 274.576 428.412 275.422 427.02 276.867Z" fill="#EAD4C1"/>
<path d="M463.161 289.256L461.353 288.453L442.423 280.073L441.404 279.629L429.973 274.576C429.973 274.576 428.401 275.422 427.016 276.867C426.865 277.036 426.7 277.205 426.557 277.381C424.239 280.151 422.567 281.758 433.475 289.538C440.543 294.563 447.618 297.312 453.273 301.244C453.868 301.639 454.414 302.062 454.974 302.499C455.354 302.795 455.72 303.105 456.086 303.401C459.796 306.346 463.355 309.49 466.886 312.654V290.785L463.161 289.256Z" fill="#F8EDE8"/>
<path d="M474.184 281.291C474.184 311.167 450.86 335.384 422.093 335.384C393.325 335.384 370.002 311.167 370.002 281.291C370.002 251.418 393.325 227.201 422.093 227.201C450.86 227.201 474.184 251.418 474.184 281.291Z" fill="#00743A"/>
<path d="M469.986 281.291C469.986 311.167 446.662 335.384 417.897 335.384C389.127 335.384 365.807 311.167 365.807 281.291C365.807 251.418 389.127 227.201 417.897 227.201C446.662 227.201 469.986 251.418 469.986 281.291Z" fill="#00D46A"/>
<path d="M466.489 281.291C466.489 311.167 443.166 335.384 414.399 335.384C385.631 335.384 362.311 311.167 362.311 281.291C362.311 251.418 385.631 227.201 414.399 227.201C443.166 227.201 466.489 251.418 466.489 281.291Z" fill="#11F985"/>
<path d="M458.791 281.291C458.791 306.752 438.915 327.389 414.396 327.389C389.88 327.389 370.002 306.752 370.002 281.291C370.002 255.833 389.88 235.193 414.396 235.193C438.915 235.196 458.791 255.833 458.791 281.291Z" fill="url(#paint4_linear)"/>
<path d="M419.013 322.592C394.497 322.592 374.621 301.958 374.621 276.494C374.621 264.985 378.692 254.471 385.408 246.395C375.977 254.845 370.002 267.34 370.002 281.291C370.002 306.752 389.88 327.389 414.396 327.389C427.831 327.389 439.861 321.184 448.004 311.391C440.224 318.365 430.097 322.592 419.013 322.592Z" fill="#33C47B"/>
<g opacity="0.8" clip-path="url(#clip3)">
<path d="M416.908 312.29C416.56 312.29 416.228 312.13 416.001 311.852L388.752 278.237C388.437 277.849 388.385 277.297 388.619 276.854L398.173 258.788C398.381 258.395 398.78 258.148 399.211 258.148H434.606C435.039 258.148 435.438 258.395 435.644 258.788L445.195 276.854C445.432 277.3 445.377 277.849 445.062 278.237L417.813 311.852C417.588 312.13 417.257 312.29 416.908 312.29ZM391.091 277.297L416.908 309.15L442.726 277.297L433.904 260.609H399.912L391.091 277.297Z" fill="#8DFFC6"/>
<path d="M443.563 279.066H390.25C389.596 279.066 389.065 278.515 389.065 277.836C389.065 277.157 389.596 276.605 390.25 276.605H443.563C444.217 276.605 444.748 277.157 444.748 277.836C444.748 278.515 444.217 279.066 443.563 279.066Z" fill="#8DFFC6"/>
<path d="M428.9 278.375C428.528 278.375 428.161 278.193 427.931 277.851L416.911 261.527L406.03 277.765C405.661 278.324 404.919 278.459 404.384 278.073C403.843 277.684 403.713 276.918 404.087 276.36L415.935 258.675C416.155 258.345 416.518 258.148 416.904 258.148H416.906C417.292 258.148 417.653 258.343 417.875 258.673L429.87 276.438C430.246 276.997 430.116 277.762 429.581 278.151C429.377 278.301 429.137 278.375 428.9 278.375Z" fill="#8DFFC6"/>
<path d="M416.906 312.29C416.404 312.29 415.958 311.962 415.79 311.473L398.093 259.792C397.875 259.15 398.197 258.446 398.811 258.22C399.431 257.983 400.107 258.325 400.325 258.965L416.906 307.387L433.488 258.965C433.706 258.328 434.381 257.988 435.002 258.22C435.618 258.446 435.94 259.15 435.72 259.792L418.022 311.473C417.854 311.962 417.408 312.29 416.906 312.29Z" fill="#8DFFC6"/>
</g>
<path d="M529.133 394.279C529.133 394.279 527.274 389.768 528.594 386.181C529.707 383.137 526.65 345.806 526.635 335.178C526.635 333.226 526.033 331.316 524.913 329.702C521.174 324.318 518.849 317.587 514.135 312.668C511.056 309.462 505.036 307.777 501.089 305.452C496.741 302.886 492.507 300.117 488.323 297.298C486.314 295.937 482.547 292.999 480.085 292.928C474.316 292.773 472.307 292.956 472.307 292.956L472.07 292.942L468.46 290.775C468.46 290.775 467.472 296.397 466.379 299.863C465.222 303.532 462.633 308.95 462.633 308.95C464.205 310.353 470.025 315.466 471.589 316.876C473.519 318.616 476.275 320.428 477.796 322.542C479.482 324.882 479.317 331.598 475.134 331.091C472.464 330.78 469.702 327.63 468.46 325.474C465.676 320.632 453.599 304.768 442.584 300.462C432.487 296.522 429.624 300.758 429.215 301.505C429.179 301.568 429.165 301.604 429.165 301.604L439.305 317.108C439.305 317.108 458.156 341.584 461.177 352.423C461.263 352.762 461.349 353.114 461.449 353.467C464.37 364.926 470.183 371.332 483.042 385.512C484.326 396.097 484.427 452.992 484.427 452.992L486.3 453.514L530.611 466.065L529.133 394.279Z" fill="#F8EDE8"/>
<path d="M468.433 290.775C470.349 292.284 471.393 293.394 473.28 294.931C477.743 298.602 482.178 302.295 486.627 305.967C488.45 307.482 490.265 309.012 492.124 310.477C494.499 312.352 497.886 312.232 500.398 314.065C501.955 315.206 503.433 316.658 504.502 318.258C505.486 319.738 505.586 321.923 506.906 323.149C506.87 323.121 506.87 321.126 506.827 320.809C506.433 318.138 505.823 315.27 503.354 313.649C501.489 312.43 499.278 311.492 497.14 310.858L474.105 292.873L473.868 292.859L468.433 290.775Z" fill="#D1BFB1"/>
<path d="M429.208 301.471L429.201 301.485C429.165 301.548 429.15 301.583 429.15 301.583L439.29 317.088C440.065 315.953 440.783 314.593 441.328 313.05C439.139 305.861 432.128 302.168 429.208 301.471Z" fill="#EAD4C1"/>
<path d="M461.162 352.404C461.248 352.743 461.334 353.095 461.435 353.447C464.355 364.907 470.168 371.313 483.027 385.493C484.312 396.078 484.412 452.973 484.412 452.973L486.285 453.494C487.024 437.644 487.153 385.218 487.153 385.218C487.153 385.218 472.227 374.259 461.162 352.404Z" fill="#D1BFB1"/>
<path d="M517.207 417.016H474.854V537H517.207V417.016Z" fill="#0087FF"/>
<path d="M535.329 417.016H517.21V537H535.329V417.016Z" fill="#0076DE"/>
<path d="M350.516 197.174L351.535 199.828C352.162 201.461 353.451 202.752 355.082 203.379L357.732 204.4L355.082 205.421C353.451 206.048 352.162 207.339 351.535 208.972L350.516 211.626L349.497 208.972C348.87 207.339 347.581 206.048 345.95 205.421L343.3 204.4L345.95 203.379C347.581 202.752 348.87 201.461 349.497 199.828L350.516 197.174Z" fill="#3ABAD8"/>
<path d="M479.925 130L481.287 133.548C482.125 135.73 483.849 137.456 486.028 138.295L489.572 139.659L486.028 141.023C483.849 141.862 482.125 143.587 481.287 145.77L479.925 149.318L478.562 145.77C477.724 143.587 476.001 141.862 473.821 141.023L470.277 139.659L473.821 138.295C476.001 137.456 477.724 135.73 478.562 133.548L479.925 130Z" fill="#3ABAD8"/>
<path d="M671.194 364.682L672.557 368.23C673.395 370.412 675.118 372.137 677.298 372.976L680.842 374.341L677.298 375.705C675.118 376.544 673.395 378.269 672.557 380.451L671.194 383.999L669.832 380.451C668.993 378.269 667.27 376.544 665.091 375.705L661.547 374.341L665.091 372.976C667.27 372.137 668.993 370.412 669.832 368.23L671.194 364.682Z" fill="#3ABAD8"/>
<path d="M629.666 272.592L630.408 274.523C630.863 275.711 631.802 276.65 632.987 277.105L634.916 277.847L632.987 278.59C631.801 279.047 630.863 279.986 630.408 281.174L629.666 283.105L628.924 281.174C628.467 279.986 627.53 279.047 626.343 278.59L624.414 277.847L626.343 277.105C627.53 276.648 628.467 275.71 628.924 274.523L629.666 272.592Z" fill="#3ABAD8"/>
<path d="M656.401 193.127L657.142 195.058C657.598 196.246 658.536 197.185 659.721 197.641L661.65 198.384L659.721 199.127C658.534 199.584 657.597 200.522 657.142 201.71L656.401 203.642L655.659 201.71C655.204 200.522 654.265 199.584 653.078 199.127L651.149 198.384L653.078 197.641C654.265 197.185 655.202 196.245 655.659 195.058L656.401 193.127Z" fill="#3ABAD8"/>
<path d="M242.952 264.422L243.935 266.979C244.539 268.552 245.78 269.794 247.351 270.399L249.905 271.383L247.351 272.365C245.78 272.969 244.539 274.213 243.935 275.785L242.952 278.342L241.97 275.785C241.366 274.212 240.125 272.969 238.554 272.365L236 271.383L238.554 270.399C240.125 269.794 241.366 268.552 241.97 266.979L242.952 264.422Z" fill="#3ABAD8"/>
<defs>
<radialGradient id="paint0_radial" cx="0" cy="0" r="1" gradientUnits="userSpaceOnUse" gradientTransform="translate(394 261.5) rotate(-175.948) scale(284.706 360.554)">
<stop offset="0.0001" stop-color="#9CFFF9" stop-opacity="0.984375"/>
<stop offset="1" stop-color="#327BB7" stop-opacity="0"/>
</radialGradient>
<linearGradient id="paint1_linear" x1="298.139" y1="260.645" x2="298.139" y2="337.351" gradientUnits="userSpaceOnUse">
<stop stop-color="#04C464"/>
<stop offset="1" stop-color="#02A76C"/>
</linearGradient>
<linearGradient id="paint2_linear" x1="373.143" y1="278.523" x2="373.143" y2="381.782" gradientUnits="userSpaceOnUse">
<stop stop-color="#0087FF"/>
<stop offset="1" stop-color="#1262FF"/>
</linearGradient>
<linearGradient id="paint3_linear" x1="545.121" y1="196.791" x2="545.121" y2="315.665" gradientUnits="userSpaceOnUse">
<stop stop-color="#0087FF"/>
<stop offset="1" stop-color="#1262FF"/>
</linearGradient>
<linearGradient id="paint4_linear" x1="414.396" y1="235.193" x2="414.396" y2="327.389" gradientUnits="userSpaceOnUse">
<stop stop-color="#04C464"/>
<stop offset="1" stop-color="#02A76C"/>
</linearGradient>
<clipPath id="clip0">
<rect width="47.0533" height="49.1409" fill="white" transform="translate(278.112 277.693)"/>
</clipPath>
<clipPath id="clip1">
<rect width="58.9729" height="66.1512" fill="white" transform="translate(347.215 301.477)"/>
</clipPath>
<clipPath id="clip2">
<rect width="70.1548" height="76.1551" fill="white" transform="translate(513.606 218.887)"/>
</clipPath>
<clipPath id="clip3">
<rect width="56.8672" height="59.0636" fill="white" transform="translate(388.474 255.688)"/>
</clipPath>
</defs>
</svg>
