<svg width="568" height="481" viewBox="0 0 568 481" fill="none" xmlns="http://www.w3.org/2000/svg">
<g style="mix-blend-mode:overlay" opacity="0.5">
<path d="M76.0552 330.889C76.9877 330.887 77.8986 330.608 78.6728 330.088C79.4469 329.568 80.0496 328.83 80.4047 327.968C80.7598 327.105 80.8514 326.157 80.6679 325.243C80.4844 324.328 80.0341 323.489 79.3737 322.83C78.7134 322.172 77.8727 321.724 76.9579 321.543C76.043 321.362 75.0951 321.456 74.2337 321.814C73.3724 322.171 72.6363 322.776 72.1184 323.551C71.6006 324.327 71.3242 325.238 71.3242 326.171C71.3242 326.792 71.4467 327.406 71.6846 327.98C71.9225 328.553 72.2712 329.074 72.7107 329.512C73.1502 329.95 73.6718 330.297 74.2457 330.534C74.8196 330.77 75.4345 330.891 76.0552 330.889Z" fill="#B2EBF2"/>
</g>
<g style="mix-blend-mode:overlay" opacity="0.5">
<path d="M117.684 68.3129C118.617 68.3129 119.529 68.0362 120.305 67.5178C121.081 66.9993 121.686 66.2625 122.043 65.4004C122.4 64.5383 122.493 63.5897 122.311 62.6745C122.129 61.7593 121.68 60.9186 121.02 60.2588C120.36 59.599 119.519 59.1497 118.604 58.9676C117.689 58.7856 116.74 58.879 115.878 59.2361C115.016 59.5932 114.279 60.1979 113.761 60.9738C113.243 61.7496 112.966 62.6618 112.966 63.5949C112.966 64.8462 113.463 66.0462 114.348 66.931C115.233 67.8158 116.433 68.3129 117.684 68.3129Z" fill="#B2EBF2"/>
</g>
<g style="mix-blend-mode:overlay" opacity="0.5">
<path d="M56.7189 9.43594C57.652 9.43594 58.5642 9.15926 59.3401 8.64084C60.1159 8.12243 60.7207 7.38559 61.0778 6.52349C61.4349 5.6614 61.5283 4.71276 61.3463 3.79756C61.1642 2.88236 60.7149 2.04165 60.0551 1.38183C59.3953 0.722012 58.5546 0.272702 57.6394 0.0906577C56.7242 -0.0913862 55.7755 0.00204103 54.9134 0.359133C54.0513 0.716225 53.3145 1.32098 52.7961 2.09685C52.2777 2.87271 52.001 3.78489 52.001 4.71801C52.001 5.9693 52.498 7.16932 53.3828 8.05411C54.2676 8.9389 55.4676 9.43594 56.7189 9.43594Z" fill="#B2EBF2"/>
</g>
<g style="mix-blend-mode:overlay" opacity="0.5">
<path d="M4.71898 127.436C5.65211 127.436 6.56428 127.159 7.34015 126.641C8.11601 126.122 8.72069 125.386 9.07778 124.523C9.43487 123.661 9.5283 122.713 9.34625 121.798C9.16421 120.882 8.7149 120.042 8.05508 119.382C7.39526 118.722 6.55463 118.273 5.63943 118.091C4.72424 117.909 3.77559 118.002 2.9135 118.359C2.0514 118.716 1.31456 119.321 0.796147 120.097C0.277729 120.873 0.000976562 121.785 0.000976562 122.718C0.000976562 123.969 0.498088 125.169 1.38288 126.054C2.26767 126.939 3.4677 127.436 4.71898 127.436Z" fill="#B2EBF2"/>
</g>
<g style="mix-blend-mode:overlay" opacity="0.5">
<path d="M562.719 259.436C563.652 259.436 564.564 259.159 565.34 258.641C566.116 258.122 566.721 257.386 567.078 256.523C567.435 255.661 567.528 254.713 567.346 253.798C567.164 252.882 566.715 252.042 566.055 251.382C565.395 250.722 564.555 250.273 563.639 250.091C562.724 249.909 561.776 250.002 560.913 250.359C560.051 250.716 559.315 251.321 558.796 252.097C558.278 252.873 558.001 253.785 558.001 254.718C557.999 255.338 558.12 255.952 558.357 256.525C558.593 257.099 558.941 257.619 559.379 258.058C559.817 258.496 560.338 258.844 560.911 259.08C561.485 259.317 562.099 259.438 562.719 259.436Z" fill="#B2EBF2"/>
</g>
<g style="mix-blend-mode:overlay" opacity="0.5">
<path d="M512.719 480.436C513.652 480.436 514.564 480.159 515.34 479.641C516.116 479.122 516.721 478.386 517.078 477.523C517.435 476.661 517.528 475.713 517.346 474.798C517.164 473.882 516.715 473.042 516.055 472.382C515.395 471.722 514.555 471.273 513.639 471.091C512.724 470.909 511.776 471.002 510.913 471.359C510.051 471.716 509.314 472.321 508.796 473.097C508.278 473.873 508.001 474.785 508.001 475.718C508.001 476.969 508.498 478.169 509.383 479.054C510.268 479.939 511.468 480.436 512.719 480.436Z" fill="#B2EBF2"/>
</g>
<g style="mix-blend-mode:overlay" opacity="0.5">
<path d="M459.719 29.4359C460.652 29.4359 461.564 29.1593 462.34 28.6408C463.116 28.1224 463.721 27.3855 464.078 26.5234C464.435 25.6613 464.528 24.7128 464.346 23.7976C464.164 22.8824 463.715 22.0417 463.055 21.3818C462.395 20.722 461.555 20.2727 460.639 20.0907C459.724 19.9086 458.776 20.002 457.913 20.3591C457.051 20.7162 456.315 21.3209 455.796 22.0968C455.278 22.8726 455.001 23.7848 455.001 24.7179C454.999 25.338 455.12 25.9523 455.357 26.5255C455.593 27.0986 455.941 27.6195 456.379 28.0579C456.818 28.4963 457.338 28.8438 457.911 29.0803C458.485 29.3168 459.099 29.4376 459.719 29.4359Z" fill="#B2EBF2"/>
</g>
<path d="M415.681 153.36L412.277 153V313.891L409.136 313.328L404.625 332.158C404.625 332.158 423.22 331.654 423.22 315.847V166.866C423.218 156.712 418.43 153.97 415.681 153.36Z" fill="#0E84A4"/>
<path d="M405.604 153.715L221.876 113.44V113.464C218.427 112.466 214.788 111.921 211.019 111.921C189.453 111.921 171.97 120.767 171.97 142.359C171.97 163.952 189.453 181.456 211.019 181.456C214.788 181.456 218.429 180.911 221.876 179.913V279.159C221.876 286.134 226.75 292.159 233.565 293.605L399.483 331.83C408.656 333.778 417.294 326.773 417.294 317.384V168.16C417.294 161.186 412.419 155.163 405.604 153.715Z" fill="#005971"/>
<path d="M369.133 179.913L368.194 179.636V338.263L365.053 337.708L360.542 356.273C360.542 356.273 379.139 355.774 379.139 340.191V193.306C379.137 187.117 375.066 181.663 369.133 179.913Z" fill="#0E84A4"/>
<path d="M361.736 181.294L184.357 141.918L178.805 120.917C172.13 131.359 171.97 139.289 171.97 139.289V301.262C171.97 308.237 176.845 314.262 183.659 315.708L355.617 355.948C364.79 357.896 373.428 350.891 373.428 341.502V195.742C373.426 188.765 368.551 182.742 361.736 181.294Z" fill="#3EB2CF"/>
<path d="M415.681 153.36L221.644 110.623C213.764 109.009 206.101 108.715 198.87 109.752C190.338 110.971 183.218 114.295 178.804 120.915C174.55 127.298 175.317 132.329 176.711 135.425C181.881 146.92 203.668 150.379 206.745 150.815L366.762 186.407C366.762 186.407 373.132 187.55 373.427 197.514C373.427 197.514 377.807 182.547 368.876 179.854C368.662 179.761 368.435 179.686 368.196 179.635L208.06 144.014C207.979 143.996 207.894 143.982 207.811 143.97C202.372 143.224 186.141 139.528 183.018 132.582C182.652 131.768 181.539 129.293 184.559 124.761C187.864 119.799 193.289 117.547 199.847 116.609C206.292 115.69 213.163 115.959 220.241 117.405L412.277 159.732H412.279L412.457 159.768C413.12 159.916 415.555 160.635 416.508 163.413C417.263 165.615 417.354 161.876 417.333 159.27C417.833 158.802 418.203 158.182 418.355 157.461C418.747 155.59 417.55 153.753 415.681 153.36Z" fill="#0E84A4"/>
<path d="M389.993 248.57L326.703 233.158C321.805 232.081 317.011 232.672 312.798 234.458L312.768 234.434L312.256 234.691C311.706 234.94 311.172 235.212 310.644 235.503L302.11 239.807L303.526 241.567C300.506 245.447 298.669 250.33 298.669 255.731V257.134C298.669 267.987 306.212 277.378 316.801 279.707L380.263 295.177L383.979 299.799C383.943 299.825 389.52 297.043 391.492 296.056C391.648 295.985 391.797 295.911 391.947 295.83C392.085 295.761 392.182 295.712 392.182 295.712L392.184 295.678C394.39 294.375 395.934 292.006 395.934 289.183V255.962C395.934 252.407 393.462 249.331 389.993 248.57Z" fill="#005971"/>
<path d="M377.909 301.085L307.959 284.211C297.372 281.884 289.827 272.493 289.827 261.638V260.235C289.827 245.473 303.461 234.497 317.861 237.662L381.151 253.074C384.62 253.837 387.092 256.914 387.092 260.47V293.691C387.092 298.527 382.626 302.122 377.909 301.085Z" fill="#057593"/>
<path d="M324.38 261.815C324.38 267.864 319.481 272.769 313.439 272.769C307.397 272.769 302.498 267.864 302.498 261.815C302.498 255.765 307.397 250.86 313.439 250.86C319.481 250.86 324.38 255.765 324.38 261.815Z" fill="#005971"/>
<path d="M343.385 128.171C341.775 111.06 333.534 96.426 321.927 87.3613C318.167 84.4248 314.065 82.0755 309.712 80.4149C308.165 79.8296 306.587 79.3253 304.979 78.9102C302.65 78.3107 300.253 77.9036 297.828 77.7113C296.398 77.5958 294.95 77.5776 293.493 77.61L293.465 77.5958L293.036 77.6343C292.195 77.6626 291.355 77.6809 290.506 77.7599C289.658 77.8388 288.817 77.9462 287.983 78.0758L276.098 79.1188L276.338 81.6725C257.692 90.5246 245.647 112.625 247.957 137.167C249.678 155.474 259.001 170.959 271.914 179.801C273.994 181.233 276.172 182.49 278.42 183.554C279.931 184.264 281.484 184.904 283.056 185.443C284.088 185.798 285.133 186.109 286.189 186.385L286.43 188.937L307.754 186.926L308.478 186.128C330.759 179.746 345.952 155.472 343.385 128.171Z" fill="#009249"/>
<path d="M328.977 129.53C331.829 159.851 312.774 186.454 286.428 188.937C284.957 189.074 283.491 189.135 282.036 189.119C277.43 189.076 272.926 188.272 268.647 186.802C267.076 186.263 265.522 185.623 264.011 184.912C261.764 183.851 259.585 182.594 257.506 181.16C244.593 172.318 235.27 156.833 233.548 138.526C230.696 108.204 249.751 81.6016 276.097 79.1188C278.569 78.8859 281.015 78.8778 283.42 79.0722C285.845 79.2646 288.242 79.6696 290.57 80.2691C292.178 80.6822 293.756 81.1885 295.303 81.7738C299.656 83.4344 303.759 85.7857 307.519 88.7202C319.128 97.7869 327.368 112.421 328.977 129.53Z" fill="#08C868"/>
<g opacity="0.31">
<path opacity="0.31" d="M277.702 96.1447C259.552 97.856 246.38 116.241 248.346 137.128C250.31 158.016 266.678 173.62 284.828 171.909C302.981 170.198 316.147 151.809 314.181 130.921C312.217 110.033 295.855 94.4354 277.702 96.1447Z" fill="white"/>
</g>
<path d="M250.358 137.357C248.248 114.916 262.345 95.2334 281.844 93.3965C282.042 93.3783 282.239 93.3905 282.437 93.3763C280.788 93.2669 279.128 93.2386 277.441 93.3965C257.941 95.2354 243.844 114.916 245.954 137.357C248.044 159.57 265.231 176.129 284.492 174.681C267.082 173.521 252.285 157.858 250.358 137.357Z" fill="#02793D"/>
<path d="M316.572 130.7C314.644 110.199 299.848 94.5364 282.438 93.376C282.24 93.3902 282.044 93.378 281.845 93.3962C262.346 95.2351 248.247 114.916 250.359 137.357C252.287 157.858 267.083 173.519 284.493 174.681C284.691 174.667 284.888 174.679 285.086 174.661C304.585 172.822 318.684 153.141 316.572 130.7Z" fill="#009249"/>
<path d="M285.281 149.229L285.467 154.636L278.956 154.859L278.778 149.697C274.15 149.563 269.627 148.403 266.793 146.695L270.015 138.196C273.128 139.99 277.235 141.069 280.791 140.946C283.886 140.841 284.97 140.12 284.929 138.951C284.782 134.664 267.03 138.736 266.593 126.022C266.405 120.518 270.032 115.761 277.566 114.379L277.384 109.069L283.896 108.847L284.074 114.06C287.502 114.284 290.858 115.094 293.544 116.563L290.551 125.006C287.306 123.41 284.276 122.685 281.458 122.782C278.272 122.891 277.289 123.9 277.33 125.07C277.469 129.163 295.225 125.137 295.656 137.706C295.84 142.963 292.393 147.667 285.281 149.229Z" fill="#00ED6E"/>
<path d="M379.377 389.896C372.52 393.885 368.248 398.805 366.557 403.955C366.569 399.939 366.579 395.923 366.591 391.907C368.282 386.757 372.554 381.838 379.411 377.848C397.697 367.21 427.434 367.21 445.839 377.848C455.037 383.164 459.661 390.135 459.699 397.105C459.687 401.121 459.677 405.137 459.665 409.153C459.626 402.183 455.004 395.212 445.805 389.896C427.4 379.257 397.663 379.257 379.377 389.896Z" fill="#28F18D"/>
<path d="M366.559 403.955C366.011 405.628 365.734 407.325 365.728 409.024L365.762 396.976C365.766 395.279 366.043 393.58 366.593 391.907C366.587 393.916 366.581 395.923 366.575 397.93C366.573 398.404 366.573 399.034 366.571 399.508C366.569 400.275 366.567 401.043 366.565 401.81C366.563 402.246 366.563 402.827 366.561 403.262C366.559 403.471 366.591 403.751 366.559 403.955Z" fill="#28F18D"/>
<path d="M459.7 397.238L459.665 409.286C459.645 416.212 455.098 423.13 446.013 428.415C427.728 439.054 397.991 439.054 379.594 428.422C370.331 423.067 365.707 416.042 365.728 409.026L365.762 396.979C365.742 403.994 370.368 411.021 379.628 416.374C398.025 427.008 427.762 427.008 446.048 416.368C455.132 411.082 459.679 404.164 459.7 397.238Z" fill="#08C868"/>
<path d="M459.664 409.287C459.664 409.242 459.664 409.198 459.664 409.155C459.674 405.139 459.686 401.123 459.699 397.107C459.699 397.152 459.699 397.197 459.699 397.241C459.688 400.854 459.674 405.672 459.664 409.287Z" fill="#28F18D"/>
<path d="M445.839 377.849C464.236 388.483 464.331 405.727 446.047 416.368C427.761 427.006 398.024 427.006 379.627 416.374C361.222 405.735 361.125 388.489 379.411 377.851C397.697 367.21 427.434 367.21 445.839 377.849Z" fill="#009249"/>
<path d="M379.411 384.565C397.697 373.927 427.434 373.927 445.839 384.565C453.596 389.049 458.085 394.71 459.329 400.552C461.05 392.482 456.558 384.043 445.839 377.848C427.434 367.21 397.697 367.21 379.411 377.848C368.838 384 364.425 392.36 366.13 400.376C367.364 394.596 371.781 389.007 379.411 384.565Z" fill="#02793D"/>
<path d="M472.513 397.274L472.479 409.322C472.455 418.137 466.666 426.941 455.103 433.669C431.838 447.205 393.987 447.205 370.57 433.669C358.781 426.854 352.893 417.909 352.919 408.98L352.953 396.932C352.927 405.863 358.815 414.806 370.604 421.621C394.022 435.157 431.872 435.157 455.138 421.621C466.7 414.893 472.489 406.09 472.513 397.274Z" fill="#009249"/>
<path d="M454.871 372.593C478.289 386.129 478.412 408.08 455.138 421.621C431.874 435.157 394.022 435.157 370.604 421.621C347.179 408.08 347.055 386.129 370.321 372.593C393.595 359.052 431.445 359.052 454.871 372.593ZM379.628 416.371C398.025 427.006 427.762 427.006 446.048 416.367C464.334 405.729 464.236 388.482 445.839 377.848C427.434 367.21 397.697 367.21 379.412 377.848C361.128 388.489 361.225 405.733 379.628 416.371Z" fill="#08C868"/>
<path d="M415.822 410.582L415.304 414.393L408.374 413.447L408.87 409.808C403.985 408.931 399.345 407.355 396.567 405.683L401.107 400.288C404.167 402.07 408.376 403.518 412.159 404.032C415.452 404.482 416.696 404.162 416.809 403.337C417.22 400.316 397.872 400.16 399.09 391.198C399.618 387.318 404.092 384.607 412.256 384.916L412.766 381.174L419.696 382.12L419.196 385.793C422.799 386.53 426.247 387.665 428.899 389.145L424.611 394.54C421.385 392.875 418.27 391.857 415.272 391.448C411.882 390.986 410.709 391.525 410.595 392.349C410.203 395.233 429.547 395.423 428.341 404.281C427.837 407.989 423.563 410.693 415.822 410.582Z" fill="#08C868"/>
<path d="M133.152 354.574C126.697 358.331 122.674 362.961 121.082 367.811C121.092 364.03 121.104 360.249 121.114 356.468C122.706 351.617 126.728 346.988 133.184 343.231C150.398 333.215 178.397 333.215 195.724 343.231C204.384 348.237 208.737 354.799 208.773 361.363C208.763 365.144 208.751 368.925 208.741 372.706C208.704 366.142 204.353 359.581 195.692 354.574C178.363 344.558 150.366 344.558 133.152 354.574Z" fill="#28F18D"/>
<path d="M121.082 367.809C120.565 369.385 120.304 370.982 120.3 372.58L120.332 361.237C120.336 359.639 120.597 358.039 121.115 356.466C121.109 358.357 121.105 360.247 121.099 362.136C121.097 362.582 121.097 363.175 121.095 363.621C121.093 364.344 121.091 365.067 121.088 365.79C121.086 366.201 121.086 366.748 121.084 367.159C121.084 367.353 121.115 367.617 121.082 367.809Z" fill="#28F18D"/>
<path d="M208.772 361.484L208.74 372.827C208.721 379.349 204.441 385.862 195.887 390.837C178.673 400.854 150.674 400.854 133.355 390.842C124.635 385.801 120.28 379.187 120.3 372.58L120.332 361.237C120.314 367.841 124.669 374.458 133.387 379.498C150.706 389.509 178.703 389.509 195.919 379.492C204.474 374.519 208.754 368.006 208.772 361.484Z" fill="#08C868"/>
<path d="M208.738 372.83C208.738 372.789 208.738 372.747 208.738 372.704C208.748 368.923 208.761 365.142 208.771 361.361C208.771 361.404 208.771 361.444 208.771 361.487C208.761 364.889 208.748 369.428 208.738 372.83Z" fill="#28F18D"/>
<path d="M195.724 343.231C213.043 353.242 213.134 369.48 195.92 379.494C178.706 389.511 150.709 389.511 133.388 379.5C116.061 369.484 115.97 353.248 133.184 343.231C150.398 333.215 178.395 333.215 195.724 343.231Z" fill="#3ABAD8"/>
<path d="M133.184 349.556C150.398 339.539 178.397 339.539 195.724 349.556C203.026 353.776 207.254 359.105 208.425 364.607C210.047 357.009 205.816 349.064 195.724 343.231C178.397 333.215 150.4 333.215 133.184 343.231C123.23 349.023 119.073 356.895 120.679 364.441C121.84 358.999 125.999 353.736 133.184 349.556Z" fill="#057593"/>
<path d="M220.837 361.519L220.804 372.862C220.78 381.162 215.333 389.451 204.446 395.785C182.544 408.53 146.907 408.53 124.86 395.785C113.761 389.37 108.219 380.949 108.243 372.54L108.276 361.197C108.251 369.604 113.796 378.027 124.893 384.442C146.939 397.187 182.574 397.185 204.479 384.442C215.363 378.108 220.813 369.821 220.837 361.519Z" fill="#009249"/>
<path d="M204.226 338.284C226.272 351.029 226.39 371.694 204.477 384.442C182.574 397.187 146.937 397.187 124.891 384.442C102.837 371.694 102.721 351.029 124.624 338.284C146.537 325.536 182.172 325.536 204.226 338.284ZM133.387 379.499C150.706 389.509 178.703 389.509 195.919 379.495C213.134 369.478 213.041 353.242 195.722 343.232C178.395 333.215 150.398 333.215 133.182 343.232C115.969 353.248 116.06 369.484 133.387 379.499Z" fill="#08C868"/>
<path d="M167.464 374.049L166.977 377.637L160.453 376.748L160.918 373.322C156.319 372.497 151.949 371.011 149.336 369.437L153.608 364.358C156.49 366.035 160.451 367.398 164.013 367.884C167.114 368.307 168.285 368.005 168.39 367.23C168.777 364.384 150.562 364.239 151.709 355.802C152.206 352.148 156.418 349.597 164.104 349.886L164.584 346.362L171.107 347.251L170.636 350.71C174.028 351.403 177.274 352.472 179.771 353.866L175.733 358.945C172.695 357.379 169.762 356.419 166.94 356.033C163.748 355.597 162.644 356.105 162.537 356.881C162.166 359.597 180.379 359.775 179.245 368.115C178.775 371.606 174.752 374.154 167.464 374.049Z" fill="#057593"/>
<path d="M136.767 339.765C130.313 343.521 126.289 348.151 124.697 353.001C124.707 349.22 124.72 345.439 124.73 341.658C126.322 336.808 130.343 332.178 136.8 328.422C154.015 318.405 182.013 318.405 199.34 328.422C207.999 333.428 212.352 339.989 212.389 346.553C212.378 350.334 212.366 354.115 212.356 357.896C212.32 351.333 207.969 344.771 199.307 339.765C181.978 329.748 153.981 329.748 136.767 339.765Z" fill="#28F18D"/>
<path d="M124.698 352.999C124.18 354.575 123.921 356.173 123.915 357.771L123.947 346.428C123.951 344.83 124.212 343.232 124.73 341.656C124.724 343.548 124.72 345.437 124.714 347.327C124.712 347.772 124.712 348.366 124.71 348.811C124.708 349.534 124.706 350.257 124.704 350.98C124.702 351.391 124.702 351.938 124.7 352.349C124.7 352.544 124.728 352.807 124.698 352.999Z" fill="#28F18D"/>
<path d="M212.387 346.675L212.355 358.018C212.337 364.539 208.056 371.052 199.502 376.028C182.286 386.044 154.289 386.044 136.97 376.032C128.25 370.991 123.895 364.377 123.915 357.771L123.947 346.428C123.929 353.034 128.284 359.648 137.002 364.689C154.321 374.699 182.319 374.699 199.534 364.685C208.089 359.709 212.369 353.196 212.387 346.675Z" fill="#08C868"/>
<path d="M212.354 358.02C212.354 357.978 212.354 357.937 212.354 357.895C212.364 354.114 212.376 350.333 212.386 346.552C212.386 346.594 212.386 346.635 212.386 346.677C212.376 350.08 212.364 354.616 212.354 358.02Z" fill="#28F18D"/>
<path d="M199.338 328.422C216.657 338.432 216.748 354.67 199.534 364.685C182.319 374.701 154.321 374.701 137.002 364.689C119.675 354.672 119.584 338.436 136.798 328.42C154.014 318.405 182.011 318.405 199.338 328.422Z" fill="#009249"/>
<path d="M136.799 334.746C154.015 324.73 182.012 324.73 199.339 334.746C206.641 338.967 210.869 344.295 212.04 349.797C213.66 342.199 209.431 334.254 199.339 328.422C182.012 318.405 154.015 318.405 136.799 328.422C126.845 334.214 122.688 342.086 124.296 349.631C125.455 344.19 129.614 338.926 136.799 334.746Z" fill="#02793D"/>
<path d="M224.452 346.71L224.42 358.053C224.395 366.352 218.948 374.641 208.061 380.976C186.159 393.72 150.522 393.72 128.476 380.976C117.377 374.56 111.834 366.139 111.858 357.731L111.891 346.388C111.867 354.794 117.411 363.217 128.508 369.633C150.554 382.377 186.191 382.375 208.094 369.633C218.978 363.298 224.428 355.011 224.452 346.71Z" fill="#009249"/>
<path d="M207.841 323.474C229.888 336.219 230.005 356.884 208.092 369.633C186.19 382.377 150.552 382.377 128.506 369.633C106.452 356.884 106.337 336.217 128.239 323.474C150.152 310.726 185.787 310.726 207.841 323.474ZM137.002 364.689C154.321 374.7 182.318 374.7 199.534 364.685C216.748 354.668 216.657 338.433 199.338 328.422C182.011 318.405 154.013 318.405 136.798 328.422C119.584 338.437 119.675 354.675 137.002 364.689Z" fill="#08C868"/>
<path d="M171.079 359.239L170.592 362.828L164.068 361.939L164.534 358.512C159.934 357.688 155.565 356.201 152.951 354.628L157.223 349.547C160.106 351.223 164.066 352.586 167.628 353.072C170.729 353.496 171.9 353.194 172.006 352.418C172.392 349.573 154.177 349.427 155.324 340.99C155.821 337.337 160.033 334.785 167.721 335.075L168.201 331.551L174.724 332.44L174.253 335.899C177.645 336.591 180.892 337.661 183.388 339.054L179.352 344.133C176.314 342.566 173.381 341.608 170.559 341.221C167.367 340.786 166.263 341.294 166.156 342.07C165.786 344.785 183.999 344.964 182.864 353.303C182.391 356.797 178.367 359.344 171.079 359.239Z" fill="#057593"/>
<path d="M126.91 321.044C120.455 324.801 116.432 329.43 114.84 334.281C114.85 330.5 114.862 326.719 114.872 322.938C116.464 318.087 120.485 313.458 126.942 309.701C144.156 299.684 172.155 299.684 189.482 309.701C198.142 314.707 202.495 321.269 202.531 327.832C202.521 331.613 202.509 335.394 202.499 339.175C202.462 332.612 198.111 326.05 189.45 321.044C172.123 311.027 144.126 311.027 126.91 321.044Z" fill="#28F18D"/>
<path d="M114.84 334.281C114.323 335.856 114.064 337.454 114.058 339.052L114.09 327.709C114.094 326.111 114.355 324.511 114.873 322.938C114.867 324.829 114.863 326.719 114.856 328.608C114.854 329.054 114.854 329.647 114.852 330.093C114.85 330.816 114.848 331.538 114.846 332.261C114.844 332.673 114.844 333.219 114.842 333.631C114.842 333.825 114.873 334.086 114.84 334.281Z" fill="#28F18D"/>
<path d="M202.531 327.956L202.498 339.299C202.48 345.82 198.2 352.333 189.646 357.309C172.432 367.326 144.433 367.326 127.114 357.315C118.393 352.274 114.038 345.66 114.059 339.054L114.091 327.711C114.073 334.317 118.428 340.931 127.146 345.972C144.465 355.983 172.462 355.983 189.678 345.968C198.23 340.988 202.51 334.477 202.531 327.956Z" fill="#08C868"/>
<path d="M202.499 339.3C202.499 339.257 202.499 339.217 202.499 339.174C202.509 335.393 202.521 331.612 202.531 327.831C202.531 327.872 202.531 327.914 202.531 327.957C202.521 331.361 202.507 335.897 202.499 339.3Z" fill="#28F18D"/>
<path d="M189.482 309.701C206.801 319.711 206.892 335.949 189.678 345.964C172.462 355.981 144.465 355.981 127.146 345.968C109.819 335.951 109.728 319.716 126.942 309.699C144.156 299.682 172.155 299.684 189.482 309.701Z" fill="#3ABAD8"/>
<path d="M126.942 316.026C144.156 306.009 172.155 306.009 189.482 316.026C196.784 320.246 201.012 325.574 202.183 331.077C203.803 323.478 199.574 315.533 189.482 309.701C172.155 299.684 144.158 299.684 126.942 309.701C116.986 315.493 112.831 323.365 114.437 330.911C115.6 325.469 119.757 320.206 126.942 316.026Z" fill="#057593"/>
<path d="M214.595 327.991L214.562 339.334C214.538 347.633 209.089 355.922 198.204 362.257C176.302 375.002 140.664 375.002 118.618 362.257C107.519 355.841 101.977 347.421 102.001 339.012L102.033 327.669C102.009 336.075 107.552 344.498 118.65 350.914C140.697 363.659 176.334 363.656 198.236 350.914C209.123 344.579 214.57 336.29 214.595 327.991Z" fill="#009249"/>
<path d="M197.986 304.754C220.032 317.498 220.149 338.163 198.237 350.912C176.334 363.656 140.697 363.656 118.651 350.912C96.5963 338.163 96.479 317.496 118.384 304.754C140.294 292.005 175.929 292.005 197.986 304.754ZM127.146 345.97C144.465 355.981 172.462 355.981 189.678 345.966C206.892 335.95 206.801 319.714 189.482 309.703C172.155 299.687 144.158 299.687 126.942 309.703C109.726 319.72 109.819 335.954 127.146 345.97Z" fill="#08C868"/>
<path d="M161.222 340.518L160.734 344.107L154.211 343.218L154.676 339.791C150.076 338.967 145.707 337.483 143.094 335.907L147.366 330.828C150.248 332.505 154.209 333.868 157.771 334.354C160.872 334.777 162.043 334.475 162.148 333.7C162.535 330.854 144.32 330.708 145.466 322.271C145.964 318.618 150.175 316.066 157.864 316.356L158.343 312.832L164.867 313.721L164.396 317.18C167.788 317.873 171.034 318.942 173.532 320.335L169.495 325.415C166.457 323.849 163.524 322.889 160.702 322.502C157.51 322.067 156.406 322.575 156.298 323.351C155.928 326.067 174.141 326.245 173.007 334.585C172.533 338.078 168.512 340.624 161.222 340.518Z" fill="#057593"/>
<path d="M127.632 303.821C121.178 307.578 117.154 312.208 115.562 317.058C115.573 313.277 115.585 309.496 115.595 305.715C117.187 300.865 121.208 296.235 127.665 292.478C144.879 282.462 172.878 282.462 190.205 292.478C198.864 297.485 203.217 304.046 203.254 310.61C203.244 314.391 203.231 318.172 203.221 321.953C203.187 315.389 198.834 308.828 190.172 303.821C172.843 293.805 144.846 293.805 127.632 303.821Z" fill="#28F18D"/>
<path d="M115.563 317.056C115.045 318.632 114.784 320.229 114.78 321.827L114.813 310.484C114.817 308.886 115.078 307.288 115.595 305.713C115.589 307.604 115.585 309.494 115.579 311.383C115.577 311.829 115.577 312.422 115.575 312.868C115.573 313.591 115.571 314.314 115.569 315.037C115.567 315.448 115.567 315.995 115.565 316.406C115.565 316.6 115.595 316.864 115.563 317.056Z" fill="#28F18D"/>
<path d="M203.252 310.731L203.22 322.075C203.202 328.596 198.922 335.109 190.367 340.085C173.154 350.101 145.154 350.101 127.835 340.089C119.115 335.048 114.76 328.434 114.78 321.827L114.813 310.484C114.795 317.091 119.15 323.705 127.868 328.746C145.187 338.756 173.184 338.756 190.4 328.741C198.954 323.766 203.234 317.253 203.252 310.731Z" fill="#08C868"/>
<path d="M203.219 322.077C203.219 322.037 203.219 321.994 203.219 321.951C203.229 318.17 203.241 314.389 203.251 310.608C203.251 310.651 203.251 310.691 203.251 310.734C203.243 314.136 203.229 318.673 203.219 322.077Z" fill="#28F18D"/>
<path d="M190.204 292.479C207.523 302.489 207.614 318.727 190.401 328.742C173.187 338.756 145.188 338.758 127.869 328.746C110.542 318.729 110.451 302.493 127.664 292.476C144.878 282.462 172.875 282.462 190.204 292.479Z" fill="#009249"/>
<path d="M127.665 298.803C144.879 288.786 172.878 288.786 190.205 298.803C197.507 303.023 201.735 308.352 202.906 313.854C204.526 306.256 200.296 298.311 190.205 292.478C172.878 282.462 144.881 282.462 127.665 292.478C117.709 298.27 113.554 306.142 115.16 313.688C116.321 308.246 120.48 302.983 127.665 298.803Z" fill="#02793D"/>
<path d="M215.317 310.766L215.285 322.109C215.261 330.409 209.813 338.698 198.927 345.033C177.024 357.777 141.387 357.777 119.341 345.033C108.242 338.617 102.699 330.196 102.724 321.787L102.756 310.444C102.732 318.851 108.276 327.274 119.373 333.689C141.419 346.434 177.055 346.432 198.959 333.689C209.844 327.355 215.293 319.068 215.317 310.766Z" fill="#009249"/>
<path d="M198.708 287.531C220.754 300.276 220.871 320.941 198.958 333.689C177.056 346.434 141.419 346.434 119.373 333.689C97.3182 320.941 97.2029 300.274 119.106 287.531C141.018 274.783 176.653 274.783 198.708 287.531ZM127.87 328.746C145.189 338.756 173.186 338.756 190.402 328.742C207.618 318.727 207.525 302.489 190.206 292.479C172.879 282.462 144.882 282.462 127.666 292.479C110.45 302.493 110.541 318.731 127.87 328.746Z" fill="#08C868"/>
<path d="M161.944 323.296L161.457 326.884L154.934 325.995L155.399 322.569C150.799 321.744 146.43 320.258 143.816 318.684L148.088 313.605C150.971 315.282 154.932 316.645 158.494 317.131C161.595 317.554 162.766 317.253 162.871 316.477C163.257 313.632 145.042 313.486 146.189 305.049C146.687 301.395 150.898 298.844 158.585 299.133L159.064 295.609L165.587 296.498L165.116 299.957C168.508 300.65 171.755 301.719 174.251 303.113L170.214 308.192C167.175 306.626 164.244 305.666 161.421 305.28C158.229 304.844 157.124 305.353 157.017 306.128C156.647 308.844 174.86 309.022 173.725 317.362C173.256 320.853 169.233 323.401 161.944 323.296Z" fill="#08C868"/>
<path d="M272.444 30L274.279 34.7774C275.408 37.716 277.728 40.0388 280.663 41.1689L285.435 43.0058L280.663 44.8426C277.728 45.9727 275.408 48.2955 274.279 51.2341L272.444 56.0115L270.61 51.2341C269.481 48.2955 267.161 45.9727 264.226 44.8426L259.454 43.0058L264.226 41.1689C267.161 40.0388 269.481 37.716 270.61 34.7774L272.444 30Z" fill="#3ABAD8"/>
<path d="M529.99 346L531.825 350.777C532.954 353.716 535.274 356.039 538.209 357.169L542.98 359.006L538.209 360.843C535.274 361.973 532.954 364.296 531.825 367.234L529.99 372.012L528.156 367.234C527.027 364.296 524.707 361.973 521.772 360.843L517 359.006L521.772 357.169C524.707 356.039 527.027 353.716 528.156 350.777L529.99 346Z" fill="#3ABAD8"/>
<path d="M127.356 80.9902L128.678 84.4331C129.492 86.5514 131.162 88.2242 133.278 89.0383L136.717 90.3628L133.278 91.6852C131.162 92.4994 129.492 94.1742 128.678 96.2905L127.356 99.7333L126.033 96.2905C125.22 94.1722 123.549 92.4994 121.433 91.6852L117.994 90.3628L121.433 89.0383C123.549 88.2242 125.22 86.5514 126.033 84.4331L127.356 80.9902Z" fill="#3ABAD8"/>
<path d="M267.361 461L268.684 464.443C269.497 466.561 271.168 468.234 273.284 469.048L276.723 470.373L273.284 471.695C271.168 472.509 269.497 474.184 268.684 476.3L267.361 479.743L266.039 476.3C265.225 474.182 263.555 472.509 261.439 471.695L258 470.373L261.439 469.048C263.555 468.234 265.225 466.561 266.039 464.443L267.361 461Z" fill="#3ABAD8"/>
<path d="M395.915 72.1709L397.145 75.3727C397.901 77.3432 399.457 78.9006 401.425 79.658L404.623 80.8893L401.425 82.1206C399.457 82.878 397.901 84.4354 397.145 86.4059L395.915 89.6078L394.685 86.4059C393.929 84.4354 392.373 82.878 390.405 82.1206L387.207 80.8893L390.405 79.658C392.373 78.9006 393.929 77.3432 394.685 75.3727L395.915 72.1709Z" fill="#3ABAD8"/>
<path d="M56.708 261L57.9379 264.202C58.6944 266.172 60.2499 267.73 62.2181 268.487L65.4161 269.718L62.2181 270.95C60.2499 271.707 58.6944 273.265 57.9379 275.235L56.708 278.437L55.4782 275.235C54.7217 273.265 53.1662 271.707 51.198 270.95L48 269.718L51.198 268.487C53.1662 267.73 54.7217 266.172 55.4782 264.202L56.708 261Z" fill="#3ABAD8"/>
<path d="M130.076 198.472L131.075 201.072C131.688 202.672 132.952 203.936 134.548 204.549L137.145 205.548L134.548 206.548C132.95 207.164 131.688 208.428 131.075 210.027L130.076 212.628L129.076 210.027C128.461 208.428 127.199 207.164 125.601 206.548L123.004 205.548L125.601 204.549C127.199 203.934 128.461 202.67 129.076 201.072L130.076 198.472Z" fill="#3ABAD8"/>
<path d="M447.072 251L448.071 253.6C448.684 255.2 449.948 256.464 451.544 257.078L454.141 258.076L451.544 259.076C449.946 259.692 448.684 260.956 448.071 262.556L447.072 265.156L446.072 262.556C445.457 260.956 444.195 259.692 442.597 259.076L440 258.076L442.597 257.078C444.195 256.462 445.457 255.198 446.072 253.6L447.072 251Z" fill="#3ABAD8"/>
<path d="M461.044 146.252L462.041 148.852C462.656 150.452 463.919 151.716 465.515 152.33L468.112 153.33L465.515 154.33C463.917 154.946 462.654 156.21 462.041 157.81L461.044 160.41L460.045 157.81C459.432 156.21 458.168 154.946 456.57 154.33L453.973 153.33L456.57 152.33C458.168 151.716 459.43 150.45 460.045 148.852L461.044 146.252Z" fill="#3ABAD8"/>
</svg>

