<svg width="788" height="587" viewBox="0 0 788 587" fill="none" xmlns="http://www.w3.org/2000/svg">
<rect opacity="0.3" width="788" height="617" fill="url(#paint0_radial)"/>
<g style="mix-blend-mode:overlay" opacity="0.5">
<path d="M220.055 364.889C220.988 364.887 221.899 364.608 222.673 364.088C223.447 363.568 224.05 362.83 224.405 361.968C224.76 361.105 224.851 360.157 224.668 359.243C224.484 358.328 224.034 357.489 223.374 356.83C222.713 356.172 221.873 355.724 220.958 355.543C220.043 355.362 219.095 355.456 218.234 355.814C217.372 356.171 216.636 356.776 216.118 357.551C215.601 358.327 215.324 359.238 215.324 360.171C215.324 360.792 215.447 361.406 215.685 361.98C215.923 362.553 216.271 363.074 216.711 363.512C217.15 363.95 217.672 364.297 218.246 364.534C218.82 364.77 219.435 364.891 220.055 364.889Z" fill="#B2EBF2"/>
</g>
<g style="mix-blend-mode:overlay" opacity="0.5">
<path d="M261.684 102.313C262.617 102.313 263.529 102.036 264.305 101.518C265.081 100.999 265.686 100.263 266.043 99.4004C266.4 98.5383 266.493 97.5897 266.311 96.6745C266.129 95.7593 265.68 94.9186 265.02 94.2588C264.36 93.599 263.519 93.1497 262.604 92.9676C261.689 92.7856 260.74 92.879 259.878 93.2361C259.016 93.5932 258.279 94.1979 257.761 94.9738C257.243 95.7496 256.966 96.6618 256.966 97.5949C256.966 98.8462 257.463 100.046 258.348 100.931C259.233 101.816 260.433 102.313 261.684 102.313Z" fill="#B2EBF2"/>
</g>
<g style="mix-blend-mode:overlay" opacity="0.5">
<path d="M200.719 43.4359C201.652 43.4359 202.564 43.1593 203.34 42.6408C204.116 42.1224 204.721 41.3856 205.078 40.5235C205.435 39.6614 205.528 38.7128 205.346 37.7976C205.164 36.8824 204.715 36.0417 204.055 35.3818C203.395 34.722 202.555 34.2727 201.639 34.0907C200.724 33.9086 199.776 34.002 198.913 34.3591C198.051 34.7162 197.314 35.321 196.796 36.0968C196.278 36.8727 196.001 37.7849 196.001 38.718C196.001 39.9693 196.498 41.1693 197.383 42.0541C198.268 42.9389 199.468 43.4359 200.719 43.4359Z" fill="#B2EBF2"/>
</g>
<g style="mix-blend-mode:overlay" opacity="0.5">
<path d="M148.719 161.436C149.652 161.436 150.564 161.159 151.34 160.641C152.116 160.122 152.721 159.386 153.078 158.523C153.435 157.661 153.528 156.713 153.346 155.798C153.164 154.882 152.715 154.042 152.055 153.382C151.395 152.722 150.555 152.273 149.639 152.091C148.724 151.909 147.776 152.002 146.913 152.359C146.051 152.716 145.315 153.321 144.796 154.097C144.278 154.873 144.001 155.785 144.001 156.718C144.001 157.969 144.498 159.169 145.383 160.054C146.268 160.939 147.468 161.436 148.719 161.436Z" fill="#B2EBF2"/>
</g>
<g style="mix-blend-mode:overlay" opacity="0.5">
<path d="M706.719 293.436C707.652 293.436 708.564 293.159 709.34 292.641C710.116 292.122 710.721 291.386 711.078 290.523C711.435 289.661 711.528 288.713 711.346 287.798C711.164 286.882 710.715 286.042 710.055 285.382C709.395 284.722 708.555 284.273 707.639 284.091C706.724 283.909 705.776 284.002 704.913 284.359C704.051 284.716 703.315 285.321 702.796 286.097C702.278 286.873 702.001 287.785 702.001 288.718C701.999 289.338 702.12 289.952 702.357 290.525C702.593 291.099 702.941 291.619 703.379 292.058C703.817 292.496 704.338 292.844 704.911 293.08C705.485 293.317 706.099 293.438 706.719 293.436Z" fill="#B2EBF2"/>
</g>
<g style="mix-blend-mode:overlay" opacity="0.5">
<path d="M656.719 514.436C657.652 514.436 658.564 514.159 659.34 513.641C660.116 513.122 660.721 512.386 661.078 511.523C661.435 510.661 661.528 509.713 661.346 508.798C661.164 507.882 660.715 507.042 660.055 506.382C659.395 505.722 658.555 505.273 657.639 505.091C656.724 504.909 655.776 505.002 654.913 505.359C654.051 505.716 653.314 506.321 652.796 507.097C652.278 507.873 652.001 508.785 652.001 509.718C652.001 510.969 652.498 512.169 653.383 513.054C654.268 513.939 655.468 514.436 656.719 514.436Z" fill="#B2EBF2"/>
</g>
<g style="mix-blend-mode:overlay" opacity="0.5">
<path d="M603.719 63.4359C604.652 63.4359 605.564 63.1593 606.34 62.6408C607.116 62.1224 607.721 61.3855 608.078 60.5234C608.435 59.6613 608.528 58.7128 608.346 57.7976C608.164 56.8824 607.715 56.0417 607.055 55.3818C606.395 54.722 605.555 54.2727 604.639 54.0907C603.724 53.9086 602.776 54.002 601.913 54.3591C601.051 54.7162 600.315 55.3209 599.796 56.0968C599.278 56.8726 599.001 57.7848 599.001 58.7179C598.999 59.338 599.12 59.9523 599.357 60.5255C599.593 61.0986 599.941 61.6195 600.379 62.0579C600.818 62.4963 601.338 62.8438 601.911 63.0803C602.485 63.3168 603.099 63.4376 603.719 63.4359Z" fill="#B2EBF2"/>
</g>
<path d="M194.855 517.916C194.855 517.916 218.651 530.033 245.261 525.56C246.447 525.356 247.642 525.118 248.846 524.855C249.651 524.676 250.456 524.481 251.253 524.277C251.842 524.115 251.755 451.288 253.349 446.773C255.6 440.456 260.934 435.736 262.96 429.317C264.848 423.331 265.705 417.447 265.645 411.155C265.541 401.98 264.112 392.865 261.982 383.946C261.843 383.384 261.774 382.806 261.748 382.22C261.384 375.188 267.974 366.098 271.473 360.342C274.677 355.078 279.11 350.955 282.574 345.955C283.076 345.241 283.535 344.518 283.977 343.778C285.934 340.513 287.683 334.153 285.665 330.531C285.596 330.403 285.431 330.242 285.172 330.055C283.249 328.618 276.711 325.744 275.932 326.39C275.716 326.568 268.572 332.461 268.572 332.461L263.74 336.024L250.915 324.511C250.915 324.511 235.718 329.885 223.336 334.391C215.187 337.376 208.268 339.952 207.697 340.386C200.233 346.125 196.327 357.842 194.595 362.808C190.482 374.686 188.975 378.155 190.811 384.745C192.344 390.238 194.621 394.217 195.998 399.761C198.734 410.832 201.124 422.038 204.285 432.999C204.346 433.194 205.411 436.383 205.48 436.332C206.459 435.43 194.855 517.916 194.855 517.916Z" fill="#D1BFB1"/>
<path d="M194.847 517.916C194.847 517.916 218.643 530.033 245.253 525.56C246.44 525.356 247.634 525.118 248.838 524.855C248.933 524.591 249.124 524.345 249.081 524.072C247.47 514.405 247.912 449.196 248.483 445.88C249.029 442.59 250.96 440.456 253.306 438.296C255.506 436.272 256.831 433.517 258.086 430.813C260.831 424.878 262.468 418.45 262.935 411.945C263.646 402.057 260.753 392.806 258.892 383.231C257.558 376.353 263.992 368.19 267.759 363.012C272.201 356.907 276.634 350.819 281.077 344.713C282.878 342.248 284.722 339.671 285.294 336.687C285.848 333.779 284.843 331.015 282.618 329.043C281.631 328.158 277.275 325.285 275.924 326.381C275.708 326.56 268.564 332.452 268.564 332.452L263.732 336.015L250.908 324.511C250.908 324.511 209.109 339.297 207.698 340.386C200.234 346.125 196.328 357.842 194.596 362.808C190.483 374.686 188.976 378.155 190.812 384.745C192.345 390.238 194.622 394.217 195.999 399.761C198.735 410.832 201.125 422.038 204.286 432.999C204.347 433.194 205.412 436.383 205.481 436.332C206.451 435.43 194.847 517.916 194.847 517.916Z" fill="#F8EDE8"/>
<path d="M209.738 419.079C209.305 417.914 209.037 416.664 208.942 415.321C208.405 407.566 209.894 399.148 211.539 391.581C212.552 386.938 214.484 382.466 215.436 377.849C216.38 373.308 214.449 373.623 213.081 369.482C211.998 366.217 215.583 361.71 217.003 358.726C218.077 356.473 222.277 350.385 221.766 347.859C221.809 348.063 225.706 367.416 225.706 367.416C229.733 365.12 233.759 362.841 237.786 360.546C241.795 358.267 245.804 355.997 249.813 353.718C253.052 351.873 254.922 348.327 257.867 345.929C260.828 343.523 264.214 341.618 267.833 340.36C268.751 340.037 269.721 339.756 270.7 339.816C271.678 339.875 272.683 340.351 273.133 341.202C273.722 342.332 273.176 343.769 272.232 344.628C271.289 345.504 270.024 345.938 268.829 346.439C262.95 348.905 257.979 353.327 254.741 358.717C250.463 365.851 249.38 375.307 253.017 382.849C255.823 388.664 257.702 394.914 258.447 401.308C259.469 410.143 259.114 421.137 253.372 428.526C249.242 433.84 242.479 434.563 236.175 434.622C230.607 434.673 225.143 432.93 220.424 430.073C215.834 427.284 211.505 423.875 209.738 419.079Z" fill="#D1BFB1"/>
<path d="M227.037 368.7C238.822 357.74 268.351 349.45 282.569 345.946C283.071 345.232 283.53 344.509 283.972 343.77C285.929 340.505 287.678 334.144 285.66 330.522C285.591 330.395 285.427 330.233 285.167 330.046C283.245 328.609 276.707 325.735 275.927 326.381C275.711 326.56 268.567 332.452 268.567 332.452L263.735 336.015L250.902 324.511C250.902 324.511 235.705 329.885 223.322 334.391C219.893 353.744 217.148 377.883 227.037 368.7Z" fill="#F4E7E1"/>
<path d="M297.2 301.85C297.2 331.84 273.912 356.149 245.189 356.149C216.465 356.149 193.178 331.84 193.178 301.85C193.178 271.864 216.465 247.555 245.189 247.555C273.912 247.555 297.2 271.864 297.2 301.85Z" fill="#00743A"/>
<path d="M293.007 301.85C293.007 331.84 269.719 356.149 240.998 356.149C212.272 356.149 188.987 331.84 188.987 301.85C188.987 271.864 212.272 247.555 240.998 247.555C269.719 247.555 293.007 271.864 293.007 301.85Z" fill="#00D46A"/>
<path d="M289.515 301.85C289.515 331.84 266.228 356.149 237.504 356.149C208.781 356.149 185.496 331.84 185.496 301.85C185.496 271.864 208.781 247.555 237.504 247.555C266.228 247.555 289.515 271.864 289.515 301.85Z" fill="#11F985"/>
<path d="M281.83 301.85C281.83 327.408 261.985 348.124 237.504 348.124C213.026 348.124 193.178 327.408 193.178 301.85C193.178 276.295 213.026 255.577 237.504 255.577C261.985 255.58 281.83 276.295 281.83 301.85Z" fill="url(#paint1_linear)"/>
<path d="M242.114 343.309C217.635 343.309 197.79 322.596 197.79 297.036C197.79 285.482 201.854 274.929 208.56 266.821C199.144 275.304 193.178 287.846 193.178 301.851C193.178 327.409 213.025 348.124 237.504 348.124C250.919 348.124 262.93 341.895 271.06 332.065C263.292 339.066 253.18 343.309 242.114 343.309Z" fill="#33C47B"/>
<g opacity="0.8" clip-path="url(#clip0)">
<path d="M241.727 332.967C241.379 332.967 241.048 332.806 240.821 332.527L213.614 298.785C213.299 298.394 213.247 297.841 213.481 297.396L223.02 279.261C223.229 278.866 223.626 278.619 224.057 278.619H259.397C259.83 278.619 260.228 278.866 260.434 279.261L269.97 297.396C270.207 297.843 270.153 298.394 269.838 298.785L242.631 332.527C242.406 332.806 242.075 332.967 241.727 332.967ZM215.949 297.841L241.727 329.815L267.505 297.841L258.697 281.089H224.757L215.949 297.841Z" fill="#8DFFC6"/>
<path d="M268.342 299.617H215.111C214.458 299.617 213.928 299.063 213.928 298.382C213.928 297.7 214.458 297.146 215.111 297.146H268.342C268.995 297.146 269.525 297.7 269.525 298.382C269.525 299.063 268.995 299.617 268.342 299.617Z" fill="#8DFFC6"/>
<path d="M253.701 298.923C253.33 298.923 252.963 298.74 252.733 298.397L241.73 282.011L230.866 298.31C230.497 298.871 229.756 299.007 229.222 298.619C228.682 298.229 228.552 297.461 228.926 296.9L240.755 279.148C240.975 278.817 241.337 278.619 241.723 278.619H241.725C242.111 278.619 242.47 278.814 242.693 279.145L254.669 296.979C255.045 297.54 254.915 298.308 254.38 298.698C254.177 298.849 253.938 298.923 253.701 298.923Z" fill="#8DFFC6"/>
<path d="M241.726 332.967C241.224 332.967 240.78 332.638 240.612 332.146L222.941 280.269C222.723 279.624 223.045 278.918 223.658 278.69C224.278 278.453 224.952 278.797 225.17 279.439L241.726 328.046L258.282 279.439C258.5 278.799 259.174 278.458 259.794 278.69C260.409 278.918 260.731 279.624 260.511 280.269L242.84 332.146C242.672 332.638 242.227 332.967 241.726 332.967Z" fill="#8DFFC6"/>
</g>
<path d="M210.894 394.488C205.136 402.796 206.227 412.361 208.825 421.706C209.976 425.847 211.673 429.988 214.713 433.083C219.051 437.504 228.395 435.948 234.014 438.218C248.077 443.915 255.94 426.238 256.035 415.082C256.096 408.475 254.294 401.937 252.138 395.738C249.515 388.196 247.332 379.336 248.519 371.352C249.211 366.735 249.809 362.101 250.528 357.475C251.636 350.29 252.355 342.774 254.165 335.742C255.957 328.736 248.614 320.93 241.132 323.26C233.27 325.709 231.425 336.958 229.07 343.505C226.715 350.018 224.411 356.54 222.151 363.087C222.143 363.096 214.583 389.165 210.894 394.488Z" fill="#F8EDE8"/>
<path d="M251.926 332.877C251.45 334.552 250.827 336.797 250.316 338.642C249.372 342.009 245.778 344.296 241.778 343.752C236.799 343.072 233.525 338.71 234.66 334.688L236.331 328.677C236.773 327.129 238.349 326.092 240.193 326.202C241.578 326.279 243.198 326.491 244.956 326.951C246.895 327.452 248.532 328.133 249.865 328.804C251.511 329.638 252.359 331.33 251.926 332.877Z" fill="#EAD4C1"/>
<path d="M240.977 454.52H189.87V589H240.977V454.52Z" fill="#16405E"/>
<path d="M262.846 454.52H240.981V589H262.846V454.52Z" fill="#1C4D6B"/>
<path d="M356.307 388.596C356.307 388.596 340.106 375.365 339.309 369.039C338.842 365.4 340.911 362.662 342.747 360.987C344.072 359.779 346.115 359.762 347.475 360.936L368.283 378.911L392.157 374.88L403.968 402.523L382.441 439.842C382.441 439.842 357.606 431.033 357.321 429.749C357.035 428.474 363.226 394.871 363.226 394.871L356.307 388.596Z" fill="#D1BFB1"/>
<path d="M355.41 355.246C355.41 355.246 347.062 355.034 349.998 365.518C352.942 376.002 382.964 395.38 382.964 395.38C382.964 395.38 394.498 383.995 394.844 383.059C395.191 382.115 355.41 355.246 355.41 355.246Z" fill="#D1BFB1"/>
<path d="M418.929 401.953L407.837 451.372L367.199 469.857C362.047 472.535 355.145 477.849 355.543 483.563L360.505 554.281L308.974 552.989C307.528 552.955 306.211 473.896 306.211 473.896C306.211 473.896 304.306 464.968 306.74 454.807C306.8 454.586 306.852 454.356 306.921 454.135C306.973 453.905 307.043 453.667 307.103 453.446C307.173 453.225 307.233 452.996 307.303 452.757C307.432 452.307 307.571 451.856 307.735 451.389C307.822 451.159 307.891 450.929 307.969 450.7C308.142 450.232 308.316 449.781 308.506 449.322C308.601 449.093 308.688 448.855 308.792 448.625C308.956 448.242 309.13 447.851 309.303 447.46C309.45 447.154 309.597 446.856 309.753 446.567C309.97 446.125 310.203 445.7 310.437 445.275C311.199 443.906 312.082 442.563 313.087 441.262C313.892 440.207 314.775 439.195 315.763 438.209C316.005 437.963 316.256 437.707 316.525 437.461C317.798 436.253 319.2 435.114 320.776 434.051C335.999 423.074 341.308 416.425 341.308 416.425C346.113 407.301 351.517 398.484 355.994 389.19C358.176 384.667 359.942 380.067 361.622 375.348C362.765 372.116 364.09 368.885 368.247 368.987C374.984 369.166 378.265 373.035 377.183 377.261C376.118 381.495 366.593 413.916 366.471 418.636C366.471 418.823 366.471 419.018 366.48 419.197C366.48 419.375 366.489 419.537 366.506 419.724C366.515 419.792 366.523 419.851 366.515 419.911C366.532 420.09 366.558 420.277 366.584 420.455C366.61 420.659 366.645 420.889 366.688 421.101C366.731 421.348 366.783 421.595 366.835 421.833C366.878 422.054 366.93 422.266 366.991 422.479C366.991 422.504 367 422.521 367.008 422.538C367.06 422.776 367.138 423.023 367.208 423.253C367.277 423.465 367.346 423.686 367.415 423.89C367.424 423.924 367.433 423.941 367.441 423.967C368.948 428.184 372.239 431.994 377.304 428.847C382.647 425.531 393.947 411.978 398.433 404.053C400.113 401.086 400.858 396.009 398.952 393.178C392.952 384.216 380.872 364.115 380.655 354.516C380.638 353.419 381.028 352.364 381.764 351.548C382.638 350.587 383.426 349.805 384.119 349.193C384.145 349.167 384.18 349.142 384.206 349.108C384.613 348.759 385.063 348.513 385.539 348.334C385.626 348.292 385.721 348.266 385.808 348.241C387.583 347.722 389.6 348.419 390.648 350.103L397.099 360.57L398.935 363.546L399.03 363.69L417.579 390.568L418.929 401.953Z" fill="#F8EDE8"/>
<path d="M397.564 361.522C396.595 362.066 395.582 362.398 394.56 362.372C394.17 362.177 393.625 361.879 392.992 361.479C387.572 357.976 386.117 350.817 385.771 348.241C387.546 347.722 389.563 348.419 390.611 350.103L397.062 360.57C397.235 360.884 397.391 361.207 397.564 361.522Z" fill="#EAD4C1"/>
<path d="M402.83 339.44C402.83 379.811 373.643 412.534 337.643 412.534C301.644 412.534 272.457 379.811 272.457 339.44C272.457 299.073 301.644 266.35 337.643 266.35C373.643 266.35 402.83 299.073 402.83 339.44Z" fill="#1755D0"/>
<path d="M397.573 339.44C397.573 379.811 368.386 412.534 332.39 412.534C296.386 412.534 267.203 379.811 267.203 339.44C267.203 299.073 296.386 266.35 332.39 266.35C368.386 266.35 397.573 299.073 397.573 339.44Z" fill="#1262FF"/>
<path d="M393.2 339.44C393.2 379.811 364.013 412.534 328.013 412.534C292.013 412.534 262.83 379.811 262.83 339.44C262.83 299.073 292.013 266.35 328.013 266.35C364.013 266.35 393.2 299.073 393.2 339.44Z" fill="#42A6FF"/>
<path d="M383.567 339.44C383.567 373.845 358.695 401.731 328.012 401.731C297.333 401.731 272.457 373.845 272.457 339.44C272.457 305.039 297.333 277.149 328.012 277.149C358.695 277.153 383.567 305.039 383.567 339.44Z" fill="url(#paint2_linear)"/>
<path d="M333.79 395.249C303.11 395.249 278.238 367.367 278.238 332.958C278.238 317.406 283.331 303.199 291.736 292.285C279.935 303.704 272.457 320.588 272.457 339.44C272.457 373.845 297.333 401.731 328.012 401.731C344.825 401.731 359.879 393.346 370.069 380.113C360.332 389.538 347.659 395.249 333.79 395.249Z" fill="#1755D0"/>
<g opacity="0.6" clip-path="url(#clip1)">
<path d="M332.307 381.327C331.871 381.327 331.456 381.111 331.171 380.735L297.072 335.313C296.678 334.787 296.612 334.042 296.906 333.444L308.861 309.032C309.122 308.5 309.62 308.167 310.16 308.167H354.454C354.996 308.167 355.494 308.5 355.752 309.032L367.705 333.444C368.001 334.046 367.933 334.787 367.539 335.313L333.44 380.735C333.158 381.111 332.743 381.327 332.307 381.327ZM299.999 334.042L332.307 377.084L364.615 334.042L353.576 311.492H311.038L299.999 334.042Z" fill="#E1EBFF"/>
<path d="M365.663 336.434H298.947C298.129 336.434 297.465 335.689 297.465 334.771C297.465 333.853 298.129 333.108 298.947 333.108H365.663C366.482 333.108 367.146 333.853 367.146 334.771C367.146 335.689 366.482 336.434 365.663 336.434Z" fill="#E1EBFF"/>
<path d="M347.314 335.499C346.849 335.499 346.389 335.253 346.101 334.791L332.311 312.733L318.695 334.674C318.232 335.429 317.304 335.612 316.634 335.09C315.958 334.565 315.795 333.53 316.263 332.775L331.089 308.879C331.365 308.433 331.818 308.167 332.302 308.167H332.305C332.788 308.167 333.239 308.43 333.517 308.875L348.527 332.882C348.998 333.637 348.835 334.671 348.165 335.196C347.91 335.399 347.611 335.499 347.314 335.499Z" fill="#E1EBFF"/>
<path d="M332.305 381.327C331.677 381.327 331.119 380.885 330.909 380.223L308.762 310.388C308.489 309.52 308.893 308.569 309.661 308.263C310.437 307.944 311.282 308.406 311.555 309.271L332.305 374.703L353.056 309.271C353.328 308.41 354.173 307.951 354.95 308.263C355.721 308.569 356.124 309.52 355.849 310.388L333.702 380.223C333.491 380.885 332.934 381.327 332.305 381.327Z" fill="#E1EBFF"/>
</g>
<path d="M377.155 377.245C376.09 381.479 366.564 413.9 366.443 418.619C366.443 418.806 366.443 419.002 366.452 419.181C366.452 419.359 366.46 419.521 366.478 419.708C366.486 419.776 366.495 419.835 366.486 419.895C366.512 420.073 366.53 420.269 366.556 420.439C366.59 420.66 366.625 420.873 366.66 421.085C366.703 421.332 366.755 421.578 366.807 421.816C366.85 422.029 366.902 422.25 366.963 422.463C366.963 422.488 366.971 422.505 366.98 422.522C367.049 422.76 367.11 423.007 367.179 423.236C367.248 423.449 367.318 423.67 367.387 423.874C367.396 423.908 367.404 423.925 367.413 423.951C355.472 443.975 333.876 453.379 310.53 454.654C309.266 454.731 308.01 454.773 306.737 454.799C306.798 454.578 306.85 454.348 306.919 454.127C306.971 453.898 307.04 453.66 307.101 453.439C307.17 453.217 307.231 452.988 307.3 452.75C307.439 452.299 307.577 451.849 307.733 451.381C307.82 451.151 307.889 450.922 307.967 450.692C308.14 450.224 308.313 449.774 308.504 449.315C308.599 449.085 308.686 448.847 308.79 448.617C308.954 448.235 309.127 447.844 309.3 447.453C309.448 447.146 309.595 446.849 309.751 446.56C309.967 446.118 310.201 445.692 310.435 445.267C311.197 443.898 312.08 442.555 313.085 441.254C313.89 440.2 314.773 439.188 315.76 438.201C316.003 437.955 316.254 437.7 316.522 437.453C317.795 436.246 319.198 435.106 320.774 434.044C335.997 423.066 341.305 416.417 341.305 416.417C346.111 407.294 350.77 396.98 355.247 387.695C357.429 383.171 358.728 378.316 360.416 373.605C361.559 370.374 364.14 368.41 368.244 368.98C376.462 370.128 378.237 373.019 377.155 377.245Z" fill="#F8EDE8"/>
<path d="M363.562 372.406L361.848 379.191C361.034 382.379 362.627 385.815 365.744 387.005C369.468 388.416 373.529 386.257 374.464 382.575L376.257 375.509C376.638 374.004 375.711 372.482 374.178 372.116L367.035 370.373C365.493 369.982 363.943 370.901 363.562 372.406Z" fill="#EAD4C1"/>
<path d="M313.07 553.102L308.974 552.991C307.528 552.957 306.211 473.898 306.211 473.898C306.211 473.898 304.306 464.97 306.74 454.809C306.8 454.588 306.852 454.358 306.921 454.137C306.973 453.907 307.043 453.669 307.103 453.448C307.173 453.227 307.233 452.998 307.302 452.76C307.432 452.309 307.571 451.858 307.735 451.391C307.822 451.161 307.891 450.931 307.969 450.702C308.142 450.234 308.316 449.784 308.506 449.324C308.601 449.095 308.688 448.857 308.792 448.627C308.956 448.245 309.13 447.853 309.303 447.462C309.45 447.156 309.597 446.859 309.753 446.569C309.97 446.127 310.203 445.702 310.437 445.277C311.199 443.908 312.082 442.565 313.087 441.264C312.126 444.894 309.528 452.054 308.844 457.402C307.632 466.789 308.749 476.329 309.493 492.298C311.035 526.207 312.299 544.131 313.07 553.102Z" fill="#D1BFB1"/>
<path d="M353.852 489.023H302.745V589H353.852V489.023Z" fill="#00D46A"/>
<path d="M375.721 489.023H353.856V589H375.721V489.023Z" fill="#00AE57"/>
<path d="M581.325 331.644C590.304 329.748 597.318 324.902 602.358 317.104C604.532 313.159 605.83 309.061 606.506 304.894C604.185 293.135 599.016 283.731 591.75 281.937C571.366 276.912 554.238 283.034 554.238 283.034C554.238 283.034 556.386 307.581 565.348 330.063C570.535 331.95 576.423 332.486 581.325 331.644Z" fill="#D1BFB1"/>
<path d="M554.238 283.023L582.978 307.188C582.978 307.188 592.772 330.75 589.153 351.275C608.056 357.763 616.299 317.443 616.299 317.443C616.299 317.443 597.102 283.304 595.604 283.295C594.114 283.287 560.871 260.074 554.238 283.023Z" fill="#D1BFB1"/>
<path d="M606.507 304.886C605.832 309.052 604.533 313.159 602.359 317.096C597.32 324.893 590.306 329.74 581.326 331.636C576.425 332.486 570.537 331.942 565.35 330.046C570.199 342.213 577.04 353.777 586.608 360.537C605.572 355.01 610.698 326.117 606.507 304.886Z" fill="#C1C1C1"/>
<path d="M585.714 272.472C584.467 272.361 583.03 272.217 581.497 272.038C579.895 275.805 578.856 279.861 577.704 283.883C578.864 279.861 579.904 275.814 581.497 272.038C576.518 271.486 570.292 270.627 565.113 269.879C559.329 269.045 554.844 268.348 554.844 268.348C554.844 268.348 544.894 266.809 547.804 278.092C550.791 282.14 557.45 284.257 563.737 285.379C569.512 286.4 574.95 286.578 576.881 286.612C577.366 286.612 577.644 286.612 577.644 286.612C577.644 286.612 582.112 292.182 590.295 302.742C592.893 295.532 595.17 288.33 596.417 281.119C593.343 278.56 589.784 275.686 585.714 272.472Z" fill="#F8EDE8"/>
<path d="M624.546 250.252C624.546 296.728 589.825 334.4 547 334.4C504.174 334.4 469.453 296.728 469.453 250.252C469.453 203.781 504.174 166.108 547 166.108C589.825 166.108 624.546 203.781 624.546 250.252Z" fill="#1755D0"/>
<path d="M618.292 250.252C618.292 296.728 583.572 334.4 540.75 334.4C497.92 334.4 463.203 296.728 463.203 250.252C463.203 203.781 497.92 166.108 540.75 166.108C583.572 166.108 618.292 203.781 618.292 250.252Z" fill="#1262FF"/>
<path d="M613.09 250.252C613.09 296.728 578.369 334.4 535.544 334.4C492.718 334.4 458.001 296.728 458.001 250.252C458.001 203.781 492.718 166.108 535.544 166.108C578.369 166.108 613.09 203.781 613.09 250.252Z" fill="#42A6FF"/>
<path d="M601.631 250.252C601.631 289.86 572.043 321.963 535.542 321.963C499.046 321.963 469.453 289.86 469.453 250.252C469.453 210.648 499.046 178.541 535.542 178.541C572.043 178.545 601.631 210.648 601.631 250.252Z" fill="url(#paint3_linear)"/>
<path d="M542.415 314.501C505.918 314.501 476.33 282.402 476.33 242.79C476.33 224.885 482.389 208.53 492.388 195.966C478.348 209.112 469.453 228.549 469.453 250.252C469.453 289.86 499.045 321.963 535.542 321.963C555.543 321.963 573.451 312.31 585.573 297.076C573.991 307.926 558.915 314.501 542.415 314.501Z" fill="#1755D0"/>
<g opacity="0.6" clip-path="url(#clip2)">
<path d="M539.842 293.253C539.323 293.253 538.829 293.004 538.491 292.571L497.926 240.279C497.457 239.674 497.379 238.817 497.728 238.128L511.951 210.024C512.261 209.411 512.854 209.028 513.496 209.028H566.188C566.833 209.028 567.426 209.411 567.733 210.024L581.952 238.128C582.304 238.821 582.223 239.674 581.754 240.279L541.189 292.571C540.854 293.004 540.36 293.253 539.842 293.253ZM501.408 238.817L539.842 288.368L578.276 238.817L565.144 212.857H514.54L501.408 238.817Z" fill="#E1EBFF"/>
<path d="M579.522 241.57H500.156C499.183 241.57 498.393 240.712 498.393 239.655C498.393 238.599 499.183 237.741 500.156 237.741H579.522C580.496 237.741 581.286 238.599 581.286 239.655C581.286 240.712 580.496 241.57 579.522 241.57Z" fill="#E1EBFF"/>
<path d="M557.695 240.494C557.141 240.494 556.594 240.21 556.252 239.678L539.846 214.285L523.649 239.544C523.098 240.413 521.994 240.624 521.197 240.023C520.393 239.418 520.199 238.227 520.756 237.358L538.393 209.848C538.721 209.335 539.261 209.028 539.836 209.028H539.839C540.414 209.028 540.95 209.331 541.282 209.844L559.138 237.481C559.698 238.35 559.504 239.54 558.707 240.145C558.404 240.379 558.048 240.494 557.695 240.494Z" fill="#E1EBFF"/>
<path d="M539.84 293.252C539.093 293.252 538.429 292.743 538.179 291.981L511.833 211.585C511.508 210.586 511.988 209.491 512.902 209.139C513.826 208.772 514.831 209.304 515.156 210.299L539.84 285.626L564.525 210.299C564.849 209.308 565.855 208.779 566.779 209.139C567.696 209.491 568.176 210.586 567.848 211.585L541.502 291.981C541.251 292.743 540.588 293.252 539.84 293.252Z" fill="#E1EBFF"/>
</g>
<path d="M618.24 398.443C618.379 379.371 627.523 352.502 627.116 339.773C622.552 329.335 615.241 302.3 614.142 298.199C614.045 297.837 613.922 297.504 613.74 297.176C613.361 296.493 612.604 295.266 611.702 294.542C608.502 300.807 597.101 313.777 596.502 314.903C595.903 316.03 595.977 314.309 596.903 315.508C599.215 342.93 592.193 345.921 584.201 348.31C584.079 348.293 583.967 348.276 583.845 348.259C569.731 346.023 567.349 321.228 564.137 310.77C562.301 304.758 560.578 296.961 553.114 296.077C547.225 295.388 539.882 299.283 541.138 305.94C542.125 311.17 550.94 334.51 553.495 355.172C553.495 355.172 553.495 355.197 553.503 355.248C553.521 355.325 553.529 355.401 553.538 355.478C553.555 355.614 553.573 355.775 553.607 355.98C554.057 359.874 554.274 363.658 554.17 367.186C553.521 389.685 572.917 412.132 576.875 417.047C580.823 421.97 577.741 491.625 577.741 491.625L580.364 491.481L636.563 488.581C636.563 488.581 621.557 424.878 618.24 398.443Z" fill="#F8EDE8"/>
<path d="M543.38 304.102L545.276 312.248C546.09 315.717 549.337 318.26 552.939 317.928C557.312 317.528 560.213 313.447 559.261 309.374L557.295 300.982C556.888 299.205 555.087 298.099 553.286 298.508L545.891 300.166C544.09 300.574 542.973 302.334 543.38 304.102Z" fill="#EAD4C1"/>
<path d="M580.369 491.481L577.745 491.625C577.745 491.625 580.827 421.979 576.879 417.047C572.922 412.132 553.525 389.685 554.174 367.186C554.278 363.658 554.053 359.874 553.611 355.979C554.226 360.597 557.456 383.486 562.253 390.408C567.587 398.103 574.16 408.595 577.121 412.532C580.083 416.469 581.676 426.902 581.676 451.033C581.676 467.469 580.888 483.157 580.369 491.481Z" fill="#D1BFB1"/>
<path d="M621.14 412.847H570.033V589H621.14V412.847Z" fill="#14B0BF"/>
<path d="M643.007 412.847H621.143V589H643.007V412.847Z" fill="#17C5CC"/>
<path d="M439.026 296.502C438.645 295.882 405.428 286.129 405.428 286.129C405.428 286.129 386.066 290.814 402.207 302.055C415.178 311.093 446.525 313.278 446.525 313.278C447.962 313.287 439.026 296.502 439.026 296.502Z" fill="#D1BFB1"/>
<path d="M452.274 314.009C451.737 313.49 414.441 304.809 414.441 304.809C414.441 304.809 402.422 316.713 418.113 328.574C464.146 363.393 464.284 327.282 463.868 328.361C465.263 328.004 452.274 314.009 452.274 314.009Z" fill="#D1BFB1"/>
<path d="M393.025 275.15C405.98 282.352 410.214 280.856 411.608 279.019L410.379 278.483L396.584 272.387C396.593 272.387 394.705 273.407 393.025 275.15Z" fill="#EAD4C1"/>
<path d="M436.638 290.098L434.456 289.129L411.613 279.019L410.383 278.483L396.589 272.387C396.589 272.387 394.692 273.407 393.021 275.15C392.839 275.354 392.64 275.558 392.467 275.771C389.67 279.112 387.652 281.051 400.814 290.438C409.344 296.501 417.882 299.817 424.705 304.561C425.424 305.038 426.082 305.548 426.758 306.075C427.217 306.432 427.658 306.806 428.1 307.163C432.577 310.718 436.872 314.51 441.132 318.328V291.943L436.638 290.098Z" fill="#F8EDE8"/>
<path d="M449.94 280.488C449.94 316.533 421.795 345.751 387.081 345.751C352.366 345.751 324.222 316.533 324.222 280.488C324.222 244.446 352.366 215.229 387.081 215.229C421.795 215.229 449.94 244.446 449.94 280.488Z" fill="#00743A"/>
<path d="M444.874 280.488C444.874 316.533 416.729 345.751 382.018 345.751C347.3 345.751 319.159 316.533 319.159 280.488C319.159 244.446 347.3 215.229 382.018 215.229C416.729 215.229 444.874 244.446 444.874 280.488Z" fill="#00D46A"/>
<path d="M440.655 280.488C440.655 316.533 412.511 345.751 377.796 345.751C343.082 345.751 314.94 316.533 314.94 280.488C314.94 244.446 343.082 215.229 377.796 215.229C412.511 215.229 440.655 244.446 440.655 280.488Z" fill="#11F985"/>
<path d="M431.365 280.488C431.365 311.207 407.38 336.105 377.793 336.105C348.209 336.105 324.222 311.207 324.222 280.488C324.222 249.773 348.209 224.871 377.793 224.871C407.38 224.874 431.365 249.773 431.365 280.488Z" fill="url(#paint4_linear)"/>
<path d="M383.364 330.317C353.78 330.317 329.796 305.422 329.796 274.7C329.796 260.814 334.708 248.129 342.812 238.385C331.432 248.58 324.222 263.655 324.222 280.487C324.222 311.206 348.209 336.104 377.793 336.104C394.006 336.104 408.522 328.618 418.348 316.803C408.959 325.217 396.739 330.317 383.364 330.317Z" fill="#33C47B"/>
<g opacity="0.8" clip-path="url(#clip3)">
<path d="M380.824 317.888C380.404 317.888 380.004 317.695 379.729 317.36L346.848 276.804C346.467 276.335 346.404 275.67 346.687 275.135L358.216 253.338C358.468 252.863 358.948 252.566 359.468 252.566H402.18C402.704 252.566 403.184 252.863 403.433 253.338L414.958 275.135C415.244 275.672 415.179 276.335 414.798 276.804L381.917 317.36C381.645 317.695 381.245 317.888 380.824 317.888ZM349.67 275.67L380.824 314.099L411.979 275.67L401.334 255.536H360.315L349.67 275.67Z" fill="#8DFFC6"/>
<path d="M412.99 277.804H348.656C347.867 277.804 347.227 277.139 347.227 276.32C347.227 275.5 347.867 274.835 348.656 274.835H412.99C413.779 274.835 414.42 275.5 414.42 276.32C414.42 277.139 413.779 277.804 412.99 277.804Z" fill="#8DFFC6"/>
<path d="M395.296 276.97C394.847 276.97 394.403 276.75 394.126 276.338L380.828 256.643L367.698 276.234C367.252 276.908 366.357 277.071 365.711 276.605C365.059 276.136 364.901 275.212 365.353 274.538L379.65 253.202C379.916 252.804 380.353 252.566 380.819 252.566H380.822C381.288 252.566 381.723 252.801 381.991 253.199L396.465 274.633C396.92 275.307 396.762 276.231 396.116 276.7C395.87 276.881 395.582 276.97 395.296 276.97Z" fill="#8DFFC6"/>
<path d="M380.823 317.888C380.217 317.888 379.679 317.493 379.476 316.902L358.12 254.549C357.857 253.774 358.246 252.925 358.987 252.652C359.736 252.367 360.551 252.78 360.814 253.552L380.823 311.973L400.832 253.552C401.095 252.783 401.91 252.373 402.659 252.652C403.403 252.925 403.792 253.774 403.526 254.549L382.17 316.902C381.967 317.493 381.429 317.888 380.823 317.888Z" fill="#8DFFC6"/>
</g>
<path d="M516.247 416.807C516.247 416.807 514.004 411.366 515.597 407.038C516.94 403.364 513.251 358.325 513.233 345.503C513.233 343.147 512.506 340.843 511.155 338.896C506.644 332.4 503.838 324.279 498.149 318.344C494.434 314.476 487.169 312.443 482.406 309.638C477.159 306.542 472.05 303.201 467.002 299.8C464.577 298.159 460.031 294.613 457.061 294.528C450.099 294.341 447.674 294.562 447.674 294.562L447.388 294.545L443.033 291.931C443.033 291.931 441.84 298.713 440.521 302.895C439.124 307.322 436.001 313.858 436.001 313.858C437.897 315.55 444.92 321.72 446.808 323.421C449.137 325.521 452.463 327.706 454.298 330.257C456.333 333.08 456.134 341.183 451.086 340.571C447.864 340.197 444.531 336.396 443.033 333.794C439.673 327.953 425.099 308.813 411.807 303.618C399.624 298.864 396.168 303.975 395.675 304.876C395.632 304.952 395.614 304.995 395.614 304.995L407.85 323.701C407.85 323.701 430.598 353.232 434.243 366.309C434.347 366.717 434.451 367.142 434.572 367.567C438.097 381.393 445.111 389.122 460.628 406.23C462.178 419.001 462.3 487.645 462.3 487.645L464.56 488.274L518.031 503.417L516.247 416.807Z" fill="#F8EDE8"/>
<path d="M443 291.932C445.312 293.751 446.572 295.091 448.85 296.945C454.236 301.375 459.587 305.83 464.956 310.26C467.155 312.088 469.346 313.934 471.589 315.702C474.455 317.964 478.542 317.819 481.573 320.03C483.452 321.408 485.236 323.159 486.526 325.089C487.712 326.875 487.834 329.511 489.427 330.99C489.384 330.956 489.384 328.55 489.332 328.167C488.856 324.945 488.119 321.484 485.141 319.528C482.889 318.057 480.222 316.927 477.642 316.161L449.845 294.462L449.56 294.445L443 291.932Z" fill="#D1BFB1"/>
<path d="M395.667 304.835L395.658 304.852C395.615 304.928 395.598 304.971 395.598 304.971L407.833 323.677C408.768 322.308 409.634 320.667 410.292 318.805C407.651 310.132 399.191 305.677 395.667 304.835Z" fill="#EAD4C1"/>
<path d="M434.227 366.285C434.33 366.693 434.434 367.118 434.556 367.544C438.08 381.369 445.094 389.098 460.611 406.206C462.161 418.977 462.283 487.621 462.283 487.621L464.543 488.25C465.435 469.127 465.591 405.874 465.591 405.874C465.591 405.874 447.579 392.652 434.227 366.285Z" fill="#D1BFB1"/>
<path d="M501.857 444.239H450.75V589H501.857V444.239Z" fill="#0087FF"/>
<path d="M523.726 444.239H501.861V589H523.726V444.239Z" fill="#0076DE"/>
<path d="M300.708 179L301.938 182.202C302.694 184.172 304.25 185.73 306.218 186.487L309.416 187.718L306.218 188.95C304.25 189.707 302.694 191.265 301.938 193.235L300.708 196.437L299.478 193.235C298.722 191.265 297.166 189.707 295.198 188.95L292 187.718L295.198 186.487C297.166 185.73 298.722 184.172 299.478 182.202L300.708 179Z" fill="#3ABAD8"/>
<path d="M422.445 76L424.28 80.7774C425.409 83.716 427.729 86.0388 430.664 87.1689L435.436 89.0058L430.664 90.8426C427.729 91.9727 425.409 94.2955 424.28 97.2341L422.445 102.012L420.611 97.2341C419.482 94.2955 417.162 91.9727 414.227 90.8426L409.455 89.0058L414.227 87.1689C417.162 86.0388 419.482 83.716 420.611 80.7774L422.445 76Z" fill="#3ABAD8"/>
<path d="M679.99 392L681.825 396.777C682.954 399.716 685.274 402.039 688.209 403.169L692.98 405.006L688.209 406.843C685.274 407.973 682.954 410.296 681.825 413.234L679.99 418.012L678.156 413.234C677.027 410.296 674.707 407.973 671.772 406.843L667 405.006L671.772 403.169C674.707 402.039 677.027 399.716 678.156 396.777L679.99 392Z" fill="#3ABAD8"/>
<path d="M624.072 268L625.071 270.6C625.684 272.2 626.948 273.464 628.544 274.078L631.141 275.076L628.544 276.076C626.946 276.692 625.684 277.956 625.071 279.556L624.072 282.156L623.072 279.556C622.457 277.956 621.195 276.692 619.597 276.076L617 275.076L619.597 274.078C621.195 273.462 622.457 272.198 623.072 270.6L624.072 268Z" fill="#3ABAD8"/>
<path d="M660.072 161L661.069 163.6C661.684 165.2 662.946 166.464 664.542 167.078L667.139 168.078L664.542 169.078C662.944 169.694 661.682 170.958 661.069 172.558L660.072 175.158L659.072 172.558C658.459 170.958 657.195 169.694 655.597 169.078L653 168.078L655.597 167.078C657.195 166.464 658.457 165.198 659.072 163.6L660.072 161Z" fill="#3ABAD8"/>
<path d="M103.361 257L104.684 260.443C105.497 262.561 107.168 264.234 109.284 265.048L112.723 266.373L109.284 267.695C107.168 268.509 105.497 270.184 104.684 272.3L103.361 275.743L102.039 272.3C101.225 270.182 99.5545 268.509 97.4387 267.695L94 266.373L97.4387 265.048C99.5545 264.234 101.225 262.561 102.039 260.443L103.361 257Z" fill="#3ABAD8"/>
<defs>
<radialGradient id="paint0_radial" cx="0" cy="0" r="1" gradientUnits="userSpaceOnUse" gradientTransform="translate(394 308.5) rotate(-175.948) scale(284.706 360.554)">
<stop offset="0.0001" stop-color="#9CFFF9" stop-opacity="0.984375"/>
<stop offset="1" stop-color="#327BB7" stop-opacity="0"/>
</radialGradient>
<linearGradient id="paint1_linear" x1="237.504" y1="255.577" x2="237.504" y2="348.124" gradientUnits="userSpaceOnUse">
<stop stop-color="#04C464"/>
<stop offset="1" stop-color="#02A76C"/>
</linearGradient>
<linearGradient id="paint2_linear" x1="328.012" y1="277.149" x2="328.012" y2="401.731" gradientUnits="userSpaceOnUse">
<stop stop-color="#0087FF"/>
<stop offset="1" stop-color="#1262FF"/>
</linearGradient>
<linearGradient id="paint3_linear" x1="535.542" y1="178.541" x2="535.542" y2="321.963" gradientUnits="userSpaceOnUse">
<stop stop-color="#0087FF"/>
<stop offset="1" stop-color="#1262FF"/>
</linearGradient>
<linearGradient id="paint4_linear" x1="377.793" y1="224.871" x2="377.793" y2="336.105" gradientUnits="userSpaceOnUse">
<stop stop-color="#04C464"/>
<stop offset="1" stop-color="#02A76C"/>
</linearGradient>
<clipPath id="clip0">
<rect width="56.7801" height="59.2884" fill="white" transform="translate(213.337 276.148)"/>
</clipPath>
<clipPath id="clip1">
<rect width="71.1637" height="79.8113" fill="white" transform="translate(296.725 304.842)"/>
</clipPath>
<clipPath id="clip2">
<rect width="84.6571" height="91.881" fill="white" transform="translate(497.513 205.2)"/>
</clipPath>
<clipPath id="clip3">
<rect width="68.6227" height="71.2601" fill="white" transform="translate(346.513 249.597)"/>
</clipPath>
</defs>
</svg>
