<svg width="70" height="70" viewBox="0 0 70 70" fill="none" xmlns="http://www.w3.org/2000/svg">
<path d="M65.4038 24.2268C65.4871 23.8554 65.5319 23.475 65.5319 23.0855V14.1493C65.5319 6.41031 48.65 2.23438 32.7659 2.23438C16.8818 2.23438 0 6.41031 0 14.1493C0 14.4831 0.0334961 14.8098 0.0948828 15.1302C0.0367773 15.2895 0 15.4593 0 15.6387V23.0855C0 25.5612 1.72977 27.6716 4.59977 29.3981C4.51391 29.7732 4.46811 30.1521 4.46811 30.5321C4.46811 30.866 4.5016 31.1926 4.56299 31.5132C4.50475 31.6725 4.46811 31.8423 4.46811 32.0217V39.4685C4.46811 40.1522 4.6025 40.8075 4.85365 41.4352C2.10533 43.4718 1.48941 45.5104 1.48941 46.9153C1.48941 47.2492 1.52291 47.5758 1.5843 47.8962C1.52605 48.0555 1.48941 48.2252 1.48941 48.4047V55.8515C1.48941 63.5905 18.3713 67.7664 34.2554 67.7664C50.1395 67.7664 67.0214 63.5905 67.0214 55.8515V46.9153C67.0214 46.2541 66.8892 45.6011 66.6329 44.9636C68.7575 43.4018 70 41.5663 70 39.4685V30.5323V30.5321C70 28.8921 69.1779 26.5095 65.4038 24.2268ZM11.1211 8.19025C16.8804 6.27059 24.5675 5.2132 32.7659 5.2132C40.9642 5.2132 48.6511 6.27059 54.4106 8.19025C59.5093 9.8898 62.5531 12.1175 62.5531 14.1493C62.5531 16.1811 59.5093 18.4087 54.4106 20.1083C48.651 22.028 40.9642 23.0854 32.7659 23.0854C24.5675 23.0854 16.8803 22.028 11.1211 20.1083C6.02246 18.4087 2.97869 16.1811 2.97869 14.1493C2.97869 12.1175 6.0226 9.8898 11.1211 8.19025ZM62.5532 19.3483V23.0855C62.5532 24.8066 60.3627 26.6671 56.5958 28.2293V22.4916C58.9965 21.6032 61.0332 20.5536 62.5532 19.3483ZM53.617 23.4611V29.2963C51.7934 29.8626 49.7943 30.3462 47.6596 30.742V24.8139C49.7585 24.4435 51.7612 23.9919 53.617 23.4611ZM44.6809 25.2776V31.2267C42.7703 31.4944 40.7769 31.6973 38.7235 31.8306V25.8703C40.7416 25.7389 42.7395 25.5408 44.6809 25.2776ZM35.7447 26.0156V31.9741C34.761 32.0053 33.7675 32.0216 32.766 32.0216C31.7646 32.0216 30.7709 32.0053 29.7873 31.9741V26.0155C30.7813 26.0478 31.7755 26.064 32.766 26.064C33.7564 26.0642 34.7508 26.0479 35.7447 26.0156ZM26.8085 25.8703V31.8307C24.7551 31.6973 22.7616 31.4945 20.851 31.2268V25.2778C22.7924 25.5408 24.7903 25.7389 26.8085 25.8703ZM17.8723 24.814V30.7421C15.7376 30.3462 13.7383 29.8628 11.9149 29.2965V23.4611C13.7707 23.9919 15.7735 24.4437 17.8723 24.814ZM2.97869 23.0855V19.3483C4.49873 20.5536 6.53543 21.6032 8.93607 22.4916V28.2293C5.1692 26.6671 2.97869 24.8066 2.97869 23.0855ZM7.4468 35.731C8.96684 36.9363 11.0035 37.9859 13.4042 38.8743V44.6121C9.6373 43.05 7.4468 41.1895 7.4468 39.4684V35.731ZM10.4255 60.9953C6.65861 59.4331 4.46811 57.5726 4.46811 55.8515V52.1143C5.98814 53.3196 8.02484 54.3692 10.4255 55.2576V60.9953ZM19.3617 63.5082C17.227 63.1122 15.2277 62.6288 13.4043 62.0625V56.2271C15.2601 56.7578 17.2629 57.2095 19.3617 57.58V63.5082ZM28.2979 64.5966C26.2445 64.4631 24.251 64.2603 22.3404 63.9927V58.0436C24.2818 58.3067 26.2797 58.5048 28.2979 58.6363V64.5966ZM37.234 64.7401C36.2503 64.7713 35.2568 64.7876 34.2553 64.7876C33.2538 64.7876 32.2602 64.7713 31.2766 64.7401V58.7817C32.2705 58.8139 33.2648 58.8302 34.2553 58.8302C35.2458 58.8302 36.24 58.8139 37.234 58.7817V64.7401ZM46.1702 63.9927C44.2596 64.2604 42.2662 64.4633 40.2128 64.5966V58.6363C42.2311 58.5049 44.2289 58.3068 46.1702 58.0438V63.9927ZM55.1064 62.0624C53.2829 62.6286 51.2837 63.1122 49.149 63.508V57.5799C51.2479 57.2095 53.2507 56.7578 55.1064 56.2271V62.0624ZM64.0426 55.8515C64.0426 57.5726 61.8521 59.4331 58.0852 60.9953V55.2576C60.486 54.3691 62.5227 53.3196 64.0426 52.1143V55.8515ZM55.9002 52.8743C50.1405 54.794 42.4538 55.8514 34.2554 55.8514C26.0571 55.8514 18.3698 54.794 12.6107 52.8743C7.51201 51.1748 4.46824 48.9471 4.46824 46.9153C4.46824 45.7495 5.47764 44.6835 6.55143 43.8789C11.5396 48.781 24.6966 51.3834 37.2343 51.3834C47.2604 51.3834 57.6823 49.719 64.0069 46.5455C64.0289 46.6691 64.0428 46.7922 64.0428 46.9153C64.0426 48.9472 60.9987 51.1748 55.9002 52.8743ZM16.383 45.6795V39.8439C18.2388 40.3747 20.2416 40.8264 22.3404 41.1968V47.1251C20.2057 46.7294 18.2064 46.2458 16.383 45.6795ZM25.3192 47.6098V41.6605C27.2606 41.9235 29.2585 42.1217 31.2766 42.2532V48.2137C29.2232 48.0803 27.2297 47.8774 25.3192 47.6098ZM34.2553 48.3571V42.3984C35.2492 42.4306 36.2435 42.4469 37.234 42.4469C38.2245 42.4469 39.2187 42.4306 40.2127 42.3984V48.3571C39.229 48.3883 38.2354 48.4046 37.234 48.4046C36.2325 48.4046 35.239 48.3883 34.2553 48.3571ZM43.1915 48.2136V42.253C45.2097 42.1217 47.2076 41.9236 49.1489 41.6604V47.6097C47.2384 47.8774 45.2449 48.0803 43.1915 48.2136ZM52.1277 47.1251V41.1968C54.2266 40.8264 56.2294 40.3747 58.0851 39.8439V45.6795C56.2615 46.2458 54.2624 46.7294 52.1277 47.1251ZM67.0213 39.4685C67.0213 41.1896 64.8308 43.0501 61.0639 44.6123V38.8745C63.4647 37.9859 65.5014 36.9365 67.0213 35.7311V39.4685ZM58.8789 36.4912C53.1196 38.411 45.4325 39.4682 37.2341 39.4682C29.0358 39.4682 21.3485 38.411 15.5894 36.4912C10.7533 34.8793 7.77109 32.7922 7.47619 30.8478C13.8718 33.5751 23.4881 35.0004 32.766 35.0004C45.8227 35.0004 59.551 32.1782 64.0255 26.8755C65.9646 28.0798 67.0213 29.3606 67.0213 30.5321C67.0213 32.5639 63.9774 34.7916 58.8789 36.4912Z" fill="url(#paint0_linear)"/>
<defs>
<linearGradient id="paint0_linear" x1="35" y1="2.23437" x2="35" y2="67.7664" gradientUnits="userSpaceOnUse">
<stop stop-color="#00D46A"/>
<stop offset="1" stop-color="#1262FF"/>
</linearGradient>
</defs>
</svg>
