<svg width="70" height="70" viewBox="0 0 70 70" fill="none" xmlns="http://www.w3.org/2000/svg">
<path d="M59.7392 10.2512C53.1297 3.64067 44.3417 0 34.9947 0C28.8348 0 22.7776 1.623 17.4776 4.69383C16.9878 4.97795 16.8207 5.60493 17.1048 6.0952C17.3884 6.58493 18.0159 6.75262 18.5056 6.46851C23.4937 3.57819 29.1953 2.05078 34.9947 2.05078C43.7938 2.05078 52.0669 5.47783 58.2892 11.7012C64.5115 17.9246 67.938 26.1993 67.938 35C67.938 43.8013 64.5115 52.0754 58.2892 58.2988C52.0669 64.5216 43.7938 67.9492 34.9947 67.9492C26.195 67.9492 17.9219 64.5222 11.6996 58.2988C5.47729 52.0754 2.05078 43.8013 2.05078 35C2.05078 24.7899 6.66931 15.3226 14.7213 9.02664C15.1678 8.6779 15.2463 8.03329 14.8975 7.58736C14.5488 7.14088 13.9042 7.06238 13.4583 7.41112C9.36043 10.6149 5.97183 14.7624 3.65776 19.4044C1.23047 24.2735 0 29.5206 0 35C0 44.3487 3.64014 53.1382 10.2496 59.7488C16.8591 66.3593 25.647 70 34.9947 70C44.3417 70 53.1297 66.3593 59.7392 59.7488C66.3486 53.1382 69.9888 44.3487 69.9888 35C69.9888 25.6513 66.3486 16.8618 59.7392 10.2512Z" fill="url(#paint0_linear)"/>
<path d="M20.1812 47.9743H39.159C39.7251 47.9743 40.1843 47.5155 40.1843 46.9489C40.1843 46.3828 39.7251 45.9235 39.159 45.9235H20.1812C19.0656 45.9235 18.1582 45.0161 18.1582 43.9V26.0987C18.1582 25.8098 18.2196 25.5358 18.3291 25.2875L33.4104 37.0848C33.8766 37.4496 34.4352 37.6317 34.9938 37.6317C35.5525 37.6317 36.1111 37.4496 36.5773 37.0848L51.6591 25.287C51.7686 25.5358 51.83 25.8098 51.83 26.0987V43.9C51.83 45.0161 50.9226 45.924 49.807 45.924H43.8507C43.284 45.924 42.8253 46.3828 42.8253 46.9494C42.8253 47.5155 43.284 47.9748 43.8507 47.9748H49.807C52.0532 47.9748 53.8808 46.1467 53.8808 43.9V26.0987C53.8808 25.1513 53.5555 24.2797 53.0113 23.5871C52.9798 23.3478 52.8655 23.1251 52.6834 22.9606C52.0153 22.3566 51.1534 22.0244 50.2572 22.0244H19.731C18.8343 22.0244 17.9729 22.3571 17.3042 22.9612C17.1227 23.1251 17.0084 23.3483 16.9769 23.5871C16.4327 24.2797 16.1074 25.1519 16.1074 26.0987V43.9005C16.1074 46.1467 17.935 47.9743 20.1812 47.9743ZM49.807 24.0752C49.8305 24.0752 49.8529 24.0779 49.8759 24.0784L35.3137 35.4693C35.1257 35.6167 34.8625 35.6167 34.6739 35.4693L20.1118 24.0784C20.1353 24.0773 20.1577 24.0747 20.1812 24.0747H49.807V24.0752Z" fill="url(#paint1_linear)"/>
<defs>
<linearGradient id="paint0_linear" x1="34.9944" y1="0" x2="34.9944" y2="70" gradientUnits="userSpaceOnUse">
<stop stop-color="#00D46A"/>
<stop offset="1" stop-color="#1262FF"/>
</linearGradient>
<linearGradient id="paint1_linear" x1="34.9941" y1="22.0244" x2="34.9941" y2="47.9748" gradientUnits="userSpaceOnUse">
<stop stop-color="#00D46A"/>
<stop offset="1" stop-color="#1262FF"/>
</linearGradient>
</defs>
</svg>
