<svg width="70" height="70" viewBox="0 0 70 70" fill="none" xmlns="http://www.w3.org/2000/svg">
<path d="M59.7487 10.2514C53.1381 3.64055 44.3487 0 35 0C25.6513 0 16.8619 3.64055 10.2513 10.2514C3.64055 16.8619 0 25.6513 0 35C0 44.3487 3.64055 53.1381 10.2513 59.7487C16.8619 66.3595 25.6513 70 35 70C44.3487 70 53.1381 66.3595 59.7487 59.7486C66.3595 53.1381 70 44.3487 70 35C70 25.6513 66.3595 16.8619 59.7487 10.2514ZM35 67.7895C16.9198 67.7895 2.21047 53.0802 2.21047 35C2.21047 16.9198 16.9198 2.21047 35 2.21047C53.0802 2.21047 67.7895 16.9198 67.7895 35C67.7895 53.0802 53.0802 67.7895 35 67.7895Z" fill="url(#paint0_linear)"/>
<path d="M61.3348 39.8027C61.3242 39.1964 60.8284 38.7098 60.2219 38.7098C59.5993 38.7099 59.0988 39.2218 59.1107 39.8446C59.1766 43.3402 59.0466 46.6502 58.732 49.4492C53.7506 53.312 46.7732 55.6005 41.9291 56.2097L39.47 49.6247C42.8775 49.0911 48.0667 47.5975 52.2764 43.4512C52.6379 43.0951 52.7105 42.5387 52.4525 42.1018C52.1946 41.6648 51.6722 41.4602 51.1858 41.6043C50.6887 41.7521 50.0267 42.0107 49.3257 42.2846C48.5344 42.5937 47.6374 42.9441 47.1325 43.064C43.1087 44.0209 39.0303 44.5059 35.0088 44.5059C35.0062 44.5059 34.9997 44.5059 34.9997 44.5059H34.9909C30.9697 44.5059 26.8909 44.0208 22.8671 43.064C22.3623 42.9441 21.4653 42.5937 20.674 42.2846C19.9997 42.0211 19.3614 41.7718 18.8712 41.6216C18.4153 41.4819 17.9049 41.6156 17.6179 41.9964C17.2793 42.4458 17.3322 43.0658 17.7235 43.4513C21.9481 47.6122 27.1288 49.1097 30.5292 49.6439L28.0717 56.2095C23.2279 55.6003 16.2496 53.3118 11.2683 49.4491C10.2269 40.1858 11.2051 25.3275 14.6275 16.6551C17.7641 15.2305 22.372 14.8254 26.6997 14.653L19.7982 17.8534C19.2741 18.0962 19.0256 18.7018 19.2276 19.2431C19.43 19.7842 20.0147 20.0783 20.5697 19.9179C25.3595 18.5343 30.2145 17.8326 34.9999 17.8326C39.7854 17.8326 44.6405 18.5343 49.4302 19.9179C49.9846 20.0776 50.5699 19.7841 50.7722 19.2431C50.9746 18.702 50.726 18.0964 50.2017 17.8535L43.3001 14.6532C47.628 14.8256 52.2358 15.2307 55.3724 16.6553C57.2442 21.3986 58.3847 27.9921 58.8636 34.5088C58.9063 35.0889 59.3907 35.5367 59.9723 35.5367H59.9764C60.6236 35.5367 61.134 34.9865 61.0867 34.3411C60.5808 27.438 59.3345 20.458 57.2583 15.4217C57.1566 15.1752 56.9693 14.9735 56.7306 14.8543C52.3364 12.6576 45.4599 12.481 39.9341 12.3388C39.2579 12.3214 38.6044 12.3048 37.9823 12.2847C37.4579 12.2693 36.9929 12.6229 36.8715 13.1341C36.7501 13.6451 37.0053 14.1711 37.4819 14.392L40.8462 15.9521C38.8926 15.7324 36.9409 15.6218 34.9997 15.6218C33.0584 15.6218 31.1066 15.7323 29.153 15.9521L32.5173 14.392C32.9939 14.1711 33.2491 13.6451 33.1277 13.1341C33.0064 12.6229 32.5427 12.2699 32.0169 12.2847C31.3948 12.3048 30.7414 12.3213 30.0651 12.3388C24.5394 12.4809 17.6626 12.6575 13.2686 14.8543C13.03 14.9735 12.8426 15.1752 12.7409 15.4217C8.94817 24.6231 7.9247 40.3131 9.12645 50.1662C9.16118 50.4518 9.30597 50.7123 9.52991 50.8928C15.2072 55.4695 23.2524 58.012 28.7069 58.5016C28.7403 58.5048 28.7734 58.506 28.8063 58.506C29.2635 58.506 29.6783 58.2227 29.8409 57.7882L33.0875 49.1142C33.2468 48.689 33.1325 48.1979 32.7695 47.8846C32.5918 47.7312 32.3647 47.6478 32.1312 47.6239C30.4274 47.4498 27.8483 46.992 25.1312 45.8014C28.4158 46.4093 31.7206 46.7166 34.991 46.7166H34.9998C34.9999 46.7166 35.0001 46.7166 35.0001 46.7166H35.009C38.2645 46.7166 41.5546 46.4121 44.8244 45.8096C42.128 46.9781 39.5673 47.4308 37.8703 47.6043C37.6368 47.6282 37.4096 47.7114 37.2316 47.8642C36.8678 48.1769 36.7529 48.6684 36.9119 49.094L40.1586 57.7875C40.321 58.2226 40.736 58.5061 41.1934 58.5061C41.2264 58.5061 41.2596 58.5046 41.2928 58.5018C46.7475 58.0122 54.7927 55.4696 60.4698 50.8929C60.6938 50.7125 60.8384 50.4519 60.8733 50.1663C61.242 47.1428 61.401 43.5693 61.3348 39.8027Z" fill="url(#paint1_linear)"/>
<path d="M24.6846 25.0518C20.8249 25.0518 17.6846 28.192 17.6846 32.0518C17.6846 35.9115 20.8249 39.0518 24.6846 39.0518C28.5443 39.0518 31.6846 35.9115 31.6846 32.0518C31.6846 28.192 28.5443 25.0518 24.6846 25.0518ZM24.6846 36.8413C22.0437 36.8413 19.895 34.6928 19.895 32.0518C19.895 29.4108 22.0437 27.2622 24.6846 27.2622C27.3254 27.2622 29.4741 29.4108 29.4741 32.0518C29.4741 34.6928 27.3254 36.8413 24.6846 36.8413Z" fill="url(#paint2_linear)"/>
<path d="M45.3159 25.0518C41.4562 25.0518 38.3159 28.192 38.3159 32.0518C38.3159 35.9115 41.4562 39.0518 45.3159 39.0518C49.1756 39.0518 52.3159 35.9115 52.3159 32.0518C52.3159 28.192 49.1756 25.0518 45.3159 25.0518ZM45.3159 36.8413C42.6751 36.8413 40.5264 34.6928 40.5264 32.0518C40.5264 29.4108 42.6751 27.2622 45.3159 27.2622C47.9568 27.2622 50.1055 29.4108 50.1055 32.0518C50.1055 34.6928 47.9566 36.8413 45.3159 36.8413Z" fill="url(#paint3_linear)"/>
<defs>
<linearGradient id="paint0_linear" x1="35" y1="0" x2="35" y2="70" gradientUnits="userSpaceOnUse">
<stop stop-color="#00D46A"/>
<stop offset="1" stop-color="#1262FF"/>
</linearGradient>
<linearGradient id="paint1_linear" x1="34.9997" y1="12.2842" x2="34.9997" y2="58.5061" gradientUnits="userSpaceOnUse">
<stop stop-color="#00D46A"/>
<stop offset="1" stop-color="#1262FF"/>
</linearGradient>
<linearGradient id="paint2_linear" x1="24.6846" y1="25.0518" x2="24.6846" y2="39.0518" gradientUnits="userSpaceOnUse">
<stop stop-color="#00D46A"/>
<stop offset="1" stop-color="#1262FF"/>
</linearGradient>
<linearGradient id="paint3_linear" x1="45.3159" y1="25.0518" x2="45.3159" y2="39.0518" gradientUnits="userSpaceOnUse">
<stop stop-color="#00D46A"/>
<stop offset="1" stop-color="#1262FF"/>
</linearGradient>
</defs>
</svg>
