<svg width="70" height="70" viewBox="0 0 70 70" fill="none" xmlns="http://www.w3.org/2000/svg">
<path d="M67.0778 20.9784C65.2051 16.7002 62.5338 12.8904 59.1381 9.65549C58.6996 9.23781 58.0061 9.25449 57.5884 9.69309C57.1709 10.1314 57.1877 10.8251 57.626 11.2425C64.1918 17.4975 67.8079 25.9349 67.8079 35C67.8079 53.0904 53.0904 67.808 34.9999 67.808C16.9094 67.808 2.19201 53.0904 2.19201 35C2.19201 16.9096 16.9096 2.19201 35 2.19201C41.6084 2.19201 47.9787 4.14791 53.4218 7.84793C53.9223 8.18822 54.604 8.0582 54.9444 7.55781C55.2847 7.05715 55.1547 6.37547 54.6541 6.03518C48.8461 2.08701 42.0499 0 35 0C25.6512 0 16.8619 3.64055 10.2513 10.2513C3.64068 16.8619 0 25.6512 0 35C0 44.3488 3.64068 53.1381 10.2513 59.7487C16.8619 66.3595 25.6512 70 35 70C44.3488 70 53.1381 66.3595 59.7487 59.7487C66.3593 53.1381 70 44.3488 70 35C70 30.1257 69.0167 25.4081 67.0778 20.9784Z" fill="url(#paint0_linear)"/>
<path d="M50.9051 14.8413L29.8263 24.6538C29.2775 24.9092 29.0398 25.5613 29.2953 26.1101C29.5508 26.6589 30.2028 26.8969 30.7514 26.6413L43.7541 20.5882L37.4327 25.7057L22.9259 37.4493L14.9912 33.9777L26.11 28.8018C26.6588 28.5462 26.8966 27.8943 26.6411 27.3455C26.3857 26.7967 25.7334 26.5587 25.185 26.8143L13.2166 32.3859C12.5804 32.682 12.1787 33.33 12.1948 34.0313C12.2105 34.7176 12.6253 35.3353 13.2541 35.6104L22.1137 39.4864L24.7085 55.055C24.8682 56.0176 26.1717 56.2917 26.7064 55.4754L34.0668 44.2411L47.9863 50.7368C49.1015 51.2577 50.4286 50.4618 50.5005 49.2376L52.4616 15.8989C52.4637 15.868 52.4635 15.8362 52.4628 15.8052C52.441 15.0293 51.6075 14.5165 50.9051 14.8413ZM25.9792 49.3463L24.2833 39.1706L41.5603 25.1844L28.3372 40.0103C28.2182 40.1437 28.1299 40.3116 28.0889 40.486L25.9792 49.3463ZM28.3077 49.0318L29.91 42.3014L32.0598 43.3047L28.3077 49.0318ZM33.2736 41.4521L30.9538 40.3697L42.3656 27.5748L40.715 30.0942L33.2736 41.4521ZM48.349 48.4874L35.2806 42.3888L50.0321 19.8734L48.349 48.4874Z" fill="url(#paint1_linear)"/>
<defs>
<linearGradient id="paint0_linear" x1="35" y1="0" x2="35" y2="70" gradientUnits="userSpaceOnUse">
<stop stop-color="#00D46A"/>
<stop offset="1" stop-color="#1262FF"/>
</linearGradient>
<linearGradient id="paint1_linear" x1="32.3288" y1="14.7422" x2="32.3288" y2="55.9574" gradientUnits="userSpaceOnUse">
<stop stop-color="#00D46A"/>
<stop offset="1" stop-color="#1262FF"/>
</linearGradient>
</defs>
</svg>
