<svg width="12" height="12" viewBox="0 0 12 12" fill="none" xmlns="http://www.w3.org/2000/svg">
<g opacity="0.5" clip-path="url(#clip0)">
<path d="M8.57141 2.14258H1.28571C0.575633 2.14258 0 2.71821 0 3.42829V10.714C0 11.4241 0.575633 11.9997 1.28571 11.9997H8.57141C9.2815 11.9997 9.85713 11.4241 9.85713 10.714V3.42829C9.85713 2.71821 9.2815 2.14258 8.57141 2.14258ZM8.99999 10.714C8.99999 10.9507 8.80812 11.1426 8.57141 11.1426H1.28571C1.04901 11.1426 0.857134 10.9507 0.857134 10.714V3.42829C0.857134 3.19159 1.04901 2.99971 1.28571 2.99971H8.57141C8.80812 2.99971 8.99999 3.19159 8.99999 3.42829V10.714Z" fill="white"/>
<path d="M10.7143 0H3.00007C2.28999 0 1.71436 0.575633 1.71436 1.28571C1.71436 1.52242 1.90623 1.71429 2.14294 1.71429C2.37964 1.71429 2.57149 1.52242 2.57149 1.28571C2.57149 1.04901 2.76337 0.857134 3.00007 0.857134H10.7143C10.9511 0.857134 11.1429 1.04901 11.1429 1.28571V8.99999C11.1429 9.2367 10.9511 9.42857 10.7143 9.42857C10.4776 9.42857 10.2858 9.62045 10.2858 9.85715C10.2858 10.0939 10.4776 10.2857 10.7143 10.2857C11.4244 10.2857 12.0001 9.7101 12.0001 9.00002V1.28571C12.0001 0.575633 11.4244 0 10.7143 0Z" fill="white"/>
</g>
<defs>
<clipPath id="clip0">
<rect width="12" height="12" fill="white"/>
</clipPath>
</defs>
</svg>
