<svg width="179" height="146" viewBox="0 0 179 146" fill="none" xmlns="http://www.w3.org/2000/svg">
<rect width="179" height="146" rx="20" fill="url(#paint0_linear)"/>
<path d="M106.792 55.0693H79.2063C76.9249 55.0693 75.0684 56.9259 75.0684 59.2073V86.7935C75.0684 89.0749 76.9249 90.9314 79.2063 90.9314H106.792C109.074 90.9314 110.93 89.0749 110.93 86.7935V59.2073C110.93 56.9259 109.074 55.0693 106.792 55.0693ZM108.172 86.7935C108.172 87.5549 107.554 88.1728 106.792 88.1728H79.2063C78.4463 88.1728 77.827 87.5549 77.827 86.7935V59.2073C77.827 58.4459 78.4463 57.828 79.2063 57.828H106.792C107.554 57.828 108.172 58.4459 108.172 59.2073V86.7935Z" fill="url(#paint1_linear)"/>
<path d="M131.621 63.3448C132.383 63.3448 133 62.7283 133 61.9655C133 61.2028 132.383 60.5862 131.621 60.5862H121.966V52.3103H131.621C132.383 52.3103 133 51.6938 133 50.931C133 50.1683 132.383 49.5517 131.621 49.5517H121.826C121.276 46.8538 119.146 44.7241 116.448 44.1738V34.3793C116.448 33.6166 115.832 33 115.069 33C114.306 33 113.69 33.6166 113.69 34.3793V44.0345H105.414V34.3793C105.414 33.6166 104.797 33 104.034 33C103.272 33 102.655 33.6166 102.655 34.3793V44.0345H94.3793V34.3793C94.3793 33.6166 93.7614 33 93 33C92.2386 33 91.6207 33.6166 91.6207 34.3793V44.0345H83.3448V34.3793C83.3448 33.6166 82.7269 33 81.9655 33C81.2041 33 80.5862 33.6166 80.5862 34.3793V44.0345H72.3103V34.3793C72.3103 33.6166 71.6924 33 70.931 33C70.1697 33 69.5517 33.6166 69.5517 34.3793V44.1738C66.8538 44.7241 64.7241 46.8538 64.1738 49.5517H54.3793C53.6179 49.5517 53 50.1683 53 50.931C53 51.6938 53.6179 52.3103 54.3793 52.3103H64.0345V60.5862H54.3793C53.6179 60.5862 53 61.2028 53 61.9655C53 62.7283 53.6179 63.3448 54.3793 63.3448H64.0345V71.6207H54.3793C53.6179 71.6207 53 72.2372 53 73C53 73.7628 53.6179 74.3793 54.3793 74.3793H64.0345V82.6552H54.3793C53.6179 82.6552 53 83.2717 53 84.0345C53 84.7972 53.6179 85.4138 54.3793 85.4138H64.0345V93.6897H54.3793C53.6179 93.6897 53 94.3062 53 95.069C53 95.8317 53.6179 96.4483 54.3793 96.4483H64.1738C64.7241 99.1462 66.8538 101.276 69.5517 101.826V111.621C69.5517 112.383 70.1697 113 70.931 113C71.6924 113 72.3103 112.383 72.3103 111.621V101.966H80.5862V111.621C80.5862 112.383 81.2041 113 81.9655 113C82.7269 113 83.3448 112.383 83.3448 111.621V101.966H91.6207V111.621C91.6207 112.383 92.2386 113 93 113C93.7614 113 94.3793 112.383 94.3793 111.621V101.966H102.655V111.621C102.655 112.383 103.272 113 104.034 113C104.797 113 105.414 112.383 105.414 111.621V101.966H113.69V111.621C113.69 112.383 114.306 113 115.069 113C115.832 113 116.448 112.383 116.448 111.621V101.826C119.146 101.276 121.276 99.1462 121.826 96.4483H131.621C132.383 96.4483 133 95.8317 133 95.069C133 94.3062 132.383 93.6897 131.621 93.6897H121.966V85.4138H131.621C132.383 85.4138 133 84.7972 133 84.0345C133 83.2717 132.383 82.6552 131.621 82.6552H121.966V74.3793H131.621C132.383 74.3793 133 73.7628 133 73C133 72.2372 132.383 71.6207 131.621 71.6207H121.966V63.3448H131.621ZM119.207 95.069C119.207 97.3503 117.35 99.2069 115.069 99.2069H70.931C68.6497 99.2069 66.7931 97.3503 66.7931 95.069V50.931C66.7931 48.6497 68.6497 46.7931 70.931 46.7931H115.069C117.35 46.7931 119.207 48.6497 119.207 50.931V95.069Z" fill="url(#paint2_linear)"/>
<path d="M88.458 60.9904C87.9187 60.4511 87.047 60.4511 86.5077 60.9904L80.9904 66.5077C80.4511 67.047 80.4511 67.9187 80.9904 68.458C81.2594 68.727 81.6125 68.8621 81.9656 68.8621C82.3187 68.8621 82.6718 68.727 82.9408 68.458L88.458 62.9408C88.9973 62.4015 88.9973 61.5297 88.458 60.9904Z" fill="url(#paint3_linear)"/>
<path d="M93.9752 66.508C93.4359 65.9687 92.5642 65.9687 92.0249 66.508L80.9904 77.5425C80.4511 78.0818 80.4511 78.9535 80.9904 79.4928C81.2594 79.7618 81.6125 79.897 81.9656 79.897C82.3187 79.897 82.6718 79.7618 82.9408 79.4928L93.9752 68.4583C94.5146 67.919 94.5146 67.0473 93.9752 66.508Z" fill="url(#paint4_linear)"/>
<defs>
<linearGradient id="paint0_linear" x1="90" y1="-32" x2="90" y2="133" gradientUnits="userSpaceOnUse">
<stop stop-color="white" stop-opacity="0.1"/>
<stop offset="1" stop-color="white" stop-opacity="0.03"/>
</linearGradient>
<linearGradient id="paint1_linear" x1="92.9994" y1="55.0693" x2="92.9994" y2="90.9314" gradientUnits="userSpaceOnUse">
<stop stop-color="#00D46A"/>
<stop offset="1" stop-color="#1262FF"/>
</linearGradient>
<linearGradient id="paint2_linear" x1="93" y1="33" x2="93" y2="113" gradientUnits="userSpaceOnUse">
<stop stop-color="#00D46A"/>
<stop offset="1" stop-color="#1262FF"/>
</linearGradient>
<linearGradient id="paint3_linear" x1="84.7242" y1="60.5859" x2="84.7242" y2="68.8621" gradientUnits="userSpaceOnUse">
<stop stop-color="#00D46A"/>
<stop offset="1" stop-color="#1262FF"/>
</linearGradient>
<linearGradient id="paint4_linear" x1="87.4828" y1="66.1035" x2="87.4828" y2="79.897" gradientUnits="userSpaceOnUse">
<stop stop-color="#00D46A"/>
<stop offset="1" stop-color="#1262FF"/>
</linearGradient>
</defs>
</svg>
