<svg width="202" height="42" viewBox="0 0 202 42" fill="none" xmlns="http://www.w3.org/2000/svg">
<path d="M0 4C0 1.79086 1.79086 0 4 0H198C200.209 0 202 1.79086 202 4V38C202 40.2091 200.209 42 198 42H4C1.79086 42 0 40.2091 0 38V4Z" fill="url(#paint0_linear)"/>
<path fill-rule="evenodd" clip-rule="evenodd" d="M158.449 15.7867L164.288 21.3898L158.449 26.9939L160.312 28.7826L168.014 21.3898L160.312 14L158.449 15.7867Z" fill="#061423"/>
<path d="M177.944 21.3901L170.748 28.2974L169.39 26.9936L174.966 21.6426L175.229 21.39L174.966 21.1375L169.39 15.7872L170.748 14.485L177.944 21.3901Z" stroke="#071524" stroke-width="0.7"/>
<path d="M36.7549 27.536C36.4136 27.7813 35.9763 27.9573 35.4429 28.064C34.9203 28.1707 34.3816 28.224 33.8269 28.224C33.1549 28.224 32.5149 28.1227 31.9069 27.92C31.3096 27.7067 30.7816 27.3707 30.3229 26.912C29.8643 26.4427 29.4963 25.84 29.2189 25.104C28.9523 24.3573 28.8189 23.456 28.8189 22.4C28.8189 21.3013 28.9683 20.384 29.2669 19.648C29.5763 18.9013 29.9709 18.304 30.4509 17.856C30.9416 17.3973 31.4856 17.072 32.0829 16.88C32.6803 16.6773 33.2776 16.576 33.8749 16.576C34.5149 16.576 35.0536 16.6187 35.4909 16.704C35.9389 16.7893 36.3069 16.8907 36.5949 17.008L36.1629 18.864C35.9176 18.7467 35.6243 18.6613 35.2829 18.608C34.9523 18.5547 34.5469 18.528 34.0669 18.528C33.1816 18.528 32.4669 18.8427 31.9229 19.472C31.3896 20.1013 31.1229 21.0773 31.1229 22.4C31.1229 22.976 31.1869 23.504 31.3149 23.984C31.4429 24.4533 31.6349 24.8587 31.8909 25.2C32.1576 25.5307 32.4829 25.792 32.8669 25.984C33.2616 26.1653 33.7149 26.256 34.2269 26.256C34.7069 26.256 35.1123 26.208 35.4429 26.112C35.7736 26.016 36.0616 25.8933 36.3069 25.744L36.7549 27.536ZM38.1084 16.912C38.3538 16.8693 38.6151 16.832 38.8924 16.8C39.1804 16.7573 39.4631 16.7253 39.7404 16.704C40.0284 16.6827 40.3058 16.6667 40.5724 16.656C40.8391 16.6453 41.0844 16.64 41.3084 16.64C41.8311 16.64 42.3431 16.688 42.8444 16.784C43.3564 16.88 43.8098 17.0453 44.2044 17.28C44.6098 17.5147 44.9298 17.84 45.1644 18.256C45.4098 18.6613 45.5324 19.1733 45.5324 19.792C45.5324 20.7093 45.3191 21.456 44.8924 22.032C44.4658 22.608 43.8951 23.008 43.1804 23.232L43.9644 23.728L46.5244 28H43.9964L41.4524 23.616L40.3004 23.408V28H38.1084V16.912ZM41.4684 18.592C41.2444 18.592 41.0204 18.5973 40.7964 18.608C40.5831 18.6187 40.4178 18.64 40.3004 18.672V21.92H41.2284C41.8364 21.92 42.3218 21.7813 42.6844 21.504C43.0471 21.2267 43.2284 20.768 43.2284 20.128C43.2284 19.648 43.0791 19.2747 42.7804 19.008C42.4818 18.7307 42.0444 18.592 41.4684 18.592ZM47.7334 16.8H54.3734V18.752H49.9254V21.36H53.9734V23.312H49.9254V26.048H54.4534V28H47.7334V16.8ZM61.6128 25.52H58.1728L57.3248 28H55.1328L59.1648 16.72H60.7808L64.8128 28H62.5088L61.6128 25.52ZM58.7328 23.76H61.1328L60.3008 21.264L59.9648 19.504H59.8848L59.5488 21.28L58.7328 23.76ZM72.4823 18.752H69.2183V28H67.0263V18.752H63.7463V16.8H72.4823V18.752ZM73.6241 16.8H80.2641V18.752H75.8161V21.36H79.8641V23.312H75.8161V26.048H80.3441V28H73.6241V16.8ZM90.9097 25.52H87.4697L86.6217 28H84.4297L88.4617 16.72H90.0777L94.1097 28H91.8057L90.9097 25.52ZM88.0297 23.76H90.4297L89.5977 21.264L89.2617 19.504H89.1817L88.8457 21.28L88.0297 23.76ZM102.161 27.536C101.82 27.7813 101.383 27.9573 100.849 28.064C100.327 28.1707 99.7879 28.224 99.2332 28.224C98.5612 28.224 97.9212 28.1227 97.3132 27.92C96.7159 27.7067 96.1879 27.3707 95.7292 26.912C95.2705 26.4427 94.9025 25.84 94.6252 25.104C94.3585 24.3573 94.2252 23.456 94.2252 22.4C94.2252 21.3013 94.3745 20.384 94.6732 19.648C94.9825 18.9013 95.3772 18.304 95.8572 17.856C96.3479 17.3973 96.8919 17.072 97.4892 16.88C98.0865 16.6773 98.6839 16.576 99.2812 16.576C99.9212 16.576 100.46 16.6187 100.897 16.704C101.345 16.7893 101.713 16.8907 102.001 17.008L101.569 18.864C101.324 18.7467 101.031 18.6613 100.689 18.608C100.359 18.5547 99.9532 18.528 99.4732 18.528C98.5879 18.528 97.8732 18.8427 97.3292 19.472C96.7959 20.1013 96.5292 21.0773 96.5292 22.4C96.5292 22.976 96.5932 23.504 96.7212 23.984C96.8492 24.4533 97.0412 24.8587 97.2972 25.2C97.5639 25.5307 97.8892 25.792 98.2732 25.984C98.6679 26.1653 99.1212 26.256 99.6332 26.256C100.113 26.256 100.519 26.208 100.849 26.112C101.18 26.016 101.468 25.8933 101.713 25.744L102.161 27.536ZM110.567 27.536C110.226 27.7813 109.789 27.9573 109.255 28.064C108.733 28.1707 108.194 28.224 107.639 28.224C106.967 28.224 106.327 28.1227 105.719 27.92C105.122 27.7067 104.594 27.3707 104.135 26.912C103.677 26.4427 103.309 25.84 103.031 25.104C102.765 24.3573 102.631 23.456 102.631 22.4C102.631 21.3013 102.781 20.384 103.079 19.648C103.389 18.9013 103.783 18.304 104.263 17.856C104.754 17.3973 105.298 17.072 105.895 16.88C106.493 16.6773 107.09 16.576 107.687 16.576C108.327 16.576 108.866 16.6187 109.303 16.704C109.751 16.7893 110.119 16.8907 110.407 17.008L109.975 18.864C109.73 18.7467 109.437 18.6613 109.095 18.608C108.765 18.5547 108.359 18.528 107.879 18.528C106.994 18.528 106.279 18.8427 105.735 19.472C105.202 20.1013 104.935 21.0773 104.935 22.4C104.935 22.976 104.999 23.504 105.127 23.984C105.255 24.4533 105.447 24.8587 105.703 25.2C105.97 25.5307 106.295 25.792 106.679 25.984C107.074 26.1653 107.527 26.256 108.039 26.256C108.519 26.256 108.925 26.208 109.255 26.112C109.586 26.016 109.874 25.8933 110.119 25.744L110.567 27.536ZM111.038 22.4C111.038 20.5333 111.448 19.0987 112.27 18.096C113.091 17.0827 114.264 16.576 115.79 16.576C116.59 16.576 117.288 16.7147 117.886 16.992C118.483 17.2693 118.979 17.664 119.374 18.176C119.768 18.688 120.062 19.3013 120.254 20.016C120.446 20.7307 120.542 21.5253 120.542 22.4C120.542 24.2667 120.126 25.7067 119.294 26.72C118.472 27.7227 117.304 28.224 115.79 28.224C114.979 28.224 114.275 28.0853 113.678 27.808C113.08 27.5307 112.584 27.136 112.19 26.624C111.806 26.112 111.518 25.4987 111.326 24.784C111.134 24.0693 111.038 23.2747 111.038 22.4ZM113.342 22.4C113.342 22.9653 113.39 23.488 113.486 23.968C113.582 24.4373 113.726 24.8427 113.918 25.184C114.12 25.5253 114.376 25.792 114.686 25.984C114.995 26.176 115.363 26.272 115.79 26.272C116.568 26.272 117.171 25.968 117.598 25.36C118.024 24.752 118.238 23.7653 118.238 22.4C118.238 21.856 118.19 21.3493 118.094 20.88C118.008 20.4107 117.87 20 117.678 19.648C117.486 19.296 117.235 19.024 116.926 18.832C116.616 18.6293 116.238 18.528 115.79 18.528C115.011 18.528 114.408 18.8427 113.982 19.472C113.555 20.0907 113.342 21.0667 113.342 22.4ZM128.188 16.8H130.268V24.032C130.268 24.7573 130.172 25.3813 129.98 25.904C129.788 26.4267 129.522 26.8587 129.18 27.2C128.839 27.5413 128.423 27.792 127.932 27.952C127.442 28.112 126.903 28.192 126.316 28.192C123.479 28.192 122.06 26.896 122.06 24.304V16.8H124.252V23.872C124.252 24.3093 124.29 24.6827 124.364 24.992C124.45 25.2907 124.578 25.536 124.748 25.728C124.919 25.9093 125.132 26.0427 125.388 26.128C125.644 26.2027 125.943 26.24 126.284 26.24C126.956 26.24 127.442 26.0533 127.74 25.68C128.039 25.3067 128.188 24.704 128.188 23.872V16.8ZM134.924 22.16L134.044 20.4H133.964L134.22 22.16V28H132.14V16.72H133.74L137.98 22.688L138.828 24.4H138.908L138.652 22.688V16.8H140.732V28.08H139.132L134.924 22.16ZM150.607 18.752H147.343V28H145.151V18.752H141.871V16.8H150.607V18.752Z" fill="#061423"/>
<defs>
<linearGradient id="paint0_linear" x1="-7.52508e-07" y1="21" x2="202" y2="42" gradientUnits="userSpaceOnUse">
<stop stop-color="#00D46A"/>
<stop offset="1" stop-color="#1262FF"/>
</linearGradient>
</defs>
</svg>
