<svg width="90" height="82" viewBox="0 0 90 82" fill="none" xmlns="http://www.w3.org/2000/svg">
<g clip-path="url(#clip0)">
<path d="M85.5829 37.0222L71.3332 23.4014C69.8354 21.9688 67.3039 22.1207 65.7856 23.4331L61.4633 27.1702C60.1353 28.3184 59.806 30.0478 60.5309 31.3939C60.5303 31.3945 60.5289 31.3951 60.5282 31.3964L55.9499 35.3077C54.7396 36.3414 53.1049 36.8846 51.3531 36.843C49.5404 36.7957 47.7318 37.2151 46.1546 38.031C43.6662 37.3047 41.3032 36.5032 38.6553 37.2437C37.0103 37.7042 35.2318 37.3028 34.0154 36.1964C32.6059 34.915 31.2409 33.5714 29.7711 32.3479C30.3126 31.074 29.9792 29.5238 28.7929 28.4422L24.5815 24.6012C23.8456 23.9304 22.8845 23.5308 21.8755 23.4773C20.8076 23.4201 19.7718 23.7692 19.0366 24.4351L4.39331 37.7055H4.39263C3.6581 38.372 3.27064 39.3111 3.3302 40.2832C3.38565 41.2005 3.82239 42.0754 4.55829 42.7469L8.76968 46.5873C9.53227 47.283 10.6173 47.718 11.7023 47.718C12.0453 47.718 12.3821 47.6739 12.7052 47.5936C14.6035 49.7294 17.0542 51.5727 19.1907 53.515C19.6123 53.8977 19.8444 54.4074 19.8444 54.9494C19.8444 56.3478 20.4434 57.6621 21.5305 58.651C21.5585 58.6765 21.5866 58.7014 21.6147 58.7257C19.9355 60.2516 17.7805 61.7184 17.7805 64.0901C17.7805 65.458 18.463 66.6304 19.5261 67.5558C20.3996 68.3499 21.5394 68.8123 22.7627 68.8758C22.8941 70.0414 23.5376 71.0869 24.4816 71.8698C25.3838 72.6894 26.5709 73.1555 27.8393 73.1941C27.9954 74.3217 28.63 75.3255 29.5446 76.0854C30.4146 76.8764 31.5496 77.3381 32.7674 77.4047C32.8893 78.5853 33.5355 79.6469 34.4912 80.4385C35.4338 81.2949 36.6858 81.7666 38.0187 81.7666C39.3515 81.7666 40.6042 81.2949 41.5462 80.4385L44.3179 77.9188L46.9473 80.3091C47.9276 81.2003 49.231 81.6913 50.6172 81.6913C52.0041 81.6913 53.3075 81.2003 54.2878 80.3091C55.2565 79.4285 55.7596 78.2834 55.8014 77.1272C57.0007 77.0251 58.1138 76.5509 58.977 75.7668C59.9176 74.9117 60.4515 73.7853 60.4926 72.5817C61.657 72.484 62.7913 72.031 63.6813 71.2226C64.6054 70.3824 65.1058 69.3014 65.1859 68.1993C66.4592 68.1334 67.6455 67.6523 68.5546 66.8258C70.3824 65.1649 70.559 62.5629 69.0865 60.7196C69.8649 59.6355 70.3208 58.3511 70.3926 56.9795C70.494 55.0478 70.2256 52.7614 71.8206 51.2541L76.6837 46.6613C76.7234 46.6234 78.0638 46.8518 78.0836 46.8518C79.0961 46.8518 80.1325 46.4989 80.9471 45.7944L85.2694 42.0574C86.885 40.6603 87.0253 38.4019 85.5829 37.0222ZM11.8248 44.4832C11.4648 44.8087 6.53666 40.2894 6.88304 39.9763L21.527 26.7053C21.8816 26.3817 26.8084 30.9041 26.4689 31.2128L11.8248 44.4832ZM24.088 65.2893C22.7031 66.5477 20.3599 64.4 21.7352 63.1498L28.3185 57.1649C29.7034 55.9066 32.0459 58.0542 30.6713 59.3045L24.088 65.2893ZM29.0435 69.6027C27.6586 70.861 25.3147 68.714 26.6906 67.4637L33.2733 61.4789C34.6582 60.2199 37.0014 62.3675 35.6261 63.6178L29.0435 69.6027ZM34.1064 73.8189C32.7216 75.0772 30.3783 72.9302 31.7536 71.68L38.3363 65.6951C39.7212 64.4361 42.0651 66.5838 40.6891 67.834L34.1064 73.8189ZM45.6357 72.1865L39.0523 78.1714C37.6675 79.4298 35.3243 77.2827 36.6995 76.0325L43.1145 70.2007C44.5664 68.9355 47.1465 70.8131 45.6357 72.1865ZM51.794 78.042C51.1519 78.6251 50.0826 78.6251 49.4412 78.0414L46.8118 75.6516C47.5853 74.9484 48.4869 74.2663 49.0078 73.3777L51.6365 75.7661C52.319 76.3866 52.56 77.345 51.794 78.042ZM66.0615 62.4198C67.5791 63.7995 65.2222 65.9353 63.7087 64.5587L57.4101 58.8334C55.7925 57.3628 53.2678 59.6162 54.8895 61.0905L61.1874 66.8159C62.7044 68.1956 60.3516 70.3351 58.8346 68.9554L52.5367 63.2294C50.8281 61.6774 48.5266 64.1268 50.1853 65.6353L56.4832 71.3607C57.9591 72.7024 55.7664 74.8109 54.2098 73.5656L47.9892 67.9106C47.0746 67.0779 45.9342 66.5334 44.6212 66.4618C44.4994 65.2812 43.8538 64.2196 42.8982 63.428C41.9959 62.6077 40.8089 62.1416 39.5404 62.1037C39.4028 61.1098 38.9113 60.1906 38.12 59.4712C37.2088 58.5583 35.9636 57.9627 34.5986 57.8918C34.4816 56.8593 33.9832 55.9016 33.1652 55.1579C32.1472 54.1908 30.8568 53.5704 29.3522 53.5704C27.0192 53.5704 25.6152 55.0888 24.1085 56.4586C23.2692 55.7591 23.4732 54.8405 23.248 53.9226C23.0002 52.9088 22.5012 51.9897 21.6838 51.2472L15.5468 45.6681L26.2833 35.9076L27.4991 34.8061L31.5216 38.4629C33.6642 40.4114 36.7954 41.1183 39.6924 40.308C40.7336 40.0174 41.8392 40.0983 42.8537 40.4344L36.0369 46.5008C33.6717 48.6061 34.0674 52.378 36.8625 54.0041C39.1674 55.3459 42.2574 54.7584 44.4802 53.5747C46.2662 52.6232 47.536 50.2895 49.7793 50.2098C51.6174 50.1538 53.8312 51.2566 55.0942 52.416L66.0615 62.4198ZM47.4156 41.0928C48.5321 40.3852 49.8971 40.0156 51.2566 40.0479C53.9476 40.1157 56.4722 39.2613 58.365 37.6439L62.8324 33.8272L74.0413 44.5336L69.2803 49.0305C67.9221 50.3125 67.1232 51.9978 67.0301 53.7757C66.9555 55.2021 67.1232 56.9539 66.5194 58.2982C57.8632 50.4015 57.599 50.1607 57.5956 50.1569C55.6973 48.4138 52.4258 46.9047 49.6417 47.0067C46.3915 47.1219 45.1921 49.4798 42.6976 50.8091C41.6564 51.3636 40.3503 52.0258 39.1489 51.4644C38.0584 50.9554 37.547 49.6435 38.504 48.7922L47.4156 41.0928ZM82.8392 39.7343C82.3751 40.1357 78.3321 43.9785 77.9549 43.6169L63.7052 29.9962C63.3705 29.6763 68.4287 25.2752 68.7778 25.6106L83.0275 39.2314C83.0816 39.2837 83.0823 39.5239 82.8392 39.7343Z" fill="url(#paint0_linear)"/>
<path d="M44.9543 26.9329C53.0628 26.9329 59.6592 20.9362 59.6592 13.5648C59.6592 12.3139 59.4689 11.0742 59.0931 9.88123C58.4701 7.90225 55.0788 8.78159 55.7025 10.7631C55.9879 11.6698 56.1324 12.612 56.1324 13.5648C56.1324 19.1682 51.118 23.7267 44.9543 23.7267C38.7912 23.7267 33.7761 19.1682 33.7761 13.5648C33.7761 7.96199 38.7912 3.40347 44.9543 3.40347C45.723 3.40347 46.4897 3.47442 47.2345 3.61444C49.4511 4.03202 50.1699 0.893023 47.9499 0.474822C46.9703 0.290614 45.9626 0.197266 44.9543 0.197266C36.8464 0.197266 30.25 6.19397 30.25 13.5648C30.25 20.9362 36.8464 26.9329 44.9543 26.9329Z" fill="url(#paint1_linear)"/>
<path d="M47.8542 10.5857L44.0316 14.0608L42.0526 12.2616C40.4439 10.7992 37.95 13.0663 39.5587 14.5281L42.7844 17.4611C43.4641 18.0791 44.5984 18.0791 45.2782 17.4611L50.348 12.8522C51.956 11.3904 49.4629 9.12326 47.8542 10.5857Z" fill="url(#paint2_linear)"/>
<path d="M47.8345 59.2866C47.2342 57.9567 45.0772 58.0115 44.5466 59.3601C44.3036 59.9774 44.5076 60.6838 45.0532 61.1125C45.6453 61.5774 46.5346 61.6291 47.1856 61.2333C47.8736 60.8138 48.1529 59.983 47.8345 59.2866Z" fill="url(#paint3_linear)"/>
<path d="M52.4052 5.37299C52.7749 6.17827 53.8202 6.57407 54.7081 6.23988C55.5966 5.90569 56.0286 4.95354 55.6623 4.14639C55.2954 3.33986 54.2467 2.94468 53.3595 3.27949C52.4696 3.61492 52.041 4.56459 52.4052 5.37299Z" fill="url(#paint4_linear)"/>
</g>
<defs>
<linearGradient id="paint0_linear" x1="44.9517" y1="22.3867" x2="44.9517" y2="81.7666" gradientUnits="userSpaceOnUse">
<stop stop-color="#00D46A"/>
<stop offset="1" stop-color="#1262FF"/>
</linearGradient>
<linearGradient id="paint1_linear" x1="44.9546" y1="0.197266" x2="44.9546" y2="26.9329" gradientUnits="userSpaceOnUse">
<stop stop-color="#00D46A"/>
<stop offset="1" stop-color="#1262FF"/>
</linearGradient>
<linearGradient id="paint2_linear" x1="44.9532" y1="10.1133" x2="44.9532" y2="17.9246" gradientUnits="userSpaceOnUse">
<stop stop-color="#00D46A"/>
<stop offset="1" stop-color="#1262FF"/>
</linearGradient>
<linearGradient id="paint3_linear" x1="46.2054" y1="58.3184" x2="46.2054" y2="61.4989" gradientUnits="userSpaceOnUse">
<stop stop-color="#00D46A"/>
<stop offset="1" stop-color="#1262FF"/>
</linearGradient>
<linearGradient id="paint4_linear" x1="54.0341" y1="3.16016" x2="54.0341" y2="6.35879" gradientUnits="userSpaceOnUse">
<stop stop-color="#00D46A"/>
<stop offset="1" stop-color="#1262FF"/>
</linearGradient>
<clipPath id="clip0">
<rect width="89.726" height="81.5691" fill="white" transform="translate(0.169922 0.197266)"/>
</clipPath>
</defs>
</svg>
