<svg width="83" height="82" viewBox="0 0 83 82" fill="none" xmlns="http://www.w3.org/2000/svg">
<g clip-path="url(#clip0)">
<path d="M77.4339 71.7879H6.06096C3.25022 71.7879 0.962891 69.5006 0.962891 66.6898V19.1078C0.962891 16.2971 3.25022 14.0098 6.06096 14.0098H77.4339C80.2447 14.0098 82.532 16.2971 82.532 19.1078V66.6898C82.532 69.5006 80.2447 71.7879 77.4339 71.7879ZM6.06096 17.4085C5.12292 17.4085 4.3616 18.1698 4.3616 19.1078V66.6898C4.3616 67.6279 5.12292 68.3892 6.06096 68.3892H77.4339C78.372 68.3892 79.1333 67.6279 79.1333 66.6898V19.1078C79.1333 18.1698 78.372 17.4085 77.4339 17.4085H6.06096Z" fill="url(#paint0_linear)"/>
<path d="M53.6423 81.9855H29.8513C29.1647 81.9855 28.5428 81.5709 28.2811 80.9353C28.016 80.2997 28.1621 79.569 28.6481 79.083C33.1208 74.6103 33.1786 70.2803 33.1786 70.0968C33.182 69.1621 33.9433 68.3906 34.8814 68.3906H48.5442C49.4788 68.3906 50.2401 69.1451 50.2435 70.0798C50.2469 70.2939 50.3795 74.6205 54.8454 79.083C55.3314 79.569 55.4776 80.2997 55.2125 80.9353C54.9508 81.5709 54.3288 81.9855 53.6423 81.9855ZM33.4913 78.5868H49.9988C48.0956 75.8644 47.341 73.3629 47.0419 71.7893H36.404C36.1151 73.3697 35.381 75.8678 33.4913 78.5868ZM50.2435 70.09H50.2775H50.2435Z" fill="#1267F9"/>
<path d="M80.8307 61.5921H2.66029C1.72225 61.5921 0.960938 60.8308 0.960938 59.8927C0.960938 58.9547 1.72225 58.1934 2.66029 58.1934H80.8307C81.7687 58.1934 82.5301 58.9547 82.5301 59.8927C82.5301 60.8308 81.7687 61.5921 80.8307 61.5921Z" fill="url(#paint1_linear)"/>
<path d="M26.4522 51.3959C26.0171 51.3959 25.5821 51.2293 25.249 50.8997C24.5863 50.2369 24.5863 49.1595 25.249 48.4968L37.1445 36.6013C37.6611 36.0813 38.453 35.9521 39.1056 36.2818L44.8086 39.1333L55.8374 28.1045C56.5002 27.4417 57.5776 27.4417 58.2403 28.1045C58.9031 28.7672 58.9031 29.8446 58.2403 30.5074L46.3448 42.4029C45.8248 42.9195 45.0363 43.0452 44.3838 42.7223L38.6807 39.8708L27.6519 50.8997C27.3222 51.2293 26.8872 51.3959 26.4522 51.3959Z" fill="url(#paint2_linear)"/>
<path d="M57.04 41.2003C56.102 41.2003 55.3407 40.439 55.3407 39.501V31.0042H46.8439C45.9058 31.0042 45.1445 30.2429 45.1445 29.3048C45.1445 28.3668 45.9058 27.6055 46.8439 27.6055H57.04C57.9781 27.6055 58.7394 28.3668 58.7394 29.3048V39.501C58.7394 40.439 57.9781 41.2003 57.04 41.2003Z" fill="url(#paint3_linear)"/>
</g>
<defs>
<linearGradient id="paint0_linear" x1="41.7474" y1="14.0098" x2="41.7474" y2="71.7879" gradientUnits="userSpaceOnUse">
<stop stop-color="#00D46A"/>
<stop offset="1" stop-color="#1262FF"/>
</linearGradient>
<linearGradient id="paint1_linear" x1="41.7455" y1="58.1934" x2="41.7455" y2="61.5921" gradientUnits="userSpaceOnUse">
<stop stop-color="#00D46A"/>
<stop offset="1" stop-color="#1262FF"/>
</linearGradient>
<linearGradient id="paint2_linear" x1="41.7447" y1="27.6074" x2="41.7447" y2="51.3959" gradientUnits="userSpaceOnUse">
<stop stop-color="#00D46A"/>
<stop offset="1" stop-color="#1262FF"/>
</linearGradient>
<linearGradient id="paint3_linear" x1="51.942" y1="27.6055" x2="51.942" y2="41.2003" gradientUnits="userSpaceOnUse">
<stop stop-color="#00D46A"/>
<stop offset="1" stop-color="#1262FF"/>
</linearGradient>
<clipPath id="clip0">
<rect width="81.5691" height="81.5691" fill="white" transform="translate(0.960938 0.416016)"/>
</clipPath>
</defs>
</svg>
