<svg width="339" height="350" viewBox="0 0 339 350" fill="none" xmlns="http://www.w3.org/2000/svg">
<path d="M58.2656 43.75C58.2656 49.6289 56.3852 55.4586 52.9688 60.1562C47.995 67.0031 40.0762 71.0938 31.7812 71.0938H26.4844V82.0312H31.7812C40.0709 82.0312 47.995 86.1219 52.9688 92.9688C56.3852 97.6664 58.2656 103.496 58.2656 109.375V120.312H68.8594V109.375C68.8594 103.496 70.7398 97.6664 74.1562 92.9688C79.13 86.1219 87.0488 82.0312 95.3438 82.0312H100.641V71.0938H95.3438C87.0541 71.0938 79.13 67.0031 74.1562 60.1562C70.7398 55.4586 68.8594 49.6289 68.8594 43.75V32.8125H58.2656V43.75ZM65.6812 66.7188C68.6051 70.7438 72.2812 74.0359 76.3915 76.5625C72.2812 79.0891 68.6051 82.3812 65.6812 86.4062C64.8814 87.5055 64.2352 88.7031 63.5625 89.8789C62.8845 88.6977 62.2436 87.5 61.4438 86.4062C58.5199 82.3812 54.8438 79.0891 50.7335 76.5625C54.8438 74.0359 58.5199 70.7438 61.4438 66.7188C62.2436 65.6195 62.8898 64.4219 63.5625 63.2461C64.2352 64.4219 64.8814 65.6195 65.6812 66.7188ZM68.8594 16.4062H58.2656V5.46875H68.8594V16.4062ZM68.8594 142.188H58.2656V131.25H68.8594V142.188ZM121.828 71.0938V82.0312H111.234V71.0938H121.828ZM5.29688 71.0938H15.8906V82.0312H5.29688V71.0938ZM280.734 311.719C280.734 305.84 282.615 300.01 286.031 295.312C291.005 288.466 298.924 284.375 307.219 284.375H312.516V273.438H307.219C298.929 273.438 291.005 269.347 286.031 262.495C282.615 257.802 280.734 251.973 280.734 246.094V235.156H270.141V246.094C270.141 251.973 268.26 257.802 264.844 262.5C259.87 269.347 251.951 273.438 243.656 273.438H238.359V284.375H243.656C251.946 284.375 259.87 288.466 264.844 295.318C268.26 300.01 270.141 305.84 270.141 311.719V322.656H280.734V311.719ZM273.319 288.755C270.395 284.73 266.714 281.433 262.603 278.906C266.714 276.38 270.39 273.087 273.313 269.062C274.113 267.963 274.759 266.766 275.432 265.584C276.11 266.76 276.751 267.958 277.551 269.057C280.475 273.082 284.156 276.38 288.267 278.906C284.156 281.433 280.48 284.725 277.556 288.75C276.756 289.849 276.11 291.047 275.438 292.228C274.759 291.047 274.119 289.849 273.319 288.755ZM270.141 207.812H280.734V218.75H270.141V207.812ZM270.141 333.594H280.734V344.531H270.141V333.594ZM323.109 273.438H333.703V284.375H323.109V273.438ZM217.172 284.375V273.438H227.766V284.375H217.172ZM236.061 125.781H102.939L67.5457 186.687L169.5 297.795L271.454 186.687L236.061 125.781ZM194.056 191.406L169.5 271.682L144.944 191.406H194.056ZM147.073 180.469L169.5 141.881L191.927 180.469H147.073ZM178.854 136.719H223.708L201.281 175.306L178.854 136.719ZM137.719 175.306L115.292 136.719H160.146L137.719 175.306ZM128.364 180.469H83.5105L105.938 141.881L128.364 180.469ZM133.836 191.406L157.518 268.838L86.4715 191.406H133.836ZM205.164 191.406H252.529L181.482 268.838L205.164 191.406ZM210.636 180.469L233.062 141.881L255.489 180.469H210.636ZM264.844 92.9688H254.25V82.0312H264.844V92.9688ZM254.25 92.9688V103.906H243.656V92.9688H254.25ZM254.25 103.906H264.844V114.844H254.25V103.906ZM264.844 92.9688H275.438V103.906H264.844V92.9688ZM90.0469 267.969H79.4531V257.031H90.0469V267.969ZM79.4531 267.969V278.906H68.8594V267.969H79.4531ZM79.4531 289.844V278.906H90.0469V289.844H79.4531ZM90.0469 278.906V267.969H100.641V278.906H90.0469Z" fill="url(#paint0_linear)"/>
<defs>
<linearGradient id="paint0_linear" x1="169.5" y1="344.531" x2="169.5" y2="5.46875" gradientUnits="userSpaceOnUse">
<stop stop-color="#00D46A"/>
<stop offset="1" stop-color="#003DB4"/>
</linearGradient>
</defs>
</svg>
