<svg width="1440" height="1166" viewBox="0 0 1440 1166" fill="none" xmlns="http://www.w3.org/2000/svg">
<g opacity="0.6">
<path opacity="0.73" d="M-290 0.00299072V1017.4C386.302 958.935 903.547 637.584 903.547 249.865C903.547 162.454 877.233 78.4204 828.758 0.00299072H-290Z" fill="url(#paint0_radial)"/>
<path opacity="0.73" d="M1114.89 0.00012207C1016.65 163.59 956.644 381.986 956.644 621.923C956.644 825.585 999.92 1013.71 1073.08 1166H1544V0.00012207H1114.89Z" fill="url(#paint1_radial)"/>
<path opacity="0.59" d="M-289.999 1166H38.5925C44.8158 1096.32 48.0547 1024.89 48.0547 952.111C48.0547 667.214 -1.3758 402.862 -85.8222 184.445H-289.999V1166Z" fill="url(#paint2_radial)"/>
<path opacity="0.54" d="M1329.35 0.00012207C938.033 90.4491 660.888 315.222 660.888 578.227C660.888 851.044 959.084 1082.72 1373.61 1166H1544V0.00012207H1329.35Z" fill="url(#paint3_radial)"/>
<path opacity="0.3" d="M923.713 1166H1544V50.0812H849.968C529.091 175.488 322.215 372.745 322.215 594.623C322.214 833.053 561.135 1043.06 923.713 1166Z" fill="url(#paint4_radial)"/>
<path d="M-290 0.00012207V1166H-166.747C274.14 1041.72 586.105 734.747 586.105 375.685C586.105 240.791 542.062 113.26 463.704 0.00012207H-290Z" fill="url(#paint5_radial)"/>
<path opacity="0.2" d="M690.79 0.00250244C246.454 90.8689 -45.6302 244.588 -45.6302 418.977C-45.6302 689.781 658.835 910.818 1544 923.836V0.00250244H690.79Z" fill="url(#paint6_radial)"/>
<path opacity="0.35" d="M-290 1166H938.83C862.392 674.758 624.672 293.986 296.453 210.067C132.186 168.067 -33.378 205.909 -185.061 306.322L-290 981.506V1166Z" fill="url(#paint7_radial)"/>
<path opacity="0.2" d="M-48.2418 0.00280762C-37.2732 357.584 386.735 645.137 908.22 645.137C1152.29 645.137 1374.98 582.12 1544 478.434V0.00280762H-48.2418Z" fill="url(#paint8_radial)"/>
<path opacity="0.25" d="M-290 1166H1226.36C1214.67 808.856 790.938 521.816 269.915 521.816C60.8151 521.816 -132.585 568.074 -290 646.52L-290 1166Z" fill="url(#paint9_radial)"/>
<path opacity="0.2" d="M-290 0.00134277V947.508C-197.867 985.236 -99.2273 1005.71 3.32385 1005.71C479.466 1005.71 871.212 565.095 919.354 0.00134277H-290Z" fill="url(#paint10_radial)"/>
</g>
<defs>
<radialGradient id="paint0_radial" cx="0" cy="0" r="1" gradientUnits="userSpaceOnUse" gradientTransform="translate(-511.86 249.859) rotate(180) scale(1415.3 777.079)">
<stop stop-color="#00B7FA"/>
<stop offset="0.0212" stop-color="#00A9EC"/>
<stop offset="0.101" stop-color="#0079BA"/>
<stop offset="0.1801" stop-color="#005291"/>
<stop offset="0.2569" stop-color="#003371"/>
<stop offset="0.3308" stop-color="#001D5A"/>
<stop offset="0.4006" stop-color="#00104D"/>
<stop offset="0.462" stop-color="#000B48"/>
<stop offset="1"/>
</radialGradient>
<radialGradient id="paint1_radial" cx="0" cy="0" r="1" gradientUnits="userSpaceOnUse" gradientTransform="translate(1555.46 621.914) rotate(90) scale(918.372 598.818)">
<stop stop-color="#00B7FA"/>
<stop offset="0.0212" stop-color="#00A9EC"/>
<stop offset="0.101" stop-color="#0079BA"/>
<stop offset="0.1801" stop-color="#005291"/>
<stop offset="0.2569" stop-color="#003371"/>
<stop offset="0.3308" stop-color="#001D5A"/>
<stop offset="0.4006" stop-color="#00104D"/>
<stop offset="0.462" stop-color="#000B48"/>
<stop offset="1"/>
</radialGradient>
<radialGradient id="paint2_radial" cx="0" cy="0" r="1" gradientUnits="userSpaceOnUse" gradientTransform="translate(-718.029 952.103) rotate(180) scale(766.098 1359.21)">
<stop stop-color="#2986FF"/>
<stop offset="0.0465" stop-color="#2578E5"/>
<stop offset="0.1511" stop-color="#1C5CB0"/>
<stop offset="0.26" stop-color="#154481"/>
<stop offset="0.3708" stop-color="#0E2F59"/>
<stop offset="0.4842" stop-color="#091E39"/>
<stop offset="0.6008" stop-color="#051120"/>
<stop offset="0.722" stop-color="#02070E"/>
<stop offset="0.8507" stop-color="#010203"/>
<stop offset="1"/>
</radialGradient>
<radialGradient id="paint3_radial" cx="0" cy="0" r="1" gradientUnits="userSpaceOnUse" gradientTransform="translate(1712.8 579.211) rotate(180) scale(1052.61 621.378)">
<stop stop-color="#047A3F"/>
<stop offset="1"/>
</radialGradient>
<radialGradient id="paint4_radial" cx="0" cy="0" r="1" gradientUnits="userSpaceOnUse" gradientTransform="translate(1669.67 594.616) rotate(180) scale(1346.92 685.845)">
<stop stop-color="#05AFFD"/>
<stop offset="1" stop-color="#00101E"/>
</radialGradient>
<radialGradient id="paint5_radial" cx="0" cy="0" r="1" gradientUnits="userSpaceOnUse" gradientTransform="translate(-603.123 375.684) scale(1188.78 849.075)">
<stop stop-color="#27A9E0"/>
<stop offset="0.1037" stop-color="#1E84AF"/>
<stop offset="0.2167" stop-color="#166181"/>
<stop offset="0.334" stop-color="#104359"/>
<stop offset="0.454" stop-color="#0A2B39"/>
<stop offset="0.5774" stop-color="#061820"/>
<stop offset="0.7057" stop-color="#020B0E"/>
<stop offset="0.842" stop-color="#010303"/>
<stop offset="1"/>
</radialGradient>
<radialGradient id="paint6_radial" cx="0" cy="0" r="1" gradientUnits="userSpaceOnUse" gradientTransform="translate(1626.59 418.966) rotate(180) scale(1671.49 505.196)">
<stop stop-color="#2CD6A8"/>
<stop offset="1" stop-color="#000403"/>
</radialGradient>
<radialGradient id="paint7_radial" cx="0" cy="0" r="1" gradientUnits="userSpaceOnUse" gradientTransform="translate(69.4497 1670.44) rotate(98.836) scale(1477.8 889.966)">
<stop stop-color="#2986FF"/>
<stop offset="1"/>
</radialGradient>
<radialGradient id="paint8_radial" cx="0" cy="0" r="1" gradientUnits="userSpaceOnUse" gradientTransform="translate(908.232 -14.2099) rotate(180) scale(956.698 659.327)">
<stop stop-color="#0568FD"/>
<stop offset="1" stop-color="#01080B"/>
</radialGradient>
<radialGradient id="paint9_radial" cx="0" cy="0" r="1" gradientUnits="userSpaceOnUse" gradientTransform="translate(269.909 1181.15) scale(956.698 659.327)">
<stop stop-color="#05AFFD"/>
<stop offset="1" stop-color="#000B10"/>
</radialGradient>
<radialGradient id="paint10_radial" cx="0" cy="0" r="1" gradientUnits="userSpaceOnUse" gradientTransform="translate(3.32651 -117.423) rotate(180) scale(921.004 1123.12)">
<stop stop-color="#45FCCA"/>
<stop offset="1" stop-color="#002023"/>
</radialGradient>
</defs>
</svg>
