<svg width="157" height="271" viewBox="0 0 157 271" fill="none" xmlns="http://www.w3.org/2000/svg">
<path opacity="0.5" d="M37.8581 47.9709C41.3879 38.5122 43.1529 33.7829 46.1085 30.0625C48.7236 26.7707 52.0015 24.0653 55.7294 22.1217C59.9427 19.9251 64.9209 19.0889 74.8773 17.4165L165.017 2.27549C174.973 0.603083 179.952 -0.233118 184.651 0.466329C188.81 1.08519 192.792 2.57117 196.339 4.82789C200.348 7.37844 203.561 11.2716 209.987 19.0579L268.17 89.5505C274.596 97.3368 277.81 101.23 279.554 105.65C281.097 109.561 281.801 113.752 281.62 117.952C281.416 122.699 279.651 127.429 276.121 136.887L244.164 222.521C240.634 231.98 238.869 236.709 235.913 240.429C233.298 243.721 230.02 246.427 226.292 248.37C222.079 250.567 217.101 251.403 207.145 253.075L117.005 268.216C107.049 269.889 102.07 270.725 97.3705 270.026C93.2122 269.407 89.2303 267.921 85.6832 265.664C81.6742 263.114 78.4609 259.22 72.0344 251.434L13.8521 180.941C7.42555 173.155 4.21228 169.262 2.46812 164.842C0.924891 160.931 0.22085 156.74 0.401658 152.54C0.60601 147.793 2.37094 143.063 5.90079 133.605L37.8581 47.9709Z" fill="url(#paint0_linear)"/>
<defs>
<linearGradient id="paint0_linear" x1="36.596" y1="53.2146" x2="0.9132" y2="281.569" gradientUnits="userSpaceOnUse">
<stop stop-color="#00D46A"/>
<stop offset="1" stop-color="#1262FF"/>
</linearGradient>
</defs>
</svg>
