<svg width="82" height="82" viewBox="0 0 82 82" fill="none" xmlns="http://www.w3.org/2000/svg">
<g clip-path="url(#clip0)">
<path d="M80.1166 33.6728H69.9205C69.0406 33.6728 68.3273 34.3862 68.3273 35.2659V43.3113C68.3273 44.1911 69.0406 44.9045 69.9205 44.9045C70.8003 44.9045 71.5136 44.1911 71.5136 43.3113V36.8591H78.5234V78.7988H75.0185H71.5136V55.2599C71.5136 54.3802 70.8003 53.6668 69.9205 53.6668C69.0406 53.6668 68.3273 54.3802 68.3273 55.2599V78.7988H65.141V45.8207C65.141 44.941 64.4278 44.2276 63.5479 44.2276H53.3517C52.4718 44.2276 51.7586 44.941 51.7586 45.8207V78.7988H48.5723V56.9727C48.5723 56.093 47.859 55.3796 46.9791 55.3796H36.783C35.9031 55.3796 35.1899 56.093 35.1899 56.9727V78.7988H32.0036V66.1134C32.0036 65.2337 31.2903 64.5203 30.4104 64.5203H20.2143C19.3344 64.5203 18.6211 65.2337 18.6211 66.1134V78.7988H4.92007C4.0416 78.7988 3.32692 78.0842 3.32692 77.2057V5.19546C3.32692 4.31699 4.0416 3.60231 4.92007 3.60231H46.0193V14.1176C46.0193 16.7529 48.1633 18.897 50.7987 18.897H61.3135V38.4922C61.3135 39.372 62.0267 40.0854 62.9066 40.0854C63.7865 40.0854 64.4998 39.372 64.4998 38.4922V17.3038C64.4998 16.8813 64.3319 16.4762 64.0331 16.1773L48.7389 0.882648C48.4401 0.583933 48.0349 0.416016 47.6124 0.416016H4.92007C2.28468 0.416016 0.140625 2.56007 0.140625 5.19546V77.2057C0.140625 79.8411 2.28468 81.9851 4.92007 81.9851H80.1166C80.9965 81.9851 81.7097 81.2717 81.7097 80.392V35.2659C81.7097 34.3862 80.9965 33.6728 80.1166 33.6728ZM49.2056 5.8555L59.0606 15.7107H50.7987C49.9201 15.7107 49.2056 14.996 49.2056 14.1176V5.8555ZM28.8173 78.7988H21.8074V67.7066H28.8173V78.7988ZM45.386 78.7988H38.3761V58.5659H45.386V78.7988ZM61.9547 78.7988H54.9449V47.4138H61.9547V78.7988Z" fill="url(#paint0_linear)"/>
<path d="M71.0476 47.8633C70.7513 47.5655 70.3403 47.3965 69.9213 47.3965C69.5023 47.3965 69.0912 47.5655 68.7949 47.8633C68.4986 48.1596 68.3281 48.5706 68.3281 48.9896C68.3281 49.4086 68.4986 49.8197 68.7949 50.116C69.0912 50.4121 69.5023 50.5828 69.9213 50.5828C70.3403 50.5828 70.7513 50.4123 71.0476 50.116C71.344 49.8197 71.5144 49.4086 71.5144 48.9896C71.5144 48.5706 71.344 48.1596 71.0476 47.8633Z" fill="url(#paint1_linear)"/>
<path d="M23.3327 9.13477C22.4528 9.13477 21.7395 9.84818 21.7395 10.7279V13.5938C14.4061 14.3899 8.67969 20.6191 8.67969 28.1608C8.67969 36.2404 15.253 42.8137 23.3327 42.8137C30.8743 42.8137 37.1035 37.0875 37.8996 29.7539H40.7653C41.6452 29.7539 42.3585 29.0405 42.3585 28.1608C42.3585 17.6697 33.8235 9.13477 23.3327 9.13477ZM23.3327 39.6273C17.0099 39.6273 11.866 34.4833 11.866 28.1606C11.866 22.3786 16.1683 17.5823 21.7395 16.8043V28.1606C21.7395 29.0403 22.4528 29.7537 23.3327 29.7537H34.6889C33.911 35.325 29.1147 39.6273 23.3327 39.6273ZM24.9258 26.5676V26.5675V12.4006C32.39 13.1497 38.3436 19.1034 39.0927 26.5676H24.9258Z" fill="url(#paint2_linear)"/>
<path d="M40.7664 47.2949H10.3373C9.45739 47.2949 8.74414 48.0083 8.74414 48.8881C8.74414 49.7678 9.45739 50.4812 10.3373 50.4812H40.7664C41.6463 50.4812 42.3595 49.7678 42.3595 48.8881C42.3595 48.0083 41.6463 47.2949 40.7664 47.2949Z" fill="url(#paint3_linear)"/>
<path d="M20.5334 54.9805H10.3373C9.45739 54.9805 8.74414 55.6939 8.74414 56.5736C8.74414 57.4534 9.45739 58.1668 10.3373 58.1668H20.5334C21.4133 58.1668 22.1266 57.4534 22.1266 56.5736C22.1266 55.6939 21.4133 54.9805 20.5334 54.9805Z" fill="url(#paint4_linear)"/>
<path d="M29.6375 55.4473C29.3411 55.1509 28.9301 54.9805 28.5111 54.9805C28.0905 54.9805 27.6811 55.1508 27.3848 55.4473C27.0868 55.7436 26.918 56.1546 26.918 56.5736C26.918 56.9926 27.0868 57.4036 27.3848 57.6998C27.6811 57.9961 28.0905 58.1668 28.5111 58.1668C28.9301 58.1668 29.3411 57.9963 29.6375 57.6998C29.9338 57.4036 30.1043 56.9926 30.1043 56.5736C30.1043 56.1546 29.9338 55.7436 29.6375 55.4473Z" fill="url(#paint5_linear)"/>
</g>
<defs>
<linearGradient id="paint0_linear" x1="40.9252" y1="0.416016" x2="40.9252" y2="81.9851" gradientUnits="userSpaceOnUse">
<stop stop-color="#00D46A"/>
<stop offset="1" stop-color="#1262FF"/>
</linearGradient>
<linearGradient id="paint1_linear" x1="69.9213" y1="47.3965" x2="69.9213" y2="50.5828" gradientUnits="userSpaceOnUse">
<stop stop-color="#00D46A"/>
<stop offset="1" stop-color="#1262FF"/>
</linearGradient>
<linearGradient id="paint2_linear" x1="25.5191" y1="9.13477" x2="25.5191" y2="42.8137" gradientUnits="userSpaceOnUse">
<stop stop-color="#00D46A"/>
<stop offset="1" stop-color="#1262FF"/>
</linearGradient>
<linearGradient id="paint3_linear" x1="25.5518" y1="47.2949" x2="25.5518" y2="50.4812" gradientUnits="userSpaceOnUse">
<stop stop-color="#00D46A"/>
<stop offset="1" stop-color="#1262FF"/>
</linearGradient>
<linearGradient id="paint4_linear" x1="15.4354" y1="54.9805" x2="15.4354" y2="58.1668" gradientUnits="userSpaceOnUse">
<stop stop-color="#00D46A"/>
<stop offset="1" stop-color="#1262FF"/>
</linearGradient>
<linearGradient id="paint5_linear" x1="28.5111" y1="54.9805" x2="28.5111" y2="58.1668" gradientUnits="userSpaceOnUse">
<stop stop-color="#00D46A"/>
<stop offset="1" stop-color="#1262FF"/>
</linearGradient>
<clipPath id="clip0">
<rect width="81.5691" height="81.5691" fill="white" transform="translate(0.140625 0.416016)"/>
</clipPath>
</defs>
</svg>
