<svg width="15" height="24" viewBox="0 0 15 24" fill="none" xmlns="http://www.w3.org/2000/svg">
<path d="M13.9075 0.754682L10.5035 0.75C6.67924 0.75 4.20782 2.92339 4.20782 6.28728V8.84034H0.785246C0.489496 8.84034 0.25 9.04585 0.25 9.29936V12.9984C0.25 13.252 0.489769 13.4572 0.785246 13.4572H4.20782V22.7912C4.20782 23.0447 4.44731 23.25 4.74306 23.25H9.20855C9.5043 23.25 9.74379 23.0445 9.74379 22.7912V13.4572H13.7456C14.0413 13.4572 14.2808 13.252 14.2808 12.9984L14.2825 9.29936C14.2825 9.17764 14.2259 9.06107 14.1257 8.97493C14.0255 8.88879 13.8889 8.84034 13.7469 8.84034H9.74379V6.67608C9.74379 5.63585 10.033 5.10778 11.6139 5.10778L13.907 5.10707C14.2024 5.10707 14.4419 4.90156 14.4419 4.64829V1.21347C14.4419 0.960434 14.2027 0.75515 13.9075 0.754682Z" fill="#3B5998"/>
</svg>
