<svg width="70" height="70" viewBox="0 0 70 70" fill="none" xmlns="http://www.w3.org/2000/svg">
<g clip-path="url(#clip0)">
<path d="M61.1484 41.6704L61.0985 40.9855C60.2967 30.5469 55.4362 24.0031 51.1483 18.2312C47.1779 12.8865 43.7487 8.27102 43.7487 1.4609C43.7487 0.914048 43.4425 0.414223 42.9569 0.16349C42.4697 -0.0886103 41.8845 -0.0473228 41.4417 0.274638C35.0019 4.88298 29.6288 12.6501 27.7518 20.0611C26.4488 25.2206 26.2764 31.021 26.2522 34.8519C20.3052 33.5815 18.958 24.6851 18.9438 24.5883C18.8768 24.1269 18.5949 23.7253 18.1847 23.506C17.7704 23.2896 17.2833 23.2738 16.8631 23.4818C16.5513 23.6327 9.20854 27.3639 8.78131 42.2628C8.75137 42.7584 8.75 43.254 8.75 43.751C8.75 58.2242 20.5258 70 34.999 70C49.4722 70 61.248 58.2242 61.248 43.751C61.248 43.0247 61.1983 42.3469 61.1484 41.6704ZM34.999 67.0835C30.1741 67.0835 26.2493 62.9024 26.2493 57.7627C26.2493 57.5876 26.248 57.411 26.2607 57.1946C26.3191 55.0271 26.7307 53.5474 27.1821 52.5634C28.0281 54.3806 29.5418 56.0509 31.9971 56.0509C32.8031 56.0509 33.4554 55.3987 33.4554 54.5926C33.4554 52.5162 33.4982 50.121 34.0151 47.9591C34.4751 46.0409 35.5744 44.0029 36.9673 42.3681C37.5867 44.49 38.7945 46.2074 39.9736 47.8837C41.6612 50.2819 43.4057 52.7612 43.7119 56.9894C43.7304 57.24 43.749 57.492 43.749 57.7626C43.7487 62.9024 39.8239 67.0835 34.999 67.0835ZM44.2152 65.1781C45.7289 63.1138 46.6653 60.5622 46.6653 57.7627C46.6653 57.4196 46.644 57.1005 46.6012 56.5039C46.2552 51.7431 44.1859 48.8009 42.3589 46.2048C40.8024 43.9946 39.4594 42.085 39.4594 39.3763C39.4594 38.8223 39.1461 38.3167 38.6505 38.0704C38.1578 37.8225 37.5625 37.8781 37.1225 38.2128C34.3256 40.3261 31.9928 43.8836 31.1783 47.2801C30.7624 49.0218 30.6172 50.9059 30.5659 52.4552C29.5548 51.3673 29.2415 49.3507 29.2387 49.3237C29.1732 48.8552 28.8856 48.4464 28.4655 48.2286C28.0482 48.0122 27.5484 48.0064 27.1283 48.2229C26.7608 48.4108 23.5324 50.2622 23.3473 57.0722C23.3345 57.303 23.3331 57.5336 23.3331 57.7629C23.3331 60.5624 24.2696 63.114 25.7833 65.1782C17.4897 61.597 11.6669 53.3439 11.6669 43.7512C11.6669 43.314 11.6656 42.8783 11.6954 42.3926C11.946 33.6514 14.743 29.3165 16.5687 27.404C17.8417 31.961 21.177 37.9181 27.7079 37.9181C28.514 37.9181 29.1663 37.2658 29.1663 36.4597C29.1663 31.5793 29.2759 25.9399 30.5804 20.7761C32.0615 14.9258 36.1187 8.60857 41.0162 4.33203C41.8294 10.5782 45.2315 15.1581 48.8075 19.97C53.0585 25.692 57.4533 31.6091 58.1895 41.1906L58.2394 41.8884C58.2849 42.4951 58.3319 43.1003 58.3319 43.7511C58.3315 53.3437 52.5088 61.5969 44.2152 65.1781Z" fill="url(#paint0_linear)"/>
</g>
<defs>
<linearGradient id="paint0_linear" x1="34.999" y1="0" x2="34.999" y2="70" gradientUnits="userSpaceOnUse">
<stop stop-color="#00D46A"/>
<stop offset="1" stop-color="#1262FF"/>
</linearGradient>
<clipPath id="clip0">
<rect width="70" height="70" fill="white"/>
</clipPath>
</defs>
</svg>
