<svg width="83" height="82" viewBox="0 0 83 82" fill="none" xmlns="http://www.w3.org/2000/svg">
<g clip-path="url(#clip0)">
<path d="M75.7217 68.3839C72.5811 68.3839 69.9403 70.5594 69.2235 73.482H63.8487L59.2385 68.8719C68.4768 63.0179 74.623 52.7047 74.623 40.9818C74.623 29.259 68.4767 18.9457 59.2385 13.0917L63.8489 8.48163H69.2237C69.9404 11.4043 72.5812 13.5797 75.7218 13.5797C79.4114 13.5797 82.413 10.5781 82.413 6.88848C82.413 3.19891 79.4112 0.197266 75.7217 0.197266C72.5811 0.197266 69.9403 2.37271 69.2235 5.29534H63.1888C62.7663 5.29534 62.3612 5.46325 62.0623 5.76197L56.36 11.4643C51.9231 9.24092 46.9198 7.98696 41.6283 7.98696C36.3368 7.98696 31.3336 9.24108 26.8966 11.4645L21.1943 5.76213C20.8954 5.46341 20.4903 5.29549 20.0678 5.29549H14.0331C13.3163 2.37271 10.6755 0.197266 7.53497 0.197266C3.8454 0.197266 0.84375 3.19891 0.84375 6.88848C0.84375 10.5781 3.8454 13.5797 7.53497 13.5797C10.6755 13.5797 13.3163 11.4043 14.0331 8.48163H19.4079L24.0181 13.0917C14.7796 18.9457 8.63344 29.259 8.63344 40.9818C8.63344 47.1659 10.355 53.1952 13.6117 58.4177C14.0775 59.1644 15.06 59.3922 15.8066 58.9264C16.5531 58.4607 16.7808 57.4781 16.3153 56.7315C13.3742 52.0155 11.8197 46.5693 11.8197 40.9818C11.8197 30.1334 17.6459 20.6212 26.3327 15.4064L29.9074 18.9811C30.2185 19.2922 30.6262 19.4477 31.0339 19.4477C31.4416 19.4477 31.8494 19.2921 32.1604 18.9811C32.7825 18.359 32.7825 17.3502 32.1604 16.7281L29.284 13.8516C32.5902 12.3413 36.2185 11.4178 40.035 11.2159V40.3218L23.3648 56.9921C22.7427 57.6143 22.7427 58.6231 23.3648 59.2453C23.6759 59.5563 24.0836 59.712 24.4913 59.712C24.899 59.712 25.3067 59.5563 25.6178 59.2453L42.2884 42.575H71.3942C70.8554 52.7569 65.1828 61.5994 56.9241 66.5572L53.3494 62.9825C52.7271 62.3606 51.7187 62.3606 51.0962 62.9825C50.4741 63.6047 50.4741 64.6134 51.0962 65.2357L53.9725 68.112C50.2092 69.8312 46.0287 70.7906 41.6283 70.7906C36.0408 70.7906 30.5947 69.236 25.8786 66.2949C25.1318 65.8293 24.1493 66.0573 23.6837 66.8035C23.2182 67.5503 23.446 68.5327 24.1924 68.9984C29.4149 72.2553 35.4442 73.9767 41.6283 73.9767C46.9196 73.9767 51.9231 72.7227 56.36 70.4993L62.0623 76.2017C62.3612 76.5004 62.7663 76.6683 63.1888 76.6683H69.2235C69.9403 79.5909 72.5811 81.7664 75.7217 81.7664C79.4112 81.7664 82.4129 78.7647 82.4129 75.0752C82.4129 71.3856 79.4112 68.3839 75.7217 68.3839ZM75.7217 3.38356C77.6543 3.38356 79.2266 4.95584 79.2266 6.88848C79.2266 8.82113 77.6543 10.3934 75.7217 10.3934C73.789 10.3934 72.2167 8.82113 72.2167 6.88848C72.2167 4.95584 73.789 3.38356 75.7217 3.38356ZM7.53497 10.3934C5.60232 10.3934 4.03004 8.82113 4.03004 6.88848C4.03004 4.95584 5.60232 3.38356 7.53497 3.38356C9.46761 3.38356 11.0399 4.95584 11.0399 6.88848C11.0399 8.82113 9.46761 10.3934 7.53497 10.3934ZM51.0962 18.9813C51.4074 19.2924 51.8151 19.4479 52.2227 19.4479C52.6304 19.4479 53.0381 19.2922 53.3493 18.9813L56.924 15.4066C65.1827 20.3644 70.8552 29.2069 71.394 39.3888H43.2215V11.2159C47.0382 11.418 50.6662 12.3413 53.9725 13.8516L51.0961 16.7281C50.4739 17.3502 50.4739 18.3591 51.0962 18.9813ZM75.7217 78.5801C73.789 78.5801 72.2167 77.0078 72.2167 75.0752C72.2167 73.1425 73.789 71.5702 75.7217 71.5702C77.6543 71.5702 79.2266 73.1425 79.2266 75.0752C79.2266 77.0078 77.6543 78.5801 75.7217 78.5801Z" fill="url(#paint0_linear)"/>
<path d="M48.2109 26.9623C48.2109 27.8422 48.9243 28.5554 49.8041 28.5554H60.0002C60.88 28.5554 61.5934 27.8422 61.5934 26.9623C61.5934 26.0824 60.88 25.3691 60.0002 25.3691H49.8041C48.9243 25.3691 48.2109 26.0824 48.2109 26.9623Z" fill="url(#paint1_linear)"/>
<path d="M60.0002 32.3789H49.8041C48.9243 32.3789 48.2109 33.0922 48.2109 33.9721C48.2109 34.8519 48.9243 35.5652 49.8041 35.5652H60.0002C60.88 35.5652 61.5934 34.8519 61.5934 33.9721C61.5934 33.0922 60.8801 32.3789 60.0002 32.3789Z" fill="url(#paint2_linear)"/>
<path d="M20.1908 34.2898H31.6615C32.5412 34.2898 33.2546 33.5766 33.2546 32.6967C33.2546 31.8168 32.5412 31.1035 31.6615 31.1035H20.1908C19.3111 31.1035 18.5977 31.8168 18.5977 32.6967C18.5977 33.5766 19.3111 34.2898 20.1908 34.2898Z" fill="url(#paint3_linear)"/>
<path d="M20.1908 41.2996H31.6615C32.5412 41.2996 33.2546 40.5863 33.2546 39.7064C33.2546 38.8265 32.5412 38.1133 31.6615 38.1133H20.1908C19.3111 38.1133 18.5977 38.8265 18.5977 39.7064C18.5977 40.5863 19.3111 41.2996 20.1908 41.2996Z" fill="url(#paint4_linear)"/>
<path d="M44.0678 51.6824H55.5384C56.4181 51.6824 57.1316 50.969 57.1316 50.0892C57.1316 49.2095 56.4181 48.4961 55.5384 48.4961H44.0678C43.188 48.4961 42.4746 49.2095 42.4746 50.0892C42.4746 50.969 43.188 51.6824 44.0678 51.6824Z" fill="url(#paint5_linear)"/>
<path d="M44.0678 58.6922H55.5384C56.4181 58.6922 57.1316 57.9787 57.1316 57.099C57.1316 56.2193 56.4181 55.5059 55.5384 55.5059H44.0678C43.188 55.5059 42.4746 56.2193 42.4746 57.099C42.4746 57.9787 43.188 58.6922 44.0678 58.6922Z" fill="url(#paint6_linear)"/>
<path d="M19.4252 61.5918C19.0046 61.5918 18.5951 61.7621 18.2972 62.0586C18.0009 62.3549 17.832 62.7659 17.832 63.1849C17.832 63.6055 18.0009 64.015 18.2972 64.3111C18.5951 64.6091 19.0046 64.7781 19.4252 64.7781C19.8442 64.7781 20.2536 64.6091 20.5515 64.3111C20.8477 64.015 21.0183 63.6054 21.0183 63.1849C21.0183 62.7659 20.8479 62.3565 20.5515 62.0586C20.2536 61.7621 19.8442 61.5918 19.4252 61.5918Z" fill="url(#paint7_linear)"/>
</g>
<defs>
<linearGradient id="paint0_linear" x1="41.6284" y1="0.197266" x2="41.6284" y2="81.7664" gradientUnits="userSpaceOnUse">
<stop stop-color="#00D46A"/>
<stop offset="1" stop-color="#1262FF"/>
</linearGradient>
<linearGradient id="paint1_linear" x1="54.9022" y1="25.3691" x2="54.9022" y2="28.5554" gradientUnits="userSpaceOnUse">
<stop stop-color="#00D46A"/>
<stop offset="1" stop-color="#1262FF"/>
</linearGradient>
<linearGradient id="paint2_linear" x1="54.9022" y1="32.3789" x2="54.9022" y2="35.5652" gradientUnits="userSpaceOnUse">
<stop stop-color="#00D46A"/>
<stop offset="1" stop-color="#1262FF"/>
</linearGradient>
<linearGradient id="paint3_linear" x1="25.9261" y1="31.1035" x2="25.9261" y2="34.2898" gradientUnits="userSpaceOnUse">
<stop stop-color="#00D46A"/>
<stop offset="1" stop-color="#1262FF"/>
</linearGradient>
<linearGradient id="paint4_linear" x1="25.9261" y1="38.1133" x2="25.9261" y2="41.2996" gradientUnits="userSpaceOnUse">
<stop stop-color="#00D46A"/>
<stop offset="1" stop-color="#1262FF"/>
</linearGradient>
<linearGradient id="paint5_linear" x1="49.8031" y1="48.4961" x2="49.8031" y2="51.6824" gradientUnits="userSpaceOnUse">
<stop stop-color="#00D46A"/>
<stop offset="1" stop-color="#1262FF"/>
</linearGradient>
<linearGradient id="paint6_linear" x1="49.8031" y1="55.5059" x2="49.8031" y2="58.6922" gradientUnits="userSpaceOnUse">
<stop stop-color="#00D46A"/>
<stop offset="1" stop-color="#1262FF"/>
</linearGradient>
<linearGradient id="paint7_linear" x1="19.4252" y1="61.5918" x2="19.4252" y2="64.7781" gradientUnits="userSpaceOnUse">
<stop stop-color="#00D46A"/>
<stop offset="1" stop-color="#1262FF"/>
</linearGradient>
<clipPath id="clip0">
<rect width="81.5691" height="81.5691" fill="white" transform="translate(0.84375 0.197266)"/>
</clipPath>
</defs>
</svg>
