<svg width="82" height="49" viewBox="0 0 82 49" fill="none" xmlns="http://www.w3.org/2000/svg">
<g opacity="0.12">
<circle r="5.19699" transform="matrix(4.37114e-08 -1 -1 -4.37114e-08 76.471 43.803)" fill="white"/>
<circle r="5.19699" transform="matrix(4.37114e-08 -1 -1 -4.37114e-08 63.1077 24.5003)" fill="white"/>
<circle r="5.19699" transform="matrix(4.37114e-08 -1 -1 -4.37114e-08 76.471 5.19754)" fill="white"/>
<circle r="5.19699" transform="matrix(4.37114e-08 -1 -1 -4.37114e-08 57.1682 43.803)" fill="white"/>
<circle r="5.19699" transform="matrix(4.37114e-08 -1 -1 -4.37114e-08 43.805 24.5003)" fill="white"/>
<circle r="5.19699" transform="matrix(4.37114e-08 -1 -1 -4.37114e-08 57.1682 5.19754)" fill="white"/>
<circle r="5.19699" transform="matrix(4.37114e-08 -1 -1 -4.37114e-08 37.8655 43.803)" fill="white"/>
<circle r="5.19699" transform="matrix(4.37114e-08 -1 -1 -4.37114e-08 24.5003 24.5003)" fill="white"/>
<circle r="5.19699" transform="matrix(4.37114e-08 -1 -1 -4.37114e-08 37.8655 5.19754)" fill="white"/>
<circle r="5.19699" transform="matrix(4.37114e-08 -1 -1 -4.37114e-08 18.5628 43.803)" fill="white"/>
<circle r="5.19699" transform="matrix(4.37114e-08 -1 -1 -4.37114e-08 5.19754 24.5003)" fill="white"/>
<circle r="5.19699" transform="matrix(4.37114e-08 -1 -1 -4.37114e-08 18.5628 5.19754)" fill="white"/>
</g>
</svg>
