<svg width="80" height="80" viewBox="0 0 80 80" fill="none" xmlns="http://www.w3.org/2000/svg">
<g clip-path="url(#clip0)">
<path d="M28.5337 80.0362C27.6137 80.0362 26.867 79.2896 26.867 78.3696V75.4696C26.867 74.4396 26.5537 73.4496 25.9637 72.6029L22.607 67.8129C20.6503 65.0129 18.9937 62.0696 17.6837 59.0696C16.0337 55.2929 12.4737 48.1596 7.12702 42.8096C6.94368 42.6262 6.80702 42.4029 6.72368 42.1596C6.65035 41.9429 6.05368 39.9796 7.43702 38.0596C8.91702 36.0096 12.0137 34.9662 16.637 34.9662C20.957 34.9662 24.3703 37.7529 26.637 40.3962V9.96289C26.637 6.28622 29.627 3.29622 33.3037 3.29622C34.677 3.29622 35.9503 3.71289 37.0103 4.42622C37.9237 1.82956 40.4003 -0.0371094 43.3037 -0.0371094C46.207 -0.0371094 48.6837 1.82956 49.597 4.42622C50.657 3.71289 51.9337 3.29622 53.3037 3.29622C56.9803 3.29622 59.9703 6.28622 59.9703 9.96289V17.5262C60.9503 16.9562 62.0903 16.6296 63.3037 16.6296C67.1437 16.6296 70.1337 19.6196 70.1337 23.2962V46.6296L69.8303 53.1029C69.4937 60.2229 66.777 67.1362 62.177 72.5729C61.4437 73.4396 61.037 74.5462 61.037 75.6829V78.3662C61.037 79.2862 60.2903 80.0329 59.3703 80.0329C58.4503 80.0329 57.7037 79.2862 57.7037 78.3662V75.6829C57.7037 73.7596 58.3903 71.8896 59.6303 70.4196C63.7603 65.5429 66.2003 59.3396 66.5003 52.9496L66.8003 46.5529V23.2962C66.8003 21.4562 65.3037 19.9629 63.467 19.9629C61.467 19.9629 59.9703 21.4562 59.9703 23.2962V43.2962C59.9703 44.2162 59.2237 44.9629 58.3037 44.9629C57.3837 44.9629 56.637 44.2162 56.637 43.2962V9.96289C56.637 8.12289 55.1403 6.62956 53.3037 6.62956C51.467 6.62956 49.9703 8.12289 49.9703 9.96289V43.2962C49.9703 44.2162 49.2237 44.9629 48.3037 44.9629C47.3837 44.9629 46.637 44.2162 46.637 43.2962V6.62956C46.637 4.78956 45.1403 3.29622 43.3037 3.29622C41.467 3.29622 39.9703 4.78956 39.9703 6.62956V43.2962C39.9703 44.2162 39.2237 44.9629 38.3037 44.9629C37.3837 44.9629 36.637 44.2162 36.637 43.2962V9.96289C36.637 8.12289 35.1403 6.62956 33.3037 6.62956C31.467 6.62956 29.9703 8.12289 29.9703 9.96289V45.7962C29.9703 46.5662 29.437 47.2396 28.687 47.4162C27.937 47.5929 27.1603 47.2296 26.8137 46.5362C26.7703 46.4562 22.6203 38.2929 16.637 38.2929C11.957 38.2929 10.5537 39.4629 10.1704 39.9629C9.92368 40.2829 9.86702 40.6062 9.86368 40.8362C15.1037 46.2229 18.6603 52.9696 20.737 57.7296C21.9603 60.5329 23.507 63.2796 25.337 65.8962L28.6937 70.6862C29.677 72.0962 30.2003 73.7496 30.2003 75.4662V78.3662C30.2003 79.2896 29.4537 80.0362 28.5337 80.0362Z" fill="url(#paint0_linear)"/>
</g>
<defs>
<linearGradient id="paint0_linear" x1="38.3334" y1="-0.0371094" x2="38.3334" y2="80.0362" gradientUnits="userSpaceOnUse">
<stop stop-color="#00D46A"/>
<stop offset="1" stop-color="#1262FF"/>
</linearGradient>
<clipPath id="clip0">
<rect width="80" height="80" fill="white"/>
</clipPath>
</defs>
</svg>
