<svg width="1440" height="82" viewBox="0 0 1440 82" fill="none" xmlns="http://www.w3.org/2000/svg">
<g opacity="0.6">
<path opacity="0.73" d="M1440 81.9987V-358.746C951.879 -333.42 578.558 -194.207 578.558 -26.244C578.558 11.6234 597.549 48.0276 632.537 81.9987H1440Z" fill="url(#paint0_radial)"/>
<path opacity="0.3" d="M447.748 -423.125H0.233398V81.9982H500.952C732.453 25.2323 881.707 -64.0561 881.707 -164.49C881.707 -272.416 709.334 -367.476 447.748 -423.125Z" fill="url(#paint1_radial)"/>
<path opacity="0.2" d="M1149.22 81.9981C1142.18 -55.8739 870.06 -166.745 535.379 -166.745C378.738 -166.745 235.819 -142.448 127.345 -102.47V81.9981H1149.22Z" fill="url(#paint2_radial)"/>
<path opacity="0.2" d="M1440 81.9963V-328.473C1373.5 -344.817 1302.31 -353.685 1228.29 -353.685C884.639 -353.685 601.896 -162.808 567.15 81.9963H1440Z" fill="url(#paint3_radial)"/>
</g>
<defs>
<radialGradient id="paint0_radial" cx="0" cy="0" r="1" gradientUnits="userSpaceOnUse" gradientTransform="translate(1600.13 -26.2415) scale(1021.49 336.638)">
<stop stop-color="#006286"/>
<stop offset="1"/>
</radialGradient>
<radialGradient id="paint1_radial" cx="0" cy="0" r="1" gradientUnits="userSpaceOnUse" gradientTransform="translate(-90.4338 -164.487) scale(971.754 310.449)">
<stop stop-color="#05AFFD"/>
<stop offset="1" stop-color="#00101E"/>
</radialGradient>
<radialGradient id="paint2_radial" cx="0" cy="0" r="1" gradientUnits="userSpaceOnUse" gradientTransform="translate(535.371 87.478) scale(613.995 254.216)">
<stop stop-color="#4E80CA"/>
<stop offset="1" stop-color="#01080B"/>
</radialGradient>
<radialGradient id="paint3_radial" cx="0" cy="0" r="1" gradientUnits="userSpaceOnUse" gradientTransform="translate(1228.29 132.866) scale(664.735 486.547)">
<stop stop-color="#45FCCA"/>
<stop offset="1" stop-color="#002023"/>
</radialGradient>
</defs>
</svg>
