<svg width="1440" height="700" viewBox="0 0 1440 700" fill="none" xmlns="http://www.w3.org/2000/svg">
<g opacity="0.6">
<path opacity="0.73" d="M1580 699.999V-107.981C992.464 -61.5531 543.109 193.654 543.109 501.567C543.109 570.986 565.969 637.723 608.082 699.999H1580Z" fill="url(#paint0_radial)"/>
<path opacity="0.3" d="M385.658 -226H-153V700H449.699C728.348 595.936 908 432.251 908 248.134C908.001 50.2829 700.521 -123.984 385.658 -226Z" fill="url(#paint1_radial)"/>
<path opacity="0.2" d="M1230 700C1221.53 447.251 893.982 244 491.138 244C302.594 244 130.567 288.542 0 361.831V700H1230Z" fill="url(#paint2_radial)"/>
<path opacity="0.2" d="M1580 699.996V-52.4833C1499.96 -82.4456 1414.27 -98.7012 1325.18 -98.7012C911.53 -98.7012 571.201 251.217 529.379 699.996H1580Z" fill="url(#paint3_radial)"/>
</g>
<defs>
<radialGradient id="paint0_radial" cx="0" cy="0" r="1" gradientUnits="userSpaceOnUse" gradientTransform="translate(1772.74 501.571) scale(1229.53 617.13)">
<stop stop-color="#006286"/>
<stop offset="1"/>
</radialGradient>
<radialGradient id="paint1_radial" cx="0" cy="0" r="1" gradientUnits="userSpaceOnUse" gradientTransform="translate(-262.133 248.14) scale(1169.67 569.121)">
<stop stop-color="#05AFFD"/>
<stop offset="1" stop-color="#00101E"/>
</radialGradient>
<radialGradient id="paint2_radial" cx="0" cy="0" r="1" gradientUnits="userSpaceOnUse" gradientTransform="translate(491.128 710.046) scale(739.045 466.032)">
<stop stop-color="#4E80CA"/>
<stop offset="1" stop-color="#01080B"/>
</radialGradient>
<radialGradient id="paint3_radial" cx="0" cy="0" r="1" gradientUnits="userSpaceOnUse" gradientTransform="translate(1325.17 793.251) scale(800.119 891.946)">
<stop stop-color="#45FCCA"/>
<stop offset="1" stop-color="#002023"/>
</radialGradient>
</defs>
</svg>
