<svg width="60" height="60" viewBox="0 0 60 60" fill="none" xmlns="http://www.w3.org/2000/svg">
<path d="M29.9999 0C13.4578 0 0 13.458 0 30.0001C0 46.542 13.4578 60 29.9999 60C46.542 60 59.9998 46.5422 59.9998 30.0001C59.9998 13.458 46.5422 0 29.9999 0ZM25.3722 3.0482C22.9371 5.13295 20.6058 7.72827 18.7329 10.491C17.8894 11.7353 17.1311 13.0201 16.4577 14.3379H7.59749C11.7038 8.48165 18.0446 4.30259 25.3722 3.0482ZM28.6726 43.2871H18.1655C16.5844 39.8604 15.4925 35.9073 15.3091 31.467H28.6726V43.2871ZM5.95128 16.9925H15.2357C13.6865 20.7608 12.8097 24.7498 12.6529 28.8126H2.68222C2.86521 24.5493 4.02722 20.5355 5.95128 16.9925ZM2.69425 31.4672H12.6519C12.8046 35.5937 13.6727 39.5462 15.2433 43.2873H6.10737C4.13393 39.7528 2.92113 35.7388 2.69425 31.4672ZM7.7957 45.9417H16.4952C17.1587 47.2069 17.9053 48.4459 18.7376 49.6561C20.9459 52.8669 23.3195 55.2552 25.3243 56.9437C18.1343 55.6997 11.8978 51.6387 7.7957 45.9417ZM28.6726 56.2046C25.7076 54.0333 22.2171 50.5701 19.5429 45.9417H28.6726V56.2046ZM28.6726 28.8126H15.3091C15.4744 24.6856 16.4133 20.7309 18.1113 16.9925H28.6728V28.8126H28.6726ZM28.6726 14.3379H19.4654C19.9177 13.5412 20.4051 12.755 20.93 11.9806C23.6628 7.94914 26.6585 5.30922 28.6726 3.81326V14.3379ZM57.318 28.8126H47.3471C47.1903 24.7498 46.3135 20.7608 44.7643 16.9925H54.0485C55.9726 20.5355 57.135 24.5493 57.318 28.8126ZM52.4027 14.3379H43.5427C42.8693 13.0201 42.1108 11.7353 41.2675 10.491C39.3946 7.7281 37.0626 5.13348 34.6273 3.04802C41.9549 4.30241 48.2958 8.48147 52.4027 14.3379ZM31.3272 3.81308C33.3414 5.30904 36.337 7.94896 39.0698 11.9804C39.5947 12.7549 40.0821 13.541 40.5345 14.3377H31.3272V3.81308ZM31.3272 16.9925H41.8887C43.5867 20.7309 44.5256 24.6856 44.6909 28.8126H31.3272V16.9925ZM31.3272 31.4672H44.6909C44.5077 35.9075 43.4156 39.8605 41.8345 43.2873H31.3272V31.4672ZM31.3272 45.9417H40.457C37.7827 50.5699 34.2922 54.0333 31.3272 56.2046V45.9417ZM34.6763 56.9437C36.6809 55.2553 39.0543 52.8665 41.2624 49.6562C42.0947 48.4461 42.8413 47.2071 43.5048 45.9419H52.2043C48.1024 51.6385 41.866 55.6995 34.6763 56.9437ZM53.8926 43.2871H44.7569C46.3275 39.5461 47.1956 35.5937 47.3483 31.467H57.3058C57.0787 35.7388 55.8661 39.7528 53.8926 43.2871Z" fill="white"/>
</svg>
