<svg width="87" height="87" viewBox="0 0 87 87" fill="none" xmlns="http://www.w3.org/2000/svg">
<path d="M82.6914 52.1306L82.6727 52.0998C81.8157 50.7952 80.5077 49.8525 78.999 49.4523C77.4903 49.052 75.8869 49.2223 74.496 49.9306L65.9205 54.3173C64.894 52.8747 63.383 51.8493 61.6633 51.4283C59.9435 51.0072 58.1297 51.2185 56.5528 52.0236L45.7545 57.5585C45.1908 57.8481 44.5655 57.9972 43.9317 57.9933C43.298 57.9893 42.6746 57.8324 42.1145 57.5358L34.7542 53.6281C31.9687 52.1412 28.8257 51.455 25.674 51.6459C22.5222 51.8368 19.485 52.8972 16.8993 54.7094L16.0669 50.7455C16.0307 50.573 15.9607 50.4094 15.861 50.264C15.7613 50.1186 15.6339 49.9943 15.4861 49.8983C15.3382 49.8023 15.1728 49.7365 14.9995 49.7046C14.8261 49.6727 14.6481 49.6753 14.4758 49.7124L4.09902 51.9513C3.75356 52.0258 3.4516 52.234 3.25905 52.5303C3.06649 52.8267 2.99898 53.1872 3.07125 53.5331L9.11342 82.3227C9.17503 82.6245 9.33888 82.8959 9.57732 83.0909C9.81575 83.2859 10.1142 83.3928 10.4222 83.3933C10.5167 83.3929 10.6108 83.3831 10.7033 83.3639L21.0854 81.129C21.4313 81.0548 21.7339 80.8466 21.9267 80.5499C22.1196 80.2532 22.1871 79.8922 22.1145 79.5459L21.5792 76.9684L25.1268 76.2056C26.1604 75.9852 27.2243 75.9445 28.2717 76.0852L44.9583 77.9145C48.4225 78.3735 51.9349 77.549 54.8332 75.5967L81.5619 57.6643C82.436 57.0724 83.0436 56.1619 83.2547 55.1277C83.4658 54.0934 83.2636 53.0177 82.6914 52.1306ZM11.4567 80.4572L5.9632 54.2879L13.725 52.6151L19.2225 78.7857L11.4567 80.4572ZM80.0724 55.4454L53.3451 73.3779C50.9741 74.9666 48.1038 75.633 45.2754 75.2514L28.5902 73.4221C27.2474 73.2423 25.8837 73.2967 24.5594 73.5827L21.0238 74.3428L17.4962 57.5585L18.4102 56.9215C20.593 55.3863 23.1589 54.4866 25.8225 54.3227C28.4861 54.1587 31.1429 54.7369 33.4976 55.9928L40.8579 59.9005C41.7982 60.4007 42.8456 60.6658 43.9107 60.673C44.9757 60.6802 46.0267 60.4294 46.9737 59.9419L57.7773 54.4003C58.8569 53.8485 60.1072 53.7322 61.2701 54.0753C62.433 54.4184 63.4198 55.1949 64.0269 56.2444C64.2059 56.5515 64.2565 56.9168 64.1678 57.2611C64.0791 57.6053 63.8583 57.9007 63.5532 58.0831L48.6639 66.9155C46.0603 68.4698 42.9579 68.9611 40.0014 68.2872L26.5708 65.0754L25.9485 67.6797L39.3925 70.8914C43.0213 71.7228 46.8309 71.1231 50.0289 69.2173L64.9195 60.3849C65.5291 60.0187 66.0305 59.4971 66.3724 58.8735C66.7143 58.25 66.8844 57.5468 66.8653 56.8359L75.7098 52.3099C76.5107 51.9032 77.4333 51.8052 78.3019 52.0344C79.1704 52.2636 79.9244 52.8042 80.4204 53.5532L80.4351 53.5773C80.6277 53.8752 80.6975 54.2361 80.6299 54.5844C80.5623 54.9326 80.3625 55.2412 80.0724 55.4454Z" fill="url(#paint0_linear)"/>
<path d="M11.7054 55.7942L9.08594 56.3438L9.63491 58.9606L12.2544 58.4111L11.7054 55.7942Z" fill="url(#paint1_linear)"/>
<path d="M28.4691 37.8867C28.1142 37.8867 27.7738 38.0277 27.5228 38.2787C27.2719 38.5296 27.1309 38.87 27.1309 39.225V47.2544C27.1309 47.6093 27.2719 47.9497 27.5228 48.2007C27.7738 48.4517 28.1142 48.5927 28.4691 48.5927H33.8221C34.177 48.5927 34.5174 48.4517 34.7684 48.2007C35.0193 47.9497 35.1603 47.6093 35.1603 47.2544V39.225C35.1603 38.87 35.0193 38.5296 34.7684 38.2787C34.5174 38.0277 34.177 37.8867 33.8221 37.8867H28.4691ZM32.4838 45.9162H29.8073V40.5632H32.4838V45.9162Z" fill="url(#paint2_linear)"/>
<path d="M40.514 28.5176C40.1591 28.5176 39.8187 28.6586 39.5677 28.9095C39.3168 29.1605 39.1758 29.5009 39.1758 29.8558V47.253C39.1758 47.6079 39.3168 47.9483 39.5677 48.1993C39.8187 48.4502 40.1591 48.5912 40.514 48.5912H45.867C46.2219 48.5912 46.5623 48.4502 46.8133 48.1993C47.0642 47.9483 47.2052 47.6079 47.2052 47.253V29.8558C47.2052 29.5009 47.0642 29.1605 46.8133 28.9095C46.5623 28.6586 46.2219 28.5176 45.867 28.5176H40.514ZM44.5288 45.9147H41.8523V31.1941H44.5288V45.9147Z" fill="url(#paint3_linear)"/>
<path d="M52.557 32.5332C52.2021 32.5332 51.8617 32.6742 51.6107 32.9252C51.3597 33.1761 51.2188 33.5165 51.2188 33.8714V47.2539C51.2188 47.6088 51.3597 47.9492 51.6107 48.2002C51.8617 48.4511 52.2021 48.5921 52.557 48.5921H57.91C58.2649 48.5921 58.6053 48.4511 58.8563 48.2002C59.1072 47.9492 59.2482 47.6088 59.2482 47.2539V33.8714C59.2482 33.5165 59.1072 33.1761 58.8563 32.9252C58.6053 32.6742 58.2649 32.5332 57.91 32.5332H52.557ZM56.5717 45.9156H53.8952V35.2097H56.5717V45.9156Z" fill="url(#paint4_linear)"/>
<path d="M64.6019 25.8418C64.247 25.8418 63.9066 25.9828 63.6556 26.2338C63.4047 26.4847 63.2637 26.8251 63.2637 27.18V47.2537C63.2637 47.6086 63.4047 47.949 63.6556 48.2C63.9066 48.4509 64.247 48.5919 64.6019 48.5919H69.9549C70.3098 48.5919 70.6502 48.4509 70.9012 48.2C71.1521 47.949 71.2931 47.6086 71.2931 47.2537V27.18C71.2931 26.8251 71.1521 26.4847 70.9012 26.2338C70.6502 25.9828 70.3098 25.8418 69.9549 25.8418H64.6019ZM68.6166 45.9154H65.9402V28.5183H68.6166V45.9154Z" fill="url(#paint5_linear)"/>
<path d="M28.4687 17.0283L36.8902 25.4498C37.1412 25.7007 37.4815 25.8417 37.8364 25.8417C38.1912 25.8417 38.5315 25.7007 38.7825 25.4498L53.8953 10.337L64.9933 21.4351C65.2443 21.686 65.5846 21.8269 65.9395 21.8269C66.2943 21.8269 66.6346 21.686 66.8856 21.4351L80.6601 7.66056V11.1213H83.3366V4.43004C83.3366 4.07512 83.1956 3.73473 82.9447 3.48376C82.6937 3.23279 82.3533 3.0918 81.9984 3.0918H75.3072V5.76828H78.7679L65.9395 18.5967L54.8414 7.49863C54.5905 7.24775 54.2501 7.10681 53.8953 7.10681C53.5404 7.10681 53.2001 7.24775 52.9491 7.49863L37.8364 22.6114L29.4148 14.1899C29.1638 13.939 28.8235 13.798 28.4687 13.798C28.1138 13.798 27.7735 13.939 27.5225 14.1899L8.78711 32.9253L10.6794 34.8175L28.4687 17.0283Z" fill="url(#paint6_linear)"/>
<defs>
<linearGradient id="paint0_linear" x1="43.1896" y1="49.2402" x2="43.1896" y2="83.3933" gradientUnits="userSpaceOnUse">
<stop stop-color="#00D46A"/>
<stop offset="1" stop-color="#1262FF"/>
</linearGradient>
<linearGradient id="paint1_linear" x1="10.3957" y1="56.069" x2="10.9447" y2="58.6858" gradientUnits="userSpaceOnUse">
<stop stop-color="#00D46A"/>
<stop offset="1" stop-color="#1262FF"/>
</linearGradient>
<linearGradient id="paint2_linear" x1="31.1456" y1="37.8867" x2="31.1456" y2="48.5927" gradientUnits="userSpaceOnUse">
<stop stop-color="#00D46A"/>
<stop offset="1" stop-color="#1262FF"/>
</linearGradient>
<linearGradient id="paint3_linear" x1="43.1905" y1="28.5176" x2="43.1905" y2="48.5912" gradientUnits="userSpaceOnUse">
<stop stop-color="#00D46A"/>
<stop offset="1" stop-color="#1262FF"/>
</linearGradient>
<linearGradient id="paint4_linear" x1="55.2335" y1="32.5332" x2="55.2335" y2="48.5921" gradientUnits="userSpaceOnUse">
<stop stop-color="#00D46A"/>
<stop offset="1" stop-color="#1262FF"/>
</linearGradient>
<linearGradient id="paint5_linear" x1="67.2784" y1="25.8418" x2="67.2784" y2="48.5919" gradientUnits="userSpaceOnUse">
<stop stop-color="#00D46A"/>
<stop offset="1" stop-color="#1262FF"/>
</linearGradient>
<linearGradient id="paint6_linear" x1="46.0619" y1="3.0918" x2="46.0619" y2="34.8175" gradientUnits="userSpaceOnUse">
<stop stop-color="#00D46A"/>
<stop offset="1" stop-color="#1262FF"/>
</linearGradient>
</defs>
</svg>
