<svg width="180" height="89" viewBox="0 0 180 89" fill="none" xmlns="http://www.w3.org/2000/svg">
<g filter="url(#filter0_d)">
<path d="M30.5 30C30.5 26.9624 32.9624 24.5 36 24.5H144C147.038 24.5 149.5 26.9624 149.5 30V53C149.5 56.0376 147.038 58.5 144 58.5H36C32.9624 58.5 30.5 56.0376 30.5 53V30Z" stroke="url(#paint0_linear)"/>
</g>
<path d="M79.1261 48H72.0381V36.8H74.2301V46.048H79.1261V48ZM79.2624 44C79.2624 42.6453 79.593 41.6053 80.2544 40.88C80.9157 40.144 81.8437 39.776 83.0384 39.776C83.6784 39.776 84.233 39.8773 84.7024 40.08C85.1717 40.2827 85.561 40.5707 85.8704 40.944C86.1797 41.3067 86.409 41.7493 86.5584 42.272C86.7184 42.7947 86.7984 43.3707 86.7984 44C86.7984 45.3547 86.4677 46.4 85.8064 47.136C85.1557 47.8613 84.233 48.224 83.0384 48.224C82.3984 48.224 81.8437 48.1227 81.3744 47.92C80.905 47.7173 80.5104 47.4347 80.1904 47.072C79.881 46.6987 79.6464 46.2507 79.4864 45.728C79.337 45.2053 79.2624 44.6293 79.2624 44ZM81.4064 44C81.4064 44.352 81.4384 44.6773 81.5024 44.976C81.5664 45.2747 81.6624 45.536 81.7904 45.76C81.9184 45.984 82.0837 46.16 82.2864 46.288C82.4997 46.4053 82.7504 46.464 83.0384 46.464C83.5824 46.464 83.9877 46.2667 84.2544 45.872C84.521 45.4773 84.6544 44.8533 84.6544 44C84.6544 43.264 84.5317 42.672 84.2864 42.224C84.041 41.7653 83.625 41.536 83.0384 41.536C82.5264 41.536 82.1264 41.728 81.8384 42.112C81.5504 42.496 81.4064 43.1253 81.4064 44ZM95.0081 48C95.0081 49.1627 94.6935 50.016 94.0641 50.56C93.4348 51.1147 92.5548 51.392 91.4241 51.392C90.6561 51.392 90.0481 51.3387 89.6001 51.232C89.1628 51.1253 88.8321 51.0133 88.6081 50.896L89.0401 49.248C89.2855 49.344 89.5681 49.44 89.8881 49.536C90.2188 49.632 90.6241 49.68 91.1041 49.68C91.8295 49.68 92.3201 49.52 92.5761 49.2C92.8428 48.8907 92.9761 48.4533 92.9761 47.888V47.376H92.9121C92.5388 47.8773 91.8775 48.128 90.9281 48.128C89.8935 48.128 89.1201 47.808 88.6081 47.168C88.1068 46.528 87.8561 45.5253 87.8561 44.16C87.8561 42.7307 88.1975 41.648 88.8801 40.912C89.5628 40.176 90.5548 39.808 91.8561 39.808C92.5388 39.808 93.1468 39.856 93.6801 39.952C94.2241 40.048 94.6668 40.16 95.0081 40.288V48ZM91.4881 46.464C91.8935 46.464 92.2028 46.3733 92.4161 46.192C92.6401 46.0107 92.8108 45.7387 92.9281 45.376V41.776C92.5975 41.6373 92.1868 41.568 91.6961 41.568C91.1628 41.568 90.7468 41.7707 90.4481 42.176C90.1495 42.5707 90.0001 43.2053 90.0001 44.08C90.0001 44.8587 90.1281 45.4507 90.3841 45.856C90.6401 46.2613 91.0081 46.464 91.4881 46.464ZM96.9943 40H99.0743V48H96.9943V40ZM96.6903 37.744C96.6903 37.4347 96.8023 37.1733 97.0263 36.96C97.2609 36.736 97.5809 36.624 97.9863 36.624C98.3916 36.624 98.7169 36.736 98.9623 36.96C99.2183 37.1733 99.3463 37.4347 99.3463 37.744C99.3463 38.0533 99.2183 38.3147 98.9623 38.528C98.7169 38.7307 98.3916 38.832 97.9863 38.832C97.5809 38.832 97.2609 38.7307 97.0263 38.528C96.8023 38.3147 96.6903 38.0533 96.6903 37.744ZM106.011 48V43.456C106.011 42.8053 105.915 42.336 105.723 42.048C105.542 41.76 105.227 41.616 104.779 41.616C104.384 41.616 104.048 41.7333 103.771 41.968C103.504 42.192 103.312 42.4747 103.195 42.816V48H101.115V40H102.763L103.003 41.056H103.067C103.312 40.7147 103.638 40.416 104.043 40.16C104.448 39.904 104.971 39.776 105.611 39.776C106.006 39.776 106.358 39.8293 106.667 39.936C106.976 40.0427 107.238 40.2187 107.451 40.464C107.664 40.7093 107.824 41.0453 107.931 41.472C108.038 41.888 108.091 42.4053 108.091 43.024V48H106.011Z" fill="url(#paint1_linear)"/>
<defs>
<filter id="filter0_d" x="0" y="-6" width="180" height="95" filterUnits="userSpaceOnUse" color-interpolation-filters="sRGB">
<feFlood flood-opacity="0" result="BackgroundImageFix"/>
<feColorMatrix in="SourceAlpha" type="matrix" values="0 0 0 0 0 0 0 0 0 0 0 0 0 0 0 0 0 0 127 0"/>
<feOffset/>
<feGaussianBlur stdDeviation="15"/>
<feColorMatrix type="matrix" values="0 0 0 0 0 0 0 0 0 0 0 0 0 0 0 0 0 0 0.3 0"/>
<feBlend mode="normal" in2="BackgroundImageFix" result="effect1_dropShadow"/>
<feBlend mode="normal" in="SourceGraphic" in2="effect1_dropShadow" result="shape"/>
</filter>
<linearGradient id="paint0_linear" x1="30" y1="45" x2="153.728" y2="47.7333" gradientUnits="userSpaceOnUse">
<stop stop-color="#00D46A"/>
<stop offset="1" stop-color="#1262FF"/>
</linearGradient>
<linearGradient id="paint1_linear" x1="73.736" y1="47.75" x2="119.097" y2="48.3846" gradientUnits="userSpaceOnUse">
<stop stop-color="#00D46A"/>
<stop offset="1" stop-color="#1262FF"/>
</linearGradient>
</defs>
</svg>
