
<svg width="90" height="35" viewBox="30 24 90 35" fill="none" xmlns="http://www.w3.org/2000/svg">
<g filter="url(#filter0_d)">
<path d="M30.5 30C30.5 26.9624 32.9624 24.5 36 24.5H114C117.038 24.5 119.5 26.9624 119.5 30V53C119.5 56.0376 117.038 58.5 114 58.5H36C32.9624 58.5 30.5 56.0376 30.5 53V30Z" stroke="url(#paint0_linear)"/>
</g>
<path d="M64.1261 48H57.0381V36.8H59.2301V46.048H64.1261V48ZM64.2624 44C64.2624 42.6453 64.593 41.6053 65.2544 40.88C65.9157 40.144 66.8437 39.776 68.0384 39.776C68.6784 39.776 69.233 39.8773 69.7024 40.08C70.1717 40.2827 70.561 40.5707 70.8704 40.944C71.1797 41.3067 71.409 41.7493 71.5584 42.272C71.7184 42.7947 71.7984 43.3707 71.7984 44C71.7984 45.3547 71.4677 46.4 70.8064 47.136C70.1557 47.8613 69.233 48.224 68.0384 48.224C67.3984 48.224 66.8437 48.1227 66.3744 47.92C65.905 47.7173 65.5104 47.4347 65.1904 47.072C64.881 46.6987 64.6464 46.2507 64.4864 45.728C64.337 45.2053 64.2624 44.6293 64.2624 44ZM66.4064 44C66.4064 44.352 66.4384 44.6773 66.5024 44.976C66.5664 45.2747 66.6624 45.536 66.7904 45.76C66.9184 45.984 67.0837 46.16 67.2864 46.288C67.4997 46.4053 67.7504 46.464 68.0384 46.464C68.5824 46.464 68.9877 46.2667 69.2544 45.872C69.521 45.4773 69.6544 44.8533 69.6544 44C69.6544 43.264 69.5317 42.672 69.2864 42.224C69.041 41.7653 68.625 41.536 68.0384 41.536C67.5264 41.536 67.1264 41.728 66.8384 42.112C66.5504 42.496 66.4064 43.1253 66.4064 44ZM80.0081 48C80.0081 49.1627 79.6935 50.016 79.0641 50.56C78.4348 51.1147 77.5548 51.392 76.4241 51.392C75.6561 51.392 75.0481 51.3387 74.6001 51.232C74.1628 51.1253 73.8321 51.0133 73.6081 50.896L74.0401 49.248C74.2855 49.344 74.5681 49.44 74.8881 49.536C75.2188 49.632 75.6241 49.68 76.1041 49.68C76.8295 49.68 77.3201 49.52 77.5761 49.2C77.8428 48.8907 77.9761 48.4533 77.9761 47.888V47.376H77.9121C77.5388 47.8773 76.8775 48.128 75.9281 48.128C74.8935 48.128 74.1201 47.808 73.6081 47.168C73.1068 46.528 72.8561 45.5253 72.8561 44.16C72.8561 42.7307 73.1975 41.648 73.8801 40.912C74.5628 40.176 75.5548 39.808 76.8561 39.808C77.5388 39.808 78.1468 39.856 78.6801 39.952C79.2241 40.048 79.6668 40.16 80.0081 40.288V48ZM76.4881 46.464C76.8935 46.464 77.2028 46.3733 77.4161 46.192C77.6401 46.0107 77.8108 45.7387 77.9281 45.376V41.776C77.5975 41.6373 77.1868 41.568 76.6961 41.568C76.1628 41.568 75.7468 41.7707 75.4481 42.176C75.1495 42.5707 75.0001 43.2053 75.0001 44.08C75.0001 44.8587 75.1281 45.4507 75.3841 45.856C75.6401 46.2613 76.0081 46.464 76.4881 46.464ZM81.9943 40H84.0743V48H81.9943V40ZM81.6903 37.744C81.6903 37.4347 81.8023 37.1733 82.0263 36.96C82.2609 36.736 82.5809 36.624 82.9863 36.624C83.3916 36.624 83.7169 36.736 83.9623 36.96C84.2183 37.1733 84.3463 37.4347 84.3463 37.744C84.3463 38.0533 84.2183 38.3147 83.9623 38.528C83.7169 38.7307 83.3916 38.832 82.9863 38.832C82.5809 38.832 82.2609 38.7307 82.0263 38.528C81.8023 38.3147 81.6903 38.0533 81.6903 37.744ZM91.0111 48V43.456C91.0111 42.8053 90.9151 42.336 90.7231 42.048C90.5418 41.76 90.2271 41.616 89.7791 41.616C89.3845 41.616 89.0485 41.7333 88.7711 41.968C88.5045 42.192 88.3125 42.4747 88.1951 42.816V48H86.1151V40H87.7631L88.0031 41.056H88.0671C88.3125 40.7147 88.6378 40.416 89.0431 40.16C89.4485 39.904 89.9711 39.776 90.6111 39.776C91.0058 39.776 91.3578 39.8293 91.6671 39.936C91.9765 40.0427 92.2378 40.2187 92.4511 40.464C92.6645 40.7093 92.8245 41.0453 92.9311 41.472C93.0378 41.888 93.0911 42.4053 93.0911 43.024V48H91.0111Z" fill="url(#paint1_linear)"/>
<defs>
<filter id="filter0_d" x="0" y="-6" width="150" height="95" filterUnits="userSpaceOnUse" color-interpolation-filters="sRGB">
<feFlood flood-opacity="0" result="BackgroundImageFix"/>
<feColorMatrix in="SourceAlpha" type="matrix" values="0 0 0 0 0 0 0 0 0 0 0 0 0 0 0 0 0 0 127 0"/>
<feOffset/>
<feGaussianBlur stdDeviation="15"/>
<feColorMatrix type="matrix" values="0 0 0 0 0 0 0 0 0 0 0 0 0 0 0 0 0 0 0.3 0"/>
<feBlend mode="normal" in2="BackgroundImageFix" result="effect1_dropShadow"/>
<feBlend mode="normal" in="SourceGraphic" in2="effect1_dropShadow" result="shape"/>
</filter>
<linearGradient id="paint0_linear" x1="30" y1="45" x2="122.816" y2="46.5378" gradientUnits="userSpaceOnUse">
<stop stop-color="#00D46A"/>
<stop offset="1" stop-color="#1262FF"/>
</linearGradient>
<linearGradient id="paint1_linear" x1="58.736" y1="47.75" x2="104.097" y2="48.3846" gradientUnits="userSpaceOnUse">
<stop stop-color="#00D46A"/>
<stop offset="1" stop-color="#1262FF"/>
</linearGradient>
</defs>
</svg>