<svg width="60" height="60" viewBox="0 0 60 60" fill="none" xmlns="http://www.w3.org/2000/svg">
<g clip-path="url(#clip0)">
<path d="M46.2498 49.9993C46.0973 49.9993 45.9473 49.9718 45.7998 49.9168L13.2998 37.4168C12.8173 37.2318 12.4998 36.7668 12.4998 36.2493V21.2493C12.4998 20.7318 12.8173 20.2668 13.2998 20.0818L45.7998 7.58176C46.1873 7.43176 46.6148 7.48676 46.9573 7.71926C47.2973 7.95176 47.4998 8.33676 47.4998 8.74926V48.7493C47.4998 49.1618 47.2973 49.5468 46.9573 49.7793C46.7448 49.9243 46.4998 49.9993 46.2498 49.9993ZM14.9998 35.3893L44.9998 46.9293V10.5693L14.9998 22.1093V35.3893Z" fill="white"/>
<path d="M13.75 37.499H5C2.2425 37.499 0 35.2565 0 32.499V24.999C0 22.2415 2.2425 19.999 5 19.999H13.75C14.44 19.999 15 20.559 15 21.249V36.249C15 36.939 14.44 37.499 13.75 37.499ZM5 22.499C3.62 22.499 2.5 23.619 2.5 24.999V32.499C2.5 33.879 3.62 34.999 5 34.999H12.5V22.499H5Z" fill="white"/>
<path d="M18.7502 54.9995H11.2502C10.6277 54.9995 10.1002 54.542 10.0127 53.9245L7.51269 36.4245C7.41519 35.742 7.89019 35.1095 8.57519 35.012C9.24519 34.927 9.89019 35.3895 9.98769 36.0745L12.3352 52.4995H17.3502L15.6802 37.6145C15.6052 36.9295 16.0977 36.312 16.7827 36.232C17.4452 36.1595 18.0852 36.6495 18.1652 37.3345L19.9902 53.6095C20.0302 53.9645 19.9177 54.317 19.6802 54.582C19.4452 54.847 19.1077 54.9995 18.7502 54.9995Z" fill="white"/>
<path d="M51.25 22.5003C50.8475 22.5003 50.4525 22.3053 50.21 21.9428C49.8275 21.3703 49.9825 20.5928 50.5575 20.2103L58.0575 15.2103C58.6275 14.8303 59.405 14.9803 59.79 15.5578C60.1725 16.1303 60.0175 16.9078 59.4425 17.2903L51.9425 22.2903C51.73 22.4328 51.49 22.5003 51.25 22.5003Z" fill="white"/>
<path d="M58.7503 44.9987C58.5103 44.9987 58.2703 44.9312 58.0578 44.7887L50.5578 39.7887C49.9853 39.4062 49.8278 38.6287 50.2103 38.0562C50.5953 37.4812 51.3754 37.3287 51.9429 37.7087L59.4429 42.7087C60.0153 43.0912 60.1728 43.8687 59.7903 44.4412C59.5478 44.8037 59.1528 44.9987 58.7503 44.9987Z" fill="white"/>
<path d="M58.75 31.251H51.25C50.56 31.251 50 30.691 50 30.001C50 29.311 50.56 28.751 51.25 28.751H58.75C59.44 28.751 60 29.311 60 30.001C60 30.691 59.44 31.251 58.75 31.251Z" fill="white"/>
</g>
<defs>
<clipPath id="clip0">
<rect width="60" height="60" fill="white"/>
</clipPath>
</defs>
</svg>
