<svg width="110" height="235" viewBox="0 0 110 235" fill="none" xmlns="http://www.w3.org/2000/svg">
<path opacity="0.5" d="M52.7421 65.4904C55.0954 59.1846 56.272 56.0317 58.2424 53.5514C59.9858 51.3569 62.1711 49.5533 64.6564 48.2576C67.4652 46.7932 70.784 46.2357 77.4216 45.1208L129.908 36.3045C136.545 35.1896 139.864 34.6321 142.997 35.0984C145.769 35.511 148.424 36.5017 150.789 38.0061C153.461 39.7065 155.604 42.3019 159.888 47.4928L193.766 88.5388C198.05 93.7297 200.193 96.3251 201.355 99.2717C202.384 101.879 202.853 104.673 202.733 107.473C202.597 110.638 201.42 113.791 199.067 120.097L180.459 169.959C178.106 176.265 176.929 179.418 174.959 181.898C173.215 184.093 171.03 185.896 168.545 187.192C165.736 188.656 162.417 189.214 155.779 190.329L103.294 199.145C96.6559 200.26 93.3371 200.817 90.2039 200.351C87.4317 199.938 84.7771 198.948 82.4123 197.443C79.7397 195.743 77.5975 193.147 73.3131 187.957L39.4351 146.911C35.1507 141.72 33.0086 139.124 31.8458 136.178C30.817 133.571 30.3476 130.776 30.4681 127.976C30.6044 124.811 31.781 121.658 34.1342 115.353L52.7421 65.4904Z" fill="url(#paint0_linear)"/>
<defs>
<linearGradient id="paint0_linear" x1="52.4761" y1="67.3467" x2="30.5622" y2="207.586" gradientUnits="userSpaceOnUse">
<stop stop-color="#00D46A"/>
<stop offset="1" stop-color="#1262FF"/>
</linearGradient>
</defs>
</svg>
