<svg width="1440" height="82" viewBox="0 0 1440 82" fill="none" xmlns="http://www.w3.org/2000/svg">
<g opacity="0.6">
<path opacity="0.73" d="M1440 81.9997V-358.745C951.88 -333.419 578.559 -194.206 578.559 -26.243C578.559 11.6244 597.55 48.0285 632.538 81.9997H1440Z" fill="url(#paint0_radial)"/>
<path opacity="0.3" d="M447.748 -423.123H0.233398V82.0001H500.952C732.453 25.2343 881.707 -64.0542 881.707 -164.488C881.707 -272.414 709.334 -367.474 447.748 -423.123Z" fill="url(#paint1_radial)"/>
<path opacity="0.2" d="M1149.22 82C1142.18 -55.872 870.06 -166.743 535.379 -166.743C378.738 -166.743 235.819 -142.446 127.345 -102.468V82H1149.22Z" fill="url(#paint2_radial)"/>
<path opacity="0.2" d="M1440 81.9983V-328.471C1373.5 -344.815 1302.31 -353.683 1228.29 -353.683C884.638 -353.683 601.895 -162.806 567.149 81.9983H1440Z" fill="url(#paint3_radial)"/>
</g>
<defs>
<radialGradient id="paint0_radial" cx="0" cy="0" r="1" gradientUnits="userSpaceOnUse" gradientTransform="translate(1600.13 -26.2405) scale(1021.49 336.638)">
<stop stop-color="#006286"/>
<stop offset="1"/>
</radialGradient>
<radialGradient id="paint1_radial" cx="0" cy="0" r="1" gradientUnits="userSpaceOnUse" gradientTransform="translate(-90.4338 -164.485) scale(971.754 310.449)">
<stop stop-color="#05AFFD"/>
<stop offset="1" stop-color="#00101E"/>
</radialGradient>
<radialGradient id="paint2_radial" cx="0" cy="0" r="1" gradientUnits="userSpaceOnUse" gradientTransform="translate(535.371 87.48) scale(613.995 254.216)">
<stop stop-color="#4E80CA"/>
<stop offset="1" stop-color="#01080B"/>
</radialGradient>
<radialGradient id="paint3_radial" cx="0" cy="0" r="1" gradientUnits="userSpaceOnUse" gradientTransform="translate(1228.29 132.868) scale(664.735 486.547)">
<stop stop-color="#45FCCA"/>
<stop offset="1" stop-color="#002023"/>
</radialGradient>
</defs>
</svg>
