<svg width="65" height="152" viewBox="0 0 65 152" fill="none" xmlns="http://www.w3.org/2000/svg">
<path opacity="0.8" d="M-67.1386 106.953C-70.7319 103.906 -72.5286 102.382 -73.6939 100.496C-74.7249 98.8266 -75.3935 96.9593 -75.6565 95.015C-75.9537 92.8177 -75.5326 90.4999 -74.6903 85.8644L-67.5035 46.3091C-66.6613 41.6736 -66.2402 39.3558 -65.189 37.4034C-64.2589 35.6759 -62.9762 34.1632 -61.4239 32.9634C-59.6695 31.6073 -57.4517 30.8131 -53.0161 29.2248L-15.1668 15.6711C-10.7312 14.0827 -8.5134 13.2885 -6.297 13.2227C-4.33592 13.1644 -2.38449 13.5189 -0.569239 14.2633C1.48234 15.1046 3.27902 16.6282 6.87239 19.6754L37.5349 45.677C41.1282 48.7241 42.9249 50.2477 44.0902 52.1342C45.1212 53.8035 45.7898 55.6707 46.0528 57.615C46.35 59.8123 45.9288 62.1301 45.0866 66.7656L37.8998 106.321C37.0576 110.956 36.6365 113.274 35.5853 115.227C34.6552 116.954 33.3725 118.467 31.8202 119.667C30.0658 121.023 27.848 121.817 23.4124 123.405L-14.4369 136.959C-18.8725 138.547 -21.0903 139.341 -23.3067 139.407C-25.2678 139.466 -27.2192 139.111 -29.0345 138.367C-31.086 137.525 -32.8827 136.002 -36.4761 132.955L-67.1386 106.953Z" fill="url(#paint0_linear)"/>
<defs>
<linearGradient id="paint0_linear" x1="-65.4646" y1="107.988" x2="25.7458" y2="157.954" gradientUnits="userSpaceOnUse">
<stop stop-color="#00D46A"/>
<stop offset="1" stop-color="#1262FF"/>
</linearGradient>
</defs>
</svg>
