<svg width="70" height="70" viewBox="0 0 70 70" fill="none" xmlns="http://www.w3.org/2000/svg">
<g clip-path="url(#clip0)">
<path d="M34.9993 43.7497C34.1943 43.7497 33.541 43.0963 33.541 42.2913V40.1009C33.541 39.2959 34.1943 38.6426 34.9993 38.6426C35.8043 38.6426 36.4577 39.2959 36.4577 40.1009V42.2913C36.4577 43.0963 35.8043 43.7497 34.9993 43.7497Z" fill="url(#paint0_linear)"/>
<path d="M35.7285 40.834H30.6243C29.8193 40.834 29.166 40.1807 29.166 39.3757C29.166 38.5707 29.8193 37.9173 30.6243 37.9173H35.7285C36.936 37.9173 37.916 36.9344 37.916 35.7298C37.916 34.5252 36.936 33.5423 35.7285 33.5423H34.2702C31.4556 33.5423 29.166 31.2527 29.166 28.4382C29.166 25.6236 31.4556 23.334 34.2702 23.334H39.3743C40.1793 23.334 40.8327 23.9873 40.8327 24.7923C40.8327 25.5973 40.1793 26.2507 39.3743 26.2507H34.2702C33.0627 26.2507 32.0827 27.2336 32.0827 28.4382C32.0827 29.6427 33.0627 30.6257 34.2702 30.6257H35.7285C38.5431 30.6257 40.8327 32.9152 40.8327 35.7298C40.8327 38.5444 38.5431 40.834 35.7285 40.834Z" fill="url(#paint1_linear)"/>
<path d="M34.9993 25.5231C34.1943 25.5231 33.541 24.8698 33.541 24.0648V21.8743C33.541 21.0693 34.1943 20.416 34.9993 20.416C35.8043 20.416 36.4577 21.0693 36.4577 21.8743V24.0648C36.4577 24.8698 35.8043 25.5231 34.9993 25.5231Z" fill="url(#paint2_linear)"/>
<path d="M35 49.584C25.3488 49.584 17.5 41.7352 17.5 32.084C17.5 22.4327 25.3488 14.584 35 14.584C44.6513 14.584 52.5 22.4327 52.5 32.084C52.5 41.7352 44.6513 49.584 35 49.584ZM35 17.5007C26.9588 17.5007 20.4167 24.0427 20.4167 32.084C20.4167 40.1252 26.9588 46.6673 35 46.6673C43.0413 46.6673 49.5833 40.1252 49.5833 32.084C49.5833 24.0427 43.0413 17.5007 35 17.5007Z" fill="url(#paint3_linear)"/>
<path d="M34.9993 64.1667C34.1943 64.1667 33.541 63.5133 33.541 62.7083C33.541 61.9033 34.1943 61.25 34.9993 61.25C51.0819 61.25 64.166 48.1658 64.166 32.0833C64.166 31.2783 64.8194 30.625 65.6244 30.625C66.4294 30.625 67.0827 31.2783 67.0827 32.0833C67.0827 49.7729 52.6889 64.1667 34.9993 64.1667Z" fill="url(#paint4_linear)"/>
<path d="M63.9052 23.4792C63.3014 23.4792 62.7356 23.1 62.5256 22.4992C58.4714 10.7858 47.4085 2.91667 35.001 2.91667C28.3626 2.91667 22.1443 5.09542 17.0139 9.21375C16.3868 9.71542 15.4681 9.61917 14.9635 8.99208C14.4589 8.36208 14.561 7.44625 15.1881 6.94167C20.8406 2.40042 27.6918 0 35.001 0C48.651 0 60.8222 8.65958 65.2847 21.5425C65.5472 22.3067 65.1447 23.135 64.3835 23.4004C64.226 23.4529 64.0627 23.4792 63.9052 23.4792Z" fill="url(#paint5_linear)"/>
<path d="M24.791 62.3862C24.6306 62.3862 24.4673 62.36 24.3068 62.3046C11.5143 57.8187 2.91602 45.6737 2.91602 32.0821C2.91602 25.6071 4.84102 19.3917 8.48101 14.1067C8.93601 13.4387 9.8431 13.2783 10.5081 13.7304C11.1731 14.1883 11.3393 15.0954 10.8814 15.7575C7.57976 20.5583 5.83268 26.2021 5.83268 32.0821C5.83268 44.4371 13.6464 55.4767 25.2752 59.5512C26.0335 59.8167 26.4331 60.6479 26.1677 61.4092C25.9577 62.01 25.3948 62.3862 24.791 62.3862Z" fill="url(#paint6_linear)"/>
<path d="M39.3744 69.9991C39.0011 69.9991 38.6278 69.8562 38.3419 69.5733L32.5086 63.7399C31.9398 63.1712 31.9398 62.2466 32.5086 61.6779L38.3419 55.8445C38.9107 55.2758 39.8353 55.2758 40.404 55.8445C40.9728 56.4133 40.9728 57.3379 40.404 57.9066L35.6032 62.7074L40.404 67.5083C40.9728 68.077 40.9728 69.0016 40.404 69.5704C40.1211 69.8562 39.7478 69.9991 39.3744 69.9991Z" fill="url(#paint7_linear)"/>
<path d="M12.1741 23.333C11.5295 23.333 10.9404 22.9042 10.7654 22.2538L8.87829 15.2101L1.83454 17.0971C1.05871 17.2926 0.256628 16.8434 0.0495441 16.0646C-0.157539 15.2859 0.303294 14.4896 1.08204 14.2796L9.53454 12.0163C10.3133 11.8209 11.1125 12.2701 11.3195 13.0459L13.5829 21.4955C13.7929 22.2771 13.3291 23.0734 12.5533 23.2834C12.425 23.3155 12.2995 23.333 12.1741 23.333Z" fill="url(#paint8_linear)"/>
<path d="M64.1667 25.0775C63.9188 25.0775 63.668 25.0163 63.4376 24.8821L55.8601 20.5071C55.163 20.1046 54.9238 19.215 55.3263 18.515C55.7288 17.8179 56.6184 17.5759 57.3184 17.9813L63.633 21.6271L67.2788 15.3125C67.6813 14.6154 68.5738 14.3734 69.2709 14.7788C69.968 15.1813 70.2071 16.0709 69.8046 16.7709L65.4296 24.3484C65.1584 24.815 64.6684 25.0775 64.1667 25.0775Z" fill="url(#paint9_linear)"/>
</g>
<defs>
<linearGradient id="paint0_linear" x1="34.9993" y1="38.6426" x2="34.9993" y2="43.7497" gradientUnits="userSpaceOnUse">
<stop stop-color="#00D46A"/>
<stop offset="1" stop-color="#1262FF"/>
</linearGradient>
<linearGradient id="paint1_linear" x1="34.9993" y1="23.334" x2="34.9993" y2="40.834" gradientUnits="userSpaceOnUse">
<stop stop-color="#00D46A"/>
<stop offset="1" stop-color="#1262FF"/>
</linearGradient>
<linearGradient id="paint2_linear" x1="34.9993" y1="20.416" x2="34.9993" y2="25.5231" gradientUnits="userSpaceOnUse">
<stop stop-color="#00D46A"/>
<stop offset="1" stop-color="#1262FF"/>
</linearGradient>
<linearGradient id="paint3_linear" x1="35" y1="14.584" x2="35" y2="49.584" gradientUnits="userSpaceOnUse">
<stop stop-color="#00D46A"/>
<stop offset="1" stop-color="#1262FF"/>
</linearGradient>
<linearGradient id="paint4_linear" x1="50.3119" y1="30.625" x2="50.3119" y2="64.1667" gradientUnits="userSpaceOnUse">
<stop stop-color="#00D46A"/>
<stop offset="1" stop-color="#1262FF"/>
</linearGradient>
<linearGradient id="paint5_linear" x1="40.0038" y1="0" x2="40.0038" y2="23.4792" gradientUnits="userSpaceOnUse">
<stop stop-color="#00D46A"/>
<stop offset="1" stop-color="#1262FF"/>
</linearGradient>
<linearGradient id="paint6_linear" x1="14.5829" y1="13.4746" x2="14.5829" y2="62.3862" gradientUnits="userSpaceOnUse">
<stop stop-color="#00D46A"/>
<stop offset="1" stop-color="#1262FF"/>
</linearGradient>
<linearGradient id="paint7_linear" x1="36.4563" y1="55.418" x2="36.4563" y2="69.9991" gradientUnits="userSpaceOnUse">
<stop stop-color="#00D46A"/>
<stop offset="1" stop-color="#1262FF"/>
</linearGradient>
<linearGradient id="paint8_linear" x1="6.81672" y1="11.9707" x2="6.81672" y2="23.333" gradientUnits="userSpaceOnUse">
<stop stop-color="#00D46A"/>
<stop offset="1" stop-color="#1262FF"/>
</linearGradient>
<linearGradient id="paint9_linear" x1="62.5655" y1="14.582" x2="62.5655" y2="25.0775" gradientUnits="userSpaceOnUse">
<stop stop-color="#00D46A"/>
<stop offset="1" stop-color="#1262FF"/>
</linearGradient>
<clipPath id="clip0">
<rect width="70" height="70" fill="white"/>
</clipPath>
</defs>
</svg>
