<svg width="55" height="175" viewBox="0 0 55 175" fill="none" xmlns="http://www.w3.org/2000/svg">
<path opacity="0.8" d="M-115.848 113.621C-119.966 108.297 -122.025 105.635 -123.095 102.654C-124.041 100.015 -124.422 97.2076 -124.213 94.4126C-123.977 91.2537 -122.701 88.1395 -120.15 81.9111L-100.758 34.5645C-98.2067 28.3361 -96.9312 25.2219 -94.8835 22.805C-93.0717 20.6666 -90.8306 18.9328 -88.3057 17.7162C-85.452 16.3412 -82.1172 15.8887 -75.4477 14.9838L-24.7482 8.10477C-18.0787 7.19984 -14.744 6.74738 -11.6271 7.31231C-8.86923 7.81216 -6.24724 8.88609 -3.93113 10.4644C-1.31347 12.2483 0.745759 14.91 4.86419 20.2335L36.1713 60.7011C40.2898 66.0246 42.349 68.6863 43.4182 71.6681C44.3642 74.3064 44.7452 77.1141 44.5363 79.9091C44.3003 83.0679 43.0248 86.1822 40.4737 92.4106L21.0814 139.757C18.5303 145.986 17.2548 149.1 15.2071 151.517C13.3953 153.655 11.1542 155.389 8.62929 156.605C5.77559 157.98 2.44085 158.433 -4.22863 159.338L-54.9282 166.217C-61.5976 167.122 -64.9324 167.574 -68.0493 167.009C-70.8071 166.509 -73.4291 165.436 -75.7453 163.857C-78.3629 162.073 -80.4221 159.412 -84.5406 154.088L-115.848 113.621Z" fill="url(#paint0_linear)"/>
<defs>
<linearGradient id="paint0_linear" x1="-114.701" y1="114.464" x2="-9.52905" y2="204.893" gradientUnits="userSpaceOnUse">
<stop stop-color="#00D46A"/>
<stop offset="1" stop-color="#1262FF"/>
</linearGradient>
</defs>
</svg>
