<svg width="96" height="199" viewBox="0 0 96 199" fill="none" xmlns="http://www.w3.org/2000/svg">
<path opacity="0.8" d="M-99.5111 127.446C-103.63 122.123 -105.689 119.461 -106.758 116.479C-107.704 113.841 -108.085 111.034 -107.876 108.239C-107.64 105.08 -106.365 101.965 -103.814 95.737L-79.9163 37.3918C-77.3652 31.1633 -76.0897 28.0491 -74.042 25.6323C-72.2302 23.4938 -69.9892 21.7601 -67.4642 20.5435C-64.6105 19.1684 -61.2758 18.716 -54.6063 17.811L7.87082 9.33403C14.5403 8.42911 17.875 7.97664 20.9919 8.54157C23.7498 9.04142 26.3718 10.1153 28.6879 11.6937C31.3055 13.4776 33.3648 16.1393 37.4832 21.4628L76.0631 71.331C80.1815 76.6545 82.2407 79.3163 83.3099 82.298C84.256 84.9363 84.6369 87.744 84.4281 90.539C84.192 93.6979 82.9165 96.8121 80.3655 103.04L56.4682 161.386C53.9171 167.614 52.6416 170.728 50.5939 173.145C48.7821 175.284 46.5411 177.017 44.0161 178.234C41.1624 179.609 37.8277 180.062 31.1582 180.966L-31.3189 189.443C-37.9884 190.348 -41.3231 190.801 -44.44 190.236C-47.1979 189.736 -49.8199 188.662 -52.136 187.084C-54.7536 185.3 -56.8129 182.638 -60.9313 177.315L-99.5111 127.446Z" fill="url(#paint0_linear)"/>
<defs>
<linearGradient id="paint0_linear" x1="-96.685" y1="130.375" x2="22.6734" y2="233.002" gradientUnits="userSpaceOnUse">
<stop stop-color="#00D46A"/>
<stop offset="1" stop-color="#1262FF"/>
</linearGradient>
</defs>
</svg>

