<svg width="123" height="258" viewBox="0 0 123 258" fill="none" xmlns="http://www.w3.org/2000/svg">
<path opacity="0.5" d="M-78.5659 77.6915C-75.036 68.2328 -73.2711 63.5034 -70.3155 59.783C-67.7003 56.4912 -64.4225 53.7858 -60.6945 51.8422C-56.4812 49.6456 -51.503 48.8094 -41.5466 47.137L2.41194 39.7532C12.3683 38.0808 17.3465 37.2446 22.0463 37.944C26.2047 38.5629 30.1866 40.0488 33.7337 42.3056C37.7427 44.8561 40.9559 48.7493 47.3825 56.5356L75.7564 90.9129C82.1829 98.6991 85.3962 102.592 87.1403 107.012C88.6836 110.923 89.3876 115.114 89.2068 119.314C89.0025 124.062 87.2375 128.791 83.7077 138.25L68.123 180.011C64.5931 189.47 62.8282 194.199 59.8726 197.919C57.2575 201.211 53.9796 203.917 50.2517 205.86C46.0384 208.057 41.0602 208.893 31.1037 210.565L-12.8548 217.949C-22.8112 219.622 -27.7894 220.458 -32.4892 219.758C-36.6476 219.139 -40.6294 217.653 -44.1766 215.397C-48.1855 212.846 -51.3988 208.953 -57.8254 201.167L-86.1992 166.789C-92.6258 159.003 -95.8391 155.11 -97.5832 150.69C-99.1264 146.779 -99.8305 142.588 -99.6497 138.388C-99.4453 133.641 -97.6804 128.911 -94.1505 119.453L-78.5659 77.6915Z" fill="url(#paint0_linear)"/>
<defs>
<linearGradient id="paint0_linear" x1="-76.3352" y1="72.9821" x2="-100.638" y2="228.507" gradientUnits="userSpaceOnUse">
<stop stop-color="#00D46A"/>
<stop offset="1" stop-color="#1262FF"/>
</linearGradient>
</defs>
</svg>
