<svg width="24" height="18" viewBox="0 0 24 18" fill="none" xmlns="http://www.w3.org/2000/svg">
<path d="M23.25 2.72316H22.0085C21.6852 2.72316 20.8393 3.07434 20.8393 3.37329V14.2298C20.8393 14.5295 21.6852 14.7752 22.0085 14.7752H23.25V17.1855H15.2142V14.7752H16.8218V3.52623H16.542L12.6738 17.1855H9.67885L5.86065 3.52623H5.57146V14.7751H7.17831V17.1855H0.75V14.7751H1.64156C1.99158 14.7751 2.35689 14.5295 2.35689 14.2297V3.37329C2.35689 3.07429 1.99162 2.72316 1.64156 2.72316H0.75V0.3125H9.0809L11.801 9.95412H11.8742L14.6212 0.3125H23.25V2.72316Z" fill="#00AB6C"/>
</svg>
