<svg width="70" height="70" viewBox="0 0 70 70" fill="none" xmlns="http://www.w3.org/2000/svg">
<g clip-path="url(#clip0)">
<path d="M59.4773 23.3906C59.4765 23.3906 59.4756 23.3906 59.4749 23.3906H1.00222C0.449363 23.39 0.000585299 23.8376 5.72235e-07 24.3905C5.72235e-07 24.3912 5.72235e-07 24.3921 5.72235e-07 24.3928V52.4597C-0.000584155 53.0126 0.447024 53.4614 0.999884 53.462C1.00061 53.462 1.00149 53.462 1.00222 53.462H40.7637C41.3171 53.462 41.7659 53.0132 41.7659 52.4597C41.7659 51.9063 41.3171 51.4575 40.7637 51.4575H2.00444V25.3951H58.4727V27.9012C58.4721 28.4541 58.9197 28.9028 59.4726 28.9034C59.4733 28.9034 59.4742 28.9034 59.4749 28.9034C60.0278 28.904 60.4766 28.4564 60.4771 27.9035C60.4771 27.9028 60.4771 27.9019 60.4771 27.9012V24.3928C60.4777 23.84 60.0301 23.3914 59.4773 23.3906Z" fill="url(#paint0_linear)"/>
<path d="M52.6777 18.7407L5.89959 8.21566C5.63997 8.15762 5.36793 8.2047 5.14295 8.34664C4.91827 8.48975 4.75937 8.71589 4.7009 8.9758L2.36199 19.5009C2.24183 20.0415 2.58273 20.5771 3.12331 20.6972C3.66389 20.8174 4.1995 20.4765 4.31966 19.9359L6.43988 10.392L52.238 20.6961C52.3105 20.7129 52.3846 20.7212 52.459 20.7206C53.0125 20.7196 53.4604 20.2701 53.4595 19.7167C53.4586 19.2487 53.1341 18.8438 52.6777 18.7407Z" fill="url(#paint1_linear)"/>
<path d="M46.998 12.9391L18.9311 1.24461C18.4433 1.04127 17.8812 1.25016 17.6447 1.72291L15.3058 6.40073C15.0416 6.88927 15.2235 7.49958 15.7122 7.76373C16.2007 8.02788 16.811 7.84603 17.0752 7.35734C17.0856 7.33819 17.0954 7.3186 17.1044 7.29872V7.30106L19.0235 3.46057L46.2238 14.7937C46.736 15.0075 47.3246 14.7657 47.5383 14.2535C47.752 13.7415 47.5102 13.153 46.998 12.9391Z" fill="url(#paint2_linear)"/>
<path d="M47.707 28.0703H38.4251C37.8716 28.0703 37.4229 28.5191 37.4229 29.0725C37.4229 29.626 37.8716 30.0748 38.4251 30.0748H47.707C48.2605 30.0748 48.7093 29.626 48.7093 29.0725C48.7093 28.5191 48.2605 28.0703 47.707 28.0703Z" fill="url(#paint3_linear)"/>
<path d="M29.069 28.1377C23.3853 28.1377 18.7778 32.7452 18.7778 38.4289C18.7837 44.1101 23.3878 48.7142 29.069 48.7201C34.7527 48.7201 39.3602 44.1126 39.3602 38.4289C39.3602 32.7452 34.7527 28.1377 29.069 28.1377ZM29.069 46.849C24.4187 46.849 20.649 43.0792 20.649 38.4289C20.6541 33.7807 24.4209 30.0139 29.069 30.0088C33.7194 30.0088 37.4891 33.7786 37.4891 38.4289C37.4891 43.0792 33.7194 46.849 29.069 46.849Z" fill="url(#paint4_linear)"/>
<path d="M57.1362 31.4092C50.9381 31.4092 44.2722 32.8733 44.2722 36.087V64.1539C44.2722 67.3675 50.9381 68.8317 57.1362 68.8317C63.3343 68.8317 70.0002 67.3675 70.0002 64.1539V36.087C70.0002 32.8733 63.3343 31.4092 57.1362 31.4092ZM67.6613 64.1363C67.4847 64.7854 63.9775 66.4928 57.1362 66.4928C50.2949 66.4928 46.7877 64.7854 46.6111 64.1539V62.3155C49.0997 63.5692 53.2104 64.1539 57.1362 64.1539C61.0621 64.1539 65.1739 63.5633 67.6613 62.3143V64.1363ZM67.6613 59.4585C67.4847 60.1076 63.9775 61.815 57.1362 61.815C50.2949 61.815 46.7877 60.1076 46.6111 59.4761V57.6377C49.0997 58.8913 53.2104 59.4761 57.1362 59.4761C61.0621 59.4761 65.1739 58.8855 67.6613 57.6365V59.4585ZM67.6613 54.7807C67.4847 55.4298 63.9775 57.1372 57.1362 57.1372C50.2949 57.1372 46.7877 55.4298 46.6111 54.7983V52.9599C49.0997 54.2135 53.2104 54.7983 57.1362 54.7983C61.0621 54.7983 65.1739 54.2077 67.6613 52.9587V54.7807ZM67.6613 50.1029C67.4847 50.7519 63.9775 52.4593 57.1362 52.4593C50.2949 52.4593 46.7877 50.7519 46.6111 50.1204V48.2821C49.0997 49.5357 53.2104 50.1204 57.1362 50.1204C61.0621 50.1204 65.1739 49.5299 67.6613 48.2809V50.1029ZM67.6613 45.4251C67.4847 46.0741 63.9775 47.7815 57.1362 47.7815C50.2949 47.7815 46.7877 46.0741 46.6111 45.4426V43.6042C49.0997 44.8521 53.2104 45.4426 57.1362 45.4426C61.0621 45.4426 65.1739 44.8521 67.6613 43.6031V45.4251ZM67.6613 40.7473C67.4847 41.3963 63.9775 43.1037 57.1362 43.1037C50.2949 43.1037 46.7877 41.3963 46.6111 40.7648V38.9264C49.0997 40.1742 53.2104 40.7648 57.1362 40.7648C61.0621 40.7648 65.1739 40.1742 67.6613 38.9253V40.7473ZM57.1362 38.4259C50.3054 38.4259 46.7994 36.7232 46.6111 36.108V36.101C46.7994 35.4496 50.3054 33.7481 57.1362 33.7481C63.919 33.7481 67.4274 35.4251 67.6613 36.087C67.4274 36.7489 63.919 38.4259 57.1362 38.4259Z" fill="url(#paint5_linear)"/>
<path d="M19.7136 46.7804H10.8737L6.68237 42.1961V34.5947L11.3111 30.0748H19.7136C20.267 30.0748 20.7158 29.626 20.7158 29.0725C20.7158 28.5191 20.267 28.0703 19.7136 28.0703H10.9041C10.6421 28.0697 10.3903 28.1718 10.2024 28.3545L4.97848 33.4498C4.78333 33.6778 4.67632 33.9683 4.67676 34.2684V42.5856C4.67676 42.8357 4.77017 43.0767 4.93872 43.2615L9.69021 48.4586C9.8801 48.6664 10.1488 48.785 10.4305 48.7849H19.7136C20.267 48.7849 20.7158 48.3361 20.7158 47.7826C20.7158 47.2292 20.2672 46.7804 19.7136 46.7804Z" fill="url(#paint6_linear)"/>
<path d="M29.6534 37.2572H28.4839C28.1202 37.2572 27.8992 37.0537 27.8992 36.9648C27.8992 36.8759 28.1202 36.6724 28.4839 36.6724H31.4076C32.0534 36.6724 32.577 36.1488 32.577 35.503C32.577 34.8571 32.0534 34.3335 31.4076 34.3335H30.2381C30.2381 33.6877 29.7145 33.1641 29.0687 33.1641C28.4228 33.1641 27.8992 33.6877 27.8992 34.3335V34.3861C26.6021 34.5693 25.6195 35.6503 25.5603 36.9589C25.6441 38.4922 26.9501 39.6703 28.4839 39.5961H29.6534C30.0171 39.5961 30.2381 39.7995 30.2381 39.8884C30.2381 39.9773 30.0171 40.1808 29.6534 40.1808H26.7298C26.0839 40.1808 25.5603 40.7044 25.5603 41.3502C25.5603 41.9961 26.0839 42.5197 26.7298 42.5197H27.8992C27.8992 43.1655 28.4228 43.6891 29.0687 43.6891C29.7145 43.6891 30.2381 43.1655 30.2381 42.5197V42.4671C31.5352 42.2839 32.5178 41.2029 32.577 39.8943C32.4933 38.361 31.1873 37.1829 29.6534 37.2572Z" fill="url(#paint7_linear)"/>
</g>
<defs>
<linearGradient id="paint0_linear" x1="30.2386" y1="23.3906" x2="30.2386" y2="53.462" gradientUnits="userSpaceOnUse">
<stop stop-color="#00D46A"/>
<stop offset="1" stop-color="#1262FF"/>
</linearGradient>
<linearGradient id="paint1_linear" x1="27.8987" y1="8.19141" x2="27.8987" y2="20.7213" gradientUnits="userSpaceOnUse">
<stop stop-color="#00D46A"/>
<stop offset="1" stop-color="#1262FF"/>
</linearGradient>
<linearGradient id="paint2_linear" x1="31.4003" y1="1.16699" x2="31.4003" y2="14.8715" gradientUnits="userSpaceOnUse">
<stop stop-color="#00D46A"/>
<stop offset="1" stop-color="#1262FF"/>
</linearGradient>
<linearGradient id="paint3_linear" x1="43.0661" y1="28.0703" x2="43.0661" y2="30.0748" gradientUnits="userSpaceOnUse">
<stop stop-color="#00D46A"/>
<stop offset="1" stop-color="#1262FF"/>
</linearGradient>
<linearGradient id="paint4_linear" x1="29.069" y1="28.1377" x2="29.069" y2="48.7201" gradientUnits="userSpaceOnUse">
<stop stop-color="#00D46A"/>
<stop offset="1" stop-color="#1262FF"/>
</linearGradient>
<linearGradient id="paint5_linear" x1="57.1362" y1="31.4092" x2="57.1362" y2="68.8317" gradientUnits="userSpaceOnUse">
<stop stop-color="#00D46A"/>
<stop offset="1" stop-color="#1262FF"/>
</linearGradient>
<linearGradient id="paint6_linear" x1="12.6963" y1="28.0703" x2="12.6963" y2="48.7849" gradientUnits="userSpaceOnUse">
<stop stop-color="#00D46A"/>
<stop offset="1" stop-color="#1262FF"/>
</linearGradient>
<linearGradient id="paint7_linear" x1="29.0687" y1="33.1641" x2="29.0687" y2="43.6891" gradientUnits="userSpaceOnUse">
<stop stop-color="#00D46A"/>
<stop offset="1" stop-color="#1262FF"/>
</linearGradient>
<clipPath id="clip0">
<rect width="70" height="70" fill="white"/>
</clipPath>
</defs>
</svg>
