<svg width="140" height="140" viewBox="0 0 140 140" fill="none" xmlns="http://www.w3.org/2000/svg">
<path d="M139.801 136.242L118.199 82.7189C117.782 81.6848 116.779 81.0077 115.664 81.0077H104.43L82.5402 45.4939V30.4371L110.672 18.2383C111.672 17.8047 112.318 16.8192 112.318 15.7296C112.318 14.6399 111.672 13.6545 110.672 13.2208L80.8936 0.308597C80.0475 -0.0578067 79.0755 0.0261382 78.3052 0.531174C77.5352 1.03676 77.0712 1.89589 77.0712 2.8171V15.6467V28.642V45.6276L55.1192 89.8766H49.0325C48.0468 89.8766 47.1373 90.4071 46.6523 91.2654L45.083 94.0411L29.8045 69.2251V63.7337L48.5748 55.5946C49.5742 55.1609 50.2212 54.1755 50.2212 53.0858C50.2212 51.9962 49.5742 51.0107 48.5748 50.5771L28.1582 41.724C27.3124 41.3573 26.3401 41.4416 25.5698 41.9466C24.7998 42.4522 24.3358 43.3113 24.3358 44.2325V51.8504V61.9386V69.2888L6.87008 100.624H2.73436C1.22445 100.624 0 101.849 0 103.359C0 104.869 1.22445 106.093 2.73436 106.093H8.47651C9.46827 106.093 10.3821 105.556 10.8647 104.69L27.1872 75.4053L42.0085 99.4792L21.4087 135.919C20.6655 137.234 21.1289 138.902 22.4433 139.645C23.7572 140.388 25.4257 139.925 26.1692 138.61L38.4218 116.936H68.2504C69.7603 116.936 70.9848 115.712 70.9848 114.202C70.9848 112.692 69.7603 111.467 68.2504 111.467H41.5133L50.6275 95.3454H56.8151C57.8538 95.3454 58.8029 94.7569 59.2645 93.8261L80.0642 51.8997L100.575 85.1765C101.073 85.9843 101.954 86.4762 102.903 86.4762H113.818L134.729 138.288C135.159 139.353 136.184 140 137.266 140C137.606 140 137.953 139.936 138.288 139.8C139.689 139.235 140.366 137.642 139.801 136.242ZM29.8045 48.3989L40.6134 53.0861L29.8045 57.7731V51.851V48.3989ZM82.5399 6.98317L102.711 15.7296L82.5399 24.476V15.6467V6.98317Z" fill="#00D46A" fill-opacity="0.8"/>
<path d="M79.1902 111.466C78.4684 111.466 77.7656 111.758 77.2546 112.267C76.746 112.779 76.4531 113.481 76.4531 114.2C76.4531 114.922 76.7457 115.625 77.2546 116.136C77.7656 116.645 78.4684 116.935 79.1902 116.935C79.9097 116.935 80.6121 116.645 81.121 116.136C81.6323 115.625 81.9222 114.92 81.9222 114.2C81.9222 113.484 81.6323 112.779 81.121 112.267C80.6121 111.759 79.9094 111.466 79.1902 111.466Z" fill="#1262FF"/>
<path d="M51.748 9.41008C53.258 9.41008 54.4824 8.18563 54.4824 6.6757V2.73438C54.4824 1.22445 53.258 0 51.748 0C50.2381 0 49.0137 1.22445 49.0137 2.73438V6.6757C49.0137 8.1859 50.2381 9.41008 51.748 9.41008Z" fill="#1262FF"/>
<path d="M51.748 27.3437C53.258 27.3437 54.4824 26.1192 54.4824 24.6093V20.668C54.4824 19.158 53.258 17.9336 51.748 17.9336C50.2381 17.9336 49.0137 19.158 49.0137 20.668V24.6093C49.0137 26.1192 50.2381 27.3437 51.748 27.3437Z" fill="#1262FF"/>
<path d="M58.7441 16.4062H62.6855C64.1954 16.4062 65.4198 15.1818 65.4198 13.6719C65.4198 12.162 64.1954 10.9375 62.6855 10.9375H58.7441C57.2342 10.9375 56.0098 12.162 56.0098 13.6719C56.0098 15.1818 57.2342 16.4062 58.7441 16.4062Z" fill="#1262FF"/>
<path d="M40.8105 16.4062H44.7522C46.2621 16.4062 47.4865 15.1818 47.4865 13.6719C47.4865 12.162 46.2621 10.9375 44.7522 10.9375H40.8105C39.3006 10.9375 38.0762 12.162 38.0762 13.6719C38.0762 15.1818 39.3006 16.4062 40.8105 16.4062Z" fill="#1262FF"/>
<path d="M126.328 40.8544C127.838 40.8544 129.062 39.63 129.062 38.12V34.1787C129.062 32.6688 127.838 31.4443 126.328 31.4443C124.818 31.4443 123.594 32.6688 123.594 34.1787V38.12C123.594 39.6302 124.818 40.8544 126.328 40.8544Z" fill="#1262FF"/>
<path d="M126.328 58.789C127.838 58.789 129.062 57.5645 129.062 56.0546V52.1133C129.062 50.6034 127.838 49.3789 126.328 49.3789C124.818 49.3789 123.594 50.6034 123.594 52.1133V56.0546C123.594 57.5645 124.818 58.789 126.328 58.789Z" fill="#1262FF"/>
<path d="M133.323 47.8506H137.265C138.774 47.8506 139.999 46.6261 139.999 45.1162C139.999 43.6063 138.774 42.3818 137.265 42.3818H133.323C131.813 42.3818 130.589 43.6063 130.589 45.1162C130.589 46.6261 131.813 47.8506 133.323 47.8506Z" fill="#1262FF"/>
<path d="M115.39 47.8506H119.331C120.841 47.8506 122.065 46.6261 122.065 45.1162C122.065 43.6063 120.841 42.3818 119.331 42.3818H115.39C113.88 42.3818 112.655 43.6063 112.655 45.1162C112.655 46.6261 113.88 47.8506 115.39 47.8506Z" fill="#1262FF"/>
</svg>
