<svg  width="180px" height="46px" viewBox="30 30 180 47" fill="none" xmlns="http://www.w3.org/2000/svg">
<g filter="url(#filter0_d)">
<path d="M30.5 36C30.5 32.9624 32.9624 30.5 36 30.5H204C207.038 30.5 209.5 32.9624 209.5 36V70.6667C209.5 73.7042 207.038 76.1667 204 76.1667H36C32.9624 76.1667 30.5 73.7042 30.5 70.6667V36Z" stroke="url(#paint0_linear)"/>
</g>
<path d="M63.9673 54.133L64.2373 51.631H64.1293L63.3553 53.647L60.6733 58.345H59.8813L57.0553 53.629L56.2633 51.631H56.1733L56.5333 54.115V60.667H54.1933V48.067H56.4433L59.8093 53.827L60.4033 55.267H60.4753L61.0153 53.791L64.2013 48.067H66.4333V60.667H63.9673V54.133ZM68.1038 56.167C68.1038 54.643 68.4758 53.473 69.2198 52.657C69.9638 51.829 71.0078 51.415 72.3518 51.415C73.0718 51.415 73.6958 51.529 74.2238 51.757C74.7518 51.985 75.1898 52.309 75.5378 52.729C75.8858 53.137 76.1438 53.635 76.3118 54.223C76.4918 54.811 76.5818 55.459 76.5818 56.167C76.5818 57.691 76.2098 58.867 75.4658 59.695C74.7338 60.511 73.6958 60.919 72.3518 60.919C71.6318 60.919 71.0078 60.805 70.4798 60.577C69.9518 60.349 69.5078 60.031 69.1478 59.623C68.7998 59.203 68.5358 58.699 68.3558 58.111C68.1878 57.523 68.1038 56.875 68.1038 56.167ZM70.5158 56.167C70.5158 56.563 70.5518 56.929 70.6238 57.265C70.6958 57.601 70.8038 57.895 70.9478 58.147C71.0918 58.399 71.2778 58.597 71.5058 58.741C71.7458 58.873 72.0278 58.939 72.3518 58.939C72.9638 58.939 73.4198 58.717 73.7198 58.273C74.0198 57.829 74.1698 57.127 74.1698 56.167C74.1698 55.339 74.0318 54.673 73.7558 54.169C73.4798 53.653 73.0118 53.395 72.3518 53.395C71.7758 53.395 71.3258 53.611 71.0018 54.043C70.6778 54.475 70.5158 55.183 70.5158 56.167ZM83.1717 53.863C82.7997 53.731 82.4637 53.665 82.1637 53.665C81.7437 53.665 81.3897 53.779 81.1017 54.007C80.8257 54.223 80.6397 54.505 80.5437 54.853V60.667H78.2037V51.667H80.0217L80.2917 52.855H80.3637C80.5677 52.411 80.8437 52.069 81.1917 51.829C81.5397 51.589 81.9477 51.469 82.4157 51.469C82.7277 51.469 83.0817 51.535 83.4777 51.667L83.1717 53.863ZM91.7143 59.893C91.3543 60.181 90.8623 60.427 90.2383 60.631C89.6263 60.823 88.9723 60.919 88.2763 60.919C86.8243 60.919 85.7623 60.499 85.0903 59.659C84.4183 58.807 84.0823 57.643 84.0823 56.167C84.0823 54.583 84.4603 53.395 85.2163 52.603C85.9723 51.811 87.0343 51.415 88.4023 51.415C88.8583 51.415 89.3023 51.475 89.7343 51.595C90.1663 51.715 90.5503 51.913 90.8863 52.189C91.2223 52.465 91.4923 52.837 91.6963 53.305C91.9003 53.773 92.0023 54.355 92.0023 55.051C92.0023 55.303 91.9843 55.573 91.9483 55.861C91.9243 56.149 91.8823 56.449 91.8223 56.761H86.4223C86.4583 57.517 86.6503 58.087 86.9983 58.471C87.3583 58.855 87.9343 59.047 88.7263 59.047C89.2183 59.047 89.6563 58.975 90.0403 58.831C90.4363 58.675 90.7363 58.519 90.9403 58.363L91.7143 59.893ZM88.3663 53.287C87.7543 53.287 87.2983 53.473 86.9983 53.845C86.7103 54.205 86.5363 54.691 86.4763 55.303H89.8243C89.8723 54.655 89.7703 54.157 89.5183 53.809C89.2783 53.461 88.8943 53.287 88.3663 53.287ZM98.1536 52.189C98.6336 51.973 99.2036 51.805 99.8636 51.685C100.524 51.553 101.214 51.487 101.934 51.487C102.558 51.487 103.08 51.565 103.5 51.721C103.92 51.865 104.25 52.075 104.49 52.351C104.742 52.627 104.916 52.957 105.012 53.341C105.12 53.725 105.174 54.157 105.174 54.637C105.174 55.165 105.156 55.699 105.12 56.239C105.084 56.767 105.06 57.289 105.048 57.805C105.048 58.321 105.066 58.825 105.102 59.317C105.138 59.797 105.228 60.253 105.372 60.685H103.464L103.086 59.443H102.996C102.756 59.815 102.42 60.139 101.988 60.415C101.568 60.679 101.022 60.811 100.35 60.811C99.9296 60.811 99.5516 60.751 99.2156 60.631C98.8796 60.499 98.5916 60.319 98.3516 60.091C98.1116 59.851 97.9256 59.575 97.7936 59.263C97.6616 58.939 97.5956 58.579 97.5956 58.183C97.5956 57.631 97.7156 57.169 97.9556 56.797C98.2076 56.413 98.5616 56.107 99.0176 55.879C99.4856 55.639 100.038 55.477 100.674 55.393C101.322 55.297 102.042 55.267 102.834 55.303C102.918 54.631 102.87 54.151 102.69 53.863C102.51 53.563 102.108 53.413 101.484 53.413C101.016 53.413 100.518 53.461 99.9896 53.557C99.4736 53.653 99.0476 53.779 98.7116 53.935L98.1536 52.189ZM101.124 58.885C101.592 58.885 101.964 58.783 102.24 58.579C102.516 58.363 102.72 58.135 102.852 57.895V56.725C102.48 56.689 102.12 56.683 101.772 56.707C101.436 56.731 101.136 56.785 100.872 56.869C100.608 56.953 100.398 57.073 100.242 57.229C100.086 57.385 100.008 57.583 100.008 57.823C100.008 58.159 100.104 58.423 100.296 58.615C100.5 58.795 100.776 58.885 101.124 58.885ZM107.137 48.067H109.477V52.387H109.549C109.801 52.099 110.125 51.871 110.521 51.703C110.917 51.535 111.355 51.451 111.835 51.451C112.915 51.451 113.737 51.823 114.301 52.567C114.877 53.299 115.165 54.421 115.165 55.933C115.165 57.553 114.763 58.783 113.959 59.623C113.167 60.463 112.075 60.883 110.683 60.883C109.915 60.883 109.213 60.817 108.577 60.685C107.941 60.565 107.461 60.427 107.137 60.271V48.067ZM111.151 53.431C110.719 53.431 110.365 53.545 110.089 53.773C109.825 53.989 109.621 54.307 109.477 54.727V58.651C109.669 58.747 109.873 58.813 110.089 58.849C110.317 58.885 110.557 58.903 110.809 58.903C111.445 58.903 111.925 58.675 112.249 58.219C112.585 57.751 112.753 57.013 112.753 56.005C112.753 54.289 112.219 53.431 111.151 53.431ZM116.356 56.167C116.356 54.643 116.728 53.473 117.472 52.657C118.216 51.829 119.26 51.415 120.604 51.415C121.324 51.415 121.948 51.529 122.476 51.757C123.004 51.985 123.442 52.309 123.79 52.729C124.138 53.137 124.396 53.635 124.564 54.223C124.744 54.811 124.834 55.459 124.834 56.167C124.834 57.691 124.462 58.867 123.718 59.695C122.986 60.511 121.948 60.919 120.604 60.919C119.884 60.919 119.26 60.805 118.732 60.577C118.204 60.349 117.76 60.031 117.4 59.623C117.052 59.203 116.788 58.699 116.608 58.111C116.44 57.523 116.356 56.875 116.356 56.167ZM118.768 56.167C118.768 56.563 118.804 56.929 118.876 57.265C118.948 57.601 119.056 57.895 119.2 58.147C119.344 58.399 119.53 58.597 119.758 58.741C119.998 58.873 120.28 58.939 120.604 58.939C121.216 58.939 121.672 58.717 121.972 58.273C122.272 57.829 122.422 57.127 122.422 56.167C122.422 55.339 122.284 54.673 122.008 54.169C121.732 53.653 121.264 53.395 120.604 53.395C120.028 53.395 119.578 53.611 119.254 54.043C118.93 54.475 118.768 55.183 118.768 56.167ZM128.706 51.667V56.779C128.706 57.511 128.79 58.039 128.958 58.363C129.138 58.687 129.48 58.849 129.984 58.849C130.428 58.849 130.794 58.717 131.082 58.453C131.382 58.189 131.604 57.865 131.748 57.481V51.667H134.088V57.931C134.088 58.423 134.112 58.909 134.16 59.389C134.208 59.857 134.28 60.283 134.376 60.667H132.612L132.198 59.335H132.126C131.85 59.791 131.466 60.169 130.974 60.469C130.482 60.769 129.9 60.919 129.228 60.919C128.772 60.919 128.364 60.859 128.004 60.739C127.644 60.619 127.344 60.421 127.104 60.145C126.864 59.869 126.678 59.497 126.546 59.029C126.426 58.561 126.366 57.973 126.366 57.265V51.667H128.706ZM135.205 51.667H136.447V49.975L138.787 49.309V51.667H140.983V53.647H138.787V57.103C138.787 57.727 138.847 58.177 138.967 58.453C139.099 58.717 139.339 58.849 139.687 58.849C139.927 58.849 140.131 58.825 140.299 58.777C140.479 58.729 140.677 58.657 140.893 58.561L141.307 60.361C140.983 60.517 140.605 60.649 140.173 60.757C139.741 60.865 139.303 60.919 138.859 60.919C138.031 60.919 137.419 60.709 137.023 60.289C136.639 59.857 136.447 59.155 136.447 58.183V53.647H135.205V51.667ZM149.219 51.667V56.779C149.219 57.511 149.303 58.039 149.471 58.363C149.651 58.687 149.993 58.849 150.497 58.849C150.941 58.849 151.307 58.717 151.595 58.453C151.895 58.189 152.117 57.865 152.261 57.481V51.667H154.601V57.931C154.601 58.423 154.625 58.909 154.673 59.389C154.721 59.857 154.793 60.283 154.889 60.667H153.125L152.711 59.335H152.639C152.363 59.791 151.979 60.169 151.487 60.469C150.995 60.769 150.413 60.919 149.741 60.919C149.285 60.919 148.877 60.859 148.517 60.739C148.157 60.619 147.857 60.421 147.617 60.145C147.377 59.869 147.191 59.497 147.059 59.029C146.939 58.561 146.879 57.973 146.879 57.265V51.667H149.219ZM160.381 58.183C160.381 57.943 160.279 57.751 160.075 57.607C159.871 57.463 159.619 57.331 159.319 57.211C159.019 57.091 158.689 56.971 158.329 56.851C157.969 56.719 157.639 56.545 157.339 56.329C157.039 56.101 156.787 55.819 156.583 55.483C156.379 55.135 156.277 54.691 156.277 54.151C156.277 53.263 156.541 52.585 157.069 52.117C157.597 51.649 158.359 51.415 159.355 51.415C160.039 51.415 160.657 51.487 161.209 51.631C161.761 51.775 162.193 51.937 162.505 52.117L161.983 53.809C161.707 53.701 161.359 53.587 160.939 53.467C160.519 53.347 160.093 53.287 159.661 53.287C158.965 53.287 158.617 53.557 158.617 54.097C158.617 54.313 158.719 54.487 158.923 54.619C159.127 54.751 159.379 54.877 159.679 54.997C159.979 55.105 160.309 55.225 160.669 55.357C161.029 55.489 161.359 55.663 161.659 55.879C161.959 56.083 162.211 56.353 162.415 56.689C162.619 57.025 162.721 57.457 162.721 57.985C162.721 58.897 162.427 59.617 161.839 60.145C161.263 60.661 160.393 60.919 159.229 60.919C158.593 60.919 157.993 60.835 157.429 60.667C156.877 60.511 156.427 60.325 156.079 60.109L156.727 58.363C157.003 58.519 157.369 58.675 157.825 58.831C158.281 58.975 158.749 59.047 159.229 59.047C159.577 59.047 159.853 58.981 160.057 58.849C160.273 58.717 160.381 58.495 160.381 58.183Z" fill="url(#paint1_linear)"/>
<path fill-rule="evenodd" clip-rule="evenodd" d="M173.449 48.7867L179.288 54.3898L173.449 59.9939L175.312 61.7826L183.014 54.3898L175.312 47L173.449 48.7867Z" fill="url(#paint2_linear)"/>
<path d="M192.944 54.3901L185.748 61.2974L184.39 59.9936L189.966 54.6426L190.229 54.39L189.966 54.1375L184.39 48.7872L185.748 47.485L192.944 54.3901Z" stroke="url(#paint3_linear)" stroke-width="0.7"/>
<defs>
<filter id="filter0_d" x="0" y="0" width="240" height="106.667" filterUnits="userSpaceOnUse" color-interpolation-filters="sRGB">
<feFlood flood-opacity="0" result="BackgroundImageFix"/>
<feColorMatrix in="SourceAlpha" type="matrix" values="0 0 0 0 0 0 0 0 0 0 0 0 0 0 0 0 0 0 127 0"/>
<feOffset/>
<feGaussianBlur stdDeviation="15"/>
<feColorMatrix type="matrix" values="0 0 0 0 0 0 0 0 0 0 0 0 0 0 0 0 0 0 0.3 0"/>
<feBlend mode="normal" in2="BackgroundImageFix" result="effect1_dropShadow"/>
<feBlend mode="normal" in="SourceGraphic" in2="effect1_dropShadow" result="shape"/>
</filter>
<linearGradient id="paint0_linear" x1="30" y1="58" x2="215.568" y2="62.6119" gradientUnits="userSpaceOnUse">
<stop stop-color="#00D46A"/>
<stop offset="1" stop-color="#1262FF"/>
</linearGradient>
<linearGradient id="paint1_linear" x1="60.66" y1="60.667" x2="193.017" y2="65.3999" gradientUnits="userSpaceOnUse">
<stop stop-color="#00D46A"/>
<stop offset="1" stop-color="#1262FF"/>
</linearGradient>
<linearGradient id="paint2_linear" x1="158.001" y1="62" x2="183.001" y2="62" gradientUnits="userSpaceOnUse">
<stop offset="0.67" stop-color="#00D46A"/>
<stop offset="1" stop-color="#1262FF"/>
</linearGradient>
<linearGradient id="paint3_linear" x1="184.502" y1="47.5" x2="201.502" y2="47" gradientUnits="userSpaceOnUse">
<stop stop-color="#00D46A"/>
<stop offset="0.513035" stop-color="#1262FF"/>
</linearGradient>
</defs>
</svg>
