<svg width="80" height="80" viewBox="0 0 80 80" fill="none" xmlns="http://www.w3.org/2000/svg">
<g clip-path="url(#clip0)">
<path d="M69.2516 14.059C62.3219 7.12928 53.1043 3.31055 43.3105 3.31055C33.3357 3.31055 24.0029 7.2445 17.0403 14.3882C16.2831 15.1618 16.2996 16.4128 17.0732 17.1864C17.8468 17.9435 19.0978 17.9271 19.8714 17.1535C26.0933 10.7834 34.4056 7.27742 43.3105 7.27742C61.3672 7.26096 76.0496 21.9433 76.0496 40C76.0496 58.0567 61.3672 72.7391 43.3105 72.7391C25.2538 72.7391 10.5715 58.0567 10.5715 40V39.5885L13.8306 42.8476C14.2091 43.2262 14.7194 43.4237 15.2297 43.4237C15.7399 43.4237 16.2337 43.2262 16.6288 42.8476C17.4024 42.074 17.4024 40.823 16.6288 40.0494L10.0118 33.416C9.23821 32.6424 7.98724 32.6424 7.21362 33.416L0.580217 40.0494C-0.193406 40.823 -0.193406 42.074 0.580217 42.8476C1.35384 43.6212 2.6048 43.6212 3.37843 42.8476L6.63752 39.5885V40C6.63752 49.7938 10.4563 59.0114 17.3859 65.9411C24.3156 72.8708 33.5333 76.6895 43.327 76.6895C53.1207 76.6895 62.3384 72.8708 69.2681 65.9411C76.1977 59.0114 80 49.7938 80 40C80 30.2063 76.1813 20.9887 69.2516 14.059Z" fill="url(#paint0_linear)"/>
<path d="M53.8111 26.6506L29.549 50.8963C28.7753 51.6699 28.7753 52.9209 29.549 53.6945C29.9275 54.0731 30.4378 54.2706 30.9481 54.2706C31.4583 54.2706 31.9521 54.0731 32.3472 53.6945L56.6093 29.4324C57.3829 28.6588 57.3829 27.4078 56.6093 26.6342C55.8357 25.877 54.5847 25.877 53.8111 26.6506Z" fill="url(#paint1_linear)"/>
<path d="M47.4581 42.9783C44.7093 45.7271 44.7093 50.2207 47.4581 52.9695C48.7914 54.3028 50.5691 55.0435 52.462 55.0435C54.3549 55.0435 56.1326 54.3028 57.4658 52.9695C60.2147 50.2207 60.2147 45.7271 57.4658 42.9783C56.1326 41.645 54.3549 40.9043 52.462 40.9043C50.5691 40.9043 48.8078 41.645 47.4581 42.9783ZM54.6676 50.1878C54.0751 50.7803 53.3014 51.0931 52.462 51.0931C51.6225 51.0931 50.8489 50.7639 50.2563 50.1878C49.0383 48.9697 49.0383 46.9945 50.2563 45.7765C50.8489 45.1839 51.6225 44.8712 52.462 44.8712C53.3014 44.8712 54.0751 45.2004 54.6676 45.7765C55.8857 46.9945 55.8857 48.9697 54.6676 50.1878Z" fill="url(#paint2_linear)"/>
<path d="M34.2243 24.8887C32.3314 24.8887 30.5537 25.6294 29.2204 26.9626C27.8872 28.2959 27.1465 30.0736 27.1465 31.9665C27.1465 33.8594 27.8872 35.6371 29.2204 36.9704C30.5537 38.3036 32.3314 39.0443 34.2243 39.0443C36.1172 39.0443 37.8949 38.3036 39.2282 36.9704C40.5614 35.6371 41.3021 33.8594 41.3021 31.9665C41.3021 30.0736 40.5614 28.2959 39.2282 26.9626C37.8784 25.6294 36.1172 24.8887 34.2243 24.8887ZM36.43 34.1721C35.8374 34.7647 35.0638 35.0774 34.2243 35.0774C33.3848 35.0774 32.6112 34.7482 32.0187 34.1721C31.4261 33.5796 31.1134 32.806 31.1134 31.9665C31.1134 31.127 31.4426 30.3534 32.0187 29.7609C32.6112 29.1683 33.3848 28.8555 34.2243 28.8555C35.0638 28.8555 35.8374 29.1847 36.43 29.7609C37.0225 30.3534 37.3353 31.127 37.3353 31.9665C37.3353 32.7895 37.0225 33.5796 36.43 34.1721Z" fill="url(#paint3_linear)"/>
</g>
<defs>
<linearGradient id="paint0_linear" x1="40" y1="3.31055" x2="40" y2="76.6895" gradientUnits="userSpaceOnUse">
<stop stop-color="#00D46A"/>
<stop offset="1" stop-color="#1262FF"/>
</linearGradient>
<linearGradient id="paint1_linear" x1="43.0791" y1="26.0684" x2="43.0791" y2="54.2706" gradientUnits="userSpaceOnUse">
<stop stop-color="#00D46A"/>
<stop offset="1" stop-color="#1262FF"/>
</linearGradient>
<linearGradient id="paint2_linear" x1="52.462" y1="40.9043" x2="52.462" y2="55.0435" gradientUnits="userSpaceOnUse">
<stop stop-color="#00D46A"/>
<stop offset="1" stop-color="#1262FF"/>
</linearGradient>
<linearGradient id="paint3_linear" x1="34.2243" y1="24.8887" x2="34.2243" y2="39.0443" gradientUnits="userSpaceOnUse">
<stop stop-color="#00D46A"/>
<stop offset="1" stop-color="#1262FF"/>
</linearGradient>
<clipPath id="clip0">
<rect width="80" height="80" fill="white"/>
</clipPath>
</defs>
</svg>
