<svg width="60" height="60" viewBox="0 0 60 60" fill="none" xmlns="http://www.w3.org/2000/svg">
<g clip-path="url(#clip0)">
<path d="M51.9387 10.5447C46.7414 5.34745 39.8282 2.4834 32.4829 2.4834C25.0018 2.4834 18.0022 5.43386 12.7802 10.7916C12.2123 11.3718 12.2247 12.3101 12.8049 12.8903C13.3851 13.4581 14.3233 13.4458 14.9036 12.8656C19.57 8.08805 25.8042 5.45855 32.4829 5.45855C46.0254 5.44621 57.0372 16.458 57.0372 30.0005C57.0372 43.543 46.0254 54.5548 32.4829 54.5548C18.9404 54.5548 7.9286 43.543 7.9286 30.0005V29.6919L10.3729 32.1362C10.6569 32.4201 11.0396 32.5683 11.4223 32.5683C11.8049 32.5683 12.1753 32.4201 12.4716 32.1362C13.0518 31.556 13.0518 30.6178 12.4716 30.0375L7.50887 25.0625C6.92866 24.4823 5.99043 24.4823 5.41022 25.0625L0.435163 30.0375C-0.145054 30.6178 -0.145054 31.556 0.435163 32.1362C1.01538 32.7164 1.9536 32.7164 2.53382 32.1362L4.97814 29.6919V30.0005C4.97814 37.3458 7.84219 44.259 13.0395 49.4563C18.2367 54.6536 25.1499 57.5176 32.4952 57.5176C39.8405 57.5176 46.7538 54.6536 51.951 49.4563C57.1483 44.259 60 37.3458 60 30.0005C60 22.6552 57.136 15.742 51.9387 10.5447Z" fill="white"/>
<path d="M40.3591 19.9885L22.1625 38.1727C21.5822 38.753 21.5822 39.6912 22.1625 40.2714C22.4464 40.5553 22.8291 40.7035 23.2118 40.7035C23.5945 40.7035 23.9648 40.5553 24.2611 40.2714L42.4577 22.0748C43.0379 21.4946 43.0379 20.5563 42.4577 19.9761C41.8775 19.4083 40.9393 19.4083 40.3591 19.9885Z" fill="white"/>
<path d="M35.5938 32.2352C33.5322 34.2968 33.5322 37.667 35.5938 39.7286C36.5938 40.7286 37.927 41.2841 39.3467 41.2841C40.7664 41.2841 42.0997 40.7286 43.0996 39.7286C45.1612 37.667 45.1612 34.2968 43.0996 32.2352C42.0997 31.2352 40.7664 30.6797 39.3467 30.6797C37.927 30.6797 36.6061 31.2352 35.5938 32.2352ZM41.001 37.6423C40.5565 38.0867 39.9763 38.3213 39.3467 38.3213C38.7171 38.3213 38.1369 38.0744 37.6925 37.6423C36.7789 36.7288 36.7789 35.2474 37.6925 34.3338C38.1369 33.8894 38.7171 33.6548 39.3467 33.6548C39.9763 33.6548 40.5565 33.9017 41.001 34.3338C41.9145 35.2474 41.9145 36.7288 41.001 37.6423Z" fill="white"/>
<path d="M25.6685 18.667C24.2488 18.667 22.9155 19.2225 21.9156 20.2225C20.9156 21.2224 20.3601 22.5557 20.3601 23.9754C20.3601 25.395 20.9156 26.7283 21.9156 27.7283C22.9155 28.7282 24.2488 29.2837 25.6685 29.2837C27.0882 29.2837 28.4214 28.7282 29.4214 27.7283C30.4213 26.7283 30.9768 25.395 30.9768 23.9754C30.9768 22.5557 30.4213 21.2224 29.4214 20.2225C28.4091 19.2225 27.0882 18.667 25.6685 18.667ZM27.3227 25.6296C26.8783 26.074 26.2981 26.3086 25.6685 26.3086C25.0389 26.3086 24.4587 26.0617 24.0142 25.6296C23.5698 25.1852 23.3353 24.605 23.3353 23.9754C23.3353 23.3458 23.5822 22.7655 24.0142 22.3211C24.4587 21.8767 25.0389 21.6421 25.6685 21.6421C26.2981 21.6421 26.8783 21.889 27.3227 22.3211C27.7671 22.7655 28.0017 23.3458 28.0017 23.9754C28.0017 24.5926 27.7671 25.1852 27.3227 25.6296Z" fill="white"/>
</g>
<defs>
<clipPath id="clip0">
<rect width="60" height="60" fill="white"/>
</clipPath>
</defs>
</svg>
