<svg width="124" height="184" viewBox="0 0 124 184" fill="none" xmlns="http://www.w3.org/2000/svg">
<path opacity="0.5" d="M105.752 2.3138C115.744 0.870562 120.74 0.148942 125.422 0.956164C129.566 1.6704 133.512 3.24746 137.007 5.58508C140.956 8.22704 144.079 12.193 150.325 20.1249L178.311 55.6653C184.557 63.5972 187.68 67.5631 189.322 72.0219C190.775 75.967 191.383 80.1734 191.106 84.3685C190.792 89.1096 188.919 93.7972 185.173 103.172L168.387 145.179C164.641 154.555 162.768 159.242 159.728 162.894C157.038 166.125 153.698 168.754 149.927 170.611C145.664 172.711 140.668 173.432 130.676 174.875L85.9038 181.342C75.9116 182.785 70.9155 183.507 66.233 182.7C62.0899 181.986 58.1433 180.409 54.6489 178.071C50.6996 175.429 47.5766 171.463 41.3306 163.531L13.3442 127.991C7.09821 120.059 3.97522 116.093 2.33307 111.634C0.880081 107.689 0.272514 103.483 0.549772 99.2875C0.863119 94.5463 2.73623 89.8587 6.48245 80.4836L23.2682 38.4765C27.0144 29.1014 28.8875 24.4138 31.9278 20.7623C34.6179 17.5314 37.957 14.902 41.7286 13.0446C45.9913 10.9454 50.9874 10.2238 60.9796 8.78052L105.752 2.3138Z" fill="url(#paint0_linear)"/>
<defs>
<linearGradient id="paint0_linear" x1="110.807" y1="2.0346" x2="-38.2785" y2="55.7155" gradientUnits="userSpaceOnUse">
<stop stop-color="#00D46A"/>
<stop offset="1" stop-color="#1262FF"/>
</linearGradient>
</defs>
</svg>
