<svg width="187" height="319" viewBox="0 0 187 319" fill="none" xmlns="http://www.w3.org/2000/svg">
<path opacity="0.5" d="M70.3902 90.8082C73.9201 81.3495 75.685 76.6201 78.6407 72.8997C81.2558 69.6079 84.5336 66.9025 88.2616 64.9589C92.4749 62.7623 97.4531 61.9261 107.41 60.2537L173.947 49.0773C183.903 47.4049 188.881 46.5687 193.581 47.2681C197.739 47.887 201.721 49.373 205.268 51.6297C209.277 54.1802 212.491 58.0734 218.917 65.8597L261.865 117.894C268.291 125.681 271.505 129.574 273.249 133.994C274.792 137.904 275.496 142.096 275.315 146.296C275.111 151.043 273.346 155.772 269.816 165.231L246.227 228.442C242.697 237.901 240.932 242.63 237.976 246.351C235.361 249.642 232.083 252.348 228.355 254.291C224.142 256.488 219.164 257.324 209.207 258.997L142.67 270.173C132.714 271.845 127.736 272.682 123.036 271.982C118.878 271.363 114.896 269.877 111.348 267.621C107.34 265.07 104.126 261.177 97.6997 253.391L54.7521 201.356C48.3255 193.57 45.1123 189.677 43.3681 185.257C41.8249 181.346 41.1208 177.155 41.3016 172.954C41.506 168.207 43.2709 163.478 46.8008 154.019L70.3902 90.8082Z" fill="url(#paint0_linear)"/>
<defs>
<linearGradient id="paint0_linear" x1="70.9133" y1="90.965" x2="41.0468" y2="282.097" gradientUnits="userSpaceOnUse">
<stop stop-color="#00D46A"/>
<stop offset="1" stop-color="#1262FF"/>
</linearGradient>
</defs>
</svg>
