<svg width="62" height="161" viewBox="0 0 62 161" fill="none" xmlns="http://www.w3.org/2000/svg">
<path opacity="0.8" d="M-98.8482 106.622C-102.967 101.298 -105.026 98.6363 -106.095 95.6545C-107.041 93.0162 -107.422 90.2085 -107.213 87.4136C-106.977 84.2547 -105.702 81.1405 -103.151 74.9121L-83.7582 27.5655C-81.2072 21.3371 -79.9316 18.2229 -77.8839 15.806C-76.0721 13.6676 -73.8311 11.9338 -71.3061 10.7172C-68.4525 9.34214 -65.1177 8.88968 -58.4482 7.98475L-7.74869 1.10575C-1.07921 0.200821 2.25553 -0.251642 5.37243 0.313287C8.13028 0.813137 10.7523 1.88706 13.0684 3.46542C15.686 5.24927 17.7453 7.91101 21.8637 13.2345L53.1709 53.7021C57.2893 59.0256 59.3485 61.6873 60.4177 64.6691C61.3638 67.3074 61.7447 70.1151 61.5359 72.91C61.2998 76.0689 60.0243 79.1831 57.4733 85.4115L38.0809 132.758C35.5298 138.987 34.2543 142.101 32.2066 144.518C30.3948 146.656 28.1537 148.39 25.6288 149.606C22.7751 150.981 19.4404 151.434 12.7709 152.339L-37.9287 159.218C-44.5981 160.123 -47.9329 160.575 -51.0498 160.01C-53.8076 159.51 -56.4296 158.437 -58.7457 156.858C-61.3634 155.074 -63.4226 152.413 -67.541 147.089L-98.8482 106.622Z" fill="url(#paint0_linear)"/>
<defs>
<linearGradient id="paint0_linear" x1="-97.7016" y1="107.465" x2="7.47046" y2="197.894" gradientUnits="userSpaceOnUse">
<stop stop-color="#00D46A"/>
<stop offset="1" stop-color="#1262FF"/>
</linearGradient>
</defs>
</svg>
