<svg width="89" height="208" viewBox="0 0 89 208" fill="none" xmlns="http://www.w3.org/2000/svg">
<path opacity="0.8" d="M-98.6654 87.9175C-99.4728 81.2355 -99.8765 77.8945 -99.2661 74.7862C-98.726 72.036 -97.6139 69.4299 -96.0018 67.1371C-94.1799 64.5458 -91.4884 62.5257 -86.1053 58.4855L-45.1847 27.7729C-39.8016 23.7327 -37.1101 21.7126 -34.113 20.687C-31.4611 19.7796 -28.6482 19.4397 -25.8565 19.6894C-22.7014 19.9715 -19.6062 21.2924 -13.4157 23.9342L33.6425 44.0162C39.8329 46.658 42.9282 47.9789 45.3149 50.0617C47.4266 51.9045 49.1274 54.1707 50.307 56.7131C51.6402 59.5866 52.0439 62.9276 52.8513 69.6096L58.9889 120.404C59.7963 127.086 60.2 130.427 59.5896 133.536C59.0495 136.286 57.9374 138.892 56.3253 141.185C54.5035 143.776 51.8119 145.796 46.4288 149.836L5.50818 180.549C0.125106 184.589 -2.56645 186.609 -5.56353 187.635C-8.21536 188.542 -11.0283 188.882 -13.8199 188.632C-16.975 188.35 -20.0703 187.029 -26.2607 184.388L-73.319 164.306C-79.5094 161.664 -82.6047 160.343 -84.9914 158.26C-87.1031 156.417 -88.8039 154.151 -89.9835 151.609C-91.3167 148.735 -91.7204 145.394 -92.5278 138.712L-98.6654 87.9175Z" fill="url(#paint0_linear)"/>
<defs>
<linearGradient id="paint0_linear" x1="-98.1134" y1="89.2296" x2="-54.1634" y2="220.786" gradientUnits="userSpaceOnUse">
<stop stop-color="#00D46A"/>
<stop offset="1" stop-color="#1262FF"/>
</linearGradient>
</defs>
</svg>
