<svg width="114" height="259" viewBox="0 0 114 259" fill="none" xmlns="http://www.w3.org/2000/svg">
<path opacity="0.5" d="M54.4341 78.2364C57.964 68.7777 59.7289 64.0483 62.6845 60.3279C65.2997 57.0361 68.5775 54.3307 72.3055 52.3871C76.5188 50.1905 81.497 49.3543 91.4534 47.6819L135.412 40.2981C145.368 38.6257 150.347 37.7895 155.046 38.4889C159.205 39.1078 163.187 40.5938 166.734 42.8505C170.743 45.401 173.956 49.2942 180.382 57.0805L208.756 91.4578C215.183 99.2441 218.396 103.137 220.14 107.557C221.684 111.468 222.388 115.659 222.207 119.859C222.002 124.607 220.238 129.336 216.708 138.795L201.123 180.556C197.593 190.014 195.828 194.744 192.873 198.464C190.257 201.756 186.98 204.461 183.252 206.405C179.038 208.602 174.06 209.438 164.104 211.11L120.145 218.494C110.189 220.166 105.211 221.003 100.511 220.303C96.3524 219.684 92.3706 218.198 88.8234 215.942C84.8145 213.391 81.6012 209.498 75.1746 201.712L46.8008 167.334C40.3742 159.548 37.1609 155.655 35.4168 151.235C33.8736 147.324 33.1695 143.133 33.3503 138.933C33.5547 134.186 35.3196 129.456 38.8495 119.998L54.4341 78.2364Z" fill="url(#paint0_linear)"/>
<defs>
<linearGradient id="paint0_linear" x1="56.6648" y1="73.527" x2="32.3623" y2="229.052" gradientUnits="userSpaceOnUse">
<stop stop-color="#00D46A"/>
<stop offset="1" stop-color="#1262FF"/>
</linearGradient>
</defs>
</svg>
