<svg width="85" height="182" viewBox="0 0 85 182" fill="none" xmlns="http://www.w3.org/2000/svg">
<path opacity="0.5" d="M105.138 2.06802C115.13 0.624783 120.126 -0.0968353 124.808 0.710387C128.951 1.42462 132.898 3.00168 136.392 5.3393C140.342 7.98126 143.465 11.9472 149.711 19.8791L177.287 54.8991C183.533 62.831 186.656 66.797 188.299 71.2557C189.752 75.2008 190.359 79.4073 190.082 83.6023C189.768 88.3435 187.895 93.031 184.149 102.406L167.609 143.798C163.863 153.173 161.99 157.861 158.95 161.512C156.259 164.743 152.92 167.373 149.149 169.23C144.886 171.329 139.89 172.051 129.898 173.494L85.7812 179.866C75.789 181.309 70.7929 182.031 66.1105 181.224C61.9674 180.51 58.0207 178.933 54.5264 176.595C50.577 173.953 47.454 169.987 41.2081 162.055L13.6314 127.035C7.38546 119.103 4.26246 115.137 2.62031 110.679C1.16732 106.733 0.559757 102.527 0.837015 98.332C1.15036 93.5908 3.02348 88.9032 6.7697 79.5281L23.3096 38.136C27.0559 28.7609 28.929 24.0733 31.9693 20.4218C34.6593 17.1909 37.9985 14.5615 41.7701 12.7041C46.0327 10.6049 51.0288 9.88329 61.0211 8.44005L105.138 2.06802Z" fill="url(#paint0_linear)"/>
<defs>
<linearGradient id="paint0_linear" x1="110.34" y1="1.76459" x2="-37.7644" y2="55.0923" gradientUnits="userSpaceOnUse">
<stop stop-color="#00D46A"/>
<stop offset="1" stop-color="#1262FF"/>
</linearGradient>
</defs>
</svg>
