<svg width="82" height="49" viewBox="0 0 82 49" fill="none" xmlns="http://www.w3.org/2000/svg">
<g opacity="0.12">
<circle r="5.19699" transform="matrix(1.19249e-08 -1 -1 -1.19249e-08 76.47 43.803)" fill="white"/>
<circle r="5.19699" transform="matrix(1.19249e-08 -1 -1 -1.19249e-08 63.1057 24.5003)" fill="white"/>
<circle r="5.19699" transform="matrix(1.19249e-08 -1 -1 -1.19249e-08 76.47 5.19754)" fill="white"/>
<circle r="5.19699" transform="matrix(1.19249e-08 -1 -1 -1.19249e-08 57.1673 43.803)" fill="white"/>
<circle r="5.19699" transform="matrix(1.19249e-08 -1 -1 -1.19249e-08 43.803 24.5003)" fill="white"/>
<circle r="5.19699" transform="matrix(1.19249e-08 -1 -1 -1.19249e-08 57.1673 5.19754)" fill="white"/>
<circle r="5.19699" transform="matrix(1.19249e-08 -1 -1 -1.19249e-08 37.8636 43.803)" fill="white"/>
<circle r="5.19699" transform="matrix(1.19249e-08 -1 -1 -1.19249e-08 24.5003 24.5003)" fill="white"/>
<circle r="5.19699" transform="matrix(1.19249e-08 -1 -1 -1.19249e-08 37.8636 5.19754)" fill="white"/>
<circle r="5.19699" transform="matrix(1.19249e-08 -1 -1 -1.19249e-08 18.5608 43.803)" fill="white"/>
<circle r="5.19699" transform="matrix(1.19249e-08 -1 -1 -1.19249e-08 5.19754 24.5003)" fill="white"/>
<circle r="5.19699" transform="matrix(1.19249e-08 -1 -1 -1.19249e-08 18.5608 5.19754)" fill="white"/>
</g>
</svg>
