<svg width="66" height="175" viewBox="0 0 66 175" fill="none" xmlns="http://www.w3.org/2000/svg">
<path opacity="0.8" d="M-104.848 113.621C-108.966 108.297 -111.025 105.635 -112.095 102.654C-113.041 100.015 -113.422 97.2076 -113.213 94.4126C-112.977 91.2537 -111.701 88.1395 -109.15 81.9111L-89.7577 34.5645C-87.2067 28.3361 -85.9312 25.2219 -83.8835 22.805C-82.0717 20.6666 -79.8306 18.9328 -77.3057 17.7162C-74.452 16.3412 -71.1172 15.8887 -64.4477 14.9838L-13.7482 8.10477C-7.07872 7.19984 -3.74398 6.74738 -0.627078 7.31231C2.13077 7.81216 4.75276 8.88609 7.06887 10.4644C9.68653 12.2483 11.7458 14.91 15.8642 20.2335L47.1713 60.7011C51.2898 66.0246 53.349 68.6863 54.4182 71.6681C55.3642 74.3064 55.7452 77.1141 55.5363 79.9091C55.3003 83.0679 54.0248 86.1822 51.4737 92.4106L32.0814 139.757C29.5303 145.986 28.2548 149.1 26.2071 151.517C24.3953 153.655 22.1542 155.389 19.6293 156.605C16.7756 157.98 13.4409 158.433 6.77137 159.338L-43.9282 166.217C-50.5976 167.122 -53.9324 167.574 -57.0493 167.009C-59.8071 166.509 -62.4291 165.436 -64.7453 163.857C-67.3629 162.073 -69.4221 159.412 -73.5406 154.088L-104.848 113.621Z" fill="url(#paint0_linear)"/>
<defs>
<linearGradient id="paint0_linear" x1="-103.701" y1="114.464" x2="1.47095" y2="204.893" gradientUnits="userSpaceOnUse">
<stop stop-color="#00D46A"/>
<stop offset="1" stop-color="#1262FF"/>
</linearGradient>
</defs>
</svg>
