<svg width="103" height="258" viewBox="0 0 103 258" fill="none" xmlns="http://www.w3.org/2000/svg">
<path opacity="0.5" d="M-98.5659 77.6192C-95.036 68.1605 -93.2711 63.4311 -90.3155 59.7107C-87.7003 56.4189 -84.4225 53.7135 -80.6945 51.77C-76.4812 49.5734 -71.503 48.7372 -61.5466 47.0647L-17.5881 39.6809C-7.63165 38.0085 -2.65345 37.1723 2.04632 37.8717C6.20469 38.4906 10.1866 39.9766 13.7337 42.2333C17.7427 44.7838 20.9559 48.677 27.3825 56.4633L55.7564 90.8406C62.1829 98.6269 65.3962 102.52 67.1403 106.94C68.6836 110.851 69.3876 115.042 69.2068 119.242C69.0025 123.989 67.2375 128.719 63.7077 138.177L48.123 179.939C44.5931 189.397 42.8282 194.127 39.8726 197.847C37.2575 201.139 33.9796 203.844 30.2517 205.788C26.0384 207.984 21.0602 208.821 11.1037 210.493L-32.8548 217.877C-42.8112 219.549 -47.7894 220.385 -52.4892 219.686C-56.6476 219.067 -60.6294 217.581 -64.1766 215.324C-68.1855 212.774 -71.3988 208.881 -77.8254 201.094L-106.199 166.717C-112.626 158.931 -115.839 155.038 -117.583 150.618C-119.126 146.707 -119.83 142.516 -119.65 138.316C-119.445 133.568 -117.68 128.839 -114.151 119.38L-98.5659 77.6192Z" fill="url(#paint0_linear)"/>
<defs>
<linearGradient id="paint0_linear" x1="-96.3352" y1="72.9098" x2="-120.638" y2="228.435" gradientUnits="userSpaceOnUse">
<stop stop-color="#00D46A"/>
<stop offset="1" stop-color="#1262FF"/>
</linearGradient>
</defs>
</svg>
