<svg width="193" height="148" viewBox="0 0 193 148" fill="none" xmlns="http://www.w3.org/2000/svg">
<path opacity="0.07" d="M192.855 109.2C192.855 120.8 188.855 130.2 180.855 137.4C173.255 144.2 163.655 147.6 152.055 147.6C137.255 147.6 125.655 143 117.255 133.8C108.855 124.2 104.655 111.6 104.655 96C104.655 80 107.055 66.4 111.855 55.2C117.055 44 123.055 34.8 129.855 27.6C137.055 20 144.455 14.2 152.055 10.2C159.655 5.79998 166.255 2.59998 171.855 0.599985L191.055 33C183.055 36.2 176.255 41.4 170.655 48.6C165.055 55.4 161.855 62.8 161.055 70.8C169.055 70.8 176.255 74.4 182.655 81.6C189.455 88.4 192.855 97.6 192.855 109.2ZM89.0547 109.2C89.0547 120.8 85.0547 130.2 77.0547 137.4C69.4547 144.2 59.8547 147.6 48.2547 147.6C33.4547 147.6 21.8547 143 13.4547 133.8C5.05469 124.2 0.854689 111.6 0.854689 96C0.854689 80 3.25469 66.4 8.05469 55.2C13.2547 44 19.2547 34.8 26.0547 27.6C33.2547 20 40.6547 14.2 48.2547 10.2C55.8547 5.79998 62.4547 2.59998 68.0547 0.599985L87.2547 33C79.2547 36.2 72.4547 41.4 66.8547 48.6C61.2547 55.4 58.0547 62.8 57.2547 70.8C65.2547 70.8 72.4547 74.4 78.8547 81.6C85.6547 88.4 89.0547 97.6 89.0547 109.2Z" fill="white"/>
</svg>