<svg width="83" height="83" viewBox="0 0 83 83" fill="none" xmlns="http://www.w3.org/2000/svg">
<g clip-path="url(#clip0)">
<path d="M73.905 34.2754C73.42 27.3741 67.7269 21.996 60.8091 21.9041C59.6138 21.9033 58.4241 22.0689 57.2745 22.3963C54.6278 17.5995 49.5984 14.6046 44.1201 14.5629C42.0146 14.5616 39.9327 15.0068 38.0119 15.8694C34.3014 9.49961 26.7803 6.4096 19.6634 8.33096C12.5465 10.2523 7.60233 16.7076 7.60161 24.0793C7.59032 28.9709 9.78849 33.606 13.5833 36.6926C10.6379 39.3312 8.95671 43.1001 8.96109 47.0546C8.88555 54.5493 14.8901 60.6913 22.3846 60.7854H68.9484C75.4511 60.618 80.9525 55.9291 82.148 49.535C83.3435 43.141 79.908 36.781 73.905 34.2754ZM10.3206 24.0793C10.3117 17.9435 14.4199 12.5646 20.3418 10.9585C26.2637 9.35241 32.5267 11.9185 35.6192 17.218C32.4586 19.4196 30.2361 22.724 29.3887 26.4815C25.156 26.9659 21.5002 29.6648 19.7907 33.5671C18.4271 33.8456 17.1168 34.3403 15.9094 35.0327C12.3952 32.4912 10.3159 28.4162 10.3206 24.0793ZM68.9484 58.0664H22.3846C16.6952 57.895 12.0682 53.4273 11.6975 47.7474C11.3269 42.0675 15.3342 37.0363 20.9531 36.127C21.4509 36.0567 21.8692 35.7173 22.0407 35.2447C23.3256 31.6434 26.7037 29.2119 30.5266 29.1366C31.1921 29.1321 31.7565 28.6465 31.8603 27.9892C32.5817 22.5103 36.8617 18.1813 42.332 17.3977C47.8023 16.614 53.1256 19.5671 55.3562 24.6231C55.6569 25.2792 56.4179 25.586 57.0896 25.3219C58.2741 24.8554 59.5361 24.6169 60.8091 24.619C66.6049 24.7215 71.2442 29.459 71.2255 35.2556C71.23 35.8402 71.6078 36.3564 72.1636 36.5376C77.2184 38.2657 80.3168 43.3584 79.5278 48.6419C78.7387 53.9254 74.2875 57.8906 68.9484 58.0664Z" fill="url(#paint0_linear)"/>
<path d="M22.5566 2.32824V5.04721C22.5566 5.79803 23.1653 6.40669 23.9161 6.40669C24.667 6.40669 25.2756 5.79803 25.2756 5.04721V2.32824C25.2756 1.57741 24.667 0.96875 23.9161 0.96875C23.1653 0.96875 22.5566 1.57741 22.5566 2.32824Z" fill="url(#paint1_linear)"/>
<path d="M12.36 4.06461C12.0474 4.2449 11.8193 4.54208 11.7259 4.89067C11.6326 5.23926 11.6817 5.61066 11.8624 5.92302L13.2219 8.27629C13.463 8.70039 13.9129 8.96277 14.4007 8.96384C14.8886 8.96491 15.3396 8.70451 15.5826 8.28148C15.8256 7.85845 15.8233 7.33766 15.5765 6.91681L14.217 4.56354C14.037 4.25107 13.7401 4.02295 13.3919 3.92938C13.0436 3.8358 12.6724 3.88445 12.36 4.06461Z" fill="url(#paint2_linear)"/>
<path d="M8.61017 15.2431C8.98557 14.5928 8.7628 13.7614 8.1126 13.386L5.75797 12.0265C5.33712 11.7798 4.81633 11.7775 4.3933 12.0205C3.97027 12.2635 3.70987 12.7145 3.71094 13.2023C3.71201 13.6902 3.9744 14.14 4.39849 14.3812L6.75312 15.7406C7.40333 16.116 8.23475 15.8933 8.61017 15.2431Z" fill="url(#paint3_linear)"/>
<path d="M2.16417 25.4397H4.88314C5.63397 25.4397 6.24263 24.831 6.24263 24.0802C6.24263 23.3294 5.63397 22.7207 4.88314 22.7207H2.16417C1.41335 22.7207 0.804688 23.3294 0.804688 24.0802C0.804688 24.831 1.41335 25.4397 2.16417 25.4397Z" fill="url(#paint4_linear)"/>
<path d="M6.75312 32.4191L4.39849 33.7786C3.9744 34.0197 3.71201 34.4696 3.71094 34.9574C3.70987 35.4453 3.97027 35.8963 4.3933 36.1393C4.81633 36.3823 5.33712 36.3799 5.75798 36.1332L8.1126 34.7737C8.5367 34.5326 8.79908 34.0827 8.80015 33.5949C8.80123 33.1071 8.54082 32.656 8.11779 32.413C7.69477 32.1701 7.17397 32.1724 6.75312 32.4191Z" fill="url(#paint5_linear)"/>
<path d="M33.6145 4.56451L32.255 6.91778C32.0083 7.33863 32.006 7.85942 32.249 8.28245C32.492 8.70548 32.943 8.96588 33.4308 8.96481C33.9187 8.96374 34.3685 8.70135 34.6097 8.27726L35.9692 5.92399C36.2159 5.50313 36.2182 4.98234 35.9752 4.55932C35.7322 4.13629 35.2812 3.87588 34.7934 3.87696C34.3055 3.87803 33.8556 4.14041 33.6145 4.56451Z" fill="url(#paint6_linear)"/>
<path d="M51.1064 71.6624C51.1064 69.581 48.9094 65.9294 47.7892 64.5264C47.258 63.9083 46.4835 63.5527 45.6684 63.5527C44.8534 63.5527 44.0789 63.9083 43.5476 64.5264C42.4274 65.9294 40.2305 69.581 40.2305 71.6624C40.2305 74.6657 42.6651 77.1003 45.6684 77.1003C48.6717 77.1003 51.1064 74.6657 51.1064 71.6624ZM42.9494 71.6624C43.4607 69.6777 44.3875 67.8242 45.6684 66.2244C46.9515 67.8229 47.8785 69.6769 48.3874 71.6624C48.3874 73.164 47.1701 74.3814 45.6684 74.3814C44.1668 74.3814 42.9494 73.164 42.9494 71.6624Z" fill="url(#paint7_linear)"/>
<path d="M37.5107 77.0999C37.5107 75.0185 35.3137 71.3669 34.1935 69.9639C33.6623 69.3458 32.8878 68.9902 32.0727 68.9902C31.2577 68.9902 30.4832 69.3458 29.9519 69.9639C28.8317 71.3669 26.6348 75.0185 26.6348 77.0999C26.6348 80.1032 29.0694 82.5378 32.0727 82.5378C35.076 82.5378 37.5107 80.1032 37.5107 77.0999ZM29.3537 77.0999C29.865 75.1152 30.7918 73.2617 32.0727 71.6619C33.3558 73.2604 34.2828 75.1144 34.7917 77.0999C34.7917 78.6015 33.5744 79.8189 32.0727 79.8189C30.5711 79.8189 29.3537 78.6015 29.3537 77.0999Z" fill="url(#paint8_linear)"/>
<path d="M18.479 77.1003C21.4822 77.1003 23.9169 74.6657 23.9169 71.6624C23.9169 69.581 21.72 65.9294 20.5998 64.5264C20.0685 63.9083 19.294 63.5527 18.479 63.5527C17.6639 63.5527 16.8894 63.9083 16.3582 64.5264C15.2379 65.9294 13.041 69.581 13.041 71.6624C13.041 74.6657 15.4757 77.1003 18.479 77.1003ZM18.479 66.2244C19.762 67.8229 20.689 69.6769 21.1979 71.6624C21.1979 73.164 19.9806 74.3814 18.479 74.3814C16.9773 74.3814 15.76 73.164 15.76 71.6624C16.2713 69.6777 17.198 67.8242 18.479 66.2244Z" fill="url(#paint9_linear)"/>
<path d="M64.7001 77.0999C64.7001 75.0185 62.5032 71.3669 61.383 69.9639C60.8517 69.3458 60.0772 68.9902 59.2622 68.9902C58.4471 68.9902 57.6726 69.3458 57.1414 69.9639C56.0211 71.3669 53.8242 75.0185 53.8242 77.0999C53.8242 80.1032 56.2589 82.5378 59.2622 82.5378C62.2655 82.5378 64.7001 80.1032 64.7001 77.0999ZM56.5432 77.0999C57.0545 75.1152 57.9812 73.2617 59.2622 71.6619C60.5453 73.2604 61.4723 75.1144 61.9811 77.0999C61.9811 78.6015 60.7638 79.8189 59.2622 79.8189C57.7605 79.8189 56.5432 78.6015 56.5432 77.0999Z" fill="url(#paint10_linear)"/>
<path d="M78.2958 71.6624C78.2958 69.581 76.0989 65.9294 74.9787 64.5264C74.4474 63.9083 73.6729 63.5527 72.8579 63.5527C72.0428 63.5527 71.2683 63.9083 70.7371 64.5264C69.6168 65.9294 67.4199 69.581 67.4199 71.6624C67.4199 74.6657 69.8546 77.1003 72.8579 77.1003C75.8612 77.1003 78.2958 74.6657 78.2958 71.6624ZM70.1389 71.6624C70.6502 69.6777 71.5769 67.8242 72.8579 66.2244C74.141 67.8229 75.0679 69.6769 75.5768 71.6624C75.5768 73.164 74.3595 74.3814 72.8579 74.3814C71.3562 74.3814 70.1389 73.164 70.1389 71.6624Z" fill="url(#paint11_linear)"/>
<path d="M23.9163 52.6289H21.1974C20.4466 52.6289 19.8379 53.2376 19.8379 53.9884C19.8379 54.7392 20.4466 55.3479 21.1974 55.3479H23.9163C24.6672 55.3479 25.2758 54.7392 25.2758 53.9884C25.2758 53.2376 24.6672 52.6289 23.9163 52.6289Z" fill="url(#paint12_linear)"/>
<path d="M70.1382 52.6289H29.3536C28.6028 52.6289 27.9941 53.2376 27.9941 53.9884C27.9941 54.7392 28.6028 55.3479 29.3536 55.3479H70.1382C70.889 55.3479 71.4977 54.7392 71.4977 53.9884C71.4977 53.2376 70.889 52.6289 70.1382 52.6289Z" fill="url(#paint13_linear)"/>
</g>
<defs>
<linearGradient id="paint0_linear" x1="44.9928" y1="7.76562" x2="44.9928" y2="60.7854" gradientUnits="userSpaceOnUse">
<stop stop-color="#00D46A"/>
<stop offset="1" stop-color="#1262FF"/>
</linearGradient>
<linearGradient id="paint1_linear" x1="23.9161" y1="0.96875" x2="23.9161" y2="6.40669" gradientUnits="userSpaceOnUse">
<stop stop-color="#00D46A"/>
<stop offset="1" stop-color="#1262FF"/>
</linearGradient>
<linearGradient id="paint2_linear" x1="13.7214" y1="3.88281" x2="13.7214" y2="8.96385" gradientUnits="userSpaceOnUse">
<stop stop-color="#00D46A"/>
<stop offset="1" stop-color="#1262FF"/>
</linearGradient>
<linearGradient id="paint3_linear" x1="6.25173" y1="11.8398" x2="6.25173" y2="15.923" gradientUnits="userSpaceOnUse">
<stop stop-color="#00D46A"/>
<stop offset="1" stop-color="#1262FF"/>
</linearGradient>
<linearGradient id="paint4_linear" x1="3.52366" y1="22.7207" x2="3.52366" y2="25.4397" gradientUnits="userSpaceOnUse">
<stop stop-color="#00D46A"/>
<stop offset="1" stop-color="#1262FF"/>
</linearGradient>
<linearGradient id="paint5_linear" x1="6.25555" y1="32.2324" x2="6.25555" y2="36.3199" gradientUnits="userSpaceOnUse">
<stop stop-color="#00D46A"/>
<stop offset="1" stop-color="#1262FF"/>
</linearGradient>
<linearGradient id="paint6_linear" x1="34.1121" y1="3.87695" x2="34.1121" y2="8.96481" gradientUnits="userSpaceOnUse">
<stop stop-color="#00D46A"/>
<stop offset="1" stop-color="#1262FF"/>
</linearGradient>
<linearGradient id="paint7_linear" x1="45.6684" y1="63.5527" x2="45.6684" y2="77.1003" gradientUnits="userSpaceOnUse">
<stop stop-color="#00D46A"/>
<stop offset="1" stop-color="#1262FF"/>
</linearGradient>
<linearGradient id="paint8_linear" x1="32.0727" y1="68.9902" x2="32.0727" y2="82.5378" gradientUnits="userSpaceOnUse">
<stop stop-color="#00D46A"/>
<stop offset="1" stop-color="#1262FF"/>
</linearGradient>
<linearGradient id="paint9_linear" x1="18.479" y1="63.5527" x2="18.479" y2="77.1003" gradientUnits="userSpaceOnUse">
<stop stop-color="#00D46A"/>
<stop offset="1" stop-color="#1262FF"/>
</linearGradient>
<linearGradient id="paint10_linear" x1="59.2622" y1="68.9902" x2="59.2622" y2="82.5378" gradientUnits="userSpaceOnUse">
<stop stop-color="#00D46A"/>
<stop offset="1" stop-color="#1262FF"/>
</linearGradient>
<linearGradient id="paint11_linear" x1="72.8579" y1="63.5527" x2="72.8579" y2="77.1003" gradientUnits="userSpaceOnUse">
<stop stop-color="#00D46A"/>
<stop offset="1" stop-color="#1262FF"/>
</linearGradient>
<linearGradient id="paint12_linear" x1="22.5569" y1="52.6289" x2="22.5569" y2="55.3479" gradientUnits="userSpaceOnUse">
<stop stop-color="#00D46A"/>
<stop offset="1" stop-color="#1262FF"/>
</linearGradient>
<linearGradient id="paint13_linear" x1="49.7459" y1="52.6289" x2="49.7459" y2="55.3479" gradientUnits="userSpaceOnUse">
<stop stop-color="#00D46A"/>
<stop offset="1" stop-color="#1262FF"/>
</linearGradient>
<clipPath id="clip0">
<rect width="81.5691" height="81.5691" fill="white" transform="translate(0.804688 0.96875)"/>
</clipPath>
</defs>
</svg>
