<svg width="23" height="23" viewBox="0 0 23 23" fill="none" xmlns="http://www.w3.org/2000/svg">
<g clip-path="url(#clip0)">
<path d="M7.70117 12.6484V12.6498H8.40123L7.70117 12.6484Z" fill="#FF4500"/>
<path d="M14.7012 12.6484V12.6498H15.4012L14.7012 12.6484Z" fill="#FF4500"/>
<path d="M22.5 10.5493C22.5 9.00492 21.2441 7.749 19.6998 7.749C19.0823 7.749 18.4956 7.95062 18.0168 8.31606C16.4543 7.23096 14.4073 6.5841 12.2301 6.42029L13.4048 3.66484L16.8225 4.46291C16.9317 5.52001 17.8166 6.34888 18.9017 6.34888C20.0596 6.34888 21.0019 5.4066 21.0019 4.24869C21.0019 3.09079 20.0596 2.14851 18.9017 2.14851C18.168 2.14851 17.5226 2.52794 17.1473 3.10059L13.1528 2.16671C12.8139 2.0897 12.4821 2.26192 12.3477 2.57414L10.7236 6.38248C8.37274 6.46369 6.13254 7.12595 4.44119 8.27965C3.98055 7.93802 3.4093 7.749 2.80025 7.749C1.25591 7.749 0 9.00492 0 10.5493C0 11.5727 0.55865 12.4982 1.41553 12.9729C1.40432 13.0961 1.40012 13.2221 1.40012 13.3495C1.40012 17.2096 5.79652 20.3501 11.201 20.3501C16.6041 20.3501 21.0019 17.2096 21.0019 13.3495C21.0019 13.2403 20.9977 13.1325 20.9907 13.0247C21.9035 12.5598 22.5 11.6119 22.5 10.5493ZM18.9017 3.54863C19.2867 3.54863 19.6017 3.86226 19.6017 4.24869C19.6017 4.63513 19.2867 4.94876 18.9017 4.94876C18.5166 4.94876 18.2016 4.63513 18.2016 4.24869C18.2016 3.86226 18.5166 3.54863 18.9017 3.54863ZM6.30056 12.6494C6.30056 11.878 6.92922 11.2493 7.70068 11.2493C8.47215 11.2493 9.10081 11.878 9.10081 12.6494C9.10081 13.4223 8.47215 14.0496 7.70068 14.0496C6.92922 14.0496 6.30056 13.4223 6.30056 12.6494ZM14.4339 17.2937C13.4678 17.9923 12.3337 18.3423 11.201 18.3423C10.0683 18.3423 8.93419 17.9923 7.96811 17.2937C7.65448 17.0668 7.58447 16.6286 7.81129 16.3164C8.03811 16.0041 8.47635 15.9341 8.78858 16.1596C10.2321 17.2026 12.1699 17.2054 13.6134 16.1596C13.9256 15.9341 14.3625 16.0013 14.5907 16.3164C14.8175 16.63 14.7461 17.0668 14.4339 17.2937ZM14.7013 14.0496C13.9284 14.0496 13.3012 13.4223 13.3012 12.6494C13.3012 11.878 13.9284 11.2493 14.7013 11.2493C15.4742 11.2493 16.1014 11.878 16.1014 12.6494C16.1014 13.4223 15.4742 14.0496 14.7013 14.0496Z" fill="#FF4500"/>
</g>
<defs>
<clipPath id="clip0">
<rect width="22.5" height="22.5" fill="white"/>
</clipPath>
</defs>
</svg>
