<svg width="95" height="157" viewBox="0 0 95 157" fill="none" xmlns="http://www.w3.org/2000/svg">
<path opacity="0.5" d="M37.4889 39.1062C38.7809 35.9988 39.4268 34.4451 40.4571 33.2421C41.3686 32.1777 42.4937 31.3167 43.7594 30.7151C45.1898 30.0351 46.8584 29.8177 50.1954 29.3828L91.3721 24.0173C94.7092 23.5825 96.3778 23.3651 97.9347 23.6557C99.3123 23.913 100.62 24.4568 101.774 25.2521C103.078 26.151 104.101 27.4872 106.146 30.1598L131.381 63.1371C133.426 65.8097 134.449 67.146 134.976 68.6397C135.442 69.9613 135.625 71.3661 135.513 72.763C135.386 74.3418 134.74 75.8956 133.449 79.003L117.507 117.346C116.215 120.453 115.569 122.007 114.539 123.21C113.627 124.274 112.502 125.135 111.236 125.737C109.806 126.417 108.137 126.634 104.8 127.069L63.6236 132.435C60.2865 132.87 58.618 133.087 57.0611 132.796C55.6835 132.539 54.3753 131.995 53.2215 131.2C51.9174 130.301 50.8948 128.965 48.8497 126.292L23.6147 93.3149C21.5695 90.6423 20.547 89.306 20.0202 87.8123C19.5542 86.4907 19.3711 85.0859 19.483 83.689C19.6093 82.1102 20.2553 80.5564 21.5472 77.449L37.4889 39.1062Z" fill="url(#paint0_linear)"/>
<defs>
<linearGradient id="paint0_linear" x1="36.0934" y1="43.1556" x2="18.0844" y2="135.87" gradientUnits="userSpaceOnUse">
<stop stop-color="#00D46A"/>
<stop offset="1" stop-color="#1262FF"/>
</linearGradient>
</defs>
</svg>
