<svg width="60" height="60" viewBox="0 0 60 60" fill="none" xmlns="http://www.w3.org/2000/svg">
<g clip-path="url(#clip0)">
<path d="M29.6528 47.6641C29.3328 47.6641 29.0128 47.5416 28.7678 47.2991L12.7003 31.2316C12.2303 30.7616 12.2103 30.0091 12.6503 29.5141L24.6928 16.0241C33.1103 6.17664 46.8178 -0.195858 58.7703 0.00664203C59.4378 0.021642 59.9753 0.559142 59.9903 1.22664C60.2678 13.1866 53.8228 26.8866 43.9503 35.3216L30.4828 47.3466C30.2478 47.5591 29.9478 47.6641 29.6528 47.6641ZM15.3028 30.2991L29.7003 44.6966L42.3078 33.4416C51.3228 25.7366 57.3103 13.4566 57.4953 2.50414C46.5428 2.68664 34.2653 8.67414 26.5753 17.6691L15.3028 30.2991Z" fill="white"/>
<path d="M34.4402 56.8158C34.3202 56.8158 34.1977 56.7983 34.0827 56.7608C33.6327 56.6108 33.2627 56.2658 33.1977 55.7958L31.4827 43.8283C31.3852 43.1458 31.8602 42.5133 32.5427 42.4133C33.2252 42.3058 33.8577 42.7883 33.9577 43.4733L35.2977 52.8233C39.6777 47.5858 42.1127 40.9458 42.1127 34.1758C42.1127 33.4858 42.6727 32.9258 43.3627 32.9258C44.0527 32.9258 44.6127 33.4858 44.6127 34.1758C44.6127 42.4583 41.2577 50.5658 35.4077 56.4133C35.1577 56.6633 34.7927 56.8158 34.4402 56.8158Z" fill="white"/>
<path d="M16.3523 28.5292C16.2948 28.5292 16.2348 28.5267 16.1748 28.5167L4.20734 26.8017C3.73734 26.7342 3.34484 26.4067 3.19734 25.9542C3.04984 25.5042 3.16984 25.0067 3.50734 24.6742C9.43984 18.7417 17.5448 15.3867 25.8273 15.3867C26.5173 15.3867 27.0773 15.9467 27.0773 16.6367C27.0773 17.3267 26.5173 17.8867 25.8273 17.8867C19.0248 17.8867 12.3498 20.3442 7.16734 24.6992L16.5298 26.0417C17.2123 26.1417 17.6873 26.7717 17.5898 27.4567C17.4973 28.0792 16.9623 28.5292 16.3523 28.5292Z" fill="white"/>
<path d="M42.8327 23.4155C41.2302 23.4155 39.6302 22.8055 38.4127 21.588C35.9777 19.1505 35.9777 15.1855 38.4127 12.748C40.8502 10.3105 44.8152 10.3105 47.2527 12.748C49.6877 15.1855 49.6877 19.1505 47.2527 21.588C46.0327 22.808 44.4327 23.4155 42.8327 23.4155ZM42.8327 13.4205C41.8727 13.4205 40.9102 13.7855 40.1802 14.5155C38.7202 15.978 38.7202 18.358 40.1802 19.8205C41.6427 21.2805 44.0227 21.278 45.4852 19.8205C46.9452 18.358 46.9452 15.978 45.4852 14.5155C44.7527 13.788 43.7927 13.4205 42.8327 13.4205ZM46.3677 20.7055H46.3927H46.3677Z" fill="white"/>
<path d="M1.25005 59.9992C0.922551 59.9992 0.605051 59.8717 0.36505 59.6342C0.0400504 59.3092 -0.0799496 58.8317 0.0525504 58.3917C0.46255 57.0242 4.13505 44.9392 6.81005 42.2642C9.82255 39.2517 14.7251 39.2492 17.7376 42.2642C20.7501 45.2767 20.7501 50.1792 17.7376 53.1917C15.0626 55.8667 2.97755 59.5392 1.61005 59.9492C1.49005 59.9817 1.37005 59.9992 1.25005 59.9992ZM12.2751 42.5017C10.9351 42.5017 9.59755 43.0117 8.57755 44.0292C7.13505 45.4742 4.73505 51.9267 3.15005 56.8492C8.07005 55.2642 14.5251 52.8642 15.9676 51.4217C18.0051 49.3842 18.0051 46.0667 15.9676 44.0292C14.9501 43.0117 13.6126 42.5017 12.2751 42.5017Z" fill="white"/>
</g>
<defs>
<clipPath id="clip0">
<rect width="60" height="60" fill="white"/>
</clipPath>
</defs>
</svg>
