<svg width="121" height="219" viewBox="0 0 121 219" fill="none" xmlns="http://www.w3.org/2000/svg">
<path opacity="0.8" d="M-102.15 139.98C-106.269 134.656 -108.328 131.995 -109.397 129.013C-110.343 126.375 -110.724 123.567 -110.515 120.772C-110.279 117.613 -109.004 114.499 -106.453 108.27L-75.1097 31.746C-72.5587 25.5176 -71.2831 22.4034 -69.2354 19.9866C-67.4236 17.8481 -65.1826 16.1144 -62.6576 14.8977C-59.8039 13.5227 -56.4692 13.0702 -49.7997 12.1653L32.144 1.04705C38.8135 0.142124 42.1482 -0.310339 45.2651 0.254589C48.0229 0.754439 50.6449 1.82837 52.9611 3.40672C55.5787 5.19058 57.6379 7.85231 61.7564 13.1758L112.357 78.582C116.475 83.9054 118.535 86.5672 119.604 89.549C120.55 92.1873 120.931 94.9949 120.722 97.7899C120.486 100.949 119.21 104.063 116.659 110.291L85.3161 186.816C82.7651 193.044 81.4896 196.158 79.4419 198.575C77.6301 200.714 75.389 202.448 72.8641 203.664C70.0104 205.039 66.6756 205.492 60.0062 206.397L-21.9375 217.515C-28.607 218.42 -31.9417 218.872 -35.0587 218.307C-37.8165 217.807 -40.4385 216.734 -42.7546 215.155C-45.3723 213.371 -47.4315 210.71 -51.5499 205.386L-102.15 139.98Z" fill="url(#paint0_linear)"/>
<defs>
<linearGradient id="paint0_linear" x1="-96.5483" y1="146.354" x2="46.258" y2="269.142" gradientUnits="userSpaceOnUse">
<stop stop-color="#00D46A"/>
<stop offset="1" stop-color="#1262FF"/>
</linearGradient>
</defs>
</svg>
