<svg width="1440" height="1329" viewBox="0 0 1440 1329" fill="none" xmlns="http://www.w3.org/2000/svg">
<g opacity="0.6">
<path opacity="0.73" d="M1662 1329V169.379C1049.12 236.013 580.387 602.287 580.387 1044.21C580.387 1143.84 604.233 1239.62 648.162 1329H1662Z" fill="url(#paint0_radial)"/>
<path opacity="0.73" d="M388.867 1329C477.892 1142.54 532.271 893.615 532.271 620.135C532.271 388.003 493.054 173.576 426.759 0H0V1329H388.867Z" fill="url(#paint1_radial)"/>
<path opacity="0.59" d="M1662 0H1364.22C1358.58 79.4166 1355.65 160.836 1355.65 243.79C1355.65 568.513 1400.44 869.82 1476.97 1118.77H1662V0Z" fill="url(#paint2_radial)"/>
<path opacity="0.54" d="M194.515 1329C549.137 1225.91 800.29 969.712 800.29 669.94C800.29 358.985 530.06 94.926 154.412 0H0V1329H194.515Z" fill="url(#paint3_radial)"/>
<path opacity="0.3" d="M562.114 0H0V1271.92H628.943C919.727 1128.98 1107.2 904.148 1107.2 651.253C1107.2 379.492 890.688 140.125 562.114 0Z" fill="url(#paint4_radial)"/>
<path d="M1662 1329V0H1550.31C1150.77 141.649 868.059 491.539 868.059 900.796C868.059 1054.55 907.972 1199.91 978.98 1329H1662Z" fill="url(#paint5_radial)"/>
<path opacity="0.2" d="M773.192 1329C1175.86 1225.43 1440.55 1050.22 1440.55 851.452C1440.55 542.792 802.15 290.855 0 276.018V1329H773.192Z" fill="url(#paint6_radial)"/>
<path opacity="0.35" d="M1662 0H548.414C617.683 559.915 833.109 993.917 1130.55 1089.57C1279.41 1137.44 1429.44 1094.31 1566.9 979.856L1662 210.285V0Z" fill="url(#paint7_radial)"/>
<path opacity="0.2" d="M1442.91 1329C1432.97 921.428 1048.73 593.677 576.154 593.677C354.974 593.677 153.169 665.503 0 783.684V1329H1442.91Z" fill="url(#paint8_radial)"/>
<path opacity="0.25" d="M1662 0H287.848C298.445 407.071 682.437 734.237 1154.6 734.237C1344.09 734.237 1519.35 681.513 1662 592.101L1662 0Z" fill="url(#paint9_radial)"/>
<path opacity="0.2" d="M1662 1329V249.034C1578.51 206.032 1489.12 182.702 1396.19 182.702C964.698 182.702 609.691 684.906 566.064 1329H1662Z" fill="url(#paint10_radial)"/>
</g>
<defs>
<radialGradient id="paint0_radial" cx="0" cy="0" r="1" gradientUnits="userSpaceOnUse" gradientTransform="translate(1863.05 1044.21) scale(1282.56 885.71)">
<stop stop-color="#00B7FA"/>
<stop offset="0.0212" stop-color="#00A9EC"/>
<stop offset="0.101" stop-color="#0079BA"/>
<stop offset="0.1801" stop-color="#005291"/>
<stop offset="0.2569" stop-color="#003371"/>
<stop offset="0.3308" stop-color="#001D5A"/>
<stop offset="0.4006" stop-color="#00104D"/>
<stop offset="0.462" stop-color="#000B48"/>
<stop offset="1"/>
</radialGradient>
<radialGradient id="paint1_radial" cx="0" cy="0" r="1" gradientUnits="userSpaceOnUse" gradientTransform="translate(-10.3887 620.146) rotate(-90) scale(1046.76 542.658)">
<stop stop-color="#00B7FA"/>
<stop offset="0.0212" stop-color="#00A9EC"/>
<stop offset="0.101" stop-color="#0079BA"/>
<stop offset="0.1801" stop-color="#005291"/>
<stop offset="0.2569" stop-color="#003371"/>
<stop offset="0.3308" stop-color="#001D5A"/>
<stop offset="0.4006" stop-color="#00104D"/>
<stop offset="0.462" stop-color="#000B48"/>
<stop offset="1"/>
</radialGradient>
<radialGradient id="paint2_radial" cx="0" cy="0" r="1" gradientUnits="userSpaceOnUse" gradientTransform="translate(2049.89 243.799) scale(694.25 1549.22)">
<stop stop-color="#2986FF"/>
<stop offset="0.0465" stop-color="#2578E5"/>
<stop offset="0.1511" stop-color="#1C5CB0"/>
<stop offset="0.26" stop-color="#154481"/>
<stop offset="0.3708" stop-color="#0E2F59"/>
<stop offset="0.4842" stop-color="#091E39"/>
<stop offset="0.6008" stop-color="#051120"/>
<stop offset="0.722" stop-color="#02070E"/>
<stop offset="0.8507" stop-color="#010203"/>
<stop offset="1"/>
</radialGradient>
<radialGradient id="paint3_radial" cx="0" cy="0" r="1" gradientUnits="userSpaceOnUse" gradientTransform="translate(-152.971 668.818) scale(953.894 708.243)">
<stop stop-color="#047A3F"/>
<stop offset="1"/>
</radialGradient>
<radialGradient id="paint4_radial" cx="0" cy="0" r="1" gradientUnits="userSpaceOnUse" gradientTransform="translate(-113.885 651.26) scale(1220.6 781.722)">
<stop stop-color="#05AFFD"/>
<stop offset="1" stop-color="#00101E"/>
</radialGradient>
<radialGradient id="paint5_radial" cx="0" cy="0" r="1" gradientUnits="userSpaceOnUse" gradientTransform="translate(1945.76 900.797) rotate(180) scale(1077.29 967.771)">
<stop stop-color="#27A9E0"/>
<stop offset="0.1037" stop-color="#1E84AF"/>
<stop offset="0.2167" stop-color="#166181"/>
<stop offset="0.334" stop-color="#104359"/>
<stop offset="0.454" stop-color="#0A2B39"/>
<stop offset="0.5774" stop-color="#061820"/>
<stop offset="0.7057" stop-color="#020B0E"/>
<stop offset="0.842" stop-color="#010303"/>
<stop offset="1"/>
</radialGradient>
<radialGradient id="paint6_radial" cx="0" cy="0" r="1" gradientUnits="userSpaceOnUse" gradientTransform="translate(-74.844 851.465) scale(1514.73 575.819)">
<stop stop-color="#2CD6A8"/>
<stop offset="1" stop-color="#000403"/>
</radialGradient>
<radialGradient id="paint7_radial" cx="0" cy="0" r="1" gradientUnits="userSpaceOnUse" gradientTransform="translate(1336.26 -574.962) rotate(-82.9543) scale(1677.06 810.024)">
<stop stop-color="#2986FF"/>
<stop offset="1"/>
</radialGradient>
<radialGradient id="paint8_radial" cx="0" cy="0" r="1" gradientUnits="userSpaceOnUse" gradientTransform="translate(576.143 1345.2) scale(866.975 751.497)">
<stop stop-color="#0568FD"/>
<stop offset="1" stop-color="#01080B"/>
</radialGradient>
<radialGradient id="paint9_radial" cx="0" cy="0" r="1" gradientUnits="userSpaceOnUse" gradientTransform="translate(1154.6 -17.2727) rotate(180) scale(866.975 751.497)">
<stop stop-color="#05AFFD"/>
<stop offset="1" stop-color="#000B10"/>
</radialGradient>
<radialGradient id="paint10_radial" cx="0" cy="0" r="1" gradientUnits="userSpaceOnUse" gradientTransform="translate(1396.18 1462.84) scale(834.629 1280.13)">
<stop stop-color="#45FCCA"/>
<stop offset="1" stop-color="#002023"/>
</radialGradient>
</defs>
</svg>
