<svg width="137" height="281" viewBox="0 0 137 281" fill="none" xmlns="http://www.w3.org/2000/svg">
<g opacity="0.5" filter="url(#filter0_d)">
<path d="M12.8706 3.78698C23.0276 1.24232 28.1061 -0.0300065 32.9976 0.356059C37.3243 0.697545 41.5254 1.97377 45.3109 4.09664C49.5906 6.49663 53.1032 10.3788 60.1285 18.1431L117.657 81.724C124.307 89.0727 127.631 92.7471 129.564 97.0028C131.275 100.769 132.188 104.848 132.247 108.983C132.313 113.657 130.873 118.398 127.992 127.881L101.404 215.402C98.5238 224.885 97.0835 229.626 94.4288 233.473C92.0795 236.877 89.0516 239.759 85.5354 241.937C81.5619 244.398 76.7553 245.603 67.142 248.011L-16.0318 268.849C-26.1888 271.394 -31.2673 272.666 -36.1588 272.28C-40.4854 271.938 -44.6865 270.662 -48.4721 268.539C-52.7518 266.139 -56.2644 262.257 -63.2897 254.493L-120.818 190.912C-127.468 183.563 -130.792 179.889 -132.725 175.633C-134.436 171.867 -135.349 167.788 -135.408 163.652C-135.474 158.979 -134.034 154.238 -131.153 144.755L-104.566 57.2337C-101.685 47.7511 -100.245 43.0099 -97.5899 39.1629C-95.2407 35.7586 -92.2128 32.8769 -88.6966 30.6987C-84.7231 28.2374 -79.9164 27.0332 -70.3031 24.6247L12.8706 3.78698Z" fill="url(#paint0_linear)"/>
</g>
<defs>
<filter id="filter0_d" x="-139.41" y="0.288086" width="275.659" height="280.06" filterUnits="userSpaceOnUse" color-interpolation-filters="sRGB">
<feFlood flood-opacity="0" result="BackgroundImageFix"/>
<feColorMatrix in="SourceAlpha" type="matrix" values="0 0 0 0 0 0 0 0 0 0 0 0 0 0 0 0 0 0 127 0"/>
<feOffset dy="4"/>
<feGaussianBlur stdDeviation="2"/>
<feColorMatrix type="matrix" values="0 0 0 0 0 0 0 0 0 0 0 0 0 0 0 0 0 0 0.25 0"/>
<feBlend mode="normal" in2="BackgroundImageFix" result="effect1_dropShadow"/>
<feBlend mode="normal" in="SourceGraphic" in2="effect1_dropShadow" result="shape"/>
</filter>
<linearGradient id="paint0_linear" x1="9.98139" y1="5.17076" x2="-195.825" y2="95.0634" gradientUnits="userSpaceOnUse">
<stop stop-color="#00D46A"/>
<stop offset="1" stop-color="#1262FF"/>
</linearGradient>
</defs>
</svg>
