<svg width="500" height="289" viewBox="0 0 500 289" fill="none" xmlns="http://www.w3.org/2000/svg">
<g clip-path="url(#clip0)">
<path opacity="0.2" d="M356.811 187.73C301.947 255.425 187.502 299.385 101.196 285.918C14.8874 272.45 -10.6006 206.654 44.2639 138.958C99.1285 71.2625 213.573 27.3025 299.879 40.7697C386.186 54.2389 411.676 120.035 356.811 187.73Z" fill="url(#paint0_radial)"/>
<path opacity="0.3" d="M171.117 169.112C166.254 169.112 161.302 168.455 156.611 167.076C147.207 164.309 140.774 159.118 138.962 152.835C137.692 148.432 138.886 143.862 142.324 139.965C142.324 139.965 142.324 139.965 142.325 139.964L142.694 139.546C150.936 130.205 169.86 126.557 185.774 131.238C195.178 134.005 201.611 139.195 203.423 145.479C204.693 149.883 203.499 154.453 200.061 158.349L199.691 158.768C193.879 165.355 182.753 169.112 171.117 169.112ZM145.591 142.852C143.14 145.631 142.295 148.665 143.15 151.628C144.52 156.379 150.012 160.589 157.841 162.894C172.024 167.066 189.331 163.92 196.424 155.882L196.794 155.463C199.244 152.685 200.09 149.651 199.235 146.688C197.864 141.936 192.373 137.726 184.544 135.421C170.362 131.249 153.055 134.394 145.961 142.433L145.591 142.852Z" fill="#007AFF"/>
<path d="M170.941 167.177C166.286 167.177 161.565 166.561 157.143 165.261C148.373 162.68 142.407 157.96 140.779 152.312C139.679 148.498 140.703 144.662 143.74 141.218L144.109 140.8C151.776 132.112 170.228 128.641 185.239 133.055C194.01 135.636 199.976 140.356 201.604 146.004C202.703 149.818 201.679 153.654 198.642 157.097L198.273 157.515C192.865 163.643 182.09 167.177 170.941 167.177ZM144.172 141.599C141.27 144.887 140.288 148.536 141.331 152.151C142.882 157.526 148.854 162.222 157.306 164.708C172.125 169.068 190.31 165.669 197.841 157.133L198.21 156.715C201.112 153.428 202.094 149.778 201.051 146.163C199.5 140.786 193.529 136.093 185.076 133.605C170.257 129.246 152.073 132.645 144.541 141.18L144.172 141.599Z" fill="#007AFF"/>
<path d="M171.207 163.731C164.185 163.731 157.166 162.188 151.821 159.102C146.615 156.096 143.748 152.091 143.748 147.824C143.748 143.557 146.615 139.552 151.821 136.546C162.51 130.374 179.9 130.374 190.589 136.546C195.796 139.552 198.663 143.557 198.663 147.826C198.663 152.092 195.796 156.097 190.59 159.103C185.246 162.188 178.225 163.731 171.207 163.731ZM171.205 132.212C164.24 132.212 157.273 133.743 151.971 136.806C146.862 139.756 144.048 143.668 144.048 147.824C144.048 151.98 146.862 155.894 151.971 158.843C162.578 164.967 179.834 164.968 190.44 158.843C195.549 155.895 198.363 151.981 198.363 147.826C198.363 143.669 195.549 139.755 190.439 136.806C185.136 133.743 178.171 132.212 171.205 132.212Z" fill="url(#paint1_linear)"/>
<path opacity="0.6" d="M171.204 161.137C183.938 161.137 194.262 155.176 194.262 147.824C194.262 140.471 183.938 134.511 171.204 134.511C158.47 134.511 148.146 140.471 148.146 147.824C148.146 155.176 158.47 161.137 171.204 161.137Z" fill="#0C0F38"/>
<path d="M198.511 140.981V132.057H193.677C192.749 131.282 191.709 130.537 190.514 129.847C179.85 123.689 162.56 123.689 151.895 129.847C150.7 130.537 149.658 131.282 148.73 132.057H143.896V140.995C143.896 145.03 146.563 149.065 151.895 152.144C162.559 158.302 179.849 158.302 190.514 152.144C195.853 149.062 198.518 145.021 198.511 140.981Z" fill="url(#paint2_linear)"/>
<path d="M144.148 140.763V132.056H143.896V140.994C143.896 144.606 146.05 148.213 150.323 151.139C146.213 148.097 144.148 144.432 144.148 140.763Z" fill="#00D46A"/>
<path d="M198.08 132.056V140.694C198.087 144.733 195.422 148.775 190.084 151.857C179.42 158.014 162.13 158.014 151.466 151.857C150.923 151.543 150.427 151.214 149.939 150.882C150.548 151.317 151.196 151.739 151.896 152.143C162.56 158.301 179.85 158.301 190.515 152.143C195.853 149.061 198.518 145.02 198.511 140.98V132.056H198.08Z" fill="#0062CC"/>
<path d="M171.206 147.823C186.288 147.823 198.514 140.764 198.514 132.056C198.514 123.348 186.288 116.289 171.206 116.289C156.125 116.289 143.898 123.348 143.898 132.056C143.898 140.764 156.125 147.823 171.206 147.823Z" fill="url(#paint3_linear)"/>
<path d="M152.633 121.071C158.05 117.944 165.126 116.365 172.225 116.319C164.9 116.161 157.488 117.679 151.895 120.909C143.587 125.706 141.678 132.914 146.42 138.642C142.338 132.779 144.406 125.821 152.633 121.071Z" fill="#00D46A"/>
<path d="M190.514 120.907C187.681 119.272 184.374 118.084 180.853 117.317C184.014 118.086 186.98 119.205 189.556 120.692C200.22 126.85 200.22 136.833 189.556 142.99C181.726 147.511 170.327 148.699 160.598 146.58C170.528 148.995 182.425 147.876 190.515 143.205C201.178 137.048 201.178 127.065 190.514 120.907Z" fill="#0062CC"/>
<path d="M171.072 142.133C180.711 142.133 188.524 137.622 188.524 132.057C188.524 126.492 180.711 121.98 171.072 121.98C161.434 121.98 153.621 126.492 153.621 132.057C153.621 137.622 161.434 142.133 171.072 142.133Z" fill="#005EC4"/>
<path d="M158.732 130.332C165.547 126.397 176.597 126.397 183.412 130.332C185.618 131.606 187.098 133.137 187.876 134.756C189.502 131.371 188.021 127.593 183.412 124.931C176.597 120.996 165.547 120.996 158.732 124.931C154.123 127.592 152.643 131.371 154.268 134.755C155.046 133.137 156.527 131.606 158.732 130.332Z" fill="#00A1C4"/>
<path d="M158.733 128.425C165.548 124.49 176.598 124.49 183.413 128.425C186.048 129.946 187.652 131.833 188.249 133.803C189.198 130.678 187.594 127.345 183.413 124.931C176.598 120.996 165.548 120.996 158.733 124.931C154.553 127.344 152.948 130.677 153.897 133.802C154.495 131.833 156.099 129.946 158.733 128.425Z" fill="#0062CC"/>
<path d="M158.731 126.726C165.546 122.791 176.595 122.791 183.411 126.726C186.423 128.465 188.098 130.683 188.448 132.954C188.889 130.085 187.214 127.128 183.411 124.932C176.595 120.997 165.546 120.997 158.731 124.932C154.927 127.128 153.252 130.084 153.694 132.954C154.044 130.682 155.719 128.465 158.731 126.726Z" fill="#0062CC"/>
<path d="M185.335 119.88C184.785 119.684 184.063 119.783 183.725 120.101C183.385 120.419 183.558 120.836 184.108 121.031C184.658 121.227 185.38 121.128 185.718 120.81C186.058 120.492 185.886 120.076 185.335 119.88Z" fill="#0062CC"/>
<path opacity="0.8" d="M189.19 121.751C188.724 121.501 187.996 121.517 187.563 121.786C187.131 122.055 187.158 122.475 187.624 122.725C188.09 122.975 188.818 122.959 189.251 122.69C189.683 122.421 189.656 122 189.19 121.751Z" fill="#0062CC"/>
<path opacity="0.6" d="M192.353 124.011C191.98 123.713 191.26 123.646 190.746 123.862C190.232 124.077 190.115 124.493 190.488 124.79C190.861 125.088 191.58 125.154 192.095 124.939C192.61 124.723 192.725 124.308 192.353 124.011Z" fill="#0062CC"/>
<path opacity="0.4" d="M194.69 126.584C194.426 126.25 193.742 126.104 193.164 126.257C192.586 126.409 192.332 126.804 192.597 127.137C192.862 127.471 193.545 127.617 194.123 127.465C194.701 127.312 194.955 126.917 194.69 126.584Z" fill="#0062CC"/>
<path opacity="0.2" d="M196.113 129.371C195.966 129.014 195.345 128.792 194.727 128.878C194.108 128.963 193.726 129.321 193.873 129.678C194.02 130.035 194.641 130.256 195.26 130.171C195.878 130.087 196.26 129.728 196.113 129.371Z" fill="#0062CC"/>
<path opacity="0.1" d="M196.451 132.581C196.73 132.252 196.494 131.853 195.922 131.692C195.35 131.532 194.661 131.668 194.383 131.998C194.104 132.328 194.34 132.726 194.912 132.887C195.483 133.048 196.173 132.911 196.451 132.581Z" fill="#0062CC"/>
<path d="M198.511 121.772V112.848H193.677C192.749 112.072 191.709 111.328 190.514 110.638C179.85 104.48 162.56 104.48 151.895 110.638C150.7 111.328 149.658 112.073 148.73 112.848H143.896V121.786C143.896 125.821 146.563 129.856 151.895 132.935C162.559 139.093 179.849 139.093 190.514 132.935C195.853 129.853 198.518 125.813 198.511 121.772Z" fill="url(#paint4_linear)"/>
<path d="M144.148 121.555V112.848H143.896V121.786C143.896 125.398 146.05 129.005 150.323 131.931C146.213 128.888 144.148 125.224 144.148 121.555Z" fill="#00D46A"/>
<path d="M198.08 112.848V121.486C198.087 125.525 195.422 129.567 190.084 132.649C179.42 138.806 162.13 138.806 151.466 132.649C150.923 132.335 150.427 132.006 149.939 131.674C150.548 132.108 151.196 132.531 151.896 132.935C162.56 139.093 179.85 139.093 190.515 132.935C195.853 129.853 198.518 125.812 198.511 121.772V112.848H198.08Z" fill="#0062CC"/>
<path d="M171.206 128.615C186.288 128.615 198.514 121.556 198.514 112.848C198.514 104.14 186.288 97.0811 171.206 97.0811C156.125 97.0811 143.898 104.14 143.898 112.848C143.898 121.556 156.125 128.615 171.206 128.615Z" fill="url(#paint5_linear)"/>
<path d="M152.633 101.863C158.05 98.7359 165.126 97.1569 172.225 97.1107C164.9 96.9534 157.488 98.4714 151.895 101.701C143.587 106.498 141.678 113.706 146.42 119.434C142.338 113.571 144.406 106.613 152.633 101.863Z" fill="#00D46A"/>
<path d="M190.514 101.699C187.681 100.064 184.374 98.8762 180.853 98.1094C184.014 98.8781 186.98 99.9974 189.556 101.484C200.22 107.642 200.22 117.625 189.556 123.782C181.726 128.303 170.327 129.491 160.598 127.372C170.528 129.787 182.425 128.668 190.515 123.997C201.178 117.84 201.178 107.856 190.514 101.699Z" fill="#0062CC"/>
<path d="M183.412 119.974C176.597 123.909 165.548 123.909 158.732 119.974C151.917 116.039 151.917 109.659 158.732 105.724C165.548 101.789 176.597 101.789 183.412 105.724C190.228 109.659 190.228 116.039 183.412 119.974Z" fill="#005EC4"/>
<path d="M158.732 111.124C165.547 107.189 176.597 107.189 183.412 111.124C185.618 112.398 187.098 113.929 187.876 115.548C189.502 112.163 188.021 108.385 183.412 105.723C176.597 101.788 165.547 101.788 158.732 105.723C154.123 108.384 152.643 112.163 154.268 115.547C155.046 113.929 156.527 112.398 158.732 111.124Z" fill="#00A1C4"/>
<path d="M158.733 109.217C165.548 105.282 176.598 105.282 183.413 109.217C186.048 110.738 187.652 112.625 188.249 114.595C189.198 111.47 187.594 108.137 183.413 105.723C176.598 101.788 165.548 101.788 158.733 105.723C154.553 108.136 152.948 111.469 153.897 114.594C154.495 112.625 156.099 110.737 158.733 109.217Z" fill="#0062CC"/>
<path d="M158.731 107.518C165.546 103.583 176.595 103.583 183.411 107.518C186.423 109.257 188.098 111.475 188.448 113.746C188.889 110.877 187.214 107.92 183.411 105.724C176.595 101.789 165.546 101.789 158.731 105.724C154.927 107.92 153.252 110.877 153.694 113.746C154.044 111.474 155.719 109.256 158.731 107.518Z" fill="#0062CC"/>
<path d="M185.335 100.672C184.785 100.476 184.063 100.575 183.725 100.893C183.385 101.211 183.558 101.628 184.108 101.823C184.658 102.019 185.38 101.92 185.718 101.602C186.058 101.284 185.886 100.867 185.335 100.672Z" fill="#0062CC"/>
<path opacity="0.8" d="M189.19 102.543C188.724 102.293 187.996 102.309 187.563 102.578C187.131 102.847 187.158 103.267 187.624 103.517C188.09 103.767 188.818 103.751 189.251 103.482C189.683 103.213 189.656 102.792 189.19 102.543Z" fill="#0062CC"/>
<path opacity="0.6" d="M192.353 104.803C191.98 104.505 191.26 104.438 190.746 104.654C190.231 104.869 190.115 105.285 190.488 105.582C190.861 105.879 191.581 105.946 192.095 105.731C192.61 105.515 192.726 105.1 192.353 104.803Z" fill="#0062CC"/>
<path opacity="0.4" d="M194.69 107.375C194.426 107.041 193.742 106.895 193.164 107.048C192.586 107.2 192.332 107.595 192.597 107.928C192.862 108.262 193.545 108.409 194.123 108.256C194.701 108.103 194.955 107.709 194.69 107.375Z" fill="#0062CC"/>
<path opacity="0.2" d="M196.113 110.163C195.966 109.806 195.345 109.584 194.727 109.67C194.108 109.755 193.726 110.113 193.873 110.47C194.02 110.827 194.641 111.048 195.26 110.963C195.878 110.879 196.26 110.52 196.113 110.163Z" fill="#0062CC"/>
<path opacity="0.1" d="M196.451 113.372C196.73 113.042 196.494 112.644 195.922 112.483C195.35 112.323 194.661 112.459 194.383 112.789C194.104 113.118 194.34 113.517 194.912 113.678C195.483 113.84 196.173 113.703 196.451 113.372Z" fill="#0062CC"/>
<path opacity="0.5" d="M198.512 101.546L190.057 101.45C179.773 95.7754 163.709 95.6348 153.14 101.029L143.885 100.923V112.418H143.915C143.718 116.595 146.374 120.809 151.896 123.998C162.561 130.156 179.85 130.156 190.514 123.998C196.036 120.809 198.692 116.595 198.495 112.418H198.512V101.546Z" fill="url(#paint6_linear)"/>
<path d="M198.511 102.564V93.6398H193.677C192.749 92.8646 191.709 92.12 190.514 91.4299C179.85 85.2721 162.56 85.2721 151.895 91.4299C150.7 92.12 149.658 92.8646 148.73 93.6407H143.896V102.579C143.896 106.614 146.563 110.649 151.895 113.728C162.559 119.885 179.849 119.885 190.514 113.728C195.853 110.645 198.518 106.604 198.511 102.564Z" fill="url(#paint7_linear)"/>
<path d="M144.148 102.347V93.6396H143.896V102.578C143.896 106.19 146.05 109.797 150.323 112.723C146.213 109.68 144.148 106.015 144.148 102.347Z" fill="#00D46A"/>
<path d="M198.08 93.6396V102.278C198.087 106.317 195.422 110.359 190.084 113.441C179.42 119.598 162.13 119.598 151.466 113.441C150.923 113.127 150.427 112.798 149.939 112.466C150.548 112.9 151.196 113.323 151.896 113.727C162.56 119.885 179.85 119.885 190.515 113.727C195.853 110.645 198.518 106.604 198.511 102.564V93.6396H198.08Z" fill="#0062CC"/>
<path d="M171.206 109.407C186.288 109.407 198.514 102.348 198.514 93.6401C198.514 84.9322 186.288 77.873 171.206 77.873C156.125 77.873 143.898 84.9322 143.898 93.6401C143.898 102.348 156.125 109.407 171.206 109.407Z" fill="url(#paint8_linear)"/>
<path d="M152.633 82.6554C158.05 79.5279 165.126 77.9489 172.225 77.9027C164.9 77.7454 157.488 79.2634 151.895 82.4926C143.587 87.2898 141.678 94.4976 146.42 100.226C142.338 94.3625 144.406 87.4054 152.633 82.6554Z" fill="#00D46A"/>
<path d="M190.514 82.4914C187.681 80.8559 184.374 79.6682 180.853 78.9014C184.014 79.6701 186.98 80.7893 189.556 82.2759C200.22 88.4337 200.22 98.4166 189.556 104.574C181.726 109.095 170.327 110.283 160.598 108.164C170.528 110.579 182.425 109.46 190.515 104.789C201.178 98.6312 201.178 88.6483 190.514 82.4914Z" fill="#0062CC"/>
<path d="M171.072 103.717C180.711 103.717 188.524 99.2057 188.524 93.6407C188.524 88.0758 180.711 83.5645 171.072 83.5645C161.434 83.5645 153.621 88.0758 153.621 93.6407C153.621 99.2057 161.434 103.717 171.072 103.717Z" fill="#005EC4"/>
<path d="M158.732 91.916C165.547 87.981 176.597 87.981 183.412 91.916C185.618 93.1898 187.098 94.7207 187.876 96.3414C189.502 92.9558 188.021 89.178 183.412 86.5157C176.597 82.5807 165.547 82.5807 158.732 86.5157C154.123 89.177 152.643 92.9558 154.268 96.3404C155.046 94.7207 156.527 93.1898 158.732 91.916Z" fill="#00A1C4"/>
<path d="M158.733 90.0086C165.548 86.0735 176.598 86.0735 183.413 90.0086C186.048 91.5302 187.652 93.4173 188.249 95.3867C189.198 92.2619 187.594 88.9291 183.413 86.5148C176.598 82.5797 165.548 82.5797 158.733 86.5148C154.553 88.9281 152.948 92.261 153.897 95.3857C154.495 93.4173 156.099 91.5293 158.733 90.0086Z" fill="#0062CC"/>
<path d="M158.731 88.3093C165.546 84.3743 176.595 84.3743 183.411 88.3093C186.423 90.0483 188.098 92.2656 188.448 94.5375C188.889 91.6681 187.214 88.7108 183.411 86.5148C176.595 82.5797 165.546 82.5797 158.731 86.5148C154.927 88.7108 153.252 91.6671 153.694 94.5366C154.044 92.2647 155.719 90.0483 158.731 88.3093Z" fill="#0062CC"/>
<path d="M185.335 81.464C184.785 81.2679 184.063 81.3669 183.725 81.6851C183.385 82.0033 183.558 82.4196 184.108 82.6157C184.658 82.8118 185.38 82.7128 185.718 82.3946C186.058 82.0754 185.886 81.6592 185.335 81.464Z" fill="#0062CC"/>
<path opacity="0.8" d="M189.19 83.3347C188.724 83.085 187.996 83.1007 187.563 83.3699C187.131 83.6391 187.158 84.059 187.624 84.3088C188.09 84.5585 188.818 84.5428 189.251 84.2736C189.683 84.0044 189.656 83.5845 189.19 83.3347Z" fill="#0062CC"/>
<path opacity="0.6" d="M192.353 85.5938C191.98 85.2959 191.26 85.2293 190.746 85.4448C190.232 85.6604 190.115 86.0757 190.488 86.3726C190.861 86.6705 191.58 86.7371 192.095 86.5216C192.609 86.306 192.725 85.8916 192.353 85.5938Z" fill="#0062CC"/>
<path opacity="0.4" d="M194.69 88.1672C194.426 87.8333 193.742 87.6871 193.164 87.8398C192.586 87.9924 192.332 88.3874 192.597 88.7204C192.862 89.0543 193.545 89.2005 194.123 89.0478C194.701 88.8952 194.955 88.5012 194.69 88.1672Z" fill="#0062CC"/>
<path opacity="0.2" d="M196.113 90.9546C195.966 90.5976 195.345 90.3765 194.727 90.4616C194.108 90.5467 193.726 90.9047 193.873 91.2617C194.02 91.6188 194.641 91.8398 195.26 91.7547C195.878 91.6696 196.26 91.3117 196.113 90.9546Z" fill="#0062CC"/>
<path opacity="0.1" d="M196.451 94.1644C196.73 93.8351 196.494 93.4364 195.922 93.2755C195.35 93.1145 194.661 93.2514 194.383 93.5807C194.104 93.911 194.34 94.3088 194.912 94.4697C195.483 94.6316 196.173 94.4947 196.451 94.1644Z" fill="#0062CC"/>
<path d="M198.511 83.3564V74.4318H193.677C192.749 73.6566 191.709 72.912 190.514 72.2219C179.85 66.064 162.56 66.064 151.895 72.2219C150.7 72.912 149.658 73.6566 148.73 74.4318H143.896V83.3703C143.896 87.4053 146.563 91.4402 151.895 94.5187C162.559 100.677 179.849 100.677 190.514 94.5187C195.853 91.4374 198.518 87.396 198.511 83.3564Z" fill="url(#paint9_linear)"/>
<path d="M144.148 83.1389V74.4316H143.896V83.3701C143.896 86.9824 146.05 90.589 150.323 93.5149C146.213 90.4725 144.148 86.8066 144.148 83.1389Z" fill="#00D46A"/>
<path d="M198.08 74.4316V83.0695C198.087 87.1091 195.422 91.1505 190.084 94.2327C179.42 100.39 162.13 100.39 151.466 94.2327C150.923 93.9191 150.427 93.5898 149.939 93.2577C150.548 93.6925 151.196 94.1152 151.896 94.5195C162.56 100.677 179.85 100.677 190.515 94.5195C195.853 91.4373 198.518 87.3958 198.511 83.3563V74.4316H198.08Z" fill="#0062CC"/>
<path d="M171.206 90.1991C186.288 90.1991 198.514 83.14 198.514 74.4321C198.514 65.7242 186.288 58.665 171.206 58.665C156.125 58.665 143.898 65.7242 143.898 74.4321C143.898 83.14 156.125 90.1991 171.206 90.1991Z" fill="url(#paint10_linear)"/>
<path d="M152.633 63.4455C158.05 60.318 165.126 58.739 172.225 58.6927C164.9 58.5355 157.488 60.0534 151.895 63.2827C143.587 68.0798 141.678 75.2876 146.42 81.0163C142.338 75.1535 144.406 68.1964 152.633 63.4455Z" fill="#00D46A"/>
<path d="M190.514 63.2824C187.681 61.647 184.374 60.4592 180.853 59.6924C184.014 60.4611 186.98 61.5804 189.556 63.0669C200.22 69.2248 200.22 79.2076 189.556 85.3646C181.726 89.8861 170.327 91.0738 160.598 88.9546C170.528 91.3698 182.425 90.2505 190.515 85.5801C201.178 79.4231 201.178 69.4403 190.514 63.2824Z" fill="#0062CC"/>
<path d="M183.412 81.5568C176.597 85.4918 165.548 85.4918 158.732 81.5568C151.917 77.6217 151.917 71.2418 158.732 67.3068C165.548 63.3717 176.597 63.3717 183.412 67.3068C190.228 71.2418 190.228 77.6217 183.412 81.5568Z" fill="#005EC4"/>
<path d="M158.732 72.708C165.547 68.7729 176.597 68.7729 183.412 72.708C185.618 73.9817 187.098 75.5126 187.876 77.1324C189.502 73.7468 188.021 69.969 183.412 67.3068C176.597 63.3717 165.547 63.3717 158.732 67.3068C154.123 69.968 152.643 73.7468 154.268 77.1314C155.046 75.5117 156.527 73.9808 158.732 72.708Z" fill="#00A1C4"/>
<path d="M158.733 70.7996C165.548 66.8645 176.598 66.8645 183.413 70.7996C186.048 72.3213 187.652 74.2083 188.249 76.1777C189.198 73.053 187.594 69.7201 183.413 67.3058C176.598 63.3707 165.548 63.3707 158.733 67.3058C154.553 69.7192 152.948 73.052 153.897 76.1768C154.495 74.2083 156.099 72.3213 158.733 70.7996Z" fill="#0062CC"/>
<path d="M158.731 69.1013C165.546 65.1663 176.595 65.1663 183.411 69.1013C186.423 70.8403 188.098 73.0576 188.448 75.3295C188.889 72.4601 187.214 69.5028 183.411 67.3068C176.595 63.3717 165.546 63.3717 158.731 67.3068C154.927 69.5028 153.252 72.4601 153.694 75.3286C154.044 73.0567 155.719 70.8403 158.731 69.1013Z" fill="#0062CC"/>
<path d="M185.335 62.255C184.785 62.0589 184.063 62.1579 183.725 62.4761C183.385 62.7943 183.558 63.2106 184.108 63.4057C184.658 63.6019 185.38 63.5029 185.718 63.1847C186.058 62.8674 185.886 62.4511 185.335 62.255Z" fill="#0062CC"/>
<path opacity="0.8" d="M189.19 64.1257C188.724 63.876 187.996 63.8917 187.563 64.1609C187.131 64.4301 187.158 64.85 187.624 65.0998C188.09 65.3495 188.818 65.3338 189.251 65.0646C189.683 64.7964 189.656 64.3755 189.19 64.1257Z" fill="#0062CC"/>
<path opacity="0.6" d="M192.353 66.3865C191.98 66.0895 191.26 66.022 190.746 66.2375C190.231 66.4531 190.115 66.8684 190.488 67.1653C190.861 67.4632 191.581 67.5298 192.095 67.3143C192.609 67.0987 192.726 66.6843 192.353 66.3865Z" fill="#0062CC"/>
<path opacity="0.4" d="M194.69 68.9592C194.426 68.6253 193.742 68.4791 193.164 68.6318C192.586 68.7844 192.332 69.1794 192.597 69.5124C192.862 69.8463 193.545 69.9925 194.123 69.8398C194.701 69.6872 194.955 69.2922 194.69 68.9592Z" fill="#0062CC"/>
<path opacity="0.2" d="M196.113 71.7466C195.966 71.3896 195.345 71.1685 194.727 71.2536C194.108 71.3387 193.726 71.6967 193.873 72.0537C194.02 72.4108 194.641 72.6309 195.26 72.5467C195.878 72.4616 196.26 72.1037 196.113 71.7466Z" fill="#0062CC"/>
<path opacity="0.1" d="M196.451 74.9564C196.73 74.6262 196.494 74.2284 195.922 74.0675C195.35 73.9065 194.661 74.0434 194.383 74.3727C194.104 74.703 194.34 75.1007 194.912 75.2617C195.483 75.4226 196.173 75.2857 196.451 74.9564Z" fill="#0062CC"/>
<path opacity="0.5" d="M198.512 63.1287L190.057 63.0325C179.773 57.3584 163.709 57.2178 153.14 62.6116L143.885 62.5062V74.0005H143.915C143.718 78.1779 146.374 82.3923 151.896 85.5809C162.561 91.7388 179.85 91.7388 190.514 85.5809C196.036 82.3923 198.692 78.1779 198.495 73.9996H198.512V63.1287Z" fill="url(#paint11_linear)"/>
<path d="M198.511 64.1484V55.2238H193.677C192.749 54.4486 191.709 53.704 190.514 53.0139C179.85 46.856 162.56 46.856 151.895 53.0139C150.7 53.704 149.658 54.4486 148.73 55.2238H143.896V64.1623C143.896 68.1972 146.563 72.2322 151.895 75.3107C162.559 81.4685 179.849 81.4685 190.514 75.3107C195.853 72.2285 198.518 68.188 198.511 64.1484Z" fill="url(#paint12_linear)"/>
<path d="M144.148 63.9299V55.2227H143.896V64.1612C143.896 67.7734 146.05 71.38 150.323 74.3059C146.213 71.2644 144.148 67.5985 144.148 63.9299Z" fill="#00D46A"/>
<path d="M198.08 55.2227V63.8605C198.087 67.9001 195.422 71.9415 190.084 75.0237C179.42 81.1807 162.13 81.1807 151.466 75.0237C150.923 74.7101 150.427 74.3808 149.939 74.0487C150.548 74.4835 151.196 74.9062 151.896 75.3105C162.56 81.4684 179.85 81.4684 190.515 75.3105C195.853 72.2283 198.518 68.1869 198.511 64.1473V55.2227H198.08Z" fill="#0062CC"/>
<path d="M190.512 66.3725C179.849 72.5294 162.558 72.5294 151.893 66.3725C141.228 60.2155 141.228 50.2317 151.892 44.0748C162.556 37.9178 179.847 37.9178 190.512 44.0748C201.176 50.2317 201.176 60.2155 190.512 66.3725Z" fill="url(#paint13_linear)"/>
<path d="M152.633 44.2375C158.05 41.11 165.126 39.531 172.225 39.4847C164.9 39.3274 157.488 40.8454 151.895 44.0747C143.587 48.8718 141.678 56.0796 146.42 61.8074C142.338 55.9455 144.406 48.9875 152.633 44.2375Z" fill="#00D46A"/>
<path d="M190.514 44.0744C187.681 42.4389 184.374 41.2512 180.853 40.4844C184.014 41.2531 186.98 42.3723 189.556 43.8589C200.22 50.0167 200.22 59.9996 189.556 66.1565C181.726 70.6781 170.327 71.8658 160.598 69.7466C170.528 72.1618 182.425 71.0425 190.515 66.3721C201.178 60.2151 201.178 50.2323 190.514 44.0744Z" fill="#0062CC"/>
<path d="M171.072 65.3C180.711 65.3 188.524 60.7887 188.524 55.2237C188.524 49.6588 180.711 45.1475 171.072 45.1475C161.434 45.1475 153.621 49.6588 153.621 55.2237C153.621 60.7887 161.434 65.3 171.072 65.3Z" fill="#005EC4"/>
<path d="M158.732 53.499C165.547 49.5639 176.597 49.5639 183.412 53.499C185.618 54.7727 187.098 56.3037 187.876 57.9234C189.502 54.5378 188.021 50.76 183.412 48.0978C176.597 44.1627 165.547 44.1627 158.732 48.0978C154.123 50.7591 152.643 54.5369 154.268 57.9225C155.046 56.3037 156.527 54.7727 158.732 53.499Z" fill="#00A1C4"/>
<path d="M158.733 51.5916C165.548 47.6565 176.598 47.6565 183.413 51.5916C186.048 53.1132 187.652 55.0003 188.249 56.9697C189.198 53.8449 187.594 50.5121 183.413 48.0978C176.598 44.1627 165.548 44.1627 158.733 48.0978C154.553 50.5112 152.948 53.844 153.897 56.9687C154.495 55.0003 156.099 53.1132 158.733 51.5916Z" fill="#0062CC"/>
<path d="M158.731 49.8933C165.546 45.9582 176.595 45.9582 183.411 49.8933C186.423 51.6323 188.098 53.8496 188.448 56.1215C188.889 53.2521 187.214 50.2948 183.411 48.0987C176.595 44.1637 165.546 44.1637 158.731 48.0987C154.927 50.2948 153.252 53.2511 153.694 56.1206C154.044 53.8487 155.719 51.6323 158.731 49.8933Z" fill="#0062CC"/>
<path d="M185.335 43.047C184.785 42.8509 184.063 42.9499 183.725 43.2681C183.385 43.5863 183.558 44.0026 184.108 44.1977C184.658 44.3938 185.38 44.2949 185.718 43.9767C186.058 43.6594 185.886 43.2431 185.335 43.047Z" fill="#0062CC"/>
<path opacity="0.8" d="M189.19 44.9177C188.724 44.668 187.996 44.6837 187.563 44.9529C187.131 45.2221 187.158 45.642 187.624 45.8918C188.09 46.1415 188.818 46.1258 189.251 45.8566C189.683 45.5875 189.656 45.1675 189.19 44.9177Z" fill="#0062CC"/>
<path opacity="0.6" d="M192.353 47.1785C191.98 46.8815 191.26 46.814 190.746 47.0295C190.231 47.2441 190.115 47.6604 190.488 47.9573C190.861 48.2543 191.581 48.3218 192.095 48.1063C192.61 47.8907 192.726 47.4754 192.353 47.1785Z" fill="#0062CC"/>
<path opacity="0.4" d="M194.69 49.7512C194.426 49.4173 193.742 49.2711 193.164 49.4238C192.586 49.5764 192.332 49.9714 192.597 50.3044C192.862 50.6383 193.545 50.7845 194.123 50.6318C194.701 50.4792 194.955 50.0842 194.69 49.7512Z" fill="#0062CC"/>
<path opacity="0.2" d="M196.113 52.5376C195.966 52.1806 195.345 51.9595 194.727 52.0446C194.108 52.1297 193.726 52.4877 193.873 52.8447C194.02 53.2018 194.641 53.4229 195.26 53.3378C195.878 53.2536 196.26 52.8947 196.113 52.5376Z" fill="#0062CC"/>
<path opacity="0.1" d="M196.451 55.7484C196.73 55.4191 196.494 55.0204 195.922 54.8595C195.35 54.6985 194.661 54.8354 194.383 55.1647C194.104 55.495 194.34 55.8927 194.912 56.0537C195.483 56.2146 196.173 56.0777 196.451 55.7484Z" fill="#0062CC"/>
<path d="M171.596 77.0442C172.543 77.0442 173.311 76.2764 173.311 75.3292C173.311 74.3821 172.543 73.6143 171.596 73.6143C170.649 73.6143 169.881 74.3821 169.881 75.3292C169.881 76.2764 170.649 77.0442 171.596 77.0442Z" fill="#005EC4"/>
<path d="M171.595 76.4018C170.758 76.4018 170.063 75.8015 169.911 75.0078C169.892 75.1123 169.879 75.2196 169.879 75.3297C169.879 76.2769 170.647 77.0447 171.595 77.0447C172.542 77.0447 173.31 76.2769 173.31 75.3297C173.31 75.2196 173.297 75.1123 173.277 75.0078C173.126 75.8015 172.432 76.4018 171.595 76.4018Z" fill="#0062CC"/>
<path d="M171.596 96.2523C172.543 96.2523 173.311 95.4844 173.311 94.5373C173.311 93.5901 172.543 92.8223 171.596 92.8223C170.649 92.8223 169.881 93.5901 169.881 94.5373C169.881 95.4844 170.649 96.2523 171.596 96.2523Z" fill="#005EC4"/>
<path d="M171.595 95.6098C170.758 95.6098 170.063 95.0095 169.911 94.2158C169.892 94.3203 169.879 94.4277 169.879 94.5377C169.879 95.485 170.647 96.2527 171.595 96.2527C172.542 96.2527 173.31 95.485 173.31 94.5377C173.31 94.4277 173.297 94.3203 173.277 94.2158C173.126 95.0095 172.432 95.6098 171.595 95.6098Z" fill="#0062CC"/>
<path d="M171.596 115.461C172.543 115.461 173.311 114.693 173.311 113.746C173.311 112.799 172.543 112.031 171.596 112.031C170.649 112.031 169.881 112.799 169.881 113.746C169.881 114.693 170.649 115.461 171.596 115.461Z" fill="#005EC4"/>
<path d="M171.595 114.819C170.758 114.819 170.063 114.218 169.911 113.425C169.892 113.529 169.879 113.637 169.879 113.747C169.879 114.694 170.647 115.462 171.595 115.462C172.542 115.462 173.31 114.694 173.31 113.747C173.31 113.637 173.297 113.529 173.277 113.425C173.126 114.218 172.432 114.819 171.595 114.819Z" fill="#0062CC"/>
<path d="M171.596 134.669C172.543 134.669 173.311 133.901 173.311 132.954C173.311 132.007 172.543 131.239 171.596 131.239C170.649 131.239 169.881 132.007 169.881 132.954C169.881 133.901 170.649 134.669 171.596 134.669Z" fill="#005EC4"/>
<path d="M171.595 134.027C170.758 134.027 170.063 133.426 169.911 132.633C169.892 132.737 169.879 132.845 169.879 132.955C169.879 133.902 170.647 134.67 171.595 134.67C172.542 134.67 173.31 133.902 173.31 132.955C173.31 132.845 173.297 132.737 173.277 132.633C173.126 133.426 172.432 134.027 171.595 134.027Z" fill="#0062CC"/>
<path d="M171.596 153.878C172.543 153.878 173.311 153.11 173.311 152.163C173.311 151.216 172.543 150.448 171.596 150.448C170.649 150.448 169.881 151.216 169.881 152.163C169.881 153.11 170.649 153.878 171.596 153.878Z" fill="#005EC4"/>
<path d="M171.595 153.236C170.758 153.236 170.063 152.635 169.911 151.842C169.892 151.946 169.879 152.054 169.879 152.164C169.879 153.111 170.647 153.879 171.595 153.879C172.542 153.879 173.31 153.111 173.31 152.164C173.31 152.054 173.297 151.946 173.277 151.842C173.126 152.635 172.432 153.236 171.595 153.236Z" fill="#0062CC"/>
<path opacity="0.3" d="M318.143 248.399C316.595 248.399 315.046 248.051 313.84 247.354L270.369 222.212C269.774 221.869 269.572 221.109 269.916 220.516C270.258 219.921 271.021 219.718 271.612 220.062L315.083 245.204C316.741 246.161 319.545 246.162 321.203 245.203L458.67 166.386C459.232 166.06 459.572 165.668 459.572 165.337C459.571 165.007 459.233 164.615 458.667 164.287L415.196 139.145C414.601 138.802 414.398 138.042 414.742 137.448C415.085 136.854 415.847 136.65 416.439 136.995L459.909 162.136C461.273 162.924 462.055 164.089 462.055 165.337C462.055 166.585 461.273 167.751 459.909 168.539L322.443 247.356C321.238 248.052 319.691 248.399 318.143 248.399Z" fill="#007AFF"/>
<path d="M318.143 247.402C316.765 247.402 315.388 247.099 314.338 246.493L270.867 221.351L271.115 220.923L314.586 246.064C316.549 247.198 319.742 247.198 321.702 246.063L459.165 167.248C460.067 166.727 460.566 166.047 460.566 165.337C460.566 164.626 460.068 163.948 459.164 163.426L415.694 138.284L415.942 137.855L459.412 162.997C460.475 163.61 461.062 164.441 461.062 165.336C461.062 166.231 460.476 167.063 459.412 167.677L321.948 246.492C320.899 247.1 319.521 247.402 318.143 247.402Z" fill="#007AFF"/>
<path d="M421.608 141.419C421.299 141.952 420.617 142.134 420.084 141.826C419.551 141.518 419.369 140.836 419.677 140.303C419.985 139.77 420.668 139.588 421.201 139.896C421.733 140.204 421.916 140.886 421.608 141.419Z" fill="white"/>
<path d="M427.399 144.768C427.091 145.301 426.408 145.483 425.875 145.175C425.342 144.867 425.16 144.185 425.468 143.652C425.776 143.119 426.459 142.936 426.992 143.245C427.525 143.553 427.707 144.235 427.399 144.768Z" fill="white"/>
<path d="M433.19 148.117C432.882 148.65 432.2 148.832 431.666 148.524C431.133 148.216 430.951 147.533 431.259 147C431.567 146.467 432.25 146.285 432.783 146.593C433.316 146.902 433.498 147.584 433.19 148.117Z" fill="white"/>
<path d="M438.979 151.466C438.671 151.999 437.989 152.181 437.455 151.873C436.922 151.565 436.74 150.883 437.048 150.35C437.356 149.817 438.038 149.635 438.572 149.943C439.105 150.251 439.288 150.933 438.979 151.466Z" fill="white"/>
<path d="M444.77 154.815C444.462 155.348 443.78 155.53 443.246 155.222C442.713 154.914 442.531 154.231 442.839 153.698C443.147 153.166 443.83 152.983 444.363 153.291C444.896 153.599 445.079 154.281 444.77 154.815Z" fill="white"/>
<path d="M450.559 158.164C450.251 158.696 449.568 158.879 449.035 158.571C448.503 158.263 448.32 157.58 448.628 157.047C448.936 156.514 449.619 156.332 450.152 156.64C450.685 156.948 450.868 157.631 450.559 158.164Z" fill="white"/>
<path d="M456.35 161.512C456.042 162.045 455.359 162.227 454.826 161.919C454.294 161.611 454.111 160.929 454.419 160.396C454.727 159.863 455.41 159.681 455.943 159.989C456.476 160.298 456.659 160.979 456.35 161.512Z" fill="white"/>
<path d="M460.724 165.885C460.429 165.788 460.197 165.598 460.012 165.464C459.823 165.322 459.696 165.246 459.661 165.128C459.606 164.921 459.722 164.305 460.131 163.856C460.35 163.64 460.648 163.53 460.968 163.617C461.29 163.685 461.626 163.988 461.785 164.448C461.938 164.921 461.815 165.413 461.575 165.669C461.331 165.933 461.011 165.981 460.724 165.885Z" fill="white"/>
<path d="M455.38 169.704C455.074 169.169 455.259 168.488 455.793 168.182C456.326 167.876 457.008 168.061 457.314 168.595C457.62 169.128 457.436 169.81 456.902 170.116C456.367 170.423 455.686 170.238 455.38 169.704Z" fill="white"/>
<path d="M449.577 173.031C449.271 172.496 449.456 171.815 449.99 171.509C450.524 171.203 451.205 171.388 451.512 171.922C451.818 172.455 451.634 173.137 451.099 173.443C450.565 173.75 449.884 173.565 449.577 173.031Z" fill="white"/>
<path d="M443.775 176.359C443.469 175.824 443.654 175.143 444.187 174.837C444.721 174.531 445.403 174.716 445.709 175.25C446.015 175.784 445.83 176.465 445.296 176.771C444.763 177.078 444.082 176.893 443.775 176.359Z" fill="white"/>
<path d="M437.972 179.686C437.666 179.151 437.85 178.471 438.385 178.164C438.918 177.858 439.6 178.043 439.906 178.577C440.212 179.112 440.027 179.792 439.494 180.099C438.96 180.405 438.278 180.22 437.972 179.686Z" fill="white"/>
<path d="M432.169 183.012C431.863 182.478 432.048 181.797 432.582 181.491C433.116 181.184 433.797 181.369 434.103 181.903C434.41 182.438 434.225 183.119 433.691 183.425C433.157 183.732 432.475 183.547 432.169 183.012Z" fill="white"/>
<path d="M426.367 186.339C426.06 185.806 426.245 185.124 426.779 184.818C427.314 184.512 427.994 184.697 428.301 185.23C428.607 185.765 428.423 186.446 427.888 186.752C427.353 187.058 426.673 186.874 426.367 186.339Z" fill="white"/>
<path d="M420.562 189.667C420.256 189.133 420.44 188.451 420.975 188.145C421.508 187.839 422.19 188.024 422.496 188.557C422.802 189.092 422.617 189.773 422.084 190.079C421.55 190.385 420.868 190.2 420.562 189.667Z" fill="white"/>
<path d="M414.759 192.994C414.453 192.46 414.638 191.778 415.172 191.472C415.706 191.166 416.387 191.351 416.693 191.885C416.999 192.418 416.814 193.1 416.281 193.406C415.747 193.712 415.066 193.527 414.759 192.994Z" fill="white"/>
<path d="M408.958 196.321C408.652 195.786 408.837 195.105 409.371 194.799C409.905 194.493 410.586 194.678 410.892 195.212C411.199 195.745 411.014 196.427 410.48 196.733C409.946 197.04 409.264 196.855 408.958 196.321Z" fill="white"/>
<path d="M403.154 199.648C402.848 199.113 403.032 198.432 403.566 198.126C404.1 197.82 404.782 198.005 405.088 198.539C405.394 199.074 405.209 199.754 404.675 200.061C404.142 200.368 403.46 200.183 403.154 199.648Z" fill="white"/>
<path d="M397.351 202.975C397.045 202.44 397.23 201.76 397.763 201.453C398.298 201.147 398.979 201.332 399.285 201.866C399.591 202.401 399.407 203.081 398.872 203.388C398.338 203.694 397.657 203.51 397.351 202.975Z" fill="white"/>
<path d="M391.548 206.302C391.242 205.769 391.427 205.087 391.961 204.781C392.494 204.474 393.176 204.659 393.482 205.193C393.789 205.728 393.604 206.409 393.07 206.715C392.536 207.021 391.854 206.836 391.548 206.302Z" fill="white"/>
<path d="M385.745 209.629C385.439 209.095 385.624 208.414 386.158 208.108C386.693 207.802 387.373 207.987 387.68 208.52C387.986 209.055 387.801 209.736 387.267 210.042C386.733 210.348 386.053 210.163 385.745 209.629Z" fill="white"/>
<path d="M379.943 212.957C379.637 212.422 379.821 211.741 380.355 211.435C380.89 211.129 381.571 211.314 381.877 211.847C382.183 212.382 381.999 213.063 381.464 213.369C380.931 213.676 380.249 213.491 379.943 212.957Z" fill="white"/>
<path d="M374.14 216.284C373.834 215.749 374.019 215.068 374.553 214.762C375.086 214.456 375.768 214.641 376.074 215.175C376.38 215.709 376.195 216.39 375.662 216.696C375.128 217.003 374.446 216.818 374.14 216.284Z" fill="white"/>
<path d="M368.337 219.611C368.031 219.076 368.216 218.395 368.75 218.089C369.284 217.783 369.965 217.968 370.271 218.502C370.577 219.035 370.392 219.717 369.859 220.023C369.324 220.33 368.643 220.145 368.337 219.611Z" fill="white"/>
<path d="M362.535 222.938C362.229 222.403 362.413 221.723 362.947 221.416C363.481 221.11 364.163 221.295 364.469 221.829C364.775 222.363 364.591 223.044 364.056 223.35C363.523 223.657 362.841 223.472 362.535 222.938Z" fill="white"/>
<path d="M356.732 226.265C356.426 225.73 356.611 225.05 357.144 224.743C357.678 224.437 358.36 224.622 358.666 225.156C358.972 225.691 358.787 226.372 358.253 226.678C357.72 226.984 357.039 226.799 356.732 226.265Z" fill="white"/>
<path d="M350.929 229.591C350.623 229.058 350.807 228.376 351.342 228.07C351.875 227.763 352.557 227.948 352.863 228.482C353.169 229.017 352.985 229.698 352.451 230.004C351.917 230.311 351.235 230.126 350.929 229.591Z" fill="white"/>
<path d="M345.125 232.919C344.818 232.386 345.002 231.704 345.537 231.398C346.071 231.092 346.752 231.277 347.059 231.81C347.365 232.345 347.18 233.026 346.646 233.332C346.112 233.638 345.431 233.454 345.125 232.919Z" fill="white"/>
<path d="M339.324 236.247C339.017 235.713 339.202 235.031 339.736 234.725C340.27 234.419 340.952 234.604 341.258 235.137C341.564 235.671 341.38 236.353 340.845 236.659C340.311 236.965 339.63 236.78 339.324 236.247Z" fill="white"/>
<path d="M333.519 239.574C333.213 239.039 333.397 238.358 333.932 238.052C334.465 237.746 335.147 237.931 335.453 238.465C335.759 238.999 335.575 239.68 335.041 239.986C334.507 240.292 333.825 240.107 333.519 239.574Z" fill="white"/>
<path d="M327.716 242.9C327.41 242.365 327.595 241.684 328.129 241.378C328.662 241.072 329.344 241.257 329.65 241.791C329.956 242.325 329.771 243.006 329.238 243.312C328.704 243.62 328.023 243.435 327.716 242.9Z" fill="white"/>
<path d="M321.913 246.227C321.607 245.692 321.792 245.012 322.326 244.705C322.86 244.399 323.541 244.584 323.847 245.118C324.154 245.653 323.97 246.333 323.435 246.64C322.901 246.947 322.22 246.762 321.913 246.227Z" fill="white"/>
<path d="M315.431 246.716C315.654 246.141 316.207 245.82 316.716 245.909C317.224 246.007 317.635 246.524 317.612 247.143C317.59 247.755 317 248.233 316.298 248.1C315.591 247.971 315.207 247.29 315.431 246.716Z" fill="white"/>
<path d="M309.594 243.463C309.902 242.93 310.584 242.748 311.117 243.056C311.65 243.364 311.832 244.047 311.524 244.58C311.216 245.112 310.534 245.295 310.001 244.987C309.467 244.679 309.285 243.996 309.594 243.463Z" fill="white"/>
<path d="M303.803 240.114C304.111 239.582 304.793 239.399 305.326 239.707C305.859 240.015 306.041 240.698 305.733 241.231C305.425 241.764 304.743 241.946 304.21 241.638C303.676 241.329 303.494 240.647 303.803 240.114Z" fill="white"/>
<path d="M298.013 236.765C298.321 236.232 299.004 236.05 299.537 236.358C300.069 236.666 300.252 237.348 299.943 237.881C299.635 238.414 298.953 238.596 298.42 238.288C297.887 237.98 297.705 237.299 298.013 236.765Z" fill="white"/>
<path d="M292.222 233.416C292.53 232.883 293.213 232.701 293.745 233.009C294.278 233.317 294.46 234 294.152 234.533C293.844 235.066 293.162 235.248 292.629 234.94C292.096 234.632 291.914 233.949 292.222 233.416Z" fill="white"/>
<path d="M286.431 230.069C286.739 229.536 287.422 229.353 287.954 229.662C288.487 229.97 288.67 230.652 288.361 231.185C288.053 231.718 287.371 231.9 286.838 231.592C286.305 231.283 286.123 230.601 286.431 230.069Z" fill="white"/>
<path d="M280.642 226.719C280.95 226.186 281.633 226.004 282.165 226.312C282.698 226.62 282.88 227.303 282.572 227.835C282.264 228.368 281.582 228.55 281.049 228.242C280.516 227.934 280.334 227.253 280.642 226.719Z" fill="white"/>
<path d="M274.851 223.37C275.159 222.837 275.841 222.655 276.374 222.963C276.907 223.271 277.089 223.954 276.781 224.487C276.473 225.02 275.792 225.202 275.258 224.894C274.725 224.586 274.543 223.903 274.851 223.37Z" fill="white"/>
<path opacity="0.4" d="M483.173 156.786C455.976 190.487 399.243 212.372 356.458 205.668C313.673 198.963 301.038 166.207 328.236 132.505C355.434 98.8034 412.166 76.9182 454.951 83.6228C497.735 90.3283 510.371 123.084 483.173 156.786Z" fill="url(#paint14_radial)"/>
<path opacity="0.6" d="M246.579 258.225L146.549 200.471C144.165 199.094 144.464 196.689 147.217 195.1L350.607 77.6644C353.36 76.0753 357.525 75.9023 359.91 77.2787L459.939 135.034C462.324 136.411 462.024 138.816 459.271 140.405L255.881 257.841C253.128 259.43 248.964 259.603 246.579 258.225Z" fill="#050E18"/>
<path d="M461.549 113.903L456.453 116.966L359.91 61.2243C357.526 59.8479 353.36 60.0199 350.608 61.6101L150.42 177.194L144.941 174.745V182.204L144.946 182.202C144.992 183.032 145.519 183.82 146.55 184.416L246.579 242.172C248.964 243.548 253.129 243.375 255.882 241.786L459.272 124.352C460.821 123.457 461.594 122.305 461.547 121.222L461.549 121.223V113.903Z" fill="url(#paint15_linear)"/>
<path d="M150.42 177.195L144.941 174.745V182.204L144.946 182.202C144.992 183.032 145.519 183.821 146.55 184.416L146.763 184.539C146.469 184.148 146.308 183.723 146.284 183.287L146.279 183.29V175.83L151.757 178.281L159.49 173.815C159.135 173.398 158.773 172.988 158.4 172.589L150.42 177.195Z" fill="#00D46A"/>
<path d="M456.45 116.966L409.06 89.6035C408.581 89.9143 408.103 90.2251 407.625 90.5359L455.158 117.981L460.255 114.919V122.237L460.253 122.237C460.281 122.919 459.984 123.629 459.372 124.285C460.848 123.399 461.588 122.278 461.544 121.222L461.546 121.223V113.904L456.45 116.966Z" fill="#007AFF"/>
<path d="M246.579 234.79L146.549 177.034C144.165 175.658 144.464 173.253 147.217 171.662L350.607 54.2289C353.36 52.6397 357.525 52.4667 359.91 53.8432L459.939 111.599C462.324 112.975 462.024 115.38 459.271 116.97L255.881 234.404C253.128 235.994 248.964 236.166 246.579 234.79Z" fill="url(#paint16_linear)"/>
<path d="M247.963 234.79L147.933 177.035C145.549 175.658 145.847 173.253 148.601 171.664L351.991 54.2293C353.32 53.4625 354.977 53.0333 356.605 52.9407C354.571 52.8029 352.317 53.2423 350.607 54.2293L147.217 171.664C144.464 173.253 144.165 175.658 146.549 177.035L246.579 234.79C247.813 235.502 249.523 235.792 251.268 235.693C250.026 235.609 248.866 235.312 247.963 234.79Z" fill="#58D1F2"/>
<path d="M459.938 111.599L359.909 53.8431C358.677 53.1318 356.968 52.8413 355.226 52.9394C356.482 53.0199 357.657 53.315 358.571 53.8431L458.601 111.599C460.985 112.975 460.686 115.38 457.933 116.97L254.543 234.404C253.213 235.172 251.553 235.602 249.924 235.693C251.948 235.822 254.182 235.385 255.882 234.404L459.272 116.97C462.023 115.38 462.322 112.975 459.938 111.599Z" fill="#C4E0FF"/>
<path d="M257.987 231.239L152.699 170.448L347.272 58.1035L452.56 118.895L257.987 231.239Z" fill="url(#paint17_radial)"/>
<path opacity="0.5" d="M257.698 216.147C256.462 216.853 254.945 216.85 253.713 216.138L181.81 174.622C179.136 173.078 179.145 169.216 181.825 167.685L349.859 71.6624C351.094 70.9565 352.612 70.9599 353.844 71.6713L425.748 113.187C428.421 114.731 428.413 118.593 425.732 120.124L257.698 216.147Z" fill="url(#paint18_linear)"/>
<path d="M409.7 89.4051L398.348 82.8504C397.919 82.6025 397.973 82.1705 398.468 81.8847C398.963 81.5989 399.711 81.5683 400.14 81.8153L411.491 88.37C411.92 88.617 411.866 89.0499 411.371 89.3358C410.877 89.6216 410.129 89.653 409.7 89.4051Z" fill="url(#paint19_radial)"/>
<path d="M239.156 98.5002C239.156 98.5002 244.039 44.5547 254.501 50.6182C264.964 56.6818 259.91 87.9568 270.762 94.2229C281.443 100.39 275.625 4.89987 291.753 14.2112C303.328 20.8944 299.625 93.4218 309.954 99.3855C321.55 106.081 318.233 78.7611 328.511 79.9979C334.408 80.7074 337.507 98.4484 345.877 102.457C354.247 106.467 350.255 29.6026 363.489 37.2433C376.884 44.9774 380.753 180.327 380.753 180.327L239.156 98.5002Z" fill="url(#paint20_linear)"/>
<path d="M254.969 50.1105C254.969 51.3389 253.973 52.3342 252.745 52.3342C251.517 52.3342 250.521 51.3389 250.521 50.1105C250.521 48.882 251.517 47.8867 252.745 47.8867C253.973 47.8867 254.969 48.882 254.969 50.1105Z" fill="#007AFF"/>
<path d="M291.852 13.5714C291.852 14.7998 290.856 15.7952 289.628 15.7952C288.4 15.7952 287.404 14.7998 287.404 13.5714C287.404 12.343 288.4 11.3477 289.628 11.3477C290.856 11.3477 291.852 12.343 291.852 13.5714Z" fill="#007AFF"/>
<path d="M330.438 79.8263C330.438 81.0547 329.442 82.05 328.214 82.05C326.986 82.05 325.99 81.0547 325.99 79.8263C325.99 78.5979 326.986 77.6025 328.214 77.6025C329.442 77.6025 330.438 78.5979 330.438 79.8263Z" fill="#007AFF"/>
<path d="M363.969 36.4816C363.969 37.71 362.973 38.7053 361.745 38.7053C360.517 38.7053 359.521 37.71 359.521 36.4816C359.521 35.2531 360.517 34.2578 361.745 34.2578C362.973 34.2578 363.969 35.2531 363.969 36.4816Z" fill="#007AFF"/>
<path d="M206.68 114.528C206.68 114.528 210.324 60.9405 218.133 65.4703C225.941 70.0002 222.169 101.37 230.268 106.046C238.24 110.649 233.897 28.2696 245.933 35.2193C254.573 40.207 251.809 67.7773 259.517 72.2285C268.171 77.2255 266.675 63.5222 273.366 67.386C280.047 71.2434 280.079 88.6921 286.327 91.4903C292.573 94.2885 289.594 31.8698 299.471 37.5725C309.467 43.3447 312.354 175.613 312.354 175.613L206.68 114.528Z" fill="url(#paint21_linear)"/>
<path d="M219.717 65.2325C219.717 66.461 218.722 67.4563 217.493 67.4563C216.265 67.4563 215.27 66.461 215.27 65.2325C215.27 64.0041 216.265 63.0088 217.493 63.0088C218.721 63.0088 219.717 64.0041 219.717 65.2325Z" fill="#007AFF"/>
<path d="M246.85 34.8029C246.85 36.0313 245.854 37.0266 244.626 37.0266C243.398 37.0266 242.402 36.0313 242.402 34.8029C242.402 33.5744 243.398 32.5791 244.626 32.5791C245.854 32.5791 246.85 33.5744 246.85 34.8029Z" fill="#007AFF"/>
<path d="M273.469 66.8234C273.469 68.0518 272.473 69.0471 271.245 69.0471C270.017 69.0471 269.021 68.0518 269.021 66.8234C269.021 65.5949 270.017 64.5996 271.245 64.5996C272.473 64.5996 273.469 65.5949 273.469 66.8234Z" fill="#007AFF"/>
<path d="M300.369 37.3771C300.369 38.6055 299.374 39.6008 298.145 39.6008C296.917 39.6008 295.922 38.6055 295.922 37.3771C295.922 36.1486 296.917 35.1533 298.145 35.1533C299.374 35.1533 300.369 36.1486 300.369 37.3771Z" fill="#007AFF"/>
<path opacity="0.8" d="M250.635 179.166C250.016 179.524 249.254 179.524 248.635 179.166L236.638 172.239C235.305 171.47 235.305 169.545 236.638 168.775L238.234 167.854C238.853 167.497 239.615 167.497 240.234 167.854L252.231 174.781C253.564 175.551 253.564 177.475 252.231 178.245L250.635 179.166Z" fill="#6EE1F8"/>
<path opacity="0.8" d="M260.602 173.489C259.983 173.846 259.221 173.846 258.602 173.489L246.606 166.562C245.272 165.792 245.272 163.868 246.606 163.098L248.202 162.177C248.82 161.82 249.583 161.82 250.201 162.177L262.198 169.103C263.531 169.873 263.531 171.797 262.198 172.567L260.602 173.489Z" fill="#00D46A"/>
<path opacity="0.4" d="M217.663 121.061C217.434 121.061 217.248 120.863 217.248 120.619V67.6055C217.248 67.3618 217.434 67.1641 217.663 67.1641C217.892 67.1641 218.077 67.3618 218.077 67.6055V120.619C218.077 120.864 217.892 121.061 217.663 121.061Z" fill="white"/>
<path opacity="0.1" d="M252.715 106.044C252.487 106.044 252.301 105.846 252.301 105.603V52.5889C252.301 52.3452 252.487 52.1475 252.715 52.1475C252.944 52.1475 253.13 52.3452 253.13 52.5889V105.603C253.13 105.847 252.944 106.044 252.715 106.044Z" fill="white"/>
<path opacity="0.4" d="M244.625 136.329C244.369 136.329 244.162 136.128 244.162 135.88V37.2758C244.162 37.0281 244.369 36.8271 244.625 36.8271C244.88 36.8271 245.087 37.0281 245.087 37.2758V135.88C245.087 136.129 244.88 136.329 244.625 136.329Z" fill="white"/>
<path opacity="0.1" d="M289.495 127.301C289.283 127.301 289.111 127.076 289.111 126.799V16.6058C289.111 16.3291 289.283 16.1045 289.495 16.1045C289.706 16.1045 289.878 16.3291 289.878 16.6058V126.799C289.878 127.077 289.706 127.301 289.495 127.301Z" fill="white"/>
<path opacity="0.4" d="M271.244 151.766C270.988 151.766 270.781 151.566 270.781 151.319V69.2939C270.781 69.0476 270.988 68.8477 271.244 68.8477C271.499 68.8477 271.706 69.0476 271.706 69.2939V151.319C271.706 151.567 271.499 151.766 271.244 151.766Z" fill="white"/>
<path opacity="0.1" d="M327.837 149.54C327.625 149.54 327.453 149.378 327.453 149.177V82.4188C327.453 82.2184 327.625 82.0557 327.837 82.0557C328.048 82.0557 328.22 82.2184 328.22 82.4188V149.177C328.22 149.378 328.048 149.54 327.837 149.54Z" fill="white"/>
<path opacity="0.4" d="M298.144 167.29C297.889 167.29 297.682 167.088 297.682 166.838V40.0488C297.682 39.7992 297.889 39.5967 298.144 39.5967C298.399 39.5967 298.607 39.7992 298.607 40.0488V166.838C298.607 167.088 298.399 167.29 298.144 167.29Z" fill="white"/>
<path opacity="0.1" d="M361.581 168.712C361.369 168.712 361.197 168.506 361.197 168.253V39.5692C361.197 39.3159 361.369 39.1104 361.581 39.1104C361.792 39.1104 361.964 39.3159 361.964 39.5692V168.253C361.964 168.506 361.792 168.712 361.581 168.712Z" fill="white"/>
<path d="M184.722 88.907C184.578 88.907 184.434 88.8395 184.345 88.7118C184.197 88.5028 184.247 88.2142 184.455 88.0671L217.184 64.8851L244.281 34.4943C244.37 34.3935 244.493 34.3436 244.634 34.3399C244.769 34.3426 244.895 34.4028 244.982 34.5064L271.261 66.119L297.804 37.0641L329.317 0.161163C329.485 -0.0330915 329.775 -0.053442 329.969 0.109362C330.164 0.275866 330.186 0.567249 330.02 0.761504L298.497 37.6764L271.586 67.1347C271.496 67.2328 271.371 67.2892 271.233 67.2855C271.099 67.2827 270.974 67.2217 270.888 67.119L244.613 35.5109L217.839 65.5391C217.815 65.565 217.789 65.589 217.761 65.6094L184.989 88.8219C184.908 88.8802 184.814 88.907 184.722 88.907Z" fill="#007AFF"/>
<path opacity="0.4" d="M473.328 205.791C454.764 210.49 431.801 204.32 422.041 192.011C412.28 179.702 419.417 165.915 437.981 161.216C456.545 156.518 479.508 162.688 489.268 174.996C499.03 187.306 491.893 201.093 473.328 205.791Z" fill="url(#paint22_radial)"/>
<path opacity="0.2" d="M440.713 212.27C473.456 212.27 500 196.864 500 177.859C500 158.855 473.456 143.448 440.713 143.448C407.969 143.448 381.426 158.855 381.426 177.859C381.426 196.864 407.969 212.27 440.713 212.27Z" fill="url(#paint23_radial)"/>
<path opacity="0.6" d="M433.544 187.841L422.196 181.296C420.818 180.501 420.991 179.111 422.582 178.193L433.516 171.868C435.107 170.95 437.514 170.85 438.891 171.645L450.238 178.19C451.616 178.985 451.443 180.375 449.853 181.293L438.919 187.618C437.328 188.536 434.921 188.636 433.544 187.841Z" fill="#0C0F38"/>
<path d="M435.814 190.253C434.725 190.254 433.685 190.034 432.908 189.584L419.447 181.822C418.647 181.36 418.207 180.708 418.207 179.986C418.207 179.134 418.826 178.289 419.905 177.665L432.875 170.164C434.834 169.032 437.818 168.914 439.525 169.901L452.985 177.664C453.785 178.125 454.225 178.777 454.225 179.5C454.225 180.352 453.606 181.197 452.527 181.82L439.558 189.321C438.49 189.938 437.117 190.253 435.814 190.253ZM436.619 169.772C435.415 169.772 434.142 170.066 433.15 170.64L420.18 178.141C419.275 178.664 418.756 179.336 418.756 179.986C418.756 180.503 419.1 180.987 419.722 181.347L433.182 189.11C434.737 190.008 437.475 189.89 439.284 188.846L452.253 181.345C453.159 180.823 453.677 180.15 453.677 179.501C453.677 178.983 453.334 178.5 452.711 178.139L439.251 170.376C438.549 169.971 437.607 169.772 436.619 169.772Z" fill="url(#paint24_linear)"/>
<path d="M451.168 166.976H441.557L438.89 165.443C437.512 164.648 435.106 164.748 433.515 165.666L430.874 167.202H421.268V173.654H421.271C421.232 174.192 421.532 174.712 422.194 175.094L433.542 181.639C434.92 182.434 437.326 182.334 438.917 181.416L449.851 175.091C450.677 174.614 451.117 174.01 451.159 173.428H451.167V166.976H451.168Z" fill="url(#paint25_linear)"/>
<path d="M449.853 174.648L438.918 180.972C437.328 181.89 434.921 181.99 433.543 181.195L422.196 174.65C421.534 174.268 421.234 173.748 421.273 173.21H421.27V173.655H421.273C421.234 174.193 421.534 174.713 422.196 175.095L433.543 181.64C434.922 182.435 437.328 182.335 438.918 181.417L449.853 175.092C450.679 174.615 451.119 174.011 451.161 173.429H451.169V172.984H451.161C451.119 173.566 450.679 174.17 449.853 174.648Z" fill="url(#paint26_linear)"/>
<path d="M421.878 174.099H421.875V167.647H431.481L434.122 166.111C435.712 165.193 438.119 165.093 439.496 165.888L442.164 167.421H451.168V166.976H441.557L438.89 165.443C437.512 164.648 435.106 164.748 433.515 165.666L430.874 167.202H421.268V173.654H421.271C421.232 174.192 421.532 174.712 422.194 175.094L422.303 175.157C421.992 174.84 421.851 174.474 421.878 174.099Z" fill="#00D46A"/>
<path d="M433.544 175.186L422.196 168.642C420.818 167.846 420.991 166.457 422.582 165.538L433.516 159.214C435.107 158.295 437.514 158.196 438.891 158.991L450.238 165.536C451.616 166.331 451.443 167.721 449.853 168.639L438.919 174.963C437.328 175.882 434.921 175.982 433.544 175.186Z" fill="#16406F"/>
<path d="M450.237 165.536L438.89 158.991C438.177 158.579 437.187 158.41 436.177 158.467C436.911 158.511 437.599 158.683 438.131 158.991L449.479 165.536C450.857 166.331 450.684 167.721 449.093 168.639L438.159 174.964C437.392 175.407 436.436 175.658 435.496 175.711C436.66 175.782 437.942 175.527 438.917 174.964L449.851 168.639C451.443 167.721 451.615 166.331 450.237 165.536Z" fill="#007AFF"/>
<path d="M434.412 175.186L423.065 168.641C421.686 167.846 421.859 166.456 423.45 165.538L434.384 159.214C435.14 158.778 436.079 158.528 437.005 158.47C435.824 158.386 434.51 158.64 433.516 159.214L422.582 165.538C420.991 166.456 420.818 167.846 422.196 168.641L433.544 175.186C434.267 175.604 435.275 175.772 436.299 175.707C435.59 175.657 434.929 175.484 434.412 175.186Z" fill="#00D46A"/>
<path d="M441.765 170.292C438.701 172.062 433.733 172.062 430.669 170.292C427.605 168.523 427.605 165.654 430.669 163.886C433.734 162.116 438.702 162.116 441.765 163.886C444.829 165.655 444.83 168.524 441.765 170.292Z" fill="#007AFF"/>
<path d="M430.668 165.574C433.732 163.805 438.7 163.805 441.763 165.574C442.922 166.243 443.641 167.069 443.923 167.934C444.388 166.512 443.669 164.987 441.763 163.886C438.699 162.116 433.731 162.116 430.668 163.886C428.762 164.986 428.043 166.511 428.508 167.933C428.791 167.069 429.509 166.243 430.668 165.574Z" fill="#007AFF"/>
<path opacity="0.4" d="M429.362 231.834C410.797 236.533 387.834 230.363 378.074 218.054C368.313 205.745 375.45 191.957 394.014 187.259C412.579 182.561 435.541 188.731 445.302 201.039C455.063 213.349 447.926 227.136 429.362 231.834Z" fill="url(#paint27_radial)"/>
<path opacity="0.1" d="M388.889 240.462C418.656 240.462 442.787 226.541 442.787 209.368C442.787 192.195 418.656 178.273 388.889 178.273C359.123 178.273 334.992 192.195 334.992 209.368C334.992 226.541 359.123 240.462 388.889 240.462Z" fill="url(#paint28_radial)"/>
<path opacity="0.6" d="M389.575 213.885L378.227 207.34C376.849 206.545 377.022 205.155 378.613 204.237L389.547 197.912C391.138 196.994 393.545 196.894 394.922 197.689L406.269 204.234C407.648 205.029 407.475 206.419 405.884 207.337L394.95 213.662C393.359 214.58 390.952 214.68 389.575 213.885Z" fill="#050E18"/>
<path d="M391.845 216.296C390.756 216.297 389.716 216.077 388.939 215.628L375.479 207.865C374.679 207.403 374.238 206.751 374.238 206.03C374.238 205.178 374.857 204.332 375.937 203.709L388.905 196.208C390.865 195.076 393.848 194.956 395.556 195.944L409.016 203.707C409.816 204.169 410.256 204.821 410.256 205.543C410.256 206.395 409.638 207.241 408.558 207.863L395.59 215.364C394.521 215.981 393.148 216.296 391.845 216.296ZM392.651 195.816C391.446 195.816 390.174 196.111 389.181 196.684L376.212 204.185C375.307 204.708 374.789 205.38 374.789 206.031C374.789 206.549 375.132 207.031 375.754 207.391L389.214 215.154C390.77 216.052 393.507 215.933 395.316 214.89L408.285 207.389C409.19 206.867 409.709 206.194 409.709 205.545C409.709 205.027 409.366 204.544 408.743 204.183L395.283 196.421C394.58 196.014 393.638 195.816 392.651 195.816Z" fill="url(#paint29_linear)"/>
<path d="M407.199 193.019H397.589L394.921 191.486C393.543 190.691 391.137 190.791 389.546 191.709L386.905 193.245H377.299V199.697H377.302C377.263 200.235 377.563 200.755 378.225 201.137L389.573 207.682C390.951 208.477 393.357 208.377 394.948 207.459L405.882 201.134C406.709 200.657 407.148 200.053 407.191 199.471H407.198V193.019H407.199Z" fill="url(#paint30_linear)"/>
<path d="M405.884 200.691L394.95 207.015C393.359 207.933 390.952 208.033 389.575 207.238L378.227 200.693C377.565 200.311 377.265 199.791 377.304 199.253H377.301V199.698H377.304C377.265 200.236 377.565 200.756 378.227 201.138L389.575 207.683C390.953 208.478 393.359 208.378 394.95 207.46L405.884 201.135C406.711 200.658 407.15 200.054 407.192 199.472H407.2V199.027H407.192C407.15 199.609 406.711 200.213 405.884 200.691Z" fill="url(#paint31_linear)"/>
<path d="M377.91 200.142H377.907V193.69H387.513L390.154 192.154C391.745 191.236 394.151 191.136 395.53 191.931L398.197 193.464H407.201V193.019H397.59L394.923 191.486C393.545 190.691 391.139 190.791 389.548 191.709L386.907 193.245H377.301V199.697H377.304C377.265 200.235 377.565 200.755 378.227 201.137L378.336 201.2C378.025 200.883 377.883 200.517 377.91 200.142Z" fill="#00D46A"/>
<path d="M389.575 201.229L378.227 194.685C376.849 193.889 377.022 192.5 378.613 191.581L389.547 185.258C391.138 184.339 393.545 184.24 394.922 185.035L406.269 191.58C407.648 192.375 407.475 193.764 405.884 194.683L394.95 201.007C393.359 201.925 390.952 202.025 389.575 201.229Z" fill="#16406E"/>
<path d="M406.269 191.58L394.921 185.035C394.207 184.624 393.217 184.453 392.208 184.511C392.943 184.555 393.63 184.727 394.163 185.035L405.51 191.58C406.888 192.375 406.715 193.765 405.124 194.683L394.19 201.008C393.424 201.451 392.467 201.7 391.527 201.754C392.691 201.824 393.973 201.57 394.948 201.008L405.882 194.683C407.474 193.765 407.647 192.375 406.269 191.58Z" fill="#007AFF"/>
<path d="M390.443 201.23L379.096 194.685C377.718 193.89 377.891 192.5 379.482 191.582L390.416 185.258C391.171 184.822 392.11 184.572 393.036 184.514C391.855 184.43 390.541 184.684 389.547 185.258L378.613 191.582C377.022 192.5 376.849 193.89 378.227 194.685L389.575 201.23C390.298 201.648 391.306 201.816 392.33 201.752C391.621 201.701 390.96 201.529 390.443 201.23Z" fill="#00D46A"/>
<path d="M397.796 196.335C394.732 198.105 389.764 198.105 386.701 196.335C383.636 194.566 383.636 191.697 386.701 189.929C389.765 188.159 394.733 188.159 397.796 189.929C400.86 191.698 400.86 194.567 397.796 196.335Z" fill="#007AFF"/>
<path d="M386.701 191.617C389.765 189.848 394.733 189.848 397.797 191.617C398.956 192.286 399.674 193.112 399.956 193.977C400.421 192.555 399.702 191.03 397.797 189.929C394.732 188.159 389.764 188.159 386.701 189.929C384.795 191.029 384.077 192.554 384.541 193.976C384.824 193.112 385.543 192.286 386.701 191.617Z" fill="#007AFF"/>
<path opacity="0.4" d="M385.393 257.878C366.829 262.576 343.866 256.407 334.105 244.098C324.344 231.789 331.481 218.001 350.045 213.303C368.609 208.605 391.573 214.775 401.333 227.084C411.093 239.394 403.957 253.179 385.393 257.878Z" fill="url(#paint32_radial)"/>
<path opacity="0.2" d="M344.113 265.338C373.422 265.338 397.181 251.602 397.181 234.658C397.181 217.714 373.422 203.979 344.113 203.979C314.804 203.979 291.045 217.714 291.045 234.658C291.045 251.602 314.804 265.338 344.113 265.338Z" fill="url(#paint33_radial)"/>
<path opacity="0.6" d="M345.606 239.928L334.259 233.383C332.88 232.588 333.053 231.198 334.644 230.28L345.578 223.955C347.169 223.037 349.576 222.937 350.954 223.732L362.302 230.277C363.68 231.072 363.507 232.462 361.916 233.38L350.982 239.705C349.391 240.623 346.984 240.723 345.606 239.928Z" fill="#0C0F38"/>
<path d="M347.876 242.34C346.788 242.341 345.747 242.121 344.97 241.671L331.51 233.908C330.71 233.447 330.27 232.795 330.27 232.073C330.27 231.221 330.888 230.376 331.968 229.752L344.937 222.251C346.896 221.119 349.88 221.001 351.586 221.988L365.046 229.75C365.846 230.212 366.287 230.864 366.287 231.587C366.287 232.439 365.668 233.284 364.589 233.907L351.621 241.408C350.553 242.026 349.18 242.34 347.876 242.34ZM348.683 221.86C347.478 221.86 346.206 222.154 345.213 222.728L332.243 230.229C331.339 230.752 330.82 231.424 330.82 232.074C330.82 232.592 331.163 233.075 331.786 233.435L345.246 241.198C346.801 242.096 349.538 241.977 351.348 240.934L364.317 233.433C365.221 232.91 365.74 232.238 365.74 231.589C365.74 231.07 365.397 230.588 364.774 230.227L351.314 222.464C350.612 222.059 349.671 221.86 348.683 221.86Z" fill="url(#paint34_linear)"/>
<path d="M363.231 219.064H353.621L350.953 217.531C349.575 216.736 347.168 216.836 345.577 217.754L342.936 219.29H333.331V225.742H333.333C333.295 226.28 333.594 226.8 334.257 227.182L345.604 233.726C346.982 234.522 349.388 234.422 350.979 233.504L361.913 227.179C362.739 226.702 363.179 226.098 363.222 225.516H363.229V219.064H363.231Z" fill="url(#paint35_linear)"/>
<path d="M361.915 226.734L350.981 233.059C349.39 233.977 346.983 234.077 345.606 233.282L334.258 226.737C333.596 226.355 333.297 225.835 333.335 225.297H333.333V225.742H333.335C333.297 226.28 333.596 226.8 334.258 227.182L345.606 233.727C346.984 234.522 349.39 234.422 350.981 233.504L361.915 227.179C362.741 226.702 363.181 226.098 363.224 225.516H363.231V225.071H363.224C363.181 225.653 362.741 226.257 361.915 226.734Z" fill="url(#paint36_linear)"/>
<path d="M333.941 226.186H333.938V219.734H343.544L346.185 218.198C347.776 217.279 350.183 217.18 351.56 217.975L354.227 219.508H363.231V219.063H353.621L350.953 217.53C349.575 216.735 347.168 216.835 345.577 217.753L342.936 219.289H333.331V225.741H333.333C333.295 226.279 333.594 226.799 334.257 227.181L334.366 227.244C334.056 226.927 333.914 226.561 333.941 226.186Z" fill="#00D46A"/>
<path d="M345.606 227.274L334.259 220.73C332.88 219.934 333.053 218.545 334.644 217.626L345.578 211.302C347.169 210.383 349.576 210.283 350.954 211.079L362.302 217.624C363.68 218.419 363.507 219.808 361.916 220.727L350.982 227.051C349.391 227.97 346.984 228.07 345.606 227.274Z" fill="#16406E"/>
<path d="M362.302 217.624L350.954 211.079C350.24 210.668 349.25 210.497 348.241 210.555C348.976 210.599 349.663 210.771 350.196 211.079L361.543 217.624C362.921 218.419 362.749 219.809 361.158 220.727L350.224 227.052C349.457 227.495 348.5 227.744 347.561 227.799C348.724 227.869 350.006 227.615 350.981 227.052L361.915 220.727C363.507 219.809 363.68 218.419 362.302 217.624Z" fill="#007AFF"/>
<path d="M346.475 227.275L335.127 220.73C333.749 219.935 333.922 218.545 335.513 217.627L346.447 211.302C347.203 210.867 348.141 210.617 349.067 210.559C347.886 210.475 346.573 210.729 345.578 211.302L334.644 217.627C333.053 218.545 332.88 219.935 334.259 220.73L345.606 227.275C346.329 227.693 347.338 227.861 348.362 227.797C347.652 227.745 346.992 227.573 346.475 227.275Z" fill="#00D46A"/>
<path d="M353.827 222.379C350.763 224.149 345.795 224.149 342.732 222.379C339.668 220.61 339.667 217.741 342.732 215.973C345.796 214.203 350.764 214.203 353.827 215.973C356.891 217.741 356.891 220.61 353.827 222.379Z" fill="#007AFF"/>
<path d="M342.732 217.661C345.796 215.891 350.764 215.891 353.828 217.661C354.987 218.33 355.706 219.156 355.988 220.021C356.452 218.599 355.733 217.073 353.828 215.973C350.764 214.203 345.795 214.203 342.732 215.973C340.827 217.073 340.108 218.598 340.572 220.02C340.854 219.156 341.574 218.33 342.732 217.661Z" fill="#007AFF"/>
</g>
<defs>
<radialGradient id="paint0_radial" cx="0" cy="0" r="1" gradientUnits="userSpaceOnUse" gradientTransform="translate(200.537 163.345) rotate(8.86889) scale(158.158 136.43)">
<stop offset="0.0108" stop-color="#00D46A"/>
<stop offset="1" stop-color="#050E18"/>
</radialGradient>
<linearGradient id="paint1_linear" x1="143.748" y1="147.824" x2="198.663" y2="147.824" gradientUnits="userSpaceOnUse">
<stop stop-color="#00D46A"/>
<stop offset="1" stop-color="#007AFF"/>
</linearGradient>
<linearGradient id="paint2_linear" x1="143.897" y1="140.995" x2="198.511" y2="140.995" gradientUnits="userSpaceOnUse">
<stop stop-color="#00D46A"/>
<stop offset="1" stop-color="#007AFF"/>
</linearGradient>
<linearGradient id="paint3_linear" x1="151.897" y1="120.907" x2="171.209" y2="154.354" gradientUnits="userSpaceOnUse">
<stop stop-color="#00D46A"/>
<stop offset="1" stop-color="#2979E4"/>
</linearGradient>
<linearGradient id="paint4_linear" x1="143.897" y1="121.787" x2="198.511" y2="121.787" gradientUnits="userSpaceOnUse">
<stop stop-color="#00D46A"/>
<stop offset="1" stop-color="#2C75E4"/>
</linearGradient>
<linearGradient id="paint5_linear" x1="151.897" y1="101.699" x2="171.209" y2="135.145" gradientUnits="userSpaceOnUse">
<stop stop-color="#00D46A"/>
<stop offset="1" stop-color="#2979E4"/>
</linearGradient>
<linearGradient id="paint6_linear" x1="171.199" y1="97.0859" x2="171.199" y2="128.616" gradientUnits="userSpaceOnUse">
<stop stop-color="#0062CC"/>
<stop offset="1" stop-color="#0062CC" stop-opacity="0"/>
</linearGradient>
<linearGradient id="paint7_linear" x1="143.897" y1="102.579" x2="198.511" y2="102.579" gradientUnits="userSpaceOnUse">
<stop stop-color="#00D46A"/>
<stop offset="1" stop-color="#2C75E4"/>
</linearGradient>
<linearGradient id="paint8_linear" x1="151.897" y1="82.4908" x2="171.209" y2="115.937" gradientUnits="userSpaceOnUse">
<stop stop-color="#00D46A"/>
<stop offset="1" stop-color="#2979E4"/>
</linearGradient>
<linearGradient id="paint9_linear" x1="143.897" y1="83.3704" x2="198.511" y2="83.3704" gradientUnits="userSpaceOnUse">
<stop stop-color="#00D46A"/>
<stop offset="1" stop-color="#2C75E4"/>
</linearGradient>
<linearGradient id="paint10_linear" x1="151.897" y1="63.2825" x2="171.209" y2="96.7289" gradientUnits="userSpaceOnUse">
<stop stop-color="#00D46A"/>
<stop offset="1" stop-color="#2979E4"/>
</linearGradient>
<linearGradient id="paint11_linear" x1="171.199" y1="58.6689" x2="171.199" y2="90.1993" gradientUnits="userSpaceOnUse">
<stop stop-color="#0062CC"/>
<stop offset="1" stop-color="#0062CC" stop-opacity="0"/>
</linearGradient>
<linearGradient id="paint12_linear" x1="143.897" y1="64.1621" x2="198.511" y2="64.1621" gradientUnits="userSpaceOnUse">
<stop stop-color="#00D46A"/>
<stop offset="1" stop-color="#007AFF"/>
</linearGradient>
<linearGradient id="paint13_linear" x1="151.894" y1="44.0743" x2="171.206" y2="77.5206" gradientUnits="userSpaceOnUse">
<stop stop-color="#00D46A"/>
<stop offset="1" stop-color="#2979E4"/>
</linearGradient>
<radialGradient id="paint14_radial" cx="0" cy="0" r="1" gradientUnits="userSpaceOnUse" gradientTransform="translate(405.705 144.646) rotate(8.90615) scale(78.4109 67.9138)">
<stop offset="0.0108" stop-color="#007AFF"/>
<stop offset="1" stop-color="#050E18"/>
</radialGradient>
<linearGradient id="paint15_linear" x1="81.4758" y1="151.697" x2="539.835" y2="151.697" gradientUnits="userSpaceOnUse">
<stop stop-color="#007AFF"/>
<stop offset="1" stop-color="#00D46A"/>
</linearGradient>
<linearGradient id="paint16_linear" x1="248.909" y1="112.943" x2="303.255" y2="207.059" gradientUnits="userSpaceOnUse">
<stop stop-color="#007AFF"/>
<stop offset="1" stop-color="#00D46A"/>
</linearGradient>
<radialGradient id="paint17_radial" cx="0" cy="0" r="1" gradientUnits="userSpaceOnUse" gradientTransform="translate(197.377 73.7732) rotate(30.0003) scale(242.414 267.45)">
<stop offset="0.0108" stop-color="#007AFF"/>
<stop offset="1" stop-color="#050E18"/>
</radialGradient>
<linearGradient id="paint18_linear" x1="188.816" y1="144.671" x2="416.441" y2="144.671" gradientUnits="userSpaceOnUse">
<stop stop-color="#007AFF"/>
<stop offset="1" stop-color="#00D46A"/>
</linearGradient>
<radialGradient id="paint19_radial" cx="0" cy="0" r="1" gradientUnits="userSpaceOnUse" gradientTransform="translate(400.995 83.421) rotate(30.0023) scale(11.8668 10.2774)">
<stop offset="0.0108" stop-color="#2C35A2"/>
<stop offset="0.1635" stop-color="#252C88"/>
<stop offset="0.3975" stop-color="#1B2167"/>
<stop offset="0.621" stop-color="#15194F"/>
<stop offset="0.8273" stop-color="#101540"/>
<stop offset="1" stop-color="#0F133B"/>
</radialGradient>
<linearGradient id="paint20_linear" x1="309.955" y1="13.5713" x2="309.955" y2="180.327" gradientUnits="userSpaceOnUse">
<stop stop-color="#007AFF" stop-opacity="0.4"/>
<stop offset="1" stop-color="#228CFF"/>
</linearGradient>
<linearGradient id="paint21_linear" x1="259.517" y1="34.8027" x2="259.517" y2="175.613" gradientUnits="userSpaceOnUse">
<stop stop-color="#00D46A" stop-opacity="0.4"/>
<stop offset="1" stop-color="#00D46A"/>
</linearGradient>
<radialGradient id="paint22_radial" cx="0" cy="0" r="1" gradientUnits="userSpaceOnUse" gradientTransform="translate(455.654 183.504) rotate(51.5858) scale(28.4456 31.6229)">
<stop offset="0.0108" stop-color="#25BFEC"/>
<stop offset="1" stop-color="#050E18"/>
</radialGradient>
<radialGradient id="paint23_radial" cx="0" cy="0" r="1" gradientUnits="userSpaceOnUse" gradientTransform="translate(440.713 177.86) rotate(30.1318) scale(48.4713 42.0884)">
<stop offset="0.0108" stop-color="#00D46A"/>
<stop offset="0.453125" stop-color="#050E18"/>
</radialGradient>
<linearGradient id="paint24_linear" x1="418.208" y1="179.742" x2="454.225" y2="179.742" gradientUnits="userSpaceOnUse">
<stop stop-color="#00D46A"/>
<stop offset="1" stop-color="#007AFF"/>
</linearGradient>
<linearGradient id="paint25_linear" x1="418.439" y1="173.541" x2="454.868" y2="173.541" gradientUnits="userSpaceOnUse">
<stop stop-color="#00D46A"/>
<stop offset="1" stop-color="#2C75E4"/>
</linearGradient>
<linearGradient id="paint26_linear" x1="418.44" y1="177.58" x2="454.869" y2="177.58" gradientUnits="userSpaceOnUse">
<stop stop-color="#00D46A"/>
<stop offset="1" stop-color="#1262FF"/>
</linearGradient>
<radialGradient id="paint27_radial" cx="0" cy="0" r="1" gradientUnits="userSpaceOnUse" gradientTransform="translate(411.688 209.547) rotate(51.5858) scale(28.4457 31.6229)">
<stop offset="0.0108" stop-color="#25BFEC"/>
<stop offset="0.0453" stop-color="#24B4E1"/>
<stop offset="0.859375" stop-color="#050E18"/>
</radialGradient>
<radialGradient id="paint28_radial" cx="0" cy="0" r="1" gradientUnits="userSpaceOnUse" gradientTransform="translate(388.89 209.367) rotate(29.9817) scale(43.9981 38.0894)">
<stop offset="0.0108" stop-color="#00D46A"/>
<stop offset="0.619792" stop-color="#050E18"/>
</radialGradient>
<linearGradient id="paint29_linear" x1="374.239" y1="205.786" x2="410.256" y2="205.786" gradientUnits="userSpaceOnUse">
<stop stop-color="#007AFF"/>
<stop offset="1" stop-color="#00CD77"/>
</linearGradient>
<linearGradient id="paint30_linear" x1="374.47" y1="199.584" x2="410.899" y2="199.584" gradientUnits="userSpaceOnUse">
<stop stop-color="#00D46A"/>
<stop offset="1" stop-color="#2C75E4"/>
</linearGradient>
<linearGradient id="paint31_linear" x1="374.471" y1="203.623" x2="410.9" y2="203.623" gradientUnits="userSpaceOnUse">
<stop stop-color="#00D46A"/>
<stop offset="1" stop-color="#007AFF"/>
</linearGradient>
<radialGradient id="paint32_radial" cx="0" cy="0" r="1" gradientUnits="userSpaceOnUse" gradientTransform="translate(367.719 235.59) rotate(51.5858) scale(28.4456 31.6229)">
<stop offset="0.0108" stop-color="#25BFEC"/>
<stop offset="0.78125" stop-color="#050E18"/>
</radialGradient>
<radialGradient id="paint33_radial" cx="0" cy="0" r="1" gradientUnits="userSpaceOnUse" gradientTransform="translate(344.113 234.658) rotate(30.0334) scale(43.3437 37.562)">
<stop offset="0.0108" stop-color="#00D46A"/>
<stop offset="0.614583" stop-color="#050E18"/>
</radialGradient>
<linearGradient id="paint34_linear" x1="330.271" y1="231.83" x2="366.288" y2="231.83" gradientUnits="userSpaceOnUse">
<stop stop-color="#1262FF"/>
<stop offset="1" stop-color="#00D26E"/>
</linearGradient>
<linearGradient id="paint35_linear" x1="330.502" y1="225.628" x2="366.931" y2="225.628" gradientUnits="userSpaceOnUse">
<stop stop-color="#00D46A"/>
<stop offset="1" stop-color="#2C75E4"/>
</linearGradient>
<linearGradient id="paint36_linear" x1="330.502" y1="229.667" x2="366.931" y2="229.667" gradientUnits="userSpaceOnUse">
<stop stop-color="#00D46A"/>
<stop offset="1" stop-color="#007AFF"/>
</linearGradient>
<clipPath id="clip0">
<rect width="500" height="288.344" fill="white"/>
</clipPath>
</defs>
</svg>
