<svg width="83" height="82" viewBox="0 0 83 82" fill="none" xmlns="http://www.w3.org/2000/svg">
<g clip-path="url(#clip0)">
<path d="M32.2291 17.9766C31.4783 17.9766 30.8696 18.5853 30.8696 19.336V26.1335H26.7911C26.0404 26.1335 25.4316 26.7422 25.4316 27.493V62.8396C25.4316 63.5904 26.0404 64.1991 26.7911 64.1991H30.8696V69.637C30.8696 70.3878 31.4783 70.9965 32.2291 70.9965C32.9798 70.9965 33.5886 70.3878 33.5886 69.637V64.1991H37.667C38.4178 64.1991 39.0265 63.5904 39.0265 62.8396V27.493C39.0265 26.7422 38.4178 26.1335 37.667 26.1335H33.5886V19.336C33.5886 18.5853 32.9798 17.9766 32.2291 17.9766ZM36.3075 28.8524V61.4801H28.1506V28.8524H36.3075Z" fill="url(#paint0_linear)"/>
<path d="M51.2603 12.5391C50.5095 12.5391 49.9008 13.1478 49.9008 13.8985V20.696H45.8224C45.0716 20.696 44.4629 21.3047 44.4629 22.0555V57.4021C44.4629 58.1528 45.0716 58.7616 45.8224 58.7616H49.9008V64.1995C49.9008 64.9503 50.5095 65.559 51.2603 65.559C52.0111 65.559 52.6198 64.9503 52.6198 64.1995V58.7616H56.6983C57.449 58.7616 58.0577 58.1528 58.0577 57.4021V22.0555C58.0577 21.3047 57.449 20.696 56.6983 20.696H52.6198V13.8985C52.6198 13.1478 52.0111 12.5391 51.2603 12.5391ZM55.3388 23.4149V56.0426H47.1819V23.4149H55.3388Z" fill="url(#paint1_linear)"/>
<path d="M70.2955 28.8516C69.5447 28.8516 68.936 29.4603 68.936 30.211V37.0085H64.8575C64.1068 37.0085 63.498 37.6172 63.498 38.368V73.7146C63.498 74.4653 64.1068 75.0741 64.8575 75.0741H68.936V80.512C68.936 81.2628 69.5447 81.8715 70.2955 81.8715C71.0462 81.8715 71.655 81.2628 71.655 80.512V75.0741H75.7334C76.4842 75.0741 77.0929 74.4653 77.0929 73.7146V38.368C77.0929 37.6172 76.4842 37.0085 75.7334 37.0085H71.655V30.211C71.655 29.4603 71.0462 28.8516 70.2955 28.8516ZM74.3739 39.7274V72.3551H66.217V39.7274H74.3739Z" fill="url(#paint2_linear)"/>
<path d="M13.1959 0.302734C12.4451 0.302734 11.8364 0.911449 11.8364 1.66222V8.45965H7.75792C7.00715 8.45965 6.39844 9.06836 6.39844 9.81913V45.1657C6.39844 45.9165 7.00715 46.5252 7.75792 46.5252H11.8364V51.9632C11.8364 52.7139 12.4451 53.3227 13.1959 53.3227C13.9466 53.3227 14.5553 52.7139 14.5553 51.9632V46.5252H18.6338C19.3846 46.5252 19.9933 45.9165 19.9933 45.1657V9.81913C19.9933 9.06836 19.3846 8.45965 18.6338 8.45965H14.5553V1.66222C14.5553 0.911449 13.9466 0.302734 13.1959 0.302734ZM17.2743 11.1786V43.8063H9.11741V11.1786H17.2743Z" fill="url(#paint3_linear)"/>
</g>
<defs>
<linearGradient id="paint0_linear" x1="32.2291" y1="17.9766" x2="32.2291" y2="70.9965" gradientUnits="userSpaceOnUse">
<stop stop-color="#00D46A"/>
<stop offset="1" stop-color="#1262FF"/>
</linearGradient>
<linearGradient id="paint1_linear" x1="51.2603" y1="12.5391" x2="51.2603" y2="65.559" gradientUnits="userSpaceOnUse">
<stop stop-color="#00D46A"/>
<stop offset="1" stop-color="#1262FF"/>
</linearGradient>
<linearGradient id="paint2_linear" x1="70.2955" y1="28.8516" x2="70.2955" y2="81.8715" gradientUnits="userSpaceOnUse">
<stop stop-color="#00D46A"/>
<stop offset="1" stop-color="#1262FF"/>
</linearGradient>
<linearGradient id="paint3_linear" x1="13.1959" y1="0.302734" x2="13.1959" y2="53.3227" gradientUnits="userSpaceOnUse">
<stop stop-color="#00D46A"/>
<stop offset="1" stop-color="#1262FF"/>
</linearGradient>
<clipPath id="clip0">
<rect width="81.5691" height="81.5691" fill="white" transform="translate(0.960938 0.302734)"/>
</clipPath>
</defs>
</svg>
