<svg width="24" height="24" viewBox="0 0 24 24" fill="none" xmlns="http://www.w3.org/2000/svg">
<g opacity="0.5">
<path d="M23.9918 11.9936L13.0541 0V7.18433H11.7836C8.63617 7.18433 5.677 8.41003 3.45135 10.6357C1.22571 12.8613 0 15.8205 0 18.9681V24L2.09912 21.7C4.90704 18.6237 8.89288 16.8441 13.0541 16.8036V23.9874L23.9918 11.9936ZM1.40643 20.3844V18.9681C1.40643 16.1962 2.48584 13.5901 4.4458 11.6301C6.40576 9.67017 9.01172 8.59076 11.7836 8.59076H14.4604V3.62933L22.0886 11.9936L14.4604 20.358V15.3966H13.1986C8.7594 15.3966 4.49048 17.2084 1.40643 20.3844Z" fill="white"/>
</g>
</svg>
