
<svg width="544" height="431" viewBox="0 0 544 431" fill="none" xmlns="http://www.w3.org/2000/svg">
<rect opacity="0.3" width="629" height="431" fill="url(#paint0_radial)"/>
<path d="M435.707 164.307L433.988 164.125V245.386L432.401 245.102L430.123 254.612C430.123 254.612 439.515 254.358 439.515 246.374V171.129C439.514 166 437.096 164.615 435.707 164.307Z" fill="#0E84A4"/>
<path d="M430.617 164.488L337.821 144.146V144.158C336.079 143.654 334.241 143.379 332.338 143.379C321.445 143.379 312.615 147.847 312.615 158.753C312.615 169.658 321.445 178.499 332.338 178.499C334.241 178.499 336.08 178.224 337.821 177.719V227.846C337.821 231.368 340.283 234.412 343.725 235.142L427.525 254.448C432.159 255.432 436.521 251.894 436.521 247.152V171.784C436.521 168.261 434.059 165.219 430.617 164.488Z" fill="#005971"/>
<path d="M412.196 177.718L411.722 177.578V257.696L410.136 257.416L407.857 266.792C407.857 266.792 417.25 266.54 417.25 258.67V184.482C417.249 181.357 415.193 178.602 412.196 177.718Z" fill="#0E84A4"/>
<path d="M408.46 178.416L318.872 158.529L316.067 147.922C312.696 153.196 312.615 157.201 312.615 157.201V239.009C312.615 242.531 315.077 245.574 318.519 246.305L405.37 266.629C410.003 267.613 414.366 264.075 414.366 259.333V185.714C414.365 182.19 411.902 179.148 408.46 178.416Z" fill="#3EB2CF"/>
<path d="M435.708 164.308L337.706 142.723C333.726 141.908 329.856 141.759 326.203 142.283C321.894 142.899 318.298 144.577 316.069 147.921C313.92 151.145 314.307 153.686 315.011 155.25C317.623 161.056 328.627 162.803 330.181 163.022L411.001 180.999C411.001 180.999 414.218 181.576 414.367 186.609C414.367 186.609 416.579 179.05 412.068 177.689C411.96 177.642 411.845 177.604 411.725 177.579L330.845 159.588C330.804 159.579 330.761 159.571 330.719 159.565C327.972 159.189 319.774 157.322 318.197 153.814C318.012 153.402 317.45 152.153 318.975 149.863C320.645 147.357 323.385 146.22 326.697 145.746C329.952 145.282 333.422 145.418 336.997 146.148L433.989 167.526H433.99L434.079 167.545C434.415 167.619 435.645 167.982 436.126 169.386C436.507 170.498 436.553 168.609 436.543 167.293C436.795 167.057 436.982 166.744 437.059 166.38C437.257 165.434 436.652 164.507 435.708 164.308Z" fill="#0E84A4"/>
<path d="M422.732 212.396L390.766 204.612C388.293 204.068 385.872 204.367 383.744 205.269L383.728 205.256L383.47 205.386C383.192 205.512 382.922 205.649 382.656 205.796L378.345 207.97L379.06 208.859C377.535 210.819 376.607 213.285 376.607 216.013V216.722C376.607 222.203 380.417 226.946 385.765 228.122L417.818 235.936L419.695 238.27C419.677 238.284 422.493 236.878 423.489 236.38C423.568 236.344 423.644 236.306 423.719 236.265C423.789 236.231 423.838 236.206 423.838 236.206L423.839 236.189C424.953 235.531 425.733 234.334 425.733 232.908V216.129C425.733 214.334 424.485 212.781 422.732 212.396Z" fill="#005971"/>
<path d="M416.628 238.919L381.299 230.396C375.951 229.221 372.141 224.478 372.141 218.995V218.286C372.141 210.831 379.026 205.287 386.3 206.886L418.266 214.67C420.018 215.055 421.266 216.609 421.266 218.405V235.184C421.266 237.627 419.01 239.442 416.628 238.919Z" fill="#057593"/>
<path d="M389.591 219.087C389.591 222.143 387.117 224.62 384.065 224.62C381.013 224.62 378.539 222.143 378.539 219.087C378.539 216.032 381.013 213.555 384.065 213.555C387.117 213.555 389.591 216.032 389.591 219.087Z" fill="#005971"/>
<path d="M399.19 151.587C398.377 142.945 394.215 135.554 388.353 130.975C386.454 129.492 384.382 128.306 382.183 127.467C381.402 127.171 380.605 126.917 379.793 126.707C378.617 126.404 377.406 126.199 376.181 126.101C375.459 126.043 374.727 126.034 373.992 126.05L373.977 126.043L373.761 126.062C373.336 126.077 372.912 126.086 372.483 126.126C372.055 126.166 371.63 126.22 371.209 126.285L365.206 126.812L365.327 128.102C355.91 132.573 349.826 143.735 350.993 156.13C351.862 165.377 356.571 173.198 363.093 177.664C364.143 178.387 365.243 179.022 366.378 179.559C367.142 179.918 367.926 180.241 368.72 180.513C369.241 180.692 369.769 180.85 370.303 180.989L370.424 182.278L381.194 181.262L381.56 180.859C392.813 177.636 400.487 165.376 399.19 151.587Z" fill="#009249"/>
<path d="M391.913 152.273C393.353 167.587 383.73 181.023 370.423 182.277C369.68 182.347 368.939 182.378 368.205 182.369C365.879 182.348 363.603 181.942 361.443 181.199C360.649 180.927 359.864 180.604 359.101 180.245C357.966 179.709 356.866 179.074 355.815 178.35C349.293 173.884 344.584 166.063 343.715 156.816C342.275 141.502 351.898 128.066 365.205 126.812C366.454 126.694 367.689 126.69 368.904 126.788C370.129 126.885 371.339 127.09 372.515 127.393C373.327 127.601 374.124 127.857 374.906 128.153C377.104 128.991 379.176 130.179 381.075 131.661C386.939 136.241 391.101 143.632 391.913 152.273Z" fill="#08C868"/>
<g opacity="0.31">
<path opacity="0.31" d="M366.015 135.408C356.848 136.273 350.195 145.558 351.188 156.108C352.18 166.658 360.447 174.539 369.614 173.675C378.783 172.81 385.432 163.523 384.439 152.973C383.447 142.423 375.183 134.545 366.015 135.408Z" fill="white"/>
</g>
<path d="M352.207 156.224C351.141 144.89 358.261 134.948 368.11 134.021C368.21 134.011 368.309 134.018 368.409 134.01C367.576 133.955 366.737 133.941 365.885 134.021C356.037 134.949 348.917 144.89 349.983 156.224C351.038 167.443 359.719 175.807 369.447 175.075C360.654 174.489 353.18 166.578 352.207 156.224Z" fill="#02793D"/>
<path d="M385.648 152.859C384.674 142.505 377.201 134.594 368.408 134.008C368.307 134.015 368.208 134.009 368.108 134.018C358.26 134.947 351.139 144.887 352.205 156.221C353.179 166.576 360.652 174.485 369.446 175.073C369.546 175.065 369.645 175.072 369.745 175.062C379.594 174.134 386.714 164.193 385.648 152.859Z" fill="#009249"/>
<path d="M369.843 162.224L369.937 164.955L366.648 165.068L366.558 162.46C364.221 162.393 361.936 161.807 360.505 160.944L362.133 156.651C363.705 157.558 365.779 158.103 367.575 158.04C369.138 157.987 369.686 157.623 369.665 157.033C369.591 154.868 360.625 156.925 360.404 150.503C360.309 147.723 362.141 145.32 365.946 144.623L365.854 141.941L369.143 141.828L369.233 144.461C370.965 144.575 372.66 144.984 374.016 145.725L372.504 149.99C370.865 149.184 369.335 148.817 367.912 148.866C366.303 148.922 365.806 149.431 365.827 150.022C365.897 152.089 374.865 150.056 375.083 156.404C375.176 159.059 373.435 161.435 369.843 162.224Z" fill="#00ED6E"/>
<path d="M417.368 283.775C413.904 285.79 411.747 288.275 410.893 290.876C410.899 288.847 410.904 286.819 410.91 284.791C411.764 282.19 413.922 279.705 417.385 277.69C426.621 272.317 441.64 272.317 450.936 277.69C455.581 280.375 457.917 283.896 457.936 287.416C457.93 289.445 457.925 291.473 457.919 293.501C457.899 289.981 455.565 286.46 450.918 283.775C441.622 278.402 426.603 278.402 417.368 283.775Z" fill="#28F18D"/>
<path d="M410.892 290.874C410.616 291.719 410.476 292.576 410.473 293.434L410.49 287.349C410.492 286.492 410.632 285.634 410.91 284.789C410.907 285.804 410.904 286.817 410.901 287.831C410.9 288.07 410.9 288.389 410.899 288.628C410.898 289.016 410.897 289.403 410.896 289.791C410.895 290.011 410.895 290.304 410.893 290.524C410.892 290.63 410.909 290.771 410.892 290.874Z" fill="#28F18D"/>
<path d="M457.935 287.482L457.918 293.567C457.908 297.066 455.611 300.56 451.023 303.229C441.787 308.602 426.768 308.603 417.476 303.233C412.798 300.528 410.462 296.98 410.473 293.437L410.49 287.352C410.48 290.895 412.816 294.444 417.493 297.147C426.785 302.519 441.804 302.519 451.04 297.144C455.628 294.475 457.925 290.981 457.935 287.482Z" fill="#08C868"/>
<path d="M457.918 293.569C457.918 293.547 457.918 293.524 457.918 293.503C457.923 291.475 457.929 289.446 457.935 287.418C457.935 287.44 457.935 287.463 457.935 287.485C457.93 289.31 457.923 291.744 457.918 293.569Z" fill="#28F18D"/>
<path d="M450.934 277.69C460.226 283.061 460.274 291.771 451.039 297.145C441.803 302.518 426.784 302.518 417.492 297.148C408.196 291.775 408.147 283.064 417.383 277.691C426.619 272.317 441.638 272.317 450.934 277.69Z" fill="#009249"/>
<path d="M417.384 281.083C426.62 275.71 441.639 275.71 450.935 281.083C454.853 283.347 457.12 286.206 457.748 289.157C458.618 285.081 456.348 280.819 450.935 277.69C441.639 272.317 426.62 272.317 417.384 277.69C412.044 280.797 409.815 285.02 410.676 289.068C411.299 286.149 413.53 283.326 417.384 281.083Z" fill="#02793D"/>
<path d="M464.407 287.501L464.39 293.586C464.378 298.039 461.454 302.485 455.614 305.883C443.863 312.72 424.746 312.72 412.919 305.883C406.965 302.441 403.991 297.923 404.004 293.413L404.021 287.328C404.008 291.839 406.982 296.356 412.936 299.798C424.764 306.635 443.881 306.635 455.632 299.798C461.471 296.4 464.395 291.954 464.407 287.501Z" fill="#009249"/>
<path d="M455.497 275.035C467.325 281.872 467.387 292.959 455.632 299.798C443.882 306.635 424.764 306.635 412.937 299.798C401.105 292.959 401.043 281.872 412.794 275.035C424.549 268.197 443.666 268.197 455.497 275.035ZM417.494 297.147C426.786 302.518 441.805 302.518 451.041 297.145C460.276 291.771 460.227 283.061 450.936 277.69C441.64 272.317 426.62 272.317 417.385 277.69C408.15 283.064 408.199 291.773 417.494 297.147Z" fill="#08C868"/>
<path d="M435.774 294.224L435.512 296.149L432.012 295.671L432.262 293.833C429.795 293.39 427.452 292.595 426.049 291.75L428.341 289.025C429.887 289.925 432.013 290.656 433.924 290.916C435.587 291.143 436.215 290.982 436.272 290.565C436.48 289.039 426.708 288.96 427.323 284.434C427.589 282.474 429.849 281.105 433.973 281.261L434.23 279.371L437.73 279.849L437.478 281.704C439.297 282.077 441.039 282.649 442.379 283.397L440.213 286.122C438.583 285.281 437.01 284.767 435.496 284.56C433.784 284.327 433.191 284.599 433.134 285.015C432.936 286.472 442.706 286.568 442.097 291.042C441.842 292.915 439.684 294.28 435.774 294.224Z" fill="#08C868"/>
<path d="M293.006 265.934C289.746 267.831 287.714 270.169 286.91 272.619C286.915 270.709 286.921 268.8 286.927 266.89C287.731 264.44 289.762 262.102 293.023 260.204C301.717 255.145 315.858 255.145 324.61 260.204C328.983 262.733 331.182 266.047 331.2 269.362C331.195 271.272 331.189 273.182 331.184 275.091C331.166 271.776 328.968 268.462 324.593 265.934C315.841 260.874 301.7 260.874 293.006 265.934Z" fill="#28F18D"/>
<path d="M286.911 272.616C286.649 273.412 286.518 274.219 286.516 275.026L286.532 269.297C286.534 268.49 286.666 267.681 286.927 266.887C286.924 267.842 286.922 268.796 286.919 269.751C286.918 269.976 286.918 270.275 286.917 270.5C286.916 270.866 286.915 271.231 286.914 271.596C286.913 271.804 286.913 272.08 286.912 272.287C286.912 272.386 286.927 272.519 286.911 272.616Z" fill="#28F18D"/>
<path d="M331.2 269.422L331.184 275.151C331.175 278.444 329.013 281.734 324.692 284.247C315.998 289.306 301.857 289.306 293.109 284.249C288.705 281.703 286.505 278.362 286.516 275.026L286.532 269.297C286.523 272.632 288.722 275.974 293.126 278.52C301.873 283.576 316.014 283.576 324.709 278.517C329.029 276.005 331.191 272.715 331.2 269.422Z" fill="#08C868"/>
<path d="M331.182 275.152C331.182 275.131 331.182 275.11 331.182 275.088C331.187 273.179 331.193 271.269 331.198 269.359C331.198 269.381 331.198 269.401 331.198 269.423C331.193 271.141 331.187 273.433 331.182 275.152Z" fill="#28F18D"/>
<path d="M324.609 260.204C333.356 265.26 333.402 273.462 324.708 278.52C316.014 283.579 301.873 283.579 293.125 278.523C284.374 273.464 284.328 265.264 293.022 260.204C301.716 255.145 315.857 255.145 324.609 260.204Z" fill="#3ABAD8"/>
<path d="M293.022 263.399C301.717 258.34 315.858 258.34 324.609 263.399C328.298 265.531 330.433 268.222 331.024 271.001C331.844 267.163 329.706 263.15 324.609 260.204C315.858 255.145 301.718 255.145 293.022 260.204C287.995 263.13 285.895 267.106 286.707 270.917C287.293 268.168 289.394 265.51 293.022 263.399Z" fill="#057593"/>
<path d="M337.293 269.44L337.277 275.169C337.265 279.361 334.514 283.547 329.015 286.747C317.953 293.184 299.953 293.184 288.819 286.747C283.213 283.506 280.414 279.253 280.426 275.006L280.442 269.277C280.43 273.523 283.23 277.777 288.835 281.018C299.97 287.455 317.968 287.454 329.031 281.018C334.529 277.818 337.281 273.633 337.293 269.44Z" fill="#009249"/>
<path d="M328.904 257.704C340.039 264.141 340.098 274.578 329.031 281.017C317.969 287.454 299.969 287.454 288.834 281.017C277.696 274.578 277.637 264.141 288.7 257.704C299.767 251.265 317.765 251.265 328.904 257.704ZM293.125 278.52C301.873 283.576 316.013 283.576 324.708 278.518C333.404 273.459 333.357 265.259 324.609 260.203C315.858 255.144 301.717 255.144 293.022 260.203C284.328 265.262 284.374 273.462 293.125 278.52Z" fill="#08C868"/>
<path d="M310.336 275.769L310.089 277.581L306.795 277.132L307.03 275.401C304.706 274.985 302.5 274.234 301.18 273.44L303.337 270.874C304.793 271.721 306.794 272.41 308.593 272.655C310.159 272.869 310.75 272.716 310.804 272.325C310.999 270.888 301.799 270.814 302.378 266.553C302.629 264.707 304.756 263.419 308.639 263.565L308.881 261.785L312.176 262.234L311.938 263.981C313.651 264.331 315.291 264.871 316.551 265.575L314.512 268.14C312.978 267.35 311.496 266.865 310.071 266.669C308.459 266.449 307.901 266.706 307.847 267.098C307.66 268.47 316.859 268.56 316.286 272.772C316.049 274.535 314.017 275.822 310.336 275.769Z" fill="#057593"/>
<path d="M294.831 258.453C291.57 260.35 289.538 262.689 288.734 265.138C288.739 263.229 288.746 261.319 288.751 259.409C289.555 256.96 291.586 254.621 294.847 252.724C303.542 247.665 317.683 247.665 326.434 252.724C330.808 255.253 333.006 258.567 333.025 261.882C333.019 263.791 333.013 265.701 333.008 267.611C332.99 264.296 330.792 260.982 326.418 258.453C317.665 253.394 303.525 253.394 294.831 258.453Z" fill="#28F18D"/>
<path d="M288.735 265.135C288.474 265.931 288.343 266.738 288.34 267.545L288.356 261.816C288.358 261.009 288.49 260.202 288.751 259.406C288.748 260.362 288.746 261.316 288.743 262.27C288.742 262.495 288.742 262.795 288.741 263.02C288.74 263.385 288.739 263.75 288.738 264.115C288.737 264.323 288.737 264.599 288.736 264.807C288.736 264.905 288.75 265.038 288.735 265.135Z" fill="#28F18D"/>
<path d="M333.024 261.941L333.008 267.67C332.999 270.964 330.837 274.253 326.517 276.767C317.821 281.826 303.681 281.826 294.934 276.769C290.529 274.223 288.33 270.882 288.34 267.545L288.356 261.816C288.347 265.153 290.547 268.494 294.95 271.04C303.697 276.096 317.838 276.096 326.533 271.037C330.853 268.524 333.015 265.235 333.024 261.941Z" fill="#08C868"/>
<path d="M333.006 267.671C333.006 267.65 333.006 267.629 333.006 267.608C333.011 265.698 333.017 263.789 333.022 261.879C333.022 261.9 333.022 261.921 333.022 261.942C333.017 263.661 333.011 265.952 333.006 267.671Z" fill="#28F18D"/>
<path d="M326.433 252.724C335.18 257.78 335.226 265.981 326.532 271.039C317.837 276.099 303.697 276.099 294.949 271.042C286.198 265.982 286.152 257.782 294.846 252.723C303.541 247.665 317.682 247.665 326.433 252.724Z" fill="#009249"/>
<path d="M294.846 255.918C303.541 250.859 317.682 250.859 326.433 255.918C330.121 258.05 332.256 260.741 332.848 263.52C333.666 259.682 331.53 255.67 326.433 252.724C317.682 247.665 303.541 247.665 294.846 252.724C289.818 255.649 287.719 259.625 288.531 263.436C289.117 260.688 291.217 258.03 294.846 255.918Z" fill="#02793D"/>
<path d="M339.118 261.96L339.101 267.689C339.089 271.88 336.338 276.067 330.839 279.266C319.777 285.703 301.778 285.703 290.643 279.266C285.037 276.026 282.238 271.773 282.25 267.526L282.266 261.797C282.254 266.043 285.054 270.297 290.659 273.537C301.794 279.974 319.793 279.973 330.856 273.537C336.353 270.338 339.105 266.152 339.118 261.96Z" fill="#009249"/>
<path d="M330.728 250.224C341.863 256.661 341.923 267.098 330.855 273.537C319.793 279.974 301.794 279.974 290.659 273.537C279.52 267.098 279.462 256.66 290.524 250.224C301.591 243.785 319.59 243.785 330.728 250.224ZM294.95 271.04C303.697 276.096 317.837 276.096 326.533 271.038C335.227 265.979 335.181 257.779 326.433 252.723C317.682 247.664 303.542 247.664 294.846 252.723C286.152 257.781 286.198 265.982 294.95 271.04Z" fill="#08C868"/>
<path d="M312.16 268.289L311.914 270.102L308.619 269.653L308.854 267.922C306.531 267.506 304.324 266.755 303.004 265.96L305.162 263.394C306.617 264.241 308.618 264.929 310.417 265.175C311.983 265.388 312.575 265.236 312.628 264.844C312.823 263.407 303.623 263.333 304.202 259.072C304.454 257.227 306.581 255.938 310.464 256.084L310.706 254.305L314.001 254.754L313.763 256.501C315.476 256.851 317.116 257.391 318.377 258.094L316.338 260.66C314.804 259.868 313.322 259.384 311.897 259.189C310.285 258.969 309.727 259.226 309.673 259.617C309.486 260.989 318.685 261.079 318.112 265.291C317.873 267.056 315.841 268.342 312.16 268.289Z" fill="#057593"/>
<path d="M289.854 249C286.594 250.897 284.562 253.236 283.758 255.685C283.763 253.776 283.769 251.866 283.774 249.956C284.578 247.507 286.609 245.168 289.87 243.271C298.564 238.212 312.706 238.212 321.457 243.271C325.831 245.799 328.03 249.113 328.048 252.429C328.043 254.338 328.037 256.248 328.032 258.158C328.013 254.842 325.816 251.528 321.441 249C312.69 243.941 298.549 243.941 289.854 249Z" fill="#28F18D"/>
<path d="M283.759 255.682C283.497 256.478 283.366 257.285 283.363 258.092L283.38 252.363C283.382 251.556 283.513 250.748 283.775 249.953C283.772 250.908 283.77 251.863 283.767 252.817C283.766 253.042 283.766 253.342 283.765 253.567C283.764 253.932 283.763 254.297 283.762 254.662C283.761 254.87 283.761 255.146 283.76 255.354C283.76 255.452 283.775 255.584 283.759 255.682Z" fill="#28F18D"/>
<path d="M328.05 252.491L328.033 258.22C328.024 261.514 325.862 264.803 321.542 267.316C312.848 272.375 298.706 272.375 289.959 267.319C285.555 264.773 283.355 261.433 283.365 258.096L283.382 252.367C283.372 255.704 285.572 259.044 289.975 261.59C298.723 266.646 312.863 266.646 321.558 261.588C325.878 259.073 328.04 255.785 328.05 252.491Z" fill="#08C868"/>
<path d="M328.031 258.218C328.031 258.197 328.031 258.176 328.031 258.155C328.036 256.245 328.043 254.335 328.048 252.426C328.048 252.446 328.048 252.468 328.048 252.489C328.043 254.209 328.035 256.5 328.031 258.218Z" fill="#28F18D"/>
<path d="M321.457 243.271C330.204 248.327 330.25 256.529 321.556 261.587C312.861 266.646 298.72 266.646 289.973 261.589C281.221 256.53 281.175 248.329 289.87 243.27C298.564 238.211 312.705 238.212 321.457 243.271Z" fill="#3ABAD8"/>
<path d="M289.87 246.465C298.564 241.406 312.706 241.406 321.457 246.465C325.145 248.597 327.281 251.288 327.872 254.067C328.69 250.229 326.554 246.217 321.457 243.271C312.706 238.212 298.565 238.212 289.87 243.271C284.842 246.196 282.743 250.172 283.554 253.983C284.142 251.235 286.241 248.576 289.87 246.465Z" fill="#057593"/>
<path d="M334.141 252.506L334.125 258.235C334.112 262.427 331.36 266.614 325.863 269.813C314.8 276.25 296.801 276.25 285.666 269.813C280.061 266.573 277.261 262.32 277.273 258.073L277.29 252.344C277.278 256.59 280.077 260.844 285.683 264.084C296.817 270.521 314.817 270.52 325.879 264.084C331.378 260.885 334.129 256.698 334.141 252.506Z" fill="#009249"/>
<path d="M325.752 240.771C336.887 247.207 336.946 257.645 325.879 264.084C314.817 270.52 296.817 270.52 285.683 264.084C274.544 257.645 274.484 247.206 285.548 240.771C296.614 234.332 314.612 234.332 325.752 240.771ZM289.973 261.588C298.721 266.644 312.861 266.644 321.556 261.586C330.251 256.527 330.205 248.326 321.457 243.27C312.706 238.211 298.565 238.211 289.87 243.27C281.175 248.33 281.222 256.529 289.973 261.588Z" fill="#08C868"/>
<path d="M307.183 258.835L306.937 260.648L303.642 260.199L303.877 258.468C301.554 258.052 299.347 257.302 298.027 256.506L300.185 253.941C301.641 254.788 303.641 255.476 305.44 255.722C307.007 255.935 307.598 255.783 307.651 255.391C307.846 253.954 298.646 253.88 299.226 249.619C299.477 247.774 301.604 246.485 305.487 246.631L305.73 244.852L309.024 245.301L308.786 247.048C310.5 247.397 312.139 247.938 313.401 248.641L311.362 251.207C309.827 250.416 308.346 249.931 306.921 249.736C305.309 249.516 304.751 249.773 304.697 250.164C304.51 251.536 313.709 251.626 313.135 255.838C312.896 257.603 310.865 258.888 307.183 258.835Z" fill="#057593"/>
<path d="M290.219 240.297C286.959 242.194 284.927 244.532 284.123 246.982C284.128 245.073 284.134 243.163 284.139 241.253C284.943 238.803 286.974 236.465 290.236 234.568C298.93 229.509 313.071 229.509 321.823 234.568C326.196 237.096 328.395 240.41 328.413 243.725C328.408 245.635 328.402 247.545 328.397 249.454C328.38 246.139 326.181 242.825 321.806 240.297C313.054 235.238 298.913 235.238 290.219 240.297Z" fill="#28F18D"/>
<path d="M284.124 246.983C283.862 247.779 283.731 248.586 283.729 249.393L283.745 243.664C283.747 242.857 283.879 242.05 284.14 241.254C284.137 242.209 284.135 243.164 284.132 244.118C284.131 244.343 284.131 244.643 284.13 244.868C284.129 245.233 284.128 245.598 284.127 245.963C284.126 246.171 284.126 246.447 284.125 246.655C284.125 246.753 284.14 246.886 284.124 246.983Z" fill="#28F18D"/>
<path d="M328.413 243.789L328.397 249.518C328.388 252.812 326.226 256.101 321.905 258.614C313.211 263.673 299.07 263.673 290.322 258.616C285.918 256.07 283.718 252.73 283.729 249.393L283.745 243.664C283.736 247.001 285.935 250.341 290.339 252.887C299.086 257.943 313.226 257.943 321.922 252.885C326.242 250.372 328.404 247.082 328.413 243.789Z" fill="#08C868"/>
<path d="M328.395 249.519C328.395 249.499 328.395 249.477 328.395 249.456C328.4 247.546 328.406 245.636 328.411 243.727C328.411 243.748 328.411 243.769 328.411 243.79C328.407 245.508 328.4 247.8 328.395 249.519Z" fill="#28F18D"/>
<path d="M321.824 234.568C330.571 239.624 330.617 247.825 321.923 252.883C313.229 257.941 299.087 257.942 290.34 252.885C281.589 247.826 281.543 239.626 290.237 234.567C298.931 229.509 313.071 229.509 321.824 234.568Z" fill="#009249"/>
<path d="M290.235 237.762C298.93 232.703 313.071 232.703 321.822 237.762C325.511 239.894 327.646 242.585 328.237 245.364C329.056 241.526 326.919 237.514 321.822 234.568C313.071 229.509 298.931 229.509 290.235 234.568C285.207 237.493 283.108 241.469 283.92 245.28C284.506 242.532 286.606 239.873 290.235 237.762Z" fill="#02793D"/>
<path d="M334.506 243.807L334.49 249.536C334.478 253.728 331.726 257.914 326.228 261.114C315.166 267.551 297.166 267.551 286.031 261.114C280.426 257.874 277.626 253.621 277.639 249.374L277.655 243.645C277.643 247.89 280.443 252.145 286.048 255.385C297.183 261.822 315.181 261.821 326.244 255.385C331.742 252.185 334.494 248 334.506 243.807Z" fill="#009249"/>
<path d="M326.117 232.071C337.252 238.508 337.311 248.946 326.244 255.384C315.181 261.821 297.182 261.821 286.047 255.384C274.908 248.946 274.85 238.507 285.913 232.071C296.98 225.632 314.978 225.632 326.117 232.071ZM290.339 252.888C299.087 257.944 313.227 257.944 321.922 252.886C330.617 247.828 330.57 239.626 321.823 234.57C313.072 229.511 298.931 229.511 290.236 234.57C281.541 239.628 281.587 247.83 290.339 252.888Z" fill="#08C868"/>
<path d="M307.549 250.136L307.302 251.948L304.008 251.499L304.242 249.769C301.919 249.352 299.713 248.602 298.393 247.807L300.55 245.241C302.006 246.088 304.006 246.777 305.806 247.022C307.372 247.236 307.963 247.084 308.016 246.692C308.212 245.255 299.012 245.181 299.591 240.92C299.842 239.075 301.969 237.786 305.852 237.932L306.094 236.152L309.389 236.601L309.15 238.348C310.864 238.698 312.503 239.238 313.764 239.942L311.725 242.507C310.19 241.717 308.71 241.232 307.284 241.037C305.672 240.817 305.114 241.073 305.06 241.465C304.873 242.837 314.072 242.927 313.499 247.139C313.262 248.902 311.229 250.189 307.549 250.136Z" fill="#08C868"/>
<path d="M363.36 102L364.286 104.413C364.856 105.897 366.028 107.07 367.511 107.641L369.921 108.569L367.511 109.497C366.028 110.067 364.856 111.241 364.286 112.725L363.36 115.138L362.433 112.725C361.863 111.241 360.691 110.067 359.209 109.497L356.799 108.569L359.209 107.641C360.691 107.07 361.863 105.897 362.433 104.413L363.36 102Z" fill="#3ABAD8"/>
<path d="M493.438 261.602L494.365 264.014C494.935 265.499 496.106 266.672 497.589 267.243L499.999 268.17L497.589 269.098C496.106 269.669 494.935 270.842 494.365 272.326L493.438 274.739L492.511 272.326C491.941 270.842 490.769 269.669 489.287 269.098L486.877 268.17L489.287 267.243C490.769 266.672 491.941 265.499 492.511 264.014L493.438 261.602Z" fill="#3ABAD8"/>
<path d="M290.082 127.754L290.75 129.493C291.161 130.563 292.004 131.408 293.073 131.819L294.81 132.488L293.073 133.156C292.004 133.567 291.161 134.413 290.75 135.482L290.082 137.22L289.414 135.482C289.003 134.412 288.159 133.567 287.09 133.156L285.354 132.488L287.09 131.819C288.159 131.408 289.003 130.563 289.414 129.493L290.082 127.754Z" fill="#3ABAD8"/>
<path d="M360.793 319.684L361.461 321.422C361.871 322.492 362.715 323.337 363.784 323.748L365.521 324.417L363.784 325.085C362.715 325.497 361.871 326.342 361.461 327.411L360.793 329.15L360.124 327.411C359.714 326.341 358.87 325.497 357.801 325.085L356.064 324.417L357.801 323.748C358.87 323.337 359.714 322.492 360.124 321.422L360.793 319.684Z" fill="#3ABAD8"/>
<path d="M425.722 123.301L426.344 124.918C426.726 125.913 427.511 126.7 428.505 127.082L430.121 127.704L428.505 128.326C427.511 128.709 426.726 129.495 426.344 130.49L425.722 132.108L425.101 130.49C424.719 129.495 423.933 128.709 422.939 128.326L421.324 127.704L422.939 127.082C423.933 126.7 424.719 125.913 425.101 124.918L425.722 123.301Z" fill="#3ABAD8"/>
<path d="M254.398 218.672L255.019 220.289C255.401 221.284 256.187 222.071 257.181 222.453L258.796 223.075L257.181 223.697C256.187 224.08 255.401 224.866 255.019 225.862L254.398 227.479L253.777 225.862C253.395 224.866 252.609 224.08 251.615 223.697L250 223.075L251.615 222.453C252.609 222.071 253.395 221.284 253.777 220.289L254.398 218.672Z" fill="#3ABAD8"/>
<path d="M291.454 187.09L291.959 188.403C292.269 189.211 292.907 189.85 293.713 190.159L295.025 190.664L293.713 191.169C292.906 191.48 292.269 192.118 291.959 192.926L291.454 194.24L290.95 192.926C290.639 192.118 290.002 191.48 289.195 191.169L287.883 190.664L289.195 190.159C290.002 189.849 290.639 189.21 290.95 188.403L291.454 187.09Z" fill="#3ABAD8"/>
<path d="M451.56 213.621L452.065 214.934C452.374 215.743 453.013 216.381 453.819 216.691L455.131 217.195L453.819 217.7C453.012 218.011 452.374 218.649 452.065 219.458L451.56 220.771L451.055 219.458C450.745 218.649 450.107 218.011 449.3 217.7L447.988 217.195L449.3 216.691C450.107 216.38 450.745 215.741 451.055 214.934L451.56 213.621Z" fill="#3ABAD8"/>
<path d="M458.617 160.715L459.12 162.028C459.431 162.836 460.068 163.475 460.874 163.784L462.186 164.29L460.874 164.795C460.067 165.106 459.43 165.744 459.12 166.552L458.617 167.866L458.112 166.552C457.802 165.744 457.164 165.106 456.357 164.795L455.045 164.29L456.357 163.784C457.164 163.475 457.801 162.835 458.112 162.028L458.617 160.715Z" fill="#3ABAD8"/>
<defs>
<radialGradient id="paint0_radial" cx="0" cy="0" r="1" gradientUnits="userSpaceOnUse" gradientTransform="translate(314.5 215.5) rotate(-176.452) scale(227.126 252.009)">
<stop stop-color="#A5EC84"/>
<stop offset="1" stop-color="#327BB7" stop-opacity="0"/>
</radialGradient>
</defs>
</svg>
