<svg width="70" height="70" viewBox="0 0 70 70" fill="none" xmlns="http://www.w3.org/2000/svg">
<g clip-path="url(#clip0)">
<path d="M60.93 16.9282C61.5857 16.9282 62.2178 16.6681 62.6842 16.2016L69.5567 9.32902C70.4751 8.41068 69.8771 6.83459 68.5832 6.75338L64.926 6.52383L67.3124 4.13741C67.7128 3.73696 67.7128 3.08769 67.3124 2.68737C66.9118 2.28693 66.2627 2.28693 65.8622 2.68737L63.4758 5.07379L63.2462 1.41658C63.1649 0.120348 61.5873 -0.473557 60.6706 0.443004L53.7979 7.31557C53.2946 7.81883 53.0317 8.51486 53.0763 9.22511L53.3125 12.9887C47.5767 8.09801 40.1842 5.29337 32.3532 5.29337C14.4718 5.29337 0 19.7634 0 37.6464C0 45.7171 2.98867 53.447 8.41571 59.412C8.79701 59.8308 9.44547 59.8614 9.86424 59.4804C10.2831 59.0992 10.3138 58.4507 9.93273 58.0318C4.84995 52.4452 2.05078 45.2056 2.05078 37.6464C2.05078 20.9377 15.6444 7.34401 32.3532 7.34401C40.1833 7.34401 47.5514 10.345 53.0626 15.4868L48.3838 20.1655C44.1525 16.2814 38.5188 13.9046 32.3532 13.9046C19.262 13.9046 8.61149 24.5551 8.61149 37.6463C8.61149 41.414 9.52039 45.1668 11.2403 48.4991C11.2404 48.4993 11.2404 48.4994 11.2406 48.4995C15.2258 56.2215 23.2518 61.388 32.3533 61.388C43.5682 61.388 53.3221 53.4667 55.6018 42.4735C55.7167 41.919 55.3605 41.3762 54.8059 41.2613C54.2515 41.1463 53.7088 41.5026 53.5938 42.0571C51.5173 52.0698 42.5845 59.3372 32.3535 59.3372C24.2038 59.3372 16.812 54.824 13.063 47.5591C13.063 47.5589 13.0629 47.5588 13.0629 47.5587C11.4701 44.4722 10.6624 41.1373 10.6624 37.6463C10.6624 25.6859 20.3929 15.9554 32.3533 15.9554C37.9547 15.9554 43.0759 18.1021 46.9342 21.6151L42.2971 26.2522C39.6361 23.9269 36.1566 22.5159 32.3533 22.5159C24.0105 22.5159 17.2231 29.3033 17.2231 37.6462C17.2231 45.989 24.0105 52.7764 32.3533 52.7764C40.6962 52.7764 47.4837 45.989 47.4837 37.6462C47.4837 33.8429 46.0728 30.3634 43.7473 27.7023L48.3847 23.065C51.8704 26.8923 54.0121 31.964 54.0439 37.52C54.047 38.0842 54.5056 38.5395 55.0691 38.5395H55.0751C55.6414 38.5362 56.0978 38.0745 56.0946 37.5082C56.0596 31.3921 53.6888 25.8122 49.8348 21.6147L54.5139 16.9356C59.6336 22.4097 62.6556 29.734 62.6556 37.646C62.6555 54.3552 49.062 67.9488 32.3532 67.9488C25.4313 67.9488 18.6629 65.5544 13.2949 61.2066C12.8545 60.8503 12.2094 60.918 11.8527 61.3579C11.4962 61.798 11.5641 62.4437 12.004 62.8002C17.7361 67.4429 24.9629 69.9996 32.3532 69.9996C50.2346 69.9996 64.7064 55.5296 64.7064 37.6464C64.7064 30.6447 62.506 23.9809 58.3435 18.3757C57.9126 17.7953 57.4637 17.2327 56.9998 16.6863C61.0195 16.9388 60.8028 16.9282 60.93 16.9282ZM45.4328 37.6464C45.4328 44.8585 39.5654 50.7259 32.3532 50.7259C25.1412 50.7259 19.2737 44.8585 19.2737 37.6464C19.2737 30.4344 25.1412 24.567 32.3532 24.567C35.591 24.567 38.5572 25.75 40.8437 27.7058L36.1775 32.372C35.1023 31.5903 33.7811 31.1276 32.3532 31.1276C28.7587 31.1276 25.8343 34.052 25.8343 37.6464C25.8343 41.2409 28.7587 44.1653 32.3532 44.1653C35.9478 44.1653 38.8722 41.2409 38.8722 37.6464C38.8722 36.2184 38.4094 34.8972 37.6278 33.8221L42.294 29.1559C44.2496 31.4424 45.4328 34.4087 45.4328 37.6464ZM31.628 38.3716C32.0286 38.772 32.6778 38.772 33.0782 38.3716L36.1519 35.2979C36.5757 35.9808 36.8213 36.7854 36.8213 37.6466C36.8213 40.1104 34.8169 42.1147 32.3531 42.1147C29.8893 42.1147 27.885 40.1102 27.885 37.6466C27.885 35.1829 29.8893 33.1785 32.3531 33.1785C33.2142 33.1785 34.0188 33.424 34.7017 33.8477L31.6279 36.9215C31.2276 37.3219 31.2276 37.9711 31.628 38.3716ZM55.1231 9.0966C55.1153 8.97342 55.161 8.85269 55.2482 8.7656L61.2745 2.73946L61.5423 7.00727L55.3788 13.1708L55.1231 9.0966ZM56.8289 14.6208L62.9925 8.4573L67.2603 8.72514L61.234 14.7514C61.1469 14.8386 61.0252 14.885 60.903 14.8765L56.8289 14.6208Z" fill="url(#paint0_linear)"/>
</g>
<defs>
<linearGradient id="paint0_linear" x1="35" y1="0" x2="35" y2="69.9996" gradientUnits="userSpaceOnUse">
<stop stop-color="#00D46A"/>
<stop offset="1" stop-color="#1262FF"/>
</linearGradient>
<clipPath id="clip0">
<rect width="70" height="70" fill="white"/>
</clipPath>
</defs>
</svg>
