<svg width="179" height="146" viewBox="0 0 179 146" fill="none" xmlns="http://www.w3.org/2000/svg">
<rect width="179" height="146" rx="20" fill="url(#paint0_linear)"/>
<g clip-path="url(#clip0)">
<path d="M109.666 108H49.6661C49.0794 108 48.5328 107.69 48.2328 107.183C47.9328 106.676 47.9228 106.05 48.2028 105.533L78.2028 50.533C78.7861 49.463 80.5461 49.463 81.1294 50.533L111.129 105.533C111.409 106.05 111.399 106.676 111.099 107.183C110.799 107.69 110.253 108 109.666 108ZM52.4728 104.666H106.856L79.6661 54.813L52.4728 104.666Z" fill="url(#paint1_linear)"/>
<path d="M126.332 108H109.666C108.746 108 107.999 107.253 107.999 106.333C107.999 105.413 108.746 104.666 109.666 104.666H123.512L108.096 76.633L101.742 89.7797C101.342 90.6063 100.352 90.9564 99.5158 90.553C98.6858 90.153 98.3392 89.1563 98.7425 88.3263L106.502 72.273C106.776 71.713 107.336 71.3497 107.959 71.333C108.586 71.363 109.162 71.6497 109.462 72.1963L127.796 105.53C128.079 106.046 128.072 106.673 127.769 107.18C127.466 107.69 126.922 108 126.332 108Z" fill="url(#paint2_linear)"/>
<path d="M79.6667 53C78.7467 53 78 52.2533 78 51.3333V29.6667C78 28.7467 78.7467 28 79.6667 28H99.6667C100.34 28 100.95 28.4067 101.207 29.03C101.467 29.6533 101.323 30.37 100.847 30.8467L95.3567 36.3333L100.843 41.82C101.32 42.2967 101.463 43.0133 101.203 43.6367C100.95 44.26 100.34 44.6667 99.6667 44.6667H81.3333V51.3333C81.3333 52.2533 80.5867 53 79.6667 53ZM81.3333 41.3333H95.6433L91.8233 37.5133C91.1733 36.8633 91.1733 35.8067 91.8233 35.1567L95.6433 31.3333H81.3333V41.3333Z" fill="url(#paint3_linear)"/>
<path d="M84.6665 78.0005C84.6265 78.0005 84.5899 78.0004 84.5465 77.9971C84.0632 77.9638 83.6232 77.7205 83.3332 77.3338L79.6665 72.4471L75.9998 77.3338C75.7098 77.7205 75.2665 77.9604 74.7865 77.9971C74.2832 78.0371 73.8298 77.8571 73.4898 77.5138L67.8898 71.9138C67.2398 71.2638 67.2398 70.2071 67.8898 69.5571C68.5398 68.9071 69.5965 68.9071 70.2465 69.5571L74.4865 73.7971L78.3332 68.6671C78.9599 67.8271 80.3698 67.8271 80.9998 68.6671L84.8465 73.7971L89.0865 69.5571C89.7365 68.9071 90.7932 68.9071 91.4432 69.5571C92.0932 70.2071 92.0932 71.2638 91.4432 71.9138L85.8432 77.5138C85.5299 77.8271 85.1065 78.0005 84.6665 78.0005Z" fill="url(#paint4_linear)"/>
</g>
<defs>
<linearGradient id="paint0_linear" x1="90" y1="-32" x2="90" y2="133" gradientUnits="userSpaceOnUse">
<stop stop-color="white" stop-opacity="0.1"/>
<stop offset="1" stop-color="white" stop-opacity="0.03"/>
</linearGradient>
<linearGradient id="paint1_linear" x1="79.6661" y1="49.7305" x2="79.6661" y2="108" gradientUnits="userSpaceOnUse">
<stop stop-color="#00D46A"/>
<stop offset="1" stop-color="#1262FF"/>
</linearGradient>
<linearGradient id="paint2_linear" x1="113.288" y1="71.333" x2="113.288" y2="108" gradientUnits="userSpaceOnUse">
<stop stop-color="#00D46A"/>
<stop offset="1" stop-color="#1262FF"/>
</linearGradient>
<linearGradient id="paint3_linear" x1="89.6674" y1="28" x2="89.6674" y2="53" gradientUnits="userSpaceOnUse">
<stop stop-color="#00D46A"/>
<stop offset="1" stop-color="#1262FF"/>
</linearGradient>
<linearGradient id="paint4_linear" x1="79.6665" y1="68.0371" x2="79.6665" y2="78.0026" gradientUnits="userSpaceOnUse">
<stop stop-color="#00D46A"/>
<stop offset="1" stop-color="#1262FF"/>
</linearGradient>
<clipPath id="clip0">
<rect width="80" height="80" fill="white" transform="translate(48 28)"/>
</clipPath>
</defs>
</svg>
