<svg width="140" height="140" viewBox="0 0 140 140" fill="none" xmlns="http://www.w3.org/2000/svg">
<g clip-path="url(#clip0)">
<path d="M82.782 26.4717C84.9987 23.6833 86.3333 20.1647 86.3333 16.3333C86.3333 7.32667 79.0067 0 70 0C60.9933 0 53.6667 7.32667 53.6667 16.3333C53.6667 20.1647 55.0013 23.6833 57.218 26.4717C47.9967 31.22 42 40.8077 42 51.3333V58.3333C42 59.6213 43.0453 60.6667 44.3333 60.6667H95.6667C96.9547 60.6667 98 59.6213 98 58.3333V51.3333C98 40.8077 92.0033 31.22 82.782 26.4717ZM70 4.66667C76.433 4.66667 81.6667 9.90033 81.6667 16.3333C81.6667 20.1787 79.772 23.569 76.8927 25.697C76.6173 25.9 76.335 26.089 76.0457 26.264C75.7657 26.4367 75.4717 26.5883 75.1753 26.7377C74.795 26.9243 74.4123 27.104 74.018 27.2463C73.8453 27.3093 73.6633 27.356 73.486 27.412C71.2227 28.105 68.782 28.105 66.5163 27.412C66.339 27.356 66.157 27.3117 65.9843 27.2463C65.5877 27.104 65.2073 26.9243 64.827 26.7377C64.5307 26.5907 64.239 26.4367 63.9567 26.264C63.6673 26.089 63.385 25.9 63.1097 25.697C60.228 23.569 58.3333 20.1787 58.3333 16.3333C58.3333 9.90033 63.567 4.66667 70 4.66667ZM93.3333 56H46.6667V51.3333C46.6667 41.9883 52.332 33.5183 60.886 29.8807C61.5487 30.3287 62.2557 30.7137 62.9837 31.0613C62.9883 31.0637 62.9907 31.066 62.9953 31.0683C65.121 32.081 67.4917 32.6667 70 32.6667C72.5083 32.6667 74.879 32.081 77.0047 31.066C77.0093 31.0637 77.0117 31.0613 77.0163 31.059C77.7443 30.7113 78.4513 30.3263 79.114 29.8783C87.668 33.5183 93.3333 41.9883 93.3333 51.3333V56Z" fill="#00D46A" fill-opacity="0.8"/>
<path d="M40.782 105.805C42.9987 103.016 44.3333 99.4977 44.3333 95.6663C44.3333 86.6597 37.0067 79.333 28 79.333C18.9933 79.333 11.6667 86.6597 11.6667 95.6663C11.6667 99.4977 13.0013 103.016 15.218 105.805C5.99667 110.553 0 120.141 0 130.666V137.666C0 138.954 1.04533 140 2.33333 140H53.6667C54.9547 140 56 138.954 56 137.666V130.666C56 120.141 50.0033 110.553 40.782 105.805ZM28 83.9997C34.433 83.9997 39.6667 89.2333 39.6667 95.6663C39.6667 99.5117 37.772 102.902 34.8927 105.03C34.6173 105.233 34.335 105.422 34.0457 105.597C33.7657 105.77 33.4717 105.921 33.1753 106.071C32.795 106.257 32.4123 106.437 32.018 106.579C31.8453 106.642 31.6633 106.689 31.486 106.745C29.2227 107.438 26.782 107.438 24.5163 106.745C24.339 106.689 24.157 106.645 23.9843 106.579C23.5877 106.437 23.2073 106.257 22.827 106.071C22.5307 105.924 22.239 105.77 21.9567 105.597C21.6673 105.422 21.385 105.233 21.1097 105.03C18.228 102.902 16.3333 99.5117 16.3333 95.6663C16.3333 89.2333 21.567 83.9997 28 83.9997ZM51.3333 135.333H4.66667V130.666C4.66667 121.321 10.332 112.851 18.886 109.214C19.5487 109.662 20.2557 110.047 20.9837 110.394C20.9883 110.397 20.9907 110.399 20.9953 110.401C23.121 111.414 25.4917 112 28 112C30.5083 112 32.879 111.414 35.0047 110.399C35.0093 110.397 35.0117 110.394 35.0163 110.392C35.7443 110.044 36.4513 109.659 37.114 109.211C45.668 112.851 51.3333 121.321 51.3333 130.666V135.333Z" fill="#00D46A" fill-opacity="0.8"/>
<path d="M124.782 105.805C126.999 103.016 128.333 99.4977 128.333 95.6663C128.333 86.6597 121.007 79.333 112 79.333C102.993 79.333 95.6667 86.6597 95.6667 95.6663C95.6667 99.4977 97.0013 103.016 99.218 105.805C89.9967 110.553 84 120.141 84 130.666V137.666C84 138.954 85.0453 140 86.3333 140H137.667C138.955 140 140 138.954 140 137.666V130.666C140 120.141 134.003 110.553 124.782 105.805ZM112 83.9997C118.433 83.9997 123.667 89.2333 123.667 95.6663C123.667 99.5117 121.772 102.902 118.893 105.03C118.617 105.233 118.335 105.422 118.046 105.597C117.766 105.77 117.472 105.921 117.175 106.071C116.795 106.257 116.412 106.437 116.018 106.579C115.845 106.642 115.663 106.689 115.486 106.745C113.223 107.438 110.782 107.438 108.516 106.745C108.339 106.689 108.157 106.645 107.984 106.579C107.588 106.437 107.207 106.257 106.827 106.071C106.531 105.924 106.239 105.77 105.957 105.597C105.667 105.422 105.385 105.233 105.11 105.03C102.228 102.902 100.333 99.5117 100.333 95.6663C100.333 89.2333 105.567 83.9997 112 83.9997ZM135.333 135.333H88.6667V130.666C88.6667 121.321 94.332 112.851 102.886 109.214C103.549 109.662 104.256 110.047 104.984 110.394C104.988 110.397 104.991 110.399 104.995 110.401C107.121 111.414 109.492 112 112 112C114.508 112 116.879 111.414 119.005 110.399C119.009 110.397 119.012 110.394 119.016 110.392C119.744 110.044 120.451 109.659 121.114 109.211C129.668 112.851 135.333 121.321 135.333 130.666V135.333Z" fill="#00D46A" fill-opacity="0.8"/>
<path d="M72.3333 78.213V65.333H67.6667V78.213L56.875 86.844L59.7917 90.4887L70 82.322L80.2083 90.4887L83.125 86.844L72.3333 78.213Z" fill="#1262FF"/>
<path d="M72.3332 37.333H67.6665V41.9997H72.3332V37.333Z" fill="#1262FF"/>
<path d="M72.3332 46.667H67.6665V51.3337H72.3332V46.667Z" fill="#1262FF"/>
<path d="M114.333 116.667H109.667V121.334H114.333V116.667Z" fill="#1262FF"/>
<path d="M114.333 126H109.667V130.667H114.333V126Z" fill="#1262FF"/>
<path d="M30.3332 116.667H25.6665V121.334H30.3332V116.667Z" fill="#1262FF"/>
<path d="M30.3332 126H25.6665V130.667H30.3332V126Z" fill="#1262FF"/>
</g>
<defs>
<clipPath id="clip0">
<rect width="140" height="140" fill="white"/>
</clipPath>
</defs>
</svg>
