<svg width="23" height="23" viewBox="0 0 23 23" fill="none" xmlns="http://www.w3.org/2000/svg">
<g clip-path="url(#clip0)">
<path d="M0.647416 11.3484L5.83187 13.2834L7.83857 19.7369C7.96697 20.1503 8.47239 20.303 8.80787 20.0288L11.6978 17.6729C12.0007 17.426 12.4322 17.4137 12.7487 17.6435L17.9611 21.4278C18.32 21.6887 18.8284 21.492 18.9184 21.0584L22.7367 2.69154C22.835 2.21784 22.3695 1.82266 21.9185 1.99711L0.641341 10.2052C0.116266 10.4077 0.120841 11.1511 0.647416 11.3484ZM7.51517 12.2534L17.6475 6.01284C17.8296 5.90101 18.017 6.14724 17.8606 6.29229L9.49847 14.0653C9.20454 14.3389 9.01494 14.705 8.96124 15.1025L8.67639 17.2134C8.63867 17.4953 8.24274 17.5232 8.16497 17.2505L7.06944 13.4011C6.94397 12.962 7.12682 12.4931 7.51517 12.2534Z" fill="#0088CC"/>
</g>
<defs>
<clipPath id="clip0">
<rect width="22.5" height="22.5" fill="white" transform="translate(0.25 0.5)"/>
</clipPath>
</defs>
</svg>
