<svg width="160" height="382" viewBox="0 0 160 382" fill="none" xmlns="http://www.w3.org/2000/svg">
<path opacity="0.5" d="M-132.451 103.426C-128.921 93.9673 -127.156 89.238 -124.2 85.5176C-121.585 82.2257 -118.307 79.5203 -114.579 77.5768C-110.366 75.3802 -105.388 74.544 -95.4312 72.8716L-5.29168 57.7306C4.66474 56.0582 9.64294 55.222 14.3427 55.9214C18.5011 56.5403 22.4829 58.0262 26.0301 60.283C30.039 62.8335 33.2523 66.7267 39.6789 74.513L97.8612 145.006C104.288 152.792 107.501 156.685 109.245 161.105C110.788 165.016 111.492 169.207 111.312 173.407C111.107 178.154 109.342 182.884 105.812 192.342L73.8552 277.976C70.3253 287.435 68.5604 292.164 65.6048 295.885C62.9896 299.176 59.7118 301.882 55.9838 303.825C51.7705 306.022 46.7923 306.858 36.8359 308.531L-53.3037 323.672C-63.2601 325.344 -68.2383 326.18 -72.938 325.481C-77.0964 324.862 -81.0783 323.376 -84.6254 321.119C-88.6344 318.569 -91.8477 314.675 -98.2742 306.889L-156.456 236.397C-162.883 228.61 -166.096 224.717 -167.84 220.297C-169.384 216.387 -170.088 212.195 -169.907 207.995C-169.703 203.248 -167.938 198.518 -164.408 189.06L-132.451 103.426Z" fill="url(#paint0_linear)"/>
<defs>
<linearGradient id="paint0_linear" x1="-133.713" y1="108.67" x2="-169.395" y2="337.024" gradientUnits="userSpaceOnUse">
<stop stop-color="#00D46A"/>
<stop offset="1" stop-color="#1262FF"/>
</linearGradient>
</defs>
</svg>

