
<svg width="61" height="32" viewBox="30 30 61 32" fill="none" xmlns="http://www.w3.org/2000/svg">
<g filter="url(#filter0_d)">
<path d="M30.5 36C30.5 32.9624 32.9624 30.5 36 30.5H85C88.0376 30.5 90.5 32.9624 90.5 36V56C90.5 59.0376 88.0376 61.5 85 61.5H36C32.9624 61.5 30.5 59.0376 30.5 56V36Z" stroke="url(#paint0_linear)"/>
</g>
<g filter="url(#filter1_d)">
<path d="M47.448 43.486V44.486H48.448V43.486H47.448ZM44.796 43.486V42.486H43.796V43.486H44.796ZM44.796 51V52H45.796V51H44.796ZM43.015 51H42.015V52H43.015V51ZM43.015 43.486H44.015V42.486H43.015V43.486ZM40.35 43.486H39.35V44.486H40.35V43.486ZM40.35 41.9V40.9H39.35V41.9H40.35ZM47.448 41.9H48.448V40.9H47.448V41.9ZM47.448 42.486H44.796V44.486H47.448V42.486ZM43.796 43.486V51H45.796V43.486H43.796ZM44.796 50H43.015V52H44.796V50ZM44.015 51V43.486H42.015V51H44.015ZM43.015 42.486H40.35V44.486H43.015V42.486ZM41.35 43.486V41.9H39.35V43.486H41.35ZM40.35 42.9H47.448V40.9H40.35V42.9ZM46.448 41.9V43.486H48.448V41.9H46.448ZM48.3757 41.991L48.2044 41.0058L47.3757 41.1499V41.991H48.3757ZM49.0127 41.9L49.1273 42.8934L49.1433 42.8916L49.1593 42.8892L49.0127 41.9ZM49.7017 41.822L49.6278 40.8247L49.625 40.8249L49.7017 41.822ZM50.3777 41.783L50.3377 40.7838H50.3377L50.3777 41.783ZM52.2237 41.887L52.0356 42.8692L52.0394 42.8699L52.2237 41.887ZM53.3287 42.29L52.8176 43.1496L52.8277 43.1554L53.3287 42.29ZM54.1087 43.083L53.2377 43.5743L53.2453 43.5877L53.2532 43.6008L54.1087 43.083ZM53.8877 46.151L53.0841 45.5558V45.5558L53.8877 46.151ZM52.4967 47.126L52.1976 46.1718L50.1383 46.8172L51.9621 47.9711L52.4967 47.126ZM53.1337 47.529L53.9915 47.015L53.8693 46.811L53.6683 46.6839L53.1337 47.529ZM55.2137 51V52H56.9788L56.0715 50.486L55.2137 51ZM53.1597 51L52.2948 51.5019L52.5838 52H53.1597V51ZM51.0927 47.438L51.9576 46.9361L51.7255 46.5361L51.2704 46.4539L51.0927 47.438ZM50.1567 47.269L50.3344 46.2849L49.1567 46.0723V47.269H50.1567ZM50.1567 51V52H51.1567V51H50.1567ZM48.3757 51H47.3757V52H48.3757V51ZM50.5597 43.369L50.5121 42.3701L50.5098 42.3702L50.5597 43.369ZM50.1567 43.421L49.8936 42.4562L49.1567 42.6572V43.421H50.1567ZM50.1567 46.06H49.1567V47.06H50.1567V46.06ZM52.1717 43.694L51.4913 44.4268L51.4984 44.4334L51.5057 44.4399L52.1717 43.694ZM48.547 42.9762C48.7255 42.9452 48.9187 42.9175 49.1273 42.8934L48.8981 40.9066C48.656 40.9345 48.4246 40.9675 48.2044 41.0058L48.547 42.9762ZM49.1593 42.8892C49.3711 42.8578 49.5775 42.8345 49.7784 42.8191L49.625 40.8249C49.3752 40.8442 49.1223 40.8729 48.8662 40.9108L49.1593 42.8892ZM49.7756 42.8193C49.9992 42.8027 50.2132 42.7904 50.4177 42.7822L50.3377 40.7838C50.1089 40.793 49.8722 40.8066 49.6278 40.8247L49.7756 42.8193ZM50.4177 42.7822C50.6235 42.774 50.8093 42.77 50.9757 42.77V40.77C50.7781 40.77 50.5653 40.7747 50.3377 40.7838L50.4177 42.7822ZM50.9757 42.77C51.3388 42.77 51.6918 42.8033 52.0356 42.8692L52.4118 40.9048C51.941 40.8147 51.462 40.77 50.9757 40.77V42.77ZM52.0394 42.8699C52.3554 42.9291 52.6104 43.0263 52.8176 43.1495L53.8398 41.4305C53.4057 41.1723 52.924 41.0009 52.408 40.9041L52.0394 42.8699ZM52.8277 43.1554C52.9993 43.2548 53.1329 43.3886 53.2377 43.5743L54.9797 42.5917C54.7031 42.1014 54.3167 41.7065 53.8297 41.4246L52.8277 43.1554ZM53.2532 43.6008C53.3333 43.7331 53.4077 43.9563 53.4077 44.331H55.4077C55.4077 43.7004 55.2828 43.0916 54.9642 42.5652L53.2532 43.6008ZM53.4077 44.331C53.4077 44.9223 53.2715 45.3029 53.0841 45.5558L54.6913 46.7462C55.1972 46.0631 55.4077 45.2304 55.4077 44.331H53.4077ZM53.0841 45.5558C52.8693 45.8458 52.586 46.05 52.1976 46.1718L52.7958 48.0802C53.5687 47.838 54.2128 47.3922 54.6913 46.7462L53.0841 45.5558ZM51.9621 47.9711L52.5991 48.3741L53.6683 46.6839L53.0313 46.2809L51.9621 47.9711ZM52.2759 48.043L54.3559 51.514L56.0715 50.486L53.9915 47.015L52.2759 48.043ZM55.2137 50H53.1597V52H55.2137V50ZM54.0246 50.4981L51.9576 46.9361L50.2278 47.9399L52.2948 51.5019L54.0246 50.4981ZM51.2704 46.4539L50.3344 46.2849L49.979 48.2531L50.915 48.4221L51.2704 46.4539ZM49.1567 47.269V51H51.1567V47.269H49.1567ZM50.1567 50H48.3757V52H50.1567V50ZM49.3757 51V41.991H47.3757V51H49.3757ZM51.1057 42.356C50.9078 42.356 50.71 42.3607 50.5121 42.3701L50.6073 44.3679C50.7734 44.36 50.9396 44.356 51.1057 44.356V42.356ZM50.5098 42.3702C50.3097 42.3802 50.0918 42.4022 49.8936 42.4562L50.4198 44.3858C50.4103 44.3884 50.4199 44.385 50.4569 44.3803C50.4922 44.3757 50.5422 44.3711 50.6096 44.3678L50.5098 42.3702ZM49.1567 43.421V46.06H51.1567V43.421H49.1567ZM50.1567 47.06H50.9107V45.06H50.1567V47.06ZM50.9107 47.06C51.5517 47.06 52.1821 46.9133 52.7012 46.5164L51.4863 44.9276C51.416 44.9814 51.2577 45.06 50.9107 45.06V47.06ZM52.7012 46.5164C53.3324 46.0336 53.5357 45.3027 53.5357 44.604H51.5357C51.5357 44.7738 51.5111 44.8657 51.4952 44.9058C51.4828 44.9373 51.4778 44.9341 51.4863 44.9276L52.7012 46.5164ZM53.5357 44.604C53.5357 43.9909 53.335 43.392 52.8377 42.9481L51.5057 44.4399C51.5113 44.4449 51.5127 44.4465 51.5162 44.4554C51.5214 44.4684 51.5357 44.5121 51.5357 44.604H53.5357ZM52.8522 42.9612C52.3601 42.5043 51.7218 42.356 51.1057 42.356V44.356C51.2621 44.356 51.3623 44.3751 51.421 44.3937C51.4756 44.4111 51.491 44.4266 51.4913 44.4268L52.8522 42.9612ZM60.1986 48.985L61.1391 48.6452L60.9006 47.985H60.1986V48.985ZM57.4036 48.985V47.985H56.6887L56.4574 48.6615L57.4036 48.985ZM56.7146 51V52H57.4295L57.6608 51.3235L56.7146 51ZM54.9336 51L53.9919 50.6634L53.5142 52H54.9336V51ZM58.2096 41.835V40.835H57.5051L57.2679 41.4984L58.2096 41.835ZM59.5226 41.835L60.4642 41.4984L60.2271 40.835H59.5226V41.835ZM62.7986 51V52H64.218L63.7402 50.6634L62.7986 51ZM60.9266 51L59.9861 51.3398L60.2246 52H60.9266V51ZM57.8586 47.555L56.9087 47.2425L56.4768 48.555H57.8586V47.555ZM59.8086 47.555V48.555H61.196L60.7573 47.2388L59.8086 47.555ZM59.1326 45.527L58.1503 45.7145L58.1628 45.78L58.1839 45.8432L59.1326 45.527ZM58.8596 44.097L59.8419 43.9095L59.6867 43.097H58.8596V44.097ZM58.7946 44.097V43.097H57.966L57.812 43.9111L58.7946 44.097ZM58.5216 45.54L59.4715 45.8525L59.492 45.7903L59.5042 45.7259L58.5216 45.54ZM60.1986 47.985H57.4036V49.985H60.1986V47.985ZM56.4574 48.6615L55.7684 50.6765L57.6608 51.3235L58.3498 49.3085L56.4574 48.6615ZM56.7146 50H54.9336V52H56.7146V50ZM55.8752 51.3366L59.1512 42.1716L57.2679 41.4984L53.9919 50.6634L55.8752 51.3366ZM58.2096 42.835H59.5226V40.835H58.2096V42.835ZM58.5809 42.1716L61.8569 51.3366L63.7402 50.6634L60.4642 41.4984L58.5809 42.1716ZM62.7986 50H60.9266V52H62.7986V50ZM61.8671 50.6602L61.1391 48.6452L59.2581 49.3248L59.9861 51.3398L61.8671 50.6602ZM57.8586 48.555H59.8086V46.555H57.8586V48.555ZM60.7573 47.2388L60.0813 45.2108L58.1839 45.8432L58.8599 47.8712L60.7573 47.2388ZM60.1149 45.3395L59.8419 43.9095L57.8773 44.2845L58.1503 45.7145L60.1149 45.3395ZM58.8596 43.097H58.7946V45.097H58.8596V43.097ZM57.812 43.9111L57.539 45.3541L59.5042 45.7259L59.7772 44.2829L57.812 43.9111ZM57.5717 45.2275L56.9087 47.2425L58.8085 47.8675L59.4715 45.8525L57.5717 45.2275ZM63.5847 41.9L63.4433 40.91L62.5847 41.0327V41.9H63.5847ZM64.1957 41.835L64.1218 40.8377L64.119 40.8379L64.1957 41.835ZM64.9107 41.796L64.9464 42.7954H64.9464L64.9107 41.796ZM65.6127 41.783V42.783H65.6312L65.6497 42.7823L65.6127 41.783ZM68.3037 42.108L67.9372 43.0384H67.9372L68.3037 42.108ZM69.6947 43.057L68.9411 43.7144V43.7144L69.6947 43.057ZM70.4877 48.153L71.4525 48.4161L70.4877 48.153ZM69.7077 49.674L70.4796 50.3097L69.7077 49.674ZM68.2647 50.74L67.8549 49.8278L67.8499 49.8301L68.2647 50.74ZM65.5087 51.13L65.4703 52.1293L65.4717 52.1293L65.5087 51.13ZM64.7937 51.091L64.8625 50.0934L64.8459 50.0922L64.8294 50.0916L64.7937 51.091ZM64.0917 51.052L64.1684 50.0549L64.1493 50.0535L64.1301 50.0527L64.0917 51.052ZM63.5847 51.013H62.5847V51.8709L63.4326 52.0014L63.5847 51.013ZM65.7947 43.369L65.7513 42.3699L65.7493 42.37L65.7947 43.369ZM65.3657 43.408L65.1868 42.4241L64.3657 42.5734V43.408H65.3657ZM65.3657 49.505H64.3657V50.2858L65.1232 50.4751L65.3657 49.505ZM65.5347 49.531L65.4243 50.5249L65.4793 50.531H65.5347V49.531ZM65.8077 49.544L65.7172 50.5399L65.7623 50.544H65.8077V49.544ZM66.0807 49.557L65.9812 50.552L66.0308 50.557H66.0807V49.557ZM67.5237 49.297L67.9895 50.182L67.9978 50.1775L67.5237 49.297ZM68.3167 48.582L67.4884 48.0217L67.4827 48.0302L67.4771 48.0387L68.3167 48.582ZM68.7327 47.568L69.7124 47.7684L69.7133 47.7641L68.7327 47.568ZM68.7457 45.306L67.7633 45.4931L67.7642 45.4975L68.7457 45.306ZM68.3557 44.331L67.512 44.8679L67.5177 44.8768L67.5236 44.8857L68.3557 44.331ZM67.6017 43.629L68.0953 42.7593V42.7593L67.6017 43.629ZM63.7261 42.8899C63.8824 42.8676 64.064 42.8481 64.2724 42.8321L64.119 40.8379C63.8767 40.8566 63.651 40.8804 63.4433 40.91L63.7261 42.8899ZM64.2696 42.8323C64.4904 42.8159 64.716 42.8036 64.9464 42.7954L64.875 40.7966C64.62 40.8057 64.369 40.8194 64.1218 40.8377L64.2696 42.8323ZM64.9464 42.7954C65.1781 42.7871 65.4001 42.783 65.6127 42.783V40.783C65.3746 40.783 65.1286 40.7876 64.875 40.7966L64.9464 42.7954ZM65.6497 42.7823C65.8747 42.774 66.0699 42.77 66.2367 42.77V40.77C66.0394 40.77 65.8187 40.7747 65.5757 40.7837L65.6497 42.7823ZM66.2367 42.77C66.9542 42.77 67.512 42.8709 67.9372 43.0384L68.6702 41.1776C67.9514 40.8944 67.1311 40.77 66.2367 40.77V42.77ZM67.9372 43.0384C68.3808 43.2132 68.7048 43.4434 68.9411 43.7144L70.4483 42.3996C69.974 41.8559 69.3706 41.4535 68.6702 41.1776L67.9372 43.0384ZM68.9411 43.7144C69.1933 44.0034 69.3873 44.3572 69.5149 44.7936L71.4345 44.2324C71.2327 43.5421 70.9068 42.9253 70.4483 42.3996L68.9411 43.7144ZM69.5149 44.7936C69.6492 45.2532 69.7217 45.7769 69.7217 46.372H71.7217C71.7217 45.6151 71.6295 44.8995 71.4345 44.2324L69.5149 44.7936ZM69.7217 46.372C69.7217 46.9018 69.6547 47.4068 69.5229 47.8899L71.4525 48.4161C71.6327 47.7552 71.7217 47.0728 71.7217 46.372H69.7217ZM69.5229 47.8899C69.4028 48.3304 69.2066 48.7094 68.9358 49.0383L70.4796 50.3097C70.9367 49.7546 71.2606 49.1196 71.4525 48.4161L69.5229 47.8899ZM68.9358 49.0383C68.6829 49.3454 68.3329 49.6131 67.8549 49.8278L68.6745 51.6522C69.3925 51.3296 70.0045 50.8866 70.4796 50.3097L68.9358 49.0383ZM67.8499 49.8301C67.428 50.0224 66.8475 50.143 66.0677 50.143V52.143C67.0386 52.143 67.9227 51.9949 68.6795 51.6499L67.8499 49.8301ZM66.0677 50.143C65.9469 50.143 65.7745 50.1392 65.5457 50.1307L65.4717 52.1293C65.7109 52.1382 65.9112 52.143 66.0677 52.143V50.143ZM65.5471 50.1307C65.333 50.1225 65.1049 50.1101 64.8625 50.0934L64.7249 52.0886C64.9852 52.1066 65.2337 52.1202 65.4703 52.1293L65.5471 50.1307ZM64.8294 50.0916C64.5994 50.0834 64.3791 50.0712 64.1684 50.0549L64.015 52.0491C64.2549 52.0675 64.5026 52.0812 64.758 52.0904L64.8294 50.0916ZM64.1301 50.0527C63.9137 50.0444 63.7911 50.033 63.7367 50.0246L63.4326 52.0014C63.6036 52.0277 63.819 52.0423 64.0533 52.0513L64.1301 50.0527ZM64.5847 51.013V41.9H62.5847V51.013H64.5847ZM66.3797 42.356C66.1739 42.356 65.9644 42.3607 65.7513 42.3699L65.8381 44.3681C66.0237 44.36 66.2042 44.356 66.3797 44.356V42.356ZM65.7493 42.37C65.548 42.3792 65.3504 42.3944 65.1868 42.4241L65.5446 44.3919C65.5716 44.387 65.6601 44.3762 65.8401 44.368L65.7493 42.37ZM64.3657 43.408V49.505H66.3657V43.408H64.3657ZM65.1232 50.4751C65.2278 50.5013 65.3414 50.5157 65.4243 50.5249L65.6451 48.5371C65.6153 48.5338 65.5963 48.5312 65.586 48.5296C65.5811 48.5289 65.5803 48.5287 65.5829 48.5292C65.585 48.5296 65.5941 48.5313 65.6082 48.5349L65.1232 50.4751ZM65.5347 50.531C65.5882 50.531 65.6488 50.5337 65.7172 50.5399L65.8982 48.5481C65.7759 48.537 65.6545 48.531 65.5347 48.531V50.531ZM65.8077 50.544C65.8729 50.544 65.9305 50.547 65.9812 50.552L66.1802 48.562C66.0575 48.5497 65.9332 48.544 65.8077 48.544V50.544ZM66.0807 50.557C66.0809 50.557 66.081 50.557 66.0812 50.557C66.0814 50.557 66.0815 50.557 66.0817 50.557C66.0819 50.557 66.082 50.557 66.0822 50.557C66.0824 50.557 66.0825 50.557 66.0827 50.557C66.0829 50.557 66.0831 50.557 66.0832 50.557C66.0834 50.557 66.0836 50.557 66.0837 50.557C66.0839 50.557 66.0841 50.557 66.0842 50.557C66.0844 50.557 66.0846 50.557 66.0847 50.557C66.0849 50.557 66.0851 50.557 66.0852 50.557C66.0854 50.557 66.0856 50.557 66.0857 50.557C66.0859 50.557 66.0861 50.557 66.0862 50.557C66.0864 50.557 66.0866 50.557 66.0867 50.557C66.0869 50.557 66.0871 50.557 66.0872 50.557C66.0874 50.557 66.0876 50.557 66.0877 50.557C66.0879 50.557 66.0881 50.557 66.0882 50.557C66.0884 50.557 66.0886 50.557 66.0887 50.557C66.0889 50.557 66.0891 50.557 66.0892 50.557C66.0894 50.557 66.0896 50.557 66.0897 50.557C66.0899 50.557 66.0901 50.557 66.0902 50.557C66.0904 50.557 66.0906 50.557 66.0907 50.557C66.0909 50.557 66.0911 50.557 66.0912 50.557C66.0914 50.557 66.0916 50.557 66.0917 50.557C66.0919 50.557 66.0921 50.557 66.0922 50.557C66.0924 50.557 66.0926 50.557 66.0927 50.557C66.0929 50.557 66.0931 50.557 66.0932 50.557C66.0934 50.557 66.0936 50.557 66.0937 50.557C66.0939 50.557 66.0941 50.557 66.0942 50.557C66.0944 50.557 66.0945 50.557 66.0947 50.557C66.0949 50.557 66.095 50.557 66.0952 50.557C66.0954 50.557 66.0955 50.557 66.0957 50.557C66.0959 50.557 66.096 50.557 66.0962 50.557C66.0964 50.557 66.0965 50.557 66.0967 50.557C66.0968 50.557 66.097 50.557 66.0972 50.557C66.0973 50.557 66.0975 50.557 66.0977 50.557C66.0978 50.557 66.098 50.557 66.0982 50.557C66.0983 50.557 66.0985 50.557 66.0986 50.557C66.0988 50.557 66.099 50.557 66.0991 50.557C66.0993 50.557 66.0995 50.557 66.0996 50.557C66.0998 50.557 66.1 50.557 66.1001 50.557C66.1003 50.557 66.1004 50.557 66.1006 50.557C66.1008 50.557 66.1009 50.557 66.1011 50.557C66.1013 50.557 66.1014 50.557 66.1016 50.557C66.1017 50.557 66.1019 50.557 66.1021 50.557C66.1022 50.557 66.1024 50.557 66.1026 50.557C66.1027 50.557 66.1029 50.557 66.103 50.557C66.1032 50.557 66.1034 50.557 66.1035 50.557C66.1037 50.557 66.1038 50.557 66.104 50.557C66.1042 50.557 66.1043 50.557 66.1045 50.557C66.1047 50.557 66.1048 50.557 66.105 50.557C66.1051 50.557 66.1053 50.557 66.1055 50.557C66.1056 50.557 66.1058 50.557 66.1059 50.557C66.1061 50.557 66.1063 50.557 66.1064 50.557C66.1066 50.557 66.1067 50.557 66.1069 50.557C66.1071 50.557 66.1072 50.557 66.1074 50.557C66.1075 50.557 66.1077 50.557 66.1079 50.557C66.108 50.557 66.1082 50.557 66.1083 50.557C66.1085 50.557 66.1087 50.557 66.1088 50.557C66.109 50.557 66.1091 50.557 66.1093 50.557C66.1095 50.557 66.1096 50.557 66.1098 50.557C66.1099 50.557 66.1101 50.557 66.1103 50.557C66.1104 50.557 66.1106 50.557 66.1107 50.557C66.1109 50.557 66.1111 50.557 66.1112 50.557C66.1114 50.557 66.1115 50.557 66.1117 50.557C66.1119 50.557 66.112 50.557 66.1122 50.557C66.1123 50.557 66.1125 50.557 66.1126 50.557C66.1128 50.557 66.113 50.557 66.1131 50.557C66.1133 50.557 66.1134 50.557 66.1136 50.557C66.1138 50.557 66.1139 50.557 66.1141 50.557C66.1142 50.557 66.1144 50.557 66.1145 50.557C66.1147 50.557 66.1149 50.557 66.115 50.557C66.1152 50.557 66.1153 50.557 66.1155 50.557C66.1157 50.557 66.1158 50.557 66.116 50.557C66.1161 50.557 66.1163 50.557 66.1164 50.557C66.1166 50.557 66.1168 50.557 66.1169 50.557C66.1171 50.557 66.1172 50.557 66.1174 50.557C66.1175 50.557 66.1177 50.557 66.1178 50.557C66.118 50.557 66.1182 50.557 66.1183 50.557C66.1185 50.557 66.1186 50.557 66.1188 50.557C66.1189 50.557 66.1191 50.557 66.1193 50.557C66.1194 50.557 66.1196 50.557 66.1197 50.557C66.1199 50.557 66.12 50.557 66.1202 50.557C66.1203 50.557 66.1205 50.557 66.1207 50.557C66.1208 50.557 66.121 50.557 66.1211 50.557C66.1213 50.557 66.1214 50.557 66.1216 50.557C66.1217 50.557 66.1219 50.557 66.1221 50.557C66.1222 50.557 66.1224 50.557 66.1225 50.557C66.1227 50.557 66.1228 50.557 66.123 50.557C66.1231 50.557 66.1233 50.557 66.1235 50.557C66.1236 50.557 66.1238 50.557 66.1239 50.557C66.1241 50.557 66.1242 50.557 66.1244 50.557C66.1245 50.557 66.1247 50.557 66.1248 50.557C66.125 50.557 66.1252 50.557 66.1253 50.557C66.1255 50.557 66.1256 50.557 66.1258 50.557C66.1259 50.557 66.1261 50.557 66.1262 50.557C66.1264 50.557 66.1265 50.557 66.1267 50.557C66.1268 50.557 66.127 50.557 66.1272 50.557C66.1273 50.557 66.1275 50.557 66.1276 50.557C66.1278 50.557 66.1279 50.557 66.1281 50.557C66.1282 50.557 66.1284 50.557 66.1285 50.557C66.1287 50.557 66.1288 50.557 66.129 50.557C66.1291 50.557 66.1293 50.557 66.1294 50.557C66.1296 50.557 66.1298 50.557 66.1299 50.557C66.1301 50.557 66.1302 50.557 66.1304 50.557C66.1305 50.557 66.1307 50.557 66.1308 50.557C66.131 50.557 66.1311 50.557 66.1313 50.557C66.1314 50.557 66.1316 50.557 66.1317 50.557C66.1319 50.557 66.132 50.557 66.1322 50.557C66.1323 50.557 66.1325 50.557 66.1326 50.557C66.1328 50.557 66.1329 50.557 66.1331 50.557C66.1332 50.557 66.1334 50.557 66.1335 50.557C66.1337 50.557 66.1338 50.557 66.134 50.557C66.1342 50.557 66.1343 50.557 66.1345 50.557C66.1346 50.557 66.1348 50.557 66.1349 50.557C66.1351 50.557 66.1352 50.557 66.1354 50.557C66.1355 50.557 66.1357 50.557 66.1358 50.557C66.136 50.557 66.1361 50.557 66.1363 50.557C66.1364 50.557 66.1366 50.557 66.1367 50.557C66.1369 50.557 66.137 50.557 66.1372 50.557C66.1373 50.557 66.1375 50.557 66.1376 50.557C66.1378 50.557 66.1379 50.557 66.1381 50.557C66.1382 50.557 66.1384 50.557 66.1385 50.557C66.1387 50.557 66.1388 50.557 66.139 50.557C66.1391 50.557 66.1392 50.557 66.1394 50.557C66.1395 50.557 66.1397 50.557 66.1398 50.557C66.14 50.557 66.1401 50.557 66.1403 50.557C66.1404 50.557 66.1406 50.557 66.1407 50.557C66.1409 50.557 66.141 50.557 66.1412 50.557C66.1413 50.557 66.1415 50.557 66.1416 50.557C66.1418 50.557 66.1419 50.557 66.1421 50.557C66.1422 50.557 66.1424 50.557 66.1425 50.557C66.1427 50.557 66.1428 50.557 66.143 50.557C66.1431 50.557 66.1433 50.557 66.1434 50.557C66.1435 50.557 66.1437 50.557 66.1438 50.557C66.144 50.557 66.1441 50.557 66.1443 50.557C66.1444 50.557 66.1446 50.557 66.1447 50.557C66.1449 50.557 66.145 50.557 66.1452 50.557C66.1453 50.557 66.1455 50.557 66.1456 50.557C66.1458 50.557 66.1459 50.557 66.146 50.557C66.1462 50.557 66.1463 50.557 66.1465 50.557C66.1466 50.557 66.1468 50.557 66.1469 50.557C66.1471 50.557 66.1472 50.557 66.1474 50.557C66.1475 50.557 66.1477 50.557 66.1478 50.557C66.1479 50.557 66.1481 50.557 66.1482 50.557C66.1484 50.557 66.1485 50.557 66.1487 50.557C66.1488 50.557 66.149 50.557 66.1491 50.557C66.1493 50.557 66.1494 50.557 66.1495 50.557C66.1497 50.557 66.1498 50.557 66.15 50.557C66.1501 50.557 66.1503 50.557 66.1504 50.557C66.1506 50.557 66.1507 50.557 66.1508 50.557C66.151 50.557 66.1511 50.557 66.1513 50.557C66.1514 50.557 66.1516 50.557 66.1517 50.557C66.1519 50.557 66.152 50.557 66.1521 50.557C66.1523 50.557 66.1524 50.557 66.1526 50.557C66.1527 50.557 66.1529 50.557 66.153 50.557C66.1532 50.557 66.1533 50.557 66.1534 50.557C66.1536 50.557 66.1537 50.557 66.1539 50.557C66.154 50.557 66.1542 50.557 66.1543 50.557C66.1544 50.557 66.1546 50.557 66.1547 50.557C66.1549 50.557 66.155 50.557 66.1552 50.557C66.1553 50.557 66.1554 50.557 66.1556 50.557C66.1557 50.557 66.1559 50.557 66.156 50.557C66.1562 50.557 66.1563 50.557 66.1564 50.557C66.1566 50.557 66.1567 50.557 66.1569 50.557C66.157 50.557 66.1572 50.557 66.1573 50.557C66.1574 50.557 66.1576 50.557 66.1577 50.557C66.1579 50.557 66.158 50.557 66.1582 50.557C66.1583 50.557 66.1584 50.557 66.1586 50.557C66.1587 50.557 66.1589 50.557 66.159 50.557C66.1591 50.557 66.1593 50.557 66.1594 50.557C66.1596 50.557 66.1597 50.557 66.1598 50.557C66.16 50.557 66.1601 50.557 66.1603 50.557C66.1604 50.557 66.1606 50.557 66.1607 50.557C66.1608 50.557 66.161 50.557 66.1611 50.557C66.1613 50.557 66.1614 50.557 66.1615 50.557C66.1617 50.557 66.1618 50.557 66.162 50.557C66.1621 50.557 66.1622 50.557 66.1624 50.557C66.1625 50.557 66.1627 50.557 66.1628 50.557C66.1629 50.557 66.1631 50.557 66.1632 50.557C66.1634 50.557 66.1635 50.557 66.1636 50.557C66.1638 50.557 66.1639 50.557 66.1641 50.557C66.1642 50.557 66.1643 50.557 66.1645 50.557C66.1646 50.557 66.1648 50.557 66.1649 50.557C66.165 50.557 66.1652 50.557 66.1653 50.557C66.1655 50.557 66.1656 50.557 66.1657 50.557C66.1659 50.557 66.166 50.557 66.1661 50.557C66.1663 50.557 66.1664 50.557 66.1666 50.557C66.1667 50.557 66.1668 50.557 66.167 50.557C66.1671 50.557 66.1673 50.557 66.1674 50.557C66.1675 50.557 66.1677 50.557 66.1678 50.557C66.1679 50.557 66.1681 50.557 66.1682 50.557C66.1684 50.557 66.1685 50.557 66.1686 50.557C66.1688 50.557 66.1689 50.557 66.169 50.557C66.1692 50.557 66.1693 50.557 66.1695 50.557C66.1696 50.557 66.1697 50.557 66.1699 50.557C66.17 50.557 66.1701 50.557 66.1703 50.557C66.1704 50.557 66.1706 50.557 66.1707 50.557C66.1708 50.557 66.171 50.557 66.1711 50.557C66.1712 50.557 66.1714 50.557 66.1715 50.557C66.1716 50.557 66.1718 50.557 66.1719 50.557C66.1721 50.557 66.1722 50.557 66.1723 50.557C66.1725 50.557 66.1726 50.557 66.1727 50.557C66.1729 50.557 66.173 50.557 66.1731 50.557C66.1733 50.557 66.1734 50.557 66.1736 50.557C66.1737 50.557 66.1738 50.557 66.174 50.557C66.1741 50.557 66.1742 50.557 66.1744 50.557C66.1745 50.557 66.1746 50.557 66.1748 50.557C66.1749 50.557 66.175 50.557 66.1752 50.557C66.1753 50.557 66.1754 50.557 66.1756 50.557C66.1757 50.557 66.1759 50.557 66.176 50.557C66.1761 50.557 66.1763 50.557 66.1764 50.557C66.1765 50.557 66.1767 50.557 66.1768 50.557C66.1769 50.557 66.1771 50.557 66.1772 50.557C66.1773 50.557 66.1775 50.557 66.1776 50.557C66.1777 50.557 66.1779 50.557 66.178 50.557C66.1781 50.557 66.1783 50.557 66.1784 50.557C66.1785 50.557 66.1787 50.557 66.1788 50.557C66.1789 50.557 66.1791 50.557 66.1792 50.557C66.1793 50.557 66.1795 50.557 66.1796 50.557C66.1797 50.557 66.1799 50.557 66.18 50.557C66.1801 50.557 66.1803 50.557 66.1804 50.557C66.1805 50.557 66.1807 50.557 66.1808 50.557C66.1809 50.557 66.1811 50.557 66.1812 50.557C66.1813 50.557 66.1815 50.557 66.1816 50.557C66.1817 50.557 66.1819 50.557 66.182 50.557C66.1821 50.557 66.1823 50.557 66.1824 50.557C66.1825 50.557 66.1827 50.557 66.1828 50.557C66.1829 50.557 66.1831 50.557 66.1832 50.557C66.1833 50.557 66.1834 50.557 66.1836 50.557C66.1837 50.557 66.1838 50.557 66.184 50.557C66.1841 50.557 66.1842 50.557 66.1844 50.557C66.1845 50.557 66.1846 50.557 66.1848 50.557C66.1849 50.557 66.185 50.557 66.1852 50.557C66.1853 50.557 66.1854 50.557 66.1855 50.557C66.1857 50.557 66.1858 50.557 66.1859 50.557C66.1861 50.557 66.1862 50.557 66.1863 50.557C66.1865 50.557 66.1866 50.557 66.1867 50.557C66.1869 50.557 66.187 50.557 66.1871 50.557C66.1872 50.557 66.1874 50.557 66.1875 50.557C66.1876 50.557 66.1878 50.557 66.1879 50.557C66.188 50.557 66.1882 50.557 66.1883 50.557C66.1884 50.557 66.1885 50.557 66.1887 50.557C66.1888 50.557 66.1889 50.557 66.1891 50.557C66.1892 50.557 66.1893 50.557 66.1894 50.557C66.1896 50.557 66.1897 50.557 66.1898 50.557C66.19 50.557 66.1901 50.557 66.1902 50.557C66.1903 50.557 66.1905 50.557 66.1906 50.557C66.1907 50.557 66.1909 50.557 66.191 50.557C66.1911 50.557 66.1912 50.557 66.1914 50.557C66.1915 50.557 66.1916 50.557 66.1918 50.557C66.1919 50.557 66.192 50.557 66.1921 50.557C66.1923 50.557 66.1924 50.557 66.1925 50.557C66.1927 50.557 66.1928 50.557 66.1929 50.557C66.193 50.557 66.1932 50.557 66.1933 50.557C66.1934 50.557 66.1935 50.557 66.1937 50.557C66.1938 50.557 66.1939 50.557 66.1941 50.557C66.1942 50.557 66.1943 50.557 66.1944 50.557C66.1946 50.557 66.1947 50.557 66.1948 50.557C66.1949 50.557 66.1951 50.557 66.1952 50.557C66.1953 50.557 66.1955 50.557 66.1956 50.557C66.1957 50.557 66.1958 50.557 66.196 50.557C66.1961 50.557 66.1962 50.557 66.1963 50.557C66.1965 50.557 66.1966 50.557 66.1967 50.557C66.1968 50.557 66.197 50.557 66.1971 50.557C66.1972 50.557 66.1973 50.557 66.1975 50.557C66.1976 50.557 66.1977 50.557 66.1978 50.557C66.198 50.557 66.1981 50.557 66.1982 50.557C66.1983 50.557 66.1985 50.557 66.1986 50.557C66.1987 50.557 66.1988 50.557 66.199 50.557C66.1991 50.557 66.1992 50.557 66.1993 50.557C66.1995 50.557 66.1996 50.557 66.1997 50.557C66.1998 50.557 66.2 50.557 66.2001 50.557C66.2002 50.557 66.2003 50.557 66.2005 50.557C66.2006 50.557 66.2007 50.557 66.2008 50.557C66.201 50.557 66.2011 50.557 66.2012 50.557C66.2013 50.557 66.2015 50.557 66.2016 50.557C66.2017 50.557 66.2018 50.557 66.202 50.557C66.2021 50.557 66.2022 50.557 66.2023 50.557C66.2024 50.557 66.2026 50.557 66.2027 50.557C66.2028 50.557 66.2029 50.557 66.2031 50.557C66.2032 50.557 66.2033 50.557 66.2034 50.557C66.2036 50.557 66.2037 50.557 66.2038 50.557C66.2039 50.557 66.2041 50.557 66.2042 50.557C66.2043 50.557 66.2044 50.557 66.2045 50.557C66.2047 50.557 66.2048 50.557 66.2049 50.557C66.205 50.557 66.2052 50.557 66.2053 50.557C66.2054 50.557 66.2055 50.557 66.2056 50.557C66.2058 50.557 66.2059 50.557 66.206 50.557C66.2061 50.557 66.2062 50.557 66.2064 50.557C66.2065 50.557 66.2066 50.557 66.2067 50.557C66.2069 50.557 66.207 50.557 66.2071 50.557C66.2072 50.557 66.2073 50.557 66.2075 50.557C66.2076 50.557 66.2077 50.557 66.2078 50.557C66.2079 50.557 66.2081 50.557 66.2082 50.557C66.2083 50.557 66.2084 50.557 66.2086 50.557C66.2087 50.557 66.2088 50.557 66.2089 50.557C66.209 50.557 66.2092 50.557 66.2093 50.557C66.2094 50.557 66.2095 50.557 66.2096 50.557C66.2098 50.557 66.2099 50.557 66.21 50.557C66.2101 50.557 66.2102 50.557 66.2104 50.557C66.2105 50.557 66.2106 50.557 66.2107 50.557C66.2108 50.557 66.211 50.557 66.2111 50.557C66.2112 50.557 66.2113 50.557 66.2114 50.557C66.2116 50.557 66.2117 50.557 66.2118 50.557C66.2119 50.557 66.212 50.557 66.2121 50.557C66.2123 50.557 66.2124 50.557 66.2125 50.557C66.2126 50.557 66.2127 50.557 66.2129 50.557C66.213 50.557 66.2131 50.557 66.2132 50.557C66.2133 50.557 66.2135 50.557 66.2136 50.557C66.2137 50.557 66.2138 50.557 66.2139 50.557C66.214 50.557 66.2142 50.557 66.2143 50.557C66.2144 50.557 66.2145 50.557 66.2146 50.557C66.2148 50.557 66.2149 50.557 66.215 50.557C66.2151 50.557 66.2152 50.557 66.2153 50.557C66.2155 50.557 66.2156 50.557 66.2157 50.557C66.2158 50.557 66.2159 50.557 66.216 50.557C66.2162 50.557 66.2163 50.557 66.2164 50.557C66.2165 50.557 66.2166 50.557 66.2167 50.557C66.2169 50.557 66.217 50.557 66.2171 50.557C66.2172 50.557 66.2173 50.557 66.2174 50.557C66.2176 50.557 66.2177 50.557 66.2178 50.557C66.2179 50.557 66.218 50.557 66.2181 50.557C66.2183 50.557 66.2184 50.557 66.2185 50.557C66.2186 50.557 66.2187 50.557 66.2188 50.557C66.219 50.557 66.2191 50.557 66.2192 50.557C66.2193 50.557 66.2194 50.557 66.2195 50.557C66.2197 50.557 66.2198 50.557 66.2199 50.557C66.22 50.557 66.2201 50.557 66.2202 50.557C66.2203 50.557 66.2205 50.557 66.2206 50.557C66.2207 50.557 66.2208 50.557 66.2209 50.557C66.221 50.557 66.2211 50.557 66.2213 50.557C66.2214 50.557 66.2215 50.557 66.2216 50.557C66.2217 50.557 66.2218 50.557 66.222 50.557C66.2221 50.557 66.2222 50.557 66.2223 50.557C66.2224 50.557 66.2225 50.557 66.2226 50.557C66.2227 50.557 66.2229 50.557 66.223 50.557C66.2231 50.557 66.2232 50.557 66.2233 50.557C66.2234 50.557 66.2235 50.557 66.2237 50.557C66.2238 50.557 66.2239 50.557 66.224 50.557C66.2241 50.557 66.2242 50.557 66.2243 50.557C66.2245 50.557 66.2246 50.557 66.2247 50.557C66.2248 50.557 66.2249 50.557 66.225 50.557C66.2251 50.557 66.2252 50.557 66.2254 50.557C66.2255 50.557 66.2256 50.557 66.2257 50.557C66.2258 50.557 66.2259 50.557 66.226 50.557C66.2261 50.557 66.2263 50.557 66.2264 50.557C66.2265 50.557 66.2266 50.557 66.2267 50.557C66.2268 50.557 66.2269 50.557 66.227 50.557C66.2272 50.557 66.2273 50.557 66.2274 50.557C66.2275 50.557 66.2276 50.557 66.2277 50.557C66.2278 50.557 66.2279 50.557 66.228 50.557C66.2282 50.557 66.2283 50.557 66.2284 50.557C66.2285 50.557 66.2286 50.557 66.2287 50.557C66.2288 50.557 66.2289 50.557 66.229 50.557C66.2292 50.557 66.2293 50.557 66.2294 50.557C66.2295 50.557 66.2296 50.557 66.2297 50.557C66.2298 50.557 66.2299 50.557 66.23 50.557C66.2302 50.557 66.2303 50.557 66.2304 50.557C66.2305 50.557 66.2306 50.557 66.2307 50.557C66.2308 50.557 66.2309 50.557 66.231 50.557C66.2311 50.557 66.2313 50.557 66.2314 50.557C66.2315 50.557 66.2316 50.557 66.2317 50.557C66.2318 50.557 66.2319 50.557 66.232 50.557C66.2321 50.557 66.2322 50.557 66.2324 50.557C66.2325 50.557 66.2326 50.557 66.2327 50.557C66.2328 50.557 66.2329 50.557 66.233 50.557C66.2331 50.557 66.2332 50.557 66.2333 50.557C66.2334 50.557 66.2335 50.557 66.2337 50.557C66.2338 50.557 66.2339 50.557 66.234 50.557C66.2341 50.557 66.2342 50.557 66.2343 50.557C66.2344 50.557 66.2345 50.557 66.2346 50.557C66.2347 50.557 66.2348 50.557 66.235 50.557C66.2351 50.557 66.2352 50.557 66.2353 50.557C66.2354 50.557 66.2355 50.557 66.2356 50.557C66.2357 50.557 66.2358 50.557 66.2359 50.557C66.236 50.557 66.2361 50.557 66.2362 50.557C66.2364 50.557 66.2365 50.557 66.2366 50.557C66.2367 50.557 66.2368 50.557 66.2369 50.557C66.237 50.557 66.2371 50.557 66.2372 50.557C66.2373 50.557 66.2374 50.557 66.2375 50.557C66.2376 50.557 66.2377 50.557 66.2379 50.557C66.238 50.557 66.2381 50.557 66.2382 50.557C66.2383 50.557 66.2384 50.557 66.2385 50.557C66.2386 50.557 66.2387 50.557 66.2388 50.557C66.2389 50.557 66.239 50.557 66.2391 50.557C66.2392 50.557 66.2393 50.557 66.2394 50.557C66.2395 50.557 66.2397 50.557 66.2398 50.557C66.2399 50.557 66.24 50.557 66.2401 50.557C66.2402 50.557 66.2403 50.557 66.2404 50.557C66.2405 50.557 66.2406 50.557 66.2407 50.557C66.2408 50.557 66.2409 50.557 66.241 50.557C66.2411 50.557 66.2412 50.557 66.2413 50.557C66.2414 50.557 66.2415 50.557 66.2416 50.557C66.2418 50.557 66.2419 50.557 66.242 50.557C66.2421 50.557 66.2422 50.557 66.2423 50.557C66.2424 50.557 66.2425 50.557 66.2426 50.557C66.2427 50.557 66.2428 50.557 66.2429 50.557C66.243 50.557 66.2431 50.557 66.2432 50.557C66.2433 50.557 66.2434 50.557 66.2435 50.557C66.2436 50.557 66.2437 50.557 66.2438 50.557C66.2439 50.557 66.244 50.557 66.2441 50.557C66.2442 50.557 66.2443 50.557 66.2444 50.557C66.2446 50.557 66.2447 50.557 66.2448 50.557C66.2449 50.557 66.245 50.557 66.2451 50.557C66.2452 50.557 66.2453 50.557 66.2454 50.557C66.2455 50.557 66.2456 50.557 66.2457 50.557C66.2458 50.557 66.2459 50.557 66.246 50.557C66.2461 50.557 66.2462 50.557 66.2463 50.557C66.2464 50.557 66.2465 50.557 66.2466 50.557C66.2467 50.557 66.2468 50.557 66.2469 50.557C66.247 50.557 66.2471 50.557 66.2472 50.557C66.2473 50.557 66.2474 50.557 66.2475 50.557C66.2476 50.557 66.2477 50.557 66.2478 50.557C66.2479 50.557 66.248 50.557 66.2481 50.557C66.2482 50.557 66.2483 50.557 66.2484 50.557C66.2485 50.557 66.2486 50.557 66.2487 50.557C66.2488 50.557 66.2489 50.557 66.249 50.557C66.2491 50.557 66.2492 50.557 66.2493 50.557C66.2494 50.557 66.2495 50.557 66.2496 50.557C66.2497 50.557 66.2498 50.557 66.2499 50.557C66.25 50.557 66.2501 50.557 66.2502 50.557C66.2503 50.557 66.2504 50.557 66.2505 50.557C66.2506 50.557 66.2507 50.557 66.2508 50.557C66.2509 50.557 66.251 50.557 66.2511 50.557C66.2512 50.557 66.2513 50.557 66.2514 50.557C66.2515 50.557 66.2516 50.557 66.2517 50.557C66.2518 50.557 66.2519 50.557 66.252 50.557C66.2521 50.557 66.2522 50.557 66.2523 50.557C66.2524 50.557 66.2525 50.557 66.2526 50.557C66.2527 50.557 66.2528 50.557 66.2529 50.557C66.253 50.557 66.2531 50.557 66.2532 50.557C66.2533 50.557 66.2534 50.557 66.2535 50.557C66.2536 50.557 66.2537 50.557 66.2538 50.557C66.2539 50.557 66.254 50.557 66.2541 50.557C66.2542 50.557 66.2543 50.557 66.2544 50.557C66.2545 50.557 66.2546 50.557 66.2547 50.557C66.2548 50.557 66.2549 50.557 66.255 50.557C66.2551 50.557 66.2552 50.557 66.2553 50.557C66.2553 50.557 66.2554 50.557 66.2555 50.557C66.2556 50.557 66.2557 50.557 66.2558 50.557C66.2559 50.557 66.256 50.557 66.2561 50.557C66.2562 50.557 66.2563 50.557 66.2564 50.557C66.2565 50.557 66.2566 50.557 66.2567 50.557C66.2568 50.557 66.2569 50.557 66.257 50.557C66.2571 50.557 66.2572 50.557 66.2573 50.557C66.2574 50.557 66.2575 50.557 66.2576 50.557C66.2577 50.557 66.2578 50.557 66.2579 50.557C66.2579 50.557 66.258 50.557 66.2581 50.557C66.2582 50.557 66.2583 50.557 66.2584 50.557C66.2585 50.557 66.2586 50.557 66.2587 50.557C66.2588 50.557 66.2589 50.557 66.259 50.557C66.2591 50.557 66.2592 50.557 66.2593 50.557C66.2594 50.557 66.2595 50.557 66.2596 50.557C66.2597 50.557 66.2598 50.557 66.2598 50.557C66.2599 50.557 66.26 50.557 66.2601 50.557C66.2602 50.557 66.2603 50.557 66.2604 50.557C66.2605 50.557 66.2606 50.557 66.2607 50.557C66.2608 50.557 66.2609 50.557 66.261 50.557C66.2611 50.557 66.2612 50.557 66.2613 50.557C66.2613 50.557 66.2614 50.557 66.2615 50.557C66.2616 50.557 66.2617 50.557 66.2618 50.557C66.2619 50.557 66.262 50.557 66.2621 50.557C66.2622 50.557 66.2623 50.557 66.2624 50.557C66.2625 50.557 66.2626 50.557 66.2627 50.557C66.2627 50.557 66.2628 50.557 66.2629 50.557C66.263 50.557 66.2631 50.557 66.2632 50.557C66.2633 50.557 66.2634 50.557 66.2635 50.557C66.2636 50.557 66.2637 50.557 66.2638 50.557C66.2639 50.557 66.2639 50.557 66.264 50.557C66.2641 50.557 66.2642 50.557 66.2643 50.557C66.2644 50.557 66.2645 50.557 66.2646 50.557C66.2647 50.557 66.2648 50.557 66.2649 50.557C66.265 50.557 66.265 50.557 66.2651 50.557C66.2652 50.557 66.2653 50.557 66.2654 50.557C66.2655 50.557 66.2656 50.557 66.2657 50.557C66.2658 50.557 66.2659 50.557 66.266 50.557C66.266 50.557 66.2661 50.557 66.2662 50.557C66.2663 50.557 66.2664 50.557 66.2665 50.557C66.2666 50.557 66.2667 50.557 66.2668 50.557C66.2669 50.557 66.2669 50.557 66.267 50.557C66.2671 50.557 66.2672 50.557 66.2673 50.557C66.2674 50.557 66.2675 50.557 66.2676 50.557C66.2677 50.557 66.2678 50.557 66.2678 50.557C66.2679 50.557 66.268 50.557 66.2681 50.557C66.2682 50.557 66.2683 50.557 66.2684 50.557C66.2685 50.557 66.2686 50.557 66.2687 50.557C66.2687 50.557 66.2688 50.557 66.2689 50.557C66.269 50.557 66.2691 50.557 66.2692 50.557C66.2693 50.557 66.2694 50.557 66.2695 50.557C66.2695 50.557 66.2696 50.557 66.2697 50.557C66.2698 50.557 66.2699 50.557 66.27 50.557C66.2701 50.557 66.2702 50.557 66.2702 50.557C66.2703 50.557 66.2704 50.557 66.2705 50.557C66.2706 50.557 66.2707 50.557 66.2708 50.557C66.2709 50.557 66.271 50.557 66.271 50.557C66.2711 50.557 66.2712 50.557 66.2713 50.557C66.2714 50.557 66.2715 50.557 66.2716 50.557C66.2716 50.557 66.2717 50.557 66.2718 50.557C66.2719 50.557 66.272 50.557 66.2721 50.557C66.2722 50.557 66.2723 50.557 66.2723 50.557C66.2724 50.557 66.2725 50.557 66.2726 50.557C66.2727 50.557 66.2728 50.557 66.2729 50.557C66.273 50.557 66.273 50.557 66.2731 50.557C66.2732 50.557 66.2733 50.557 66.2734 50.557C66.2735 50.557 66.2736 50.557 66.2736 50.557C66.2737 50.557 66.2738 50.557 66.2739 50.557C66.274 50.557 66.2741 50.557 66.2742 50.557C66.2742 50.557 66.2743 50.557 66.2744 50.557C66.2745 50.557 66.2746 50.557 66.2747 50.557C66.2748 50.557 66.2748 50.557 66.2749 50.557C66.275 50.557 66.2751 50.557 66.2752 50.557C66.2753 50.557 66.2753 50.557 66.2754 50.557C66.2755 50.557 66.2756 50.557 66.2757 50.557V48.557C66.2756 48.557 66.2755 48.557 66.2754 48.557C66.2753 48.557 66.2753 48.557 66.2752 48.557C66.2751 48.557 66.275 48.557 66.2749 48.557C66.2748 48.557 66.2748 48.557 66.2747 48.557C66.2746 48.557 66.2745 48.557 66.2744 48.557C66.2743 48.557 66.2742 48.557 66.2742 48.557C66.2741 48.557 66.274 48.557 66.2739 48.557C66.2738 48.557 66.2737 48.557 66.2736 48.557C66.2736 48.557 66.2735 48.557 66.2734 48.557C66.2733 48.557 66.2732 48.557 66.2731 48.557C66.273 48.557 66.273 48.557 66.2729 48.557C66.2728 48.557 66.2727 48.557 66.2726 48.557C66.2725 48.557 66.2724 48.557 66.2723 48.557C66.2723 48.557 66.2722 48.557 66.2721 48.557C66.272 48.557 66.2719 48.557 66.2718 48.557C66.2717 48.557 66.2716 48.557 66.2716 48.557C66.2715 48.557 66.2714 48.557 66.2713 48.557C66.2712 48.557 66.2711 48.557 66.271 48.557C66.271 48.557 66.2709 48.557 66.2708 48.557C66.2707 48.557 66.2706 48.557 66.2705 48.557C66.2704 48.557 66.2703 48.557 66.2702 48.557C66.2702 48.557 66.2701 48.557 66.27 48.557C66.2699 48.557 66.2698 48.557 66.2697 48.557C66.2696 48.557 66.2695 48.557 66.2695 48.557C66.2694 48.557 66.2693 48.557 66.2692 48.557C66.2691 48.557 66.269 48.557 66.2689 48.557C66.2688 48.557 66.2687 48.557 66.2687 48.557C66.2686 48.557 66.2685 48.557 66.2684 48.557C66.2683 48.557 66.2682 48.557 66.2681 48.557C66.268 48.557 66.2679 48.557 66.2678 48.557C66.2678 48.557 66.2677 48.557 66.2676 48.557C66.2675 48.557 66.2674 48.557 66.2673 48.557C66.2672 48.557 66.2671 48.557 66.267 48.557C66.2669 48.557 66.2669 48.557 66.2668 48.557C66.2667 48.557 66.2666 48.557 66.2665 48.557C66.2664 48.557 66.2663 48.557 66.2662 48.557C66.2661 48.557 66.266 48.557 66.266 48.557C66.2659 48.557 66.2658 48.557 66.2657 48.557C66.2656 48.557 66.2655 48.557 66.2654 48.557C66.2653 48.557 66.2652 48.557 66.2651 48.557C66.265 48.557 66.265 48.557 66.2649 48.557C66.2648 48.557 66.2647 48.557 66.2646 48.557C66.2645 48.557 66.2644 48.557 66.2643 48.557C66.2642 48.557 66.2641 48.557 66.264 48.557C66.2639 48.557 66.2639 48.557 66.2638 48.557C66.2637 48.557 66.2636 48.557 66.2635 48.557C66.2634 48.557 66.2633 48.557 66.2632 48.557C66.2631 48.557 66.263 48.557 66.2629 48.557C66.2628 48.557 66.2627 48.557 66.2627 48.557C66.2626 48.557 66.2625 48.557 66.2624 48.557C66.2623 48.557 66.2622 48.557 66.2621 48.557C66.262 48.557 66.2619 48.557 66.2618 48.557C66.2617 48.557 66.2616 48.557 66.2615 48.557C66.2614 48.557 66.2613 48.557 66.2613 48.557C66.2612 48.557 66.2611 48.557 66.261 48.557C66.2609 48.557 66.2608 48.557 66.2607 48.557C66.2606 48.557 66.2605 48.557 66.2604 48.557C66.2603 48.557 66.2602 48.557 66.2601 48.557C66.26 48.557 66.2599 48.557 66.2598 48.557C66.2598 48.557 66.2597 48.557 66.2596 48.557C66.2595 48.557 66.2594 48.557 66.2593 48.557C66.2592 48.557 66.2591 48.557 66.259 48.557C66.2589 48.557 66.2588 48.557 66.2587 48.557C66.2586 48.557 66.2585 48.557 66.2584 48.557C66.2583 48.557 66.2582 48.557 66.2581 48.557C66.258 48.557 66.2579 48.557 66.2579 48.557C66.2578 48.557 66.2577 48.557 66.2576 48.557C66.2575 48.557 66.2574 48.557 66.2573 48.557C66.2572 48.557 66.2571 48.557 66.257 48.557C66.2569 48.557 66.2568 48.557 66.2567 48.557C66.2566 48.557 66.2565 48.557 66.2564 48.557C66.2563 48.557 66.2562 48.557 66.2561 48.557C66.256 48.557 66.2559 48.557 66.2558 48.557C66.2557 48.557 66.2556 48.557 66.2555 48.557C66.2554 48.557 66.2553 48.557 66.2553 48.557C66.2552 48.557 66.2551 48.557 66.255 48.557C66.2549 48.557 66.2548 48.557 66.2547 48.557C66.2546 48.557 66.2545 48.557 66.2544 48.557C66.2543 48.557 66.2542 48.557 66.2541 48.557C66.254 48.557 66.2539 48.557 66.2538 48.557C66.2537 48.557 66.2536 48.557 66.2535 48.557C66.2534 48.557 66.2533 48.557 66.2532 48.557C66.2531 48.557 66.253 48.557 66.2529 48.557C66.2528 48.557 66.2527 48.557 66.2526 48.557C66.2525 48.557 66.2524 48.557 66.2523 48.557C66.2522 48.557 66.2521 48.557 66.252 48.557C66.2519 48.557 66.2518 48.557 66.2517 48.557C66.2516 48.557 66.2515 48.557 66.2514 48.557C66.2513 48.557 66.2512 48.557 66.2511 48.557C66.251 48.557 66.2509 48.557 66.2508 48.557C66.2507 48.557 66.2506 48.557 66.2505 48.557C66.2504 48.557 66.2503 48.557 66.2502 48.557C66.2501 48.557 66.25 48.557 66.2499 48.557C66.2498 48.557 66.2497 48.557 66.2496 48.557C66.2495 48.557 66.2494 48.557 66.2493 48.557C66.2492 48.557 66.2491 48.557 66.249 48.557C66.2489 48.557 66.2488 48.557 66.2487 48.557C66.2486 48.557 66.2485 48.557 66.2484 48.557C66.2483 48.557 66.2482 48.557 66.2481 48.557C66.248 48.557 66.2479 48.557 66.2478 48.557C66.2477 48.557 66.2476 48.557 66.2475 48.557C66.2474 48.557 66.2473 48.557 66.2472 48.557C66.2471 48.557 66.247 48.557 66.2469 48.557C66.2468 48.557 66.2467 48.557 66.2466 48.557C66.2465 48.557 66.2464 48.557 66.2463 48.557C66.2462 48.557 66.2461 48.557 66.246 48.557C66.2459 48.557 66.2458 48.557 66.2457 48.557C66.2456 48.557 66.2455 48.557 66.2454 48.557C66.2453 48.557 66.2452 48.557 66.2451 48.557C66.245 48.557 66.2449 48.557 66.2448 48.557C66.2447 48.557 66.2446 48.557 66.2444 48.557C66.2443 48.557 66.2442 48.557 66.2441 48.557C66.244 48.557 66.2439 48.557 66.2438 48.557C66.2437 48.557 66.2436 48.557 66.2435 48.557C66.2434 48.557 66.2433 48.557 66.2432 48.557C66.2431 48.557 66.243 48.557 66.2429 48.557C66.2428 48.557 66.2427 48.557 66.2426 48.557C66.2425 48.557 66.2424 48.557 66.2423 48.557C66.2422 48.557 66.2421 48.557 66.242 48.557C66.2419 48.557 66.2418 48.557 66.2416 48.557C66.2415 48.557 66.2414 48.557 66.2413 48.557C66.2412 48.557 66.2411 48.557 66.241 48.557C66.2409 48.557 66.2408 48.557 66.2407 48.557C66.2406 48.557 66.2405 48.557 66.2404 48.557C66.2403 48.557 66.2402 48.557 66.2401 48.557C66.24 48.557 66.2399 48.557 66.2398 48.557C66.2397 48.557 66.2395 48.557 66.2394 48.557C66.2393 48.557 66.2392 48.557 66.2391 48.557C66.239 48.557 66.2389 48.557 66.2388 48.557C66.2387 48.557 66.2386 48.557 66.2385 48.557C66.2384 48.557 66.2383 48.557 66.2382 48.557C66.2381 48.557 66.238 48.557 66.2379 48.557C66.2377 48.557 66.2376 48.557 66.2375 48.557C66.2374 48.557 66.2373 48.557 66.2372 48.557C66.2371 48.557 66.237 48.557 66.2369 48.557C66.2368 48.557 66.2367 48.557 66.2366 48.557C66.2365 48.557 66.2364 48.557 66.2362 48.557C66.2361 48.557 66.236 48.557 66.2359 48.557C66.2358 48.557 66.2357 48.557 66.2356 48.557C66.2355 48.557 66.2354 48.557 66.2353 48.557C66.2352 48.557 66.2351 48.557 66.235 48.557C66.2348 48.557 66.2347 48.557 66.2346 48.557C66.2345 48.557 66.2344 48.557 66.2343 48.557C66.2342 48.557 66.2341 48.557 66.234 48.557C66.2339 48.557 66.2338 48.557 66.2337 48.557C66.2335 48.557 66.2334 48.557 66.2333 48.557C66.2332 48.557 66.2331 48.557 66.233 48.557C66.2329 48.557 66.2328 48.557 66.2327 48.557C66.2326 48.557 66.2325 48.557 66.2324 48.557C66.2322 48.557 66.2321 48.557 66.232 48.557C66.2319 48.557 66.2318 48.557 66.2317 48.557C66.2316 48.557 66.2315 48.557 66.2314 48.557C66.2313 48.557 66.2311 48.557 66.231 48.557C66.2309 48.557 66.2308 48.557 66.2307 48.557C66.2306 48.557 66.2305 48.557 66.2304 48.557C66.2303 48.557 66.2302 48.557 66.23 48.557C66.2299 48.557 66.2298 48.557 66.2297 48.557C66.2296 48.557 66.2295 48.557 66.2294 48.557C66.2293 48.557 66.2292 48.557 66.229 48.557C66.2289 48.557 66.2288 48.557 66.2287 48.557C66.2286 48.557 66.2285 48.557 66.2284 48.557C66.2283 48.557 66.2282 48.557 66.228 48.557C66.2279 48.557 66.2278 48.557 66.2277 48.557C66.2276 48.557 66.2275 48.557 66.2274 48.557C66.2273 48.557 66.2272 48.557 66.227 48.557C66.2269 48.557 66.2268 48.557 66.2267 48.557C66.2266 48.557 66.2265 48.557 66.2264 48.557C66.2263 48.557 66.2261 48.557 66.226 48.557C66.2259 48.557 66.2258 48.557 66.2257 48.557C66.2256 48.557 66.2255 48.557 66.2254 48.557C66.2252 48.557 66.2251 48.557 66.225 48.557C66.2249 48.557 66.2248 48.557 66.2247 48.557C66.2246 48.557 66.2245 48.557 66.2243 48.557C66.2242 48.557 66.2241 48.557 66.224 48.557C66.2239 48.557 66.2238 48.557 66.2237 48.557C66.2235 48.557 66.2234 48.557 66.2233 48.557C66.2232 48.557 66.2231 48.557 66.223 48.557C66.2229 48.557 66.2227 48.557 66.2226 48.557C66.2225 48.557 66.2224 48.557 66.2223 48.557C66.2222 48.557 66.2221 48.557 66.222 48.557C66.2218 48.557 66.2217 48.557 66.2216 48.557C66.2215 48.557 66.2214 48.557 66.2213 48.557C66.2211 48.557 66.221 48.557 66.2209 48.557C66.2208 48.557 66.2207 48.557 66.2206 48.557C66.2205 48.557 66.2203 48.557 66.2202 48.557C66.2201 48.557 66.22 48.557 66.2199 48.557C66.2198 48.557 66.2197 48.557 66.2195 48.557C66.2194 48.557 66.2193 48.557 66.2192 48.557C66.2191 48.557 66.219 48.557 66.2188 48.557C66.2187 48.557 66.2186 48.557 66.2185 48.557C66.2184 48.557 66.2183 48.557 66.2181 48.557C66.218 48.557 66.2179 48.557 66.2178 48.557C66.2177 48.557 66.2176 48.557 66.2174 48.557C66.2173 48.557 66.2172 48.557 66.2171 48.557C66.217 48.557 66.2169 48.557 66.2167 48.557C66.2166 48.557 66.2165 48.557 66.2164 48.557C66.2163 48.557 66.2162 48.557 66.216 48.557C66.2159 48.557 66.2158 48.557 66.2157 48.557C66.2156 48.557 66.2155 48.557 66.2153 48.557C66.2152 48.557 66.2151 48.557 66.215 48.557C66.2149 48.557 66.2148 48.557 66.2146 48.557C66.2145 48.557 66.2144 48.557 66.2143 48.557C66.2142 48.557 66.214 48.557 66.2139 48.557C66.2138 48.557 66.2137 48.557 66.2136 48.557C66.2135 48.557 66.2133 48.557 66.2132 48.557C66.2131 48.557 66.213 48.557 66.2129 48.557C66.2127 48.557 66.2126 48.557 66.2125 48.557C66.2124 48.557 66.2123 48.557 66.2121 48.557C66.212 48.557 66.2119 48.557 66.2118 48.557C66.2117 48.557 66.2116 48.557 66.2114 48.557C66.2113 48.557 66.2112 48.557 66.2111 48.557C66.211 48.557 66.2108 48.557 66.2107 48.557C66.2106 48.557 66.2105 48.557 66.2104 48.557C66.2102 48.557 66.2101 48.557 66.21 48.557C66.2099 48.557 66.2098 48.557 66.2096 48.557C66.2095 48.557 66.2094 48.557 66.2093 48.557C66.2092 48.557 66.209 48.557 66.2089 48.557C66.2088 48.557 66.2087 48.557 66.2086 48.557C66.2084 48.557 66.2083 48.557 66.2082 48.557C66.2081 48.557 66.2079 48.557 66.2078 48.557C66.2077 48.557 66.2076 48.557 66.2075 48.557C66.2073 48.557 66.2072 48.557 66.2071 48.557C66.207 48.557 66.2069 48.557 66.2067 48.557C66.2066 48.557 66.2065 48.557 66.2064 48.557C66.2062 48.557 66.2061 48.557 66.206 48.557C66.2059 48.557 66.2058 48.557 66.2056 48.557C66.2055 48.557 66.2054 48.557 66.2053 48.557C66.2052 48.557 66.205 48.557 66.2049 48.557C66.2048 48.557 66.2047 48.557 66.2045 48.557C66.2044 48.557 66.2043 48.557 66.2042 48.557C66.2041 48.557 66.2039 48.557 66.2038 48.557C66.2037 48.557 66.2036 48.557 66.2034 48.557C66.2033 48.557 66.2032 48.557 66.2031 48.557C66.2029 48.557 66.2028 48.557 66.2027 48.557C66.2026 48.557 66.2024 48.557 66.2023 48.557C66.2022 48.557 66.2021 48.557 66.202 48.557C66.2018 48.557 66.2017 48.557 66.2016 48.557C66.2015 48.557 66.2013 48.557 66.2012 48.557C66.2011 48.557 66.201 48.557 66.2008 48.557C66.2007 48.557 66.2006 48.557 66.2005 48.557C66.2003 48.557 66.2002 48.557 66.2001 48.557C66.2 48.557 66.1998 48.557 66.1997 48.557C66.1996 48.557 66.1995 48.557 66.1993 48.557C66.1992 48.557 66.1991 48.557 66.199 48.557C66.1988 48.557 66.1987 48.557 66.1986 48.557C66.1985 48.557 66.1983 48.557 66.1982 48.557C66.1981 48.557 66.198 48.557 66.1978 48.557C66.1977 48.557 66.1976 48.557 66.1975 48.557C66.1973 48.557 66.1972 48.557 66.1971 48.557C66.197 48.557 66.1968 48.557 66.1967 48.557C66.1966 48.557 66.1965 48.557 66.1963 48.557C66.1962 48.557 66.1961 48.557 66.196 48.557C66.1958 48.557 66.1957 48.557 66.1956 48.557C66.1955 48.557 66.1953 48.557 66.1952 48.557C66.1951 48.557 66.1949 48.557 66.1948 48.557C66.1947 48.557 66.1946 48.557 66.1944 48.557C66.1943 48.557 66.1942 48.557 66.1941 48.557C66.1939 48.557 66.1938 48.557 66.1937 48.557C66.1935 48.557 66.1934 48.557 66.1933 48.557C66.1932 48.557 66.193 48.557 66.1929 48.557C66.1928 48.557 66.1927 48.557 66.1925 48.557C66.1924 48.557 66.1923 48.557 66.1921 48.557C66.192 48.557 66.1919 48.557 66.1918 48.557C66.1916 48.557 66.1915 48.557 66.1914 48.557C66.1912 48.557 66.1911 48.557 66.191 48.557C66.1909 48.557 66.1907 48.557 66.1906 48.557C66.1905 48.557 66.1903 48.557 66.1902 48.557C66.1901 48.557 66.19 48.557 66.1898 48.557C66.1897 48.557 66.1896 48.557 66.1894 48.557C66.1893 48.557 66.1892 48.557 66.1891 48.557C66.1889 48.557 66.1888 48.557 66.1887 48.557C66.1885 48.557 66.1884 48.557 66.1883 48.557C66.1882 48.557 66.188 48.557 66.1879 48.557C66.1878 48.557 66.1876 48.557 66.1875 48.557C66.1874 48.557 66.1872 48.557 66.1871 48.557C66.187 48.557 66.1869 48.557 66.1867 48.557C66.1866 48.557 66.1865 48.557 66.1863 48.557C66.1862 48.557 66.1861 48.557 66.1859 48.557C66.1858 48.557 66.1857 48.557 66.1855 48.557C66.1854 48.557 66.1853 48.557 66.1852 48.557C66.185 48.557 66.1849 48.557 66.1848 48.557C66.1846 48.557 66.1845 48.557 66.1844 48.557C66.1842 48.557 66.1841 48.557 66.184 48.557C66.1838 48.557 66.1837 48.557 66.1836 48.557C66.1834 48.557 66.1833 48.557 66.1832 48.557C66.1831 48.557 66.1829 48.557 66.1828 48.557C66.1827 48.557 66.1825 48.557 66.1824 48.557C66.1823 48.557 66.1821 48.557 66.182 48.557C66.1819 48.557 66.1817 48.557 66.1816 48.557C66.1815 48.557 66.1813 48.557 66.1812 48.557C66.1811 48.557 66.1809 48.557 66.1808 48.557C66.1807 48.557 66.1805 48.557 66.1804 48.557C66.1803 48.557 66.1801 48.557 66.18 48.557C66.1799 48.557 66.1797 48.557 66.1796 48.557C66.1795 48.557 66.1793 48.557 66.1792 48.557C66.1791 48.557 66.1789 48.557 66.1788 48.557C66.1787 48.557 66.1785 48.557 66.1784 48.557C66.1783 48.557 66.1781 48.557 66.178 48.557C66.1779 48.557 66.1777 48.557 66.1776 48.557C66.1775 48.557 66.1773 48.557 66.1772 48.557C66.1771 48.557 66.1769 48.557 66.1768 48.557C66.1767 48.557 66.1765 48.557 66.1764 48.557C66.1763 48.557 66.1761 48.557 66.176 48.557C66.1759 48.557 66.1757 48.557 66.1756 48.557C66.1754 48.557 66.1753 48.557 66.1752 48.557C66.175 48.557 66.1749 48.557 66.1748 48.557C66.1746 48.557 66.1745 48.557 66.1744 48.557C66.1742 48.557 66.1741 48.557 66.174 48.557C66.1738 48.557 66.1737 48.557 66.1736 48.557C66.1734 48.557 66.1733 48.557 66.1731 48.557C66.173 48.557 66.1729 48.557 66.1727 48.557C66.1726 48.557 66.1725 48.557 66.1723 48.557C66.1722 48.557 66.1721 48.557 66.1719 48.557C66.1718 48.557 66.1716 48.557 66.1715 48.557C66.1714 48.557 66.1712 48.557 66.1711 48.557C66.171 48.557 66.1708 48.557 66.1707 48.557C66.1706 48.557 66.1704 48.557 66.1703 48.557C66.1701 48.557 66.17 48.557 66.1699 48.557C66.1697 48.557 66.1696 48.557 66.1695 48.557C66.1693 48.557 66.1692 48.557 66.169 48.557C66.1689 48.557 66.1688 48.557 66.1686 48.557C66.1685 48.557 66.1684 48.557 66.1682 48.557C66.1681 48.557 66.1679 48.557 66.1678 48.557C66.1677 48.557 66.1675 48.557 66.1674 48.557C66.1673 48.557 66.1671 48.557 66.167 48.557C66.1668 48.557 66.1667 48.557 66.1666 48.557C66.1664 48.557 66.1663 48.557 66.1661 48.557C66.166 48.557 66.1659 48.557 66.1657 48.557C66.1656 48.557 66.1655 48.557 66.1653 48.557C66.1652 48.557 66.165 48.557 66.1649 48.557C66.1648 48.557 66.1646 48.557 66.1645 48.557C66.1643 48.557 66.1642 48.557 66.1641 48.557C66.1639 48.557 66.1638 48.557 66.1636 48.557C66.1635 48.557 66.1634 48.557 66.1632 48.557C66.1631 48.557 66.1629 48.557 66.1628 48.557C66.1627 48.557 66.1625 48.557 66.1624 48.557C66.1622 48.557 66.1621 48.557 66.162 48.557C66.1618 48.557 66.1617 48.557 66.1615 48.557C66.1614 48.557 66.1613 48.557 66.1611 48.557C66.161 48.557 66.1608 48.557 66.1607 48.557C66.1606 48.557 66.1604 48.557 66.1603 48.557C66.1601 48.557 66.16 48.557 66.1598 48.557C66.1597 48.557 66.1596 48.557 66.1594 48.557C66.1593 48.557 66.1591 48.557 66.159 48.557C66.1589 48.557 66.1587 48.557 66.1586 48.557C66.1584 48.557 66.1583 48.557 66.1582 48.557C66.158 48.557 66.1579 48.557 66.1577 48.557C66.1576 48.557 66.1574 48.557 66.1573 48.557C66.1572 48.557 66.157 48.557 66.1569 48.557C66.1567 48.557 66.1566 48.557 66.1564 48.557C66.1563 48.557 66.1562 48.557 66.156 48.557C66.1559 48.557 66.1557 48.557 66.1556 48.557C66.1554 48.557 66.1553 48.557 66.1552 48.557C66.155 48.557 66.1549 48.557 66.1547 48.557C66.1546 48.557 66.1544 48.557 66.1543 48.557C66.1542 48.557 66.154 48.557 66.1539 48.557C66.1537 48.557 66.1536 48.557 66.1534 48.557C66.1533 48.557 66.1532 48.557 66.153 48.557C66.1529 48.557 66.1527 48.557 66.1526 48.557C66.1524 48.557 66.1523 48.557 66.1521 48.557C66.152 48.557 66.1519 48.557 66.1517 48.557C66.1516 48.557 66.1514 48.557 66.1513 48.557C66.1511 48.557 66.151 48.557 66.1508 48.557C66.1507 48.557 66.1506 48.557 66.1504 48.557C66.1503 48.557 66.1501 48.557 66.15 48.557C66.1498 48.557 66.1497 48.557 66.1495 48.557C66.1494 48.557 66.1493 48.557 66.1491 48.557C66.149 48.557 66.1488 48.557 66.1487 48.557C66.1485 48.557 66.1484 48.557 66.1482 48.557C66.1481 48.557 66.1479 48.557 66.1478 48.557C66.1477 48.557 66.1475 48.557 66.1474 48.557C66.1472 48.557 66.1471 48.557 66.1469 48.557C66.1468 48.557 66.1466 48.557 66.1465 48.557C66.1463 48.557 66.1462 48.557 66.146 48.557C66.1459 48.557 66.1458 48.557 66.1456 48.557C66.1455 48.557 66.1453 48.557 66.1452 48.557C66.145 48.557 66.1449 48.557 66.1447 48.557C66.1446 48.557 66.1444 48.557 66.1443 48.557C66.1441 48.557 66.144 48.557 66.1438 48.557C66.1437 48.557 66.1435 48.557 66.1434 48.557C66.1433 48.557 66.1431 48.557 66.143 48.557C66.1428 48.557 66.1427 48.557 66.1425 48.557C66.1424 48.557 66.1422 48.557 66.1421 48.557C66.1419 48.557 66.1418 48.557 66.1416 48.557C66.1415 48.557 66.1413 48.557 66.1412 48.557C66.141 48.557 66.1409 48.557 66.1407 48.557C66.1406 48.557 66.1404 48.557 66.1403 48.557C66.1401 48.557 66.14 48.557 66.1398 48.557C66.1397 48.557 66.1395 48.557 66.1394 48.557C66.1392 48.557 66.1391 48.557 66.139 48.557C66.1388 48.557 66.1387 48.557 66.1385 48.557C66.1384 48.557 66.1382 48.557 66.1381 48.557C66.1379 48.557 66.1378 48.557 66.1376 48.557C66.1375 48.557 66.1373 48.557 66.1372 48.557C66.137 48.557 66.1369 48.557 66.1367 48.557C66.1366 48.557 66.1364 48.557 66.1363 48.557C66.1361 48.557 66.136 48.557 66.1358 48.557C66.1357 48.557 66.1355 48.557 66.1354 48.557C66.1352 48.557 66.1351 48.557 66.1349 48.557C66.1348 48.557 66.1346 48.557 66.1345 48.557C66.1343 48.557 66.1342 48.557 66.134 48.557C66.1338 48.557 66.1337 48.557 66.1335 48.557C66.1334 48.557 66.1332 48.557 66.1331 48.557C66.1329 48.557 66.1328 48.557 66.1326 48.557C66.1325 48.557 66.1323 48.557 66.1322 48.557C66.132 48.557 66.1319 48.557 66.1317 48.557C66.1316 48.557 66.1314 48.557 66.1313 48.557C66.1311 48.557 66.131 48.557 66.1308 48.557C66.1307 48.557 66.1305 48.557 66.1304 48.557C66.1302 48.557 66.1301 48.557 66.1299 48.557C66.1298 48.557 66.1296 48.557 66.1294 48.557C66.1293 48.557 66.1291 48.557 66.129 48.557C66.1288 48.557 66.1287 48.557 66.1285 48.557C66.1284 48.557 66.1282 48.557 66.1281 48.557C66.1279 48.557 66.1278 48.557 66.1276 48.557C66.1275 48.557 66.1273 48.557 66.1272 48.557C66.127 48.557 66.1268 48.557 66.1267 48.557C66.1265 48.557 66.1264 48.557 66.1262 48.557C66.1261 48.557 66.1259 48.557 66.1258 48.557C66.1256 48.557 66.1255 48.557 66.1253 48.557C66.1252 48.557 66.125 48.557 66.1248 48.557C66.1247 48.557 66.1245 48.557 66.1244 48.557C66.1242 48.557 66.1241 48.557 66.1239 48.557C66.1238 48.557 66.1236 48.557 66.1235 48.557C66.1233 48.557 66.1231 48.557 66.123 48.557C66.1228 48.557 66.1227 48.557 66.1225 48.557C66.1224 48.557 66.1222 48.557 66.1221 48.557C66.1219 48.557 66.1217 48.557 66.1216 48.557C66.1214 48.557 66.1213 48.557 66.1211 48.557C66.121 48.557 66.1208 48.557 66.1207 48.557C66.1205 48.557 66.1203 48.557 66.1202 48.557C66.12 48.557 66.1199 48.557 66.1197 48.557C66.1196 48.557 66.1194 48.557 66.1193 48.557C66.1191 48.557 66.1189 48.557 66.1188 48.557C66.1186 48.557 66.1185 48.557 66.1183 48.557C66.1182 48.557 66.118 48.557 66.1178 48.557C66.1177 48.557 66.1175 48.557 66.1174 48.557C66.1172 48.557 66.1171 48.557 66.1169 48.557C66.1168 48.557 66.1166 48.557 66.1164 48.557C66.1163 48.557 66.1161 48.557 66.116 48.557C66.1158 48.557 66.1157 48.557 66.1155 48.557C66.1153 48.557 66.1152 48.557 66.115 48.557C66.1149 48.557 66.1147 48.557 66.1145 48.557C66.1144 48.557 66.1142 48.557 66.1141 48.557C66.1139 48.557 66.1138 48.557 66.1136 48.557C66.1134 48.557 66.1133 48.557 66.1131 48.557C66.113 48.557 66.1128 48.557 66.1126 48.557C66.1125 48.557 66.1123 48.557 66.1122 48.557C66.112 48.557 66.1119 48.557 66.1117 48.557C66.1115 48.557 66.1114 48.557 66.1112 48.557C66.1111 48.557 66.1109 48.557 66.1107 48.557C66.1106 48.557 66.1104 48.557 66.1103 48.557C66.1101 48.557 66.1099 48.557 66.1098 48.557C66.1096 48.557 66.1095 48.557 66.1093 48.557C66.1091 48.557 66.109 48.557 66.1088 48.557C66.1087 48.557 66.1085 48.557 66.1083 48.557C66.1082 48.557 66.108 48.557 66.1079 48.557C66.1077 48.557 66.1075 48.557 66.1074 48.557C66.1072 48.557 66.1071 48.557 66.1069 48.557C66.1067 48.557 66.1066 48.557 66.1064 48.557C66.1063 48.557 66.1061 48.557 66.1059 48.557C66.1058 48.557 66.1056 48.557 66.1055 48.557C66.1053 48.557 66.1051 48.557 66.105 48.557C66.1048 48.557 66.1047 48.557 66.1045 48.557C66.1043 48.557 66.1042 48.557 66.104 48.557C66.1038 48.557 66.1037 48.557 66.1035 48.557C66.1034 48.557 66.1032 48.557 66.103 48.557C66.1029 48.557 66.1027 48.557 66.1026 48.557C66.1024 48.557 66.1022 48.557 66.1021 48.557C66.1019 48.557 66.1017 48.557 66.1016 48.557C66.1014 48.557 66.1013 48.557 66.1011 48.557C66.1009 48.557 66.1008 48.557 66.1006 48.557C66.1004 48.557 66.1003 48.557 66.1001 48.557C66.1 48.557 66.0998 48.557 66.0996 48.557C66.0995 48.557 66.0993 48.557 66.0991 48.557C66.099 48.557 66.0988 48.557 66.0986 48.557C66.0985 48.557 66.0983 48.557 66.0982 48.557C66.098 48.557 66.0978 48.557 66.0977 48.557C66.0975 48.557 66.0973 48.557 66.0972 48.557C66.097 48.557 66.0968 48.557 66.0967 48.557C66.0965 48.557 66.0964 48.557 66.0962 48.557C66.096 48.557 66.0959 48.557 66.0957 48.557C66.0955 48.557 66.0954 48.557 66.0952 48.557C66.095 48.557 66.0949 48.557 66.0947 48.557C66.0945 48.557 66.0944 48.557 66.0942 48.557C66.0941 48.557 66.0939 48.557 66.0937 48.557C66.0936 48.557 66.0934 48.557 66.0932 48.557C66.0931 48.557 66.0929 48.557 66.0927 48.557C66.0926 48.557 66.0924 48.557 66.0922 48.557C66.0921 48.557 66.0919 48.557 66.0917 48.557C66.0916 48.557 66.0914 48.557 66.0912 48.557C66.0911 48.557 66.0909 48.557 66.0907 48.557C66.0906 48.557 66.0904 48.557 66.0902 48.557C66.0901 48.557 66.0899 48.557 66.0897 48.557C66.0896 48.557 66.0894 48.557 66.0892 48.557C66.0891 48.557 66.0889 48.557 66.0887 48.557C66.0886 48.557 66.0884 48.557 66.0882 48.557C66.0881 48.557 66.0879 48.557 66.0877 48.557C66.0876 48.557 66.0874 48.557 66.0872 48.557C66.0871 48.557 66.0869 48.557 66.0867 48.557C66.0866 48.557 66.0864 48.557 66.0862 48.557C66.0861 48.557 66.0859 48.557 66.0857 48.557C66.0856 48.557 66.0854 48.557 66.0852 48.557C66.0851 48.557 66.0849 48.557 66.0847 48.557C66.0846 48.557 66.0844 48.557 66.0842 48.557C66.0841 48.557 66.0839 48.557 66.0837 48.557C66.0836 48.557 66.0834 48.557 66.0832 48.557C66.0831 48.557 66.0829 48.557 66.0827 48.557C66.0825 48.557 66.0824 48.557 66.0822 48.557C66.082 48.557 66.0819 48.557 66.0817 48.557C66.0815 48.557 66.0814 48.557 66.0812 48.557C66.081 48.557 66.0809 48.557 66.0807 48.557V50.557ZM66.2757 50.557C66.8863 50.557 67.4751 50.4526 67.9894 50.1819L67.0579 48.4121C66.9136 48.488 66.6704 48.557 66.2757 48.557V50.557ZM67.9978 50.1775C68.4698 49.9233 68.8657 49.5743 69.1563 49.1253L67.4771 48.0387C67.3863 48.179 67.2536 48.3067 67.0496 48.4165L67.9978 50.1775ZM69.145 49.1423C69.4246 48.7289 69.6106 48.2663 69.7124 47.7684L67.753 47.3676C67.6988 47.6324 67.6074 47.8457 67.4884 48.0217L69.145 49.1423ZM69.7133 47.7641C69.8045 47.308 69.8497 46.8436 69.8497 46.372H67.8497C67.8497 46.7151 67.8169 47.048 67.7521 47.3719L69.7133 47.7641ZM69.8497 46.372C69.8497 45.9512 69.8086 45.5317 69.7272 45.1145L67.7642 45.4975C67.8215 45.7909 67.8497 46.0822 67.8497 46.372H69.8497ZM69.728 45.1189C69.6356 44.6339 69.4582 44.182 69.1877 43.7763L67.5236 44.8857C67.6345 45.052 67.7171 45.2501 67.7633 45.4931L69.728 45.1189ZM69.1993 43.7941C68.9221 43.3584 68.5453 43.0147 68.0953 42.7593L67.1081 44.4987C67.2994 44.6073 67.4253 44.7316 67.512 44.8679L69.1993 43.7941ZM68.0953 42.7593C67.5815 42.4677 66.9901 42.356 66.3797 42.356V44.356C66.7573 44.356 66.9805 44.4263 67.1081 44.4987L68.0953 42.7593ZM72.0017 41.9V40.9H71.0017V41.9H72.0017ZM77.3967 41.9H78.3967V40.9H77.3967V41.9ZM77.3967 43.486V44.486H78.3967V43.486H77.3967ZM73.7827 43.486V42.486H72.7827V43.486H73.7827ZM73.7827 45.605H72.7827V46.605H73.7827V45.605ZM77.0717 45.605H78.0717V44.605H77.0717V45.605ZM77.0717 47.191V48.191H78.0717V47.191H77.0717ZM73.7827 47.191V46.191H72.7827V47.191H73.7827ZM73.7827 49.414H72.7827V50.414H73.7827V49.414ZM77.4617 49.414H78.4617V48.414H77.4617V49.414ZM77.4617 51V52H78.4617V51H77.4617ZM72.0017 51H71.0017V52H72.0017V51ZM72.0017 42.9H77.3967V40.9H72.0017V42.9ZM76.3967 41.9V43.486H78.3967V41.9H76.3967ZM77.3967 42.486H73.7827V44.486H77.3967V42.486ZM72.7827 43.486V45.605H74.7827V43.486H72.7827ZM73.7827 46.605H77.0717V44.605H73.7827V46.605ZM76.0717 45.605V47.191H78.0717V45.605H76.0717ZM77.0717 46.191H73.7827V48.191H77.0717V46.191ZM72.7827 47.191V49.414H74.7827V47.191H72.7827ZM73.7827 50.414H77.4617V48.414H73.7827V50.414ZM76.4617 49.414V51H78.4617V49.414H76.4617ZM77.4617 50H72.0017V52H77.4617V50ZM73.0017 51V41.9H71.0017V51H73.0017Z" fill="url(#paint1_linear)"/>
</g>
<defs>
<filter id="filter0_d" x="0" y="0" width="121" height="92" filterUnits="userSpaceOnUse" color-interpolation-filters="sRGB">
<feFlood flood-opacity="0" result="BackgroundImageFix"/>
<feColorMatrix in="SourceAlpha" type="matrix" values="0 0 0 0 0 0 0 0 0 0 0 0 0 0 0 0 0 0 127 0"/>
<feOffset/>
<feGaussianBlur stdDeviation="15"/>
<feColorMatrix type="matrix" values="0 0 0 0 0 0 0 0 0 0 0 0 0 0 0 0 0 0 0.3 0"/>
<feBlend mode="normal" in2="BackgroundImageFix" result="effect1_dropShadow"/>
<feBlend mode="normal" in="SourceGraphic" in2="effect1_dropShadow" result="shape"/>
</filter>
<filter id="filter1_d" x="10.3496" y="11.7695" width="97.1116" height="69.373" filterUnits="userSpaceOnUse" color-interpolation-filters="sRGB">
<feFlood flood-opacity="0" result="BackgroundImageFix"/>
<feColorMatrix in="SourceAlpha" type="matrix" values="0 0 0 0 0 0 0 0 0 0 0 0 0 0 0 0 0 0 127 0"/>
<feOffset/>
<feGaussianBlur stdDeviation="15"/>
<feColorMatrix type="matrix" values="0 0 0 0 0 0 0 0 0 0 0 0 0 0 0 0 0 0 0.3 0"/>
<feBlend mode="normal" in2="BackgroundImageFix" result="effect1_dropShadow"/>
<feBlend mode="normal" in="SourceGraphic" in2="effect1_dropShadow" result="shape"/>
</filter>
<linearGradient id="paint0_linear" x1="30" y1="49.2" x2="92.9164" y2="49.9728" gradientUnits="userSpaceOnUse">
<stop stop-color="#00D46A"/>
<stop offset="1" stop-color="#1262FF"/>
</linearGradient>
<linearGradient id="paint1_linear" x1="40.1104" y1="48.2" x2="79.302" y2="48.7645" gradientUnits="userSpaceOnUse">
<stop stop-color="#00D46A"/>
<stop offset="1" stop-color="#1262FF"/>
</linearGradient>
</defs>
</svg>