
<svg width="80" height="32" viewBox="30 30 80 32" fill="none" xmlns="http://www.w3.org/2000/svg">
<g filter="url(#filter0_d)">
<path d="M30.5 36C30.5 32.9624 32.9624 30.5 36 30.5H104C107.038 30.5 109.5 32.9624 109.5 36V56C109.5 59.0376 107.038 61.5 104 61.5H36C32.9624 61.5 30.5 59.0376 30.5 56V36Z" stroke="url(#paint0_linear)"/>
</g>
<g filter="url(#filter1_d)">
<path d="M57.9588 44.486V45.486H58.9588V44.486H57.9588ZM55.3068 44.486V43.486H54.3068V44.486H55.3068ZM55.3068 52V53H56.3068V52H55.3068ZM53.5258 52H52.5258V53H53.5258V52ZM53.5258 44.486H54.5258V43.486H53.5258V44.486ZM50.8608 44.486H49.8608V45.486H50.8608V44.486ZM50.8608 42.9V41.9H49.8608V42.9H50.8608ZM57.9588 42.9H58.9588V41.9H57.9588V42.9ZM57.9588 43.486H55.3068V45.486H57.9588V43.486ZM54.3068 44.486V52H56.3068V44.486H54.3068ZM55.3068 51H53.5258V53H55.3068V51ZM54.5258 52V44.486H52.5258V52H54.5258ZM53.5258 43.486H50.8608V45.486H53.5258V43.486ZM51.8608 44.486V42.9H49.8608V44.486H51.8608ZM50.8608 43.9H57.9588V41.9H50.8608V43.9ZM56.9588 42.9V44.486H58.9588V42.9H56.9588ZM58.8864 42.991L58.7151 42.0058L57.8864 42.1499V42.991H58.8864ZM59.5234 42.9L59.6381 43.8934L59.6541 43.8916L59.67 43.8892L59.5234 42.9ZM60.2124 42.822L60.1386 41.8247L60.1357 41.8249L60.2124 42.822ZM60.8884 42.783L60.8485 41.7838H60.8485L60.8884 42.783ZM62.7344 42.887L62.5464 43.8692L62.5502 43.8699L62.7344 42.887ZM63.8394 43.29L63.3283 44.1496L63.3384 44.1554L63.8394 43.29ZM64.6194 44.083L63.7485 44.5743L63.756 44.5877L63.7639 44.6008L64.6194 44.083ZM64.3984 47.151L63.5949 46.5558V46.5558L64.3984 47.151ZM63.0074 48.126L62.7084 47.1718L60.649 47.8172L62.4728 48.9711L63.0074 48.126ZM63.6444 48.529L64.5022 48.015L64.38 47.811L64.1791 47.6839L63.6444 48.529ZM65.7244 52V53H67.4895L66.5822 51.486L65.7244 52ZM63.6704 52L62.8055 52.5019L63.0946 53H63.6704V52ZM61.6034 48.438L62.4684 47.9361L62.2362 47.5361L61.7811 47.4539L61.6034 48.438ZM60.6674 48.269L60.8451 47.2849L59.6674 47.0723V48.269H60.6674ZM60.6674 52V53H61.6674V52H60.6674ZM58.8864 52H57.8864V53H58.8864V52ZM61.0704 44.369L61.0229 43.3701L61.0205 43.3702L61.0704 44.369ZM60.6674 44.421L60.4043 43.4562L59.6674 43.6572V44.421H60.6674ZM60.6674 47.06H59.6674V48.06H60.6674V47.06ZM62.6824 44.694L62.002 45.4268L62.0091 45.4334L62.0164 45.4399L62.6824 44.694ZM59.0578 43.9762C59.2362 43.9452 59.4295 43.9175 59.6381 43.8934L59.4088 41.9066C59.1667 41.9345 58.9353 41.9675 58.7151 42.0058L59.0578 43.9762ZM59.67 43.8892C59.8819 43.8578 60.0882 43.8345 60.2891 43.8191L60.1357 41.8249C59.886 41.8442 59.633 41.8729 59.3769 41.9108L59.67 43.8892ZM60.2863 43.8193C60.5099 43.8027 60.7239 43.7904 60.9284 43.7822L60.8485 41.7838C60.6196 41.793 60.383 41.8066 60.1386 41.8247L60.2863 43.8193ZM60.9284 43.7822C61.1342 43.774 61.32 43.77 61.4864 43.77V41.77C61.2889 41.77 61.076 41.7747 60.8485 41.7838L60.9284 43.7822ZM61.4864 43.77C61.8495 43.77 62.2025 43.8033 62.5464 43.8692L62.9225 41.9048C62.4517 41.8147 61.9727 41.77 61.4864 41.77V43.77ZM62.5502 43.8699C62.8662 43.9291 63.1212 44.0263 63.3284 44.1495L64.3505 42.4305C63.9164 42.1723 63.4347 42.0009 62.9187 41.9041L62.5502 43.8699ZM63.3384 44.1554C63.5101 44.2548 63.6437 44.3886 63.7485 44.5743L65.4904 43.5917C65.2139 43.1014 64.8275 42.7065 64.3405 42.4246L63.3384 44.1554ZM63.7639 44.6008C63.844 44.7331 63.9184 44.9563 63.9184 45.331H65.9184C65.9184 44.7004 65.7936 44.0916 65.4749 43.5652L63.7639 44.6008ZM63.9184 45.331C63.9184 45.9223 63.7822 46.3029 63.5949 46.5558L65.202 47.7462C65.708 47.0631 65.9184 46.2304 65.9184 45.331H63.9184ZM63.5949 46.5558C63.3801 46.8458 63.0968 47.05 62.7084 47.1718L63.3065 49.0802C64.0794 48.838 64.7235 48.3922 65.202 47.7462L63.5949 46.5558ZM62.4728 48.9711L63.1098 49.3741L64.1791 47.6839L63.5421 47.2809L62.4728 48.9711ZM62.7867 49.043L64.8667 52.514L66.5822 51.486L64.5022 48.015L62.7867 49.043ZM65.7244 51H63.6704V53H65.7244V51ZM64.5354 51.4981L62.4684 47.9361L60.7385 48.9399L62.8055 52.5019L64.5354 51.4981ZM61.7811 47.4539L60.8451 47.2849L60.4898 49.2531L61.4258 49.4221L61.7811 47.4539ZM59.6674 48.269V52H61.6674V48.269H59.6674ZM60.6674 51H58.8864V53H60.6674V51ZM59.8864 52V42.991H57.8864V52H59.8864ZM61.6164 43.356C61.4186 43.356 61.2207 43.3607 61.0229 43.3701L61.118 45.3679C61.2842 45.36 61.4503 45.356 61.6164 45.356V43.356ZM61.0205 43.3702C60.8205 43.3802 60.6025 43.4022 60.4043 43.4562L60.9306 45.3858C60.921 45.3884 60.9307 45.385 60.9677 45.3803C61.0029 45.3757 61.053 45.3711 61.1204 45.3678L61.0205 43.3702ZM59.6674 44.421V47.06H61.6674V44.421H59.6674ZM60.6674 48.06H61.4214V46.06H60.6674V48.06ZM61.4214 48.06C62.0625 48.06 62.6928 47.9133 63.2119 47.5164L61.997 45.9276C61.9267 45.9814 61.7684 46.06 61.4214 46.06V48.06ZM63.2119 47.5164C63.8432 47.0336 64.0464 46.3027 64.0464 45.604H62.0464C62.0464 45.7738 62.0219 45.8657 62.006 45.9058C61.9935 45.9373 61.9885 45.9341 61.997 45.9276L63.2119 47.5164ZM64.0464 45.604C64.0464 44.9909 63.8457 44.392 63.3485 43.9481L62.0164 45.4399C62.022 45.4449 62.0234 45.4465 62.027 45.4554C62.0322 45.4684 62.0464 45.5121 62.0464 45.604H64.0464ZM63.3629 43.9612C62.8709 43.5043 62.2325 43.356 61.6164 43.356V45.356C61.7729 45.356 61.8731 45.3751 61.9317 45.3937C61.9863 45.4111 62.0018 45.4266 62.002 45.4268L63.3629 43.9612ZM70.7093 49.985L71.6498 49.6452L71.4113 48.985H70.7093V49.985ZM67.9143 49.985V48.985H67.1994L66.9681 49.6615L67.9143 49.985ZM67.2253 52V53H67.9402L68.1715 52.3235L67.2253 52ZM65.4443 52L64.5027 51.6634L64.0249 53H65.4443V52ZM68.7203 42.835V41.835H68.0158L67.7787 42.4984L68.7203 42.835ZM70.0333 42.835L70.975 42.4984L70.7379 41.835H70.0333V42.835ZM73.3093 52V53H74.7287L74.251 51.6634L73.3093 52ZM71.4373 52L70.4968 52.3398L70.7354 53H71.4373V52ZM68.3693 48.555L67.4194 48.2425L66.9876 49.555H68.3693V48.555ZM70.3193 48.555V49.555H71.7068L71.268 48.2388L70.3193 48.555ZM69.6433 46.527L68.6611 46.7145L68.6736 46.78L68.6947 46.8432L69.6433 46.527ZM69.3703 45.097L70.3526 44.9095L70.1975 44.097H69.3703V45.097ZM69.3053 45.097V44.097H68.4768L68.3228 44.9111L69.3053 45.097ZM69.0323 46.54L69.9822 46.8525L70.0027 46.7903L70.0149 46.7259L69.0323 46.54ZM70.7093 48.985H67.9143V50.985H70.7093V48.985ZM66.9681 49.6615L66.2791 51.6765L68.1715 52.3235L68.8605 50.3085L66.9681 49.6615ZM67.2253 51H65.4443V53H67.2253V51ZM66.386 52.3366L69.662 43.1716L67.7787 42.4984L64.5027 51.6634L66.386 52.3366ZM68.7203 43.835H70.0333V41.835H68.7203V43.835ZM69.0917 43.1716L72.3677 52.3366L74.251 51.6634L70.975 42.4984L69.0917 43.1716ZM73.3093 51H71.4373V53H73.3093V51ZM72.3778 51.6602L71.6498 49.6452L69.7688 50.3248L70.4968 52.3398L72.3778 51.6602ZM68.3693 49.555H70.3193V47.555H68.3693V49.555ZM71.268 48.2388L70.592 46.2108L68.6947 46.8432L69.3707 48.8712L71.268 48.2388ZM70.6256 46.3395L70.3526 44.9095L68.3881 45.2845L68.6611 46.7145L70.6256 46.3395ZM69.3703 44.097H69.3053V46.097H69.3703V44.097ZM68.3228 44.9111L68.0498 46.3541L70.0149 46.7259L70.2879 45.2829L68.3228 44.9111ZM68.0824 46.2275L67.4194 48.2425L69.3192 48.8675L69.9822 46.8525L68.0824 46.2275ZM74.0954 42.9L73.954 41.91L73.0954 42.0327V42.9H74.0954ZM74.7064 42.835L74.6326 41.8377L74.6297 41.8379L74.7064 42.835ZM75.4214 42.796L75.4571 43.7954H75.4571L75.4214 42.796ZM76.1234 42.783V43.783H76.1419L76.1604 43.7823L76.1234 42.783ZM78.8144 43.108L78.4479 44.0384H78.4479L78.8144 43.108ZM80.2054 44.057L79.4519 44.7144V44.7144L80.2054 44.057ZM80.9984 49.153L81.9632 49.4161L80.9984 49.153ZM80.2184 50.674L80.9904 51.3097L80.2184 50.674ZM78.7754 51.74L78.3656 50.8278L78.3606 50.8301L78.7754 51.74ZM76.0194 52.13L75.981 53.1293L75.9824 53.1293L76.0194 52.13ZM75.3044 52.091L75.3732 51.0934L75.3567 51.0922L75.3401 51.0916L75.3044 52.091ZM74.6024 52.052L74.6791 51.0549L74.66 51.0535L74.6409 51.0527L74.6024 52.052ZM74.0954 52.013H73.0954V52.8709L73.9434 53.0014L74.0954 52.013ZM76.3054 44.369L76.262 43.3699L76.26 43.37L76.3054 44.369ZM75.8764 44.408L75.6975 43.4241L74.8764 43.5734V44.408H75.8764ZM75.8764 50.505H74.8764V51.2858L75.6339 51.4751L75.8764 50.505ZM76.0454 50.531L75.935 51.5249L75.99 51.531H76.0454V50.531ZM76.3184 50.544L76.2279 51.5399L76.2731 51.544H76.3184V50.544ZM76.5914 50.557L76.4919 51.552L76.5416 51.557H76.5914V50.557ZM78.0344 50.297L78.5002 51.182L78.5085 51.1775L78.0344 50.297ZM78.8274 49.582L77.9991 49.0217L77.9934 49.0302L77.9879 49.0387L78.8274 49.582ZM79.2434 48.568L80.2232 48.7684L80.224 48.7641L79.2434 48.568ZM79.2564 46.306L78.2741 46.4931L78.2749 46.4975L79.2564 46.306ZM78.8664 45.331L78.0228 45.8679L78.0285 45.8768L78.0344 45.8857L78.8664 45.331ZM78.1124 44.629L78.606 43.7593V43.7593L78.1124 44.629ZM74.2368 43.8899C74.3932 43.8676 74.5748 43.8481 74.7831 43.8321L74.6297 41.8379C74.3874 41.8566 74.1617 41.8804 73.954 41.91L74.2368 43.8899ZM74.7803 43.8323C75.0012 43.8159 75.2268 43.8036 75.4571 43.7954L75.3857 41.7966C75.1308 41.8057 74.8797 41.8194 74.6326 41.8377L74.7803 43.8323ZM75.4571 43.7954C75.6888 43.7871 75.9109 43.783 76.1234 43.783V41.783C75.8853 41.783 75.6394 41.7876 75.3857 41.7966L75.4571 43.7954ZM76.1604 43.7823C76.3854 43.774 76.5807 43.77 76.7474 43.77V41.77C76.5502 41.77 76.3295 41.7747 76.0864 41.7837L76.1604 43.7823ZM76.7474 43.77C77.465 43.77 78.0227 43.8709 78.4479 44.0384L79.181 42.1776C78.4621 41.8944 77.6419 41.77 76.7474 41.77V43.77ZM78.4479 44.0384C78.8915 44.2132 79.2155 44.4434 79.4519 44.7144L80.959 43.3996C80.4847 42.8559 79.8813 42.4535 79.181 42.1776L78.4479 44.0384ZM79.4519 44.7144C79.704 45.0034 79.898 45.3572 80.0256 45.7936L81.9453 45.2324C81.7435 44.5421 81.4175 43.9253 80.959 43.3996L79.4519 44.7144ZM80.0256 45.7936C80.1599 46.2532 80.2324 46.7769 80.2324 47.372H82.2324C82.2324 46.6151 82.1403 45.8995 81.9453 45.2324L80.0256 45.7936ZM80.2324 47.372C80.2324 47.9018 80.1654 48.4068 80.0337 48.8899L81.9632 49.4161C82.1435 48.7552 82.2324 48.0728 82.2324 47.372H80.2324ZM80.0337 48.8899C79.9135 49.3304 79.7174 49.7094 79.4465 50.0383L80.9904 51.3097C81.4475 50.7546 81.7713 50.1196 81.9632 49.4161L80.0337 48.8899ZM79.4465 50.0383C79.1936 50.3454 78.8437 50.6131 78.3656 50.8278L79.1852 52.6522C79.9032 52.3296 80.5152 51.8866 80.9904 51.3097L79.4465 50.0383ZM78.3606 50.8301C77.9388 51.0224 77.3582 51.143 76.5784 51.143V53.143C77.5493 53.143 78.4334 52.9949 79.1902 52.6499L78.3606 50.8301ZM76.5784 51.143C76.4576 51.143 76.2852 51.1392 76.0564 51.1307L75.9824 53.1293C76.2216 53.1382 76.4219 53.143 76.5784 53.143V51.143ZM76.0579 51.1307C75.8438 51.1225 75.6156 51.1101 75.3732 51.0934L75.2356 53.0886C75.4959 53.1066 75.7444 53.1202 75.981 53.1293L76.0579 51.1307ZM75.3401 51.0916C75.1101 51.0834 74.8898 51.0712 74.6791 51.0549L74.5257 53.0491C74.7657 53.0675 75.0134 53.0812 75.2687 53.0904L75.3401 51.0916ZM74.6409 51.0527C74.4244 51.0444 74.3018 51.033 74.2475 51.0246L73.9434 53.0014C74.1144 53.0277 74.3298 53.0423 74.564 53.0513L74.6409 51.0527ZM75.0954 52.013V42.9H73.0954V52.013H75.0954ZM76.8904 43.356C76.6846 43.356 76.4751 43.3607 76.262 43.3699L76.3489 45.3681C76.5344 45.36 76.7149 45.356 76.8904 45.356V43.356ZM76.26 43.37C76.0587 43.3792 75.8612 43.3944 75.6975 43.4241L76.0553 45.3919C76.0824 45.387 76.1708 45.3762 76.3508 45.368L76.26 43.37ZM74.8764 44.408V50.505H76.8764V44.408H74.8764ZM75.6339 51.4751C75.7385 51.5013 75.8522 51.5157 75.935 51.5249L76.1559 49.5371C76.126 49.5338 76.107 49.5312 76.0967 49.5296C76.0918 49.5289 76.091 49.5287 76.0936 49.5292C76.0957 49.5296 76.1048 49.5313 76.119 49.5349L75.6339 51.4751ZM76.0454 51.531C76.0989 51.531 76.1596 51.5337 76.2279 51.5399L76.409 49.5481C76.2866 49.537 76.1653 49.531 76.0454 49.531V51.531ZM76.3184 51.544C76.3836 51.544 76.4412 51.547 76.4919 51.552L76.6909 49.562C76.5683 49.5497 76.4439 49.544 76.3184 49.544V51.544ZM76.5914 51.557C76.5916 51.557 76.5918 51.557 76.5919 51.557C76.5921 51.557 76.5923 51.557 76.5924 51.557C76.5926 51.557 76.5928 51.557 76.593 51.557C76.5931 51.557 76.5933 51.557 76.5935 51.557C76.5936 51.557 76.5938 51.557 76.594 51.557C76.5941 51.557 76.5943 51.557 76.5945 51.557C76.5946 51.557 76.5948 51.557 76.595 51.557C76.5951 51.557 76.5953 51.557 76.5955 51.557C76.5956 51.557 76.5958 51.557 76.596 51.557C76.5961 51.557 76.5963 51.557 76.5965 51.557C76.5967 51.557 76.5968 51.557 76.597 51.557C76.5972 51.557 76.5973 51.557 76.5975 51.557C76.5977 51.557 76.5978 51.557 76.598 51.557C76.5982 51.557 76.5983 51.557 76.5985 51.557C76.5987 51.557 76.5988 51.557 76.599 51.557C76.5992 51.557 76.5993 51.557 76.5995 51.557C76.5997 51.557 76.5998 51.557 76.6 51.557C76.6002 51.557 76.6003 51.557 76.6005 51.557C76.6007 51.557 76.6008 51.557 76.601 51.557C76.6012 51.557 76.6013 51.557 76.6015 51.557C76.6017 51.557 76.6018 51.557 76.602 51.557C76.6021 51.557 76.6023 51.557 76.6025 51.557C76.6026 51.557 76.6028 51.557 76.603 51.557C76.6031 51.557 76.6033 51.557 76.6035 51.557C76.6036 51.557 76.6038 51.557 76.604 51.557C76.6041 51.557 76.6043 51.557 76.6045 51.557C76.6046 51.557 76.6048 51.557 76.605 51.557C76.6051 51.557 76.6053 51.557 76.6055 51.557C76.6056 51.557 76.6058 51.557 76.6059 51.557C76.6061 51.557 76.6063 51.557 76.6064 51.557C76.6066 51.557 76.6068 51.557 76.6069 51.557C76.6071 51.557 76.6073 51.557 76.6074 51.557C76.6076 51.557 76.6078 51.557 76.6079 51.557C76.6081 51.557 76.6082 51.557 76.6084 51.557C76.6086 51.557 76.6087 51.557 76.6089 51.557C76.6091 51.557 76.6092 51.557 76.6094 51.557C76.6096 51.557 76.6097 51.557 76.6099 51.557C76.61 51.557 76.6102 51.557 76.6104 51.557C76.6105 51.557 76.6107 51.557 76.6109 51.557C76.611 51.557 76.6112 51.557 76.6113 51.557C76.6115 51.557 76.6117 51.557 76.6118 51.557C76.612 51.557 76.6122 51.557 76.6123 51.557C76.6125 51.557 76.6126 51.557 76.6128 51.557C76.613 51.557 76.6131 51.557 76.6133 51.557C76.6135 51.557 76.6136 51.557 76.6138 51.557C76.6139 51.557 76.6141 51.557 76.6143 51.557C76.6144 51.557 76.6146 51.557 76.6147 51.557C76.6149 51.557 76.6151 51.557 76.6152 51.557C76.6154 51.557 76.6156 51.557 76.6157 51.557C76.6159 51.557 76.616 51.557 76.6162 51.557C76.6164 51.557 76.6165 51.557 76.6167 51.557C76.6168 51.557 76.617 51.557 76.6172 51.557C76.6173 51.557 76.6175 51.557 76.6176 51.557C76.6178 51.557 76.618 51.557 76.6181 51.557C76.6183 51.557 76.6185 51.557 76.6186 51.557C76.6188 51.557 76.6189 51.557 76.6191 51.557C76.6192 51.557 76.6194 51.557 76.6196 51.557C76.6197 51.557 76.6199 51.557 76.62 51.557C76.6202 51.557 76.6204 51.557 76.6205 51.557C76.6207 51.557 76.6208 51.557 76.621 51.557C76.6212 51.557 76.6213 51.557 76.6215 51.557C76.6216 51.557 76.6218 51.557 76.622 51.557C76.6221 51.557 76.6223 51.557 76.6224 51.557C76.6226 51.557 76.6228 51.557 76.6229 51.557C76.6231 51.557 76.6232 51.557 76.6234 51.557C76.6235 51.557 76.6237 51.557 76.6239 51.557C76.624 51.557 76.6242 51.557 76.6243 51.557C76.6245 51.557 76.6247 51.557 76.6248 51.557C76.625 51.557 76.6251 51.557 76.6253 51.557C76.6254 51.557 76.6256 51.557 76.6258 51.557C76.6259 51.557 76.6261 51.557 76.6262 51.557C76.6264 51.557 76.6265 51.557 76.6267 51.557C76.6269 51.557 76.627 51.557 76.6272 51.557C76.6273 51.557 76.6275 51.557 76.6276 51.557C76.6278 51.557 76.628 51.557 76.6281 51.557C76.6283 51.557 76.6284 51.557 76.6286 51.557C76.6287 51.557 76.6289 51.557 76.6291 51.557C76.6292 51.557 76.6294 51.557 76.6295 51.557C76.6297 51.557 76.6298 51.557 76.63 51.557C76.6302 51.557 76.6303 51.557 76.6305 51.557C76.6306 51.557 76.6308 51.557 76.6309 51.557C76.6311 51.557 76.6312 51.557 76.6314 51.557C76.6316 51.557 76.6317 51.557 76.6319 51.557C76.632 51.557 76.6322 51.557 76.6323 51.557C76.6325 51.557 76.6326 51.557 76.6328 51.557C76.633 51.557 76.6331 51.557 76.6333 51.557C76.6334 51.557 76.6336 51.557 76.6337 51.557C76.6339 51.557 76.634 51.557 76.6342 51.557C76.6344 51.557 76.6345 51.557 76.6347 51.557C76.6348 51.557 76.635 51.557 76.6351 51.557C76.6353 51.557 76.6354 51.557 76.6356 51.557C76.6357 51.557 76.6359 51.557 76.636 51.557C76.6362 51.557 76.6364 51.557 76.6365 51.557C76.6367 51.557 76.6368 51.557 76.637 51.557C76.6371 51.557 76.6373 51.557 76.6374 51.557C76.6376 51.557 76.6377 51.557 76.6379 51.557C76.638 51.557 76.6382 51.557 76.6384 51.557C76.6385 51.557 76.6387 51.557 76.6388 51.557C76.639 51.557 76.6391 51.557 76.6393 51.557C76.6394 51.557 76.6396 51.557 76.6397 51.557C76.6399 51.557 76.64 51.557 76.6402 51.557C76.6403 51.557 76.6405 51.557 76.6406 51.557C76.6408 51.557 76.641 51.557 76.6411 51.557C76.6413 51.557 76.6414 51.557 76.6416 51.557C76.6417 51.557 76.6419 51.557 76.642 51.557C76.6422 51.557 76.6423 51.557 76.6425 51.557C76.6426 51.557 76.6428 51.557 76.6429 51.557C76.6431 51.557 76.6432 51.557 76.6434 51.557C76.6435 51.557 76.6437 51.557 76.6438 51.557C76.644 51.557 76.6441 51.557 76.6443 51.557C76.6444 51.557 76.6446 51.557 76.6447 51.557C76.6449 51.557 76.645 51.557 76.6452 51.557C76.6453 51.557 76.6455 51.557 76.6456 51.557C76.6458 51.557 76.6459 51.557 76.6461 51.557C76.6462 51.557 76.6464 51.557 76.6465 51.557C76.6467 51.557 76.6468 51.557 76.647 51.557C76.6472 51.557 76.6473 51.557 76.6474 51.557C76.6476 51.557 76.6477 51.557 76.6479 51.557C76.648 51.557 76.6482 51.557 76.6483 51.557C76.6485 51.557 76.6486 51.557 76.6488 51.557C76.6489 51.557 76.6491 51.557 76.6492 51.557C76.6494 51.557 76.6495 51.557 76.6497 51.557C76.6498 51.557 76.65 51.557 76.6501 51.557C76.6503 51.557 76.6504 51.557 76.6506 51.557C76.6507 51.557 76.6509 51.557 76.651 51.557C76.6512 51.557 76.6513 51.557 76.6515 51.557C76.6516 51.557 76.6518 51.557 76.6519 51.557C76.6521 51.557 76.6522 51.557 76.6524 51.557C76.6525 51.557 76.6527 51.557 76.6528 51.557C76.653 51.557 76.6531 51.557 76.6533 51.557C76.6534 51.557 76.6536 51.557 76.6537 51.557C76.6538 51.557 76.654 51.557 76.6541 51.557C76.6543 51.557 76.6544 51.557 76.6546 51.557C76.6547 51.557 76.6549 51.557 76.655 51.557C76.6552 51.557 76.6553 51.557 76.6555 51.557C76.6556 51.557 76.6558 51.557 76.6559 51.557C76.6561 51.557 76.6562 51.557 76.6563 51.557C76.6565 51.557 76.6566 51.557 76.6568 51.557C76.6569 51.557 76.6571 51.557 76.6572 51.557C76.6574 51.557 76.6575 51.557 76.6577 51.557C76.6578 51.557 76.658 51.557 76.6581 51.557C76.6582 51.557 76.6584 51.557 76.6585 51.557C76.6587 51.557 76.6588 51.557 76.659 51.557C76.6591 51.557 76.6593 51.557 76.6594 51.557C76.6596 51.557 76.6597 51.557 76.6598 51.557C76.66 51.557 76.6601 51.557 76.6603 51.557C76.6604 51.557 76.6606 51.557 76.6607 51.557C76.6609 51.557 76.661 51.557 76.6612 51.557C76.6613 51.557 76.6614 51.557 76.6616 51.557C76.6617 51.557 76.6619 51.557 76.662 51.557C76.6622 51.557 76.6623 51.557 76.6625 51.557C76.6626 51.557 76.6627 51.557 76.6629 51.557C76.663 51.557 76.6632 51.557 76.6633 51.557C76.6635 51.557 76.6636 51.557 76.6638 51.557C76.6639 51.557 76.664 51.557 76.6642 51.557C76.6643 51.557 76.6645 51.557 76.6646 51.557C76.6648 51.557 76.6649 51.557 76.665 51.557C76.6652 51.557 76.6653 51.557 76.6655 51.557C76.6656 51.557 76.6658 51.557 76.6659 51.557C76.666 51.557 76.6662 51.557 76.6663 51.557C76.6665 51.557 76.6666 51.557 76.6668 51.557C76.6669 51.557 76.667 51.557 76.6672 51.557C76.6673 51.557 76.6675 51.557 76.6676 51.557C76.6678 51.557 76.6679 51.557 76.668 51.557C76.6682 51.557 76.6683 51.557 76.6685 51.557C76.6686 51.557 76.6688 51.557 76.6689 51.557C76.669 51.557 76.6692 51.557 76.6693 51.557C76.6695 51.557 76.6696 51.557 76.6697 51.557C76.6699 51.557 76.67 51.557 76.6702 51.557C76.6703 51.557 76.6705 51.557 76.6706 51.557C76.6707 51.557 76.6709 51.557 76.671 51.557C76.6712 51.557 76.6713 51.557 76.6714 51.557C76.6716 51.557 76.6717 51.557 76.6719 51.557C76.672 51.557 76.6721 51.557 76.6723 51.557C76.6724 51.557 76.6726 51.557 76.6727 51.557C76.6728 51.557 76.673 51.557 76.6731 51.557C76.6733 51.557 76.6734 51.557 76.6735 51.557C76.6737 51.557 76.6738 51.557 76.674 51.557C76.6741 51.557 76.6742 51.557 76.6744 51.557C76.6745 51.557 76.6747 51.557 76.6748 51.557C76.6749 51.557 76.6751 51.557 76.6752 51.557C76.6754 51.557 76.6755 51.557 76.6756 51.557C76.6758 51.557 76.6759 51.557 76.6761 51.557C76.6762 51.557 76.6763 51.557 76.6765 51.557C76.6766 51.557 76.6768 51.557 76.6769 51.557C76.677 51.557 76.6772 51.557 76.6773 51.557C76.6774 51.557 76.6776 51.557 76.6777 51.557C76.6779 51.557 76.678 51.557 76.6781 51.557C76.6783 51.557 76.6784 51.557 76.6785 51.557C76.6787 51.557 76.6788 51.557 76.679 51.557C76.6791 51.557 76.6792 51.557 76.6794 51.557C76.6795 51.557 76.6797 51.557 76.6798 51.557C76.6799 51.557 76.6801 51.557 76.6802 51.557C76.6803 51.557 76.6805 51.557 76.6806 51.557C76.6807 51.557 76.6809 51.557 76.681 51.557C76.6812 51.557 76.6813 51.557 76.6814 51.557C76.6816 51.557 76.6817 51.557 76.6818 51.557C76.682 51.557 76.6821 51.557 76.6823 51.557C76.6824 51.557 76.6825 51.557 76.6827 51.557C76.6828 51.557 76.6829 51.557 76.6831 51.557C76.6832 51.557 76.6833 51.557 76.6835 51.557C76.6836 51.557 76.6838 51.557 76.6839 51.557C76.684 51.557 76.6842 51.557 76.6843 51.557C76.6844 51.557 76.6846 51.557 76.6847 51.557C76.6848 51.557 76.685 51.557 76.6851 51.557C76.6852 51.557 76.6854 51.557 76.6855 51.557C76.6857 51.557 76.6858 51.557 76.6859 51.557C76.6861 51.557 76.6862 51.557 76.6863 51.557C76.6865 51.557 76.6866 51.557 76.6867 51.557C76.6869 51.557 76.687 51.557 76.6871 51.557C76.6873 51.557 76.6874 51.557 76.6875 51.557C76.6877 51.557 76.6878 51.557 76.6879 51.557C76.6881 51.557 76.6882 51.557 76.6883 51.557C76.6885 51.557 76.6886 51.557 76.6887 51.557C76.6889 51.557 76.689 51.557 76.6891 51.557C76.6893 51.557 76.6894 51.557 76.6895 51.557C76.6897 51.557 76.6898 51.557 76.6899 51.557C76.6901 51.557 76.6902 51.557 76.6903 51.557C76.6905 51.557 76.6906 51.557 76.6907 51.557C76.6909 51.557 76.691 51.557 76.6911 51.557C76.6913 51.557 76.6914 51.557 76.6915 51.557C76.6917 51.557 76.6918 51.557 76.6919 51.557C76.6921 51.557 76.6922 51.557 76.6923 51.557C76.6925 51.557 76.6926 51.557 76.6927 51.557C76.6929 51.557 76.693 51.557 76.6931 51.557C76.6933 51.557 76.6934 51.557 76.6935 51.557C76.6937 51.557 76.6938 51.557 76.6939 51.557C76.6941 51.557 76.6942 51.557 76.6943 51.557C76.6945 51.557 76.6946 51.557 76.6947 51.557C76.6948 51.557 76.695 51.557 76.6951 51.557C76.6952 51.557 76.6954 51.557 76.6955 51.557C76.6956 51.557 76.6958 51.557 76.6959 51.557C76.696 51.557 76.6962 51.557 76.6963 51.557C76.6964 51.557 76.6966 51.557 76.6967 51.557C76.6968 51.557 76.6969 51.557 76.6971 51.557C76.6972 51.557 76.6973 51.557 76.6975 51.557C76.6976 51.557 76.6977 51.557 76.6979 51.557C76.698 51.557 76.6981 51.557 76.6982 51.557C76.6984 51.557 76.6985 51.557 76.6986 51.557C76.6988 51.557 76.6989 51.557 76.699 51.557C76.6992 51.557 76.6993 51.557 76.6994 51.557C76.6995 51.557 76.6997 51.557 76.6998 51.557C76.6999 51.557 76.7001 51.557 76.7002 51.557C76.7003 51.557 76.7004 51.557 76.7006 51.557C76.7007 51.557 76.7008 51.557 76.701 51.557C76.7011 51.557 76.7012 51.557 76.7013 51.557C76.7015 51.557 76.7016 51.557 76.7017 51.557C76.7019 51.557 76.702 51.557 76.7021 51.557C76.7022 51.557 76.7024 51.557 76.7025 51.557C76.7026 51.557 76.7028 51.557 76.7029 51.557C76.703 51.557 76.7031 51.557 76.7033 51.557C76.7034 51.557 76.7035 51.557 76.7037 51.557C76.7038 51.557 76.7039 51.557 76.704 51.557C76.7042 51.557 76.7043 51.557 76.7044 51.557C76.7045 51.557 76.7047 51.557 76.7048 51.557C76.7049 51.557 76.7051 51.557 76.7052 51.557C76.7053 51.557 76.7054 51.557 76.7056 51.557C76.7057 51.557 76.7058 51.557 76.7059 51.557C76.7061 51.557 76.7062 51.557 76.7063 51.557C76.7064 51.557 76.7066 51.557 76.7067 51.557C76.7068 51.557 76.707 51.557 76.7071 51.557C76.7072 51.557 76.7073 51.557 76.7075 51.557C76.7076 51.557 76.7077 51.557 76.7078 51.557C76.708 51.557 76.7081 51.557 76.7082 51.557C76.7083 51.557 76.7085 51.557 76.7086 51.557C76.7087 51.557 76.7088 51.557 76.709 51.557C76.7091 51.557 76.7092 51.557 76.7093 51.557C76.7095 51.557 76.7096 51.557 76.7097 51.557C76.7098 51.557 76.71 51.557 76.7101 51.557C76.7102 51.557 76.7103 51.557 76.7105 51.557C76.7106 51.557 76.7107 51.557 76.7108 51.557C76.711 51.557 76.7111 51.557 76.7112 51.557C76.7113 51.557 76.7115 51.557 76.7116 51.557C76.7117 51.557 76.7118 51.557 76.712 51.557C76.7121 51.557 76.7122 51.557 76.7123 51.557C76.7125 51.557 76.7126 51.557 76.7127 51.557C76.7128 51.557 76.7129 51.557 76.7131 51.557C76.7132 51.557 76.7133 51.557 76.7134 51.557C76.7136 51.557 76.7137 51.557 76.7138 51.557C76.7139 51.557 76.7141 51.557 76.7142 51.557C76.7143 51.557 76.7144 51.557 76.7145 51.557C76.7147 51.557 76.7148 51.557 76.7149 51.557C76.715 51.557 76.7152 51.557 76.7153 51.557C76.7154 51.557 76.7155 51.557 76.7156 51.557C76.7158 51.557 76.7159 51.557 76.716 51.557C76.7161 51.557 76.7163 51.557 76.7164 51.557C76.7165 51.557 76.7166 51.557 76.7167 51.557C76.7169 51.557 76.717 51.557 76.7171 51.557C76.7172 51.557 76.7174 51.557 76.7175 51.557C76.7176 51.557 76.7177 51.557 76.7178 51.557C76.718 51.557 76.7181 51.557 76.7182 51.557C76.7183 51.557 76.7184 51.557 76.7186 51.557C76.7187 51.557 76.7188 51.557 76.7189 51.557C76.7191 51.557 76.7192 51.557 76.7193 51.557C76.7194 51.557 76.7195 51.557 76.7197 51.557C76.7198 51.557 76.7199 51.557 76.72 51.557C76.7201 51.557 76.7203 51.557 76.7204 51.557C76.7205 51.557 76.7206 51.557 76.7207 51.557C76.7209 51.557 76.721 51.557 76.7211 51.557C76.7212 51.557 76.7213 51.557 76.7215 51.557C76.7216 51.557 76.7217 51.557 76.7218 51.557C76.7219 51.557 76.7221 51.557 76.7222 51.557C76.7223 51.557 76.7224 51.557 76.7225 51.557C76.7227 51.557 76.7228 51.557 76.7229 51.557C76.723 51.557 76.7231 51.557 76.7232 51.557C76.7234 51.557 76.7235 51.557 76.7236 51.557C76.7237 51.557 76.7238 51.557 76.724 51.557C76.7241 51.557 76.7242 51.557 76.7243 51.557C76.7244 51.557 76.7246 51.557 76.7247 51.557C76.7248 51.557 76.7249 51.557 76.725 51.557C76.7251 51.557 76.7253 51.557 76.7254 51.557C76.7255 51.557 76.7256 51.557 76.7257 51.557C76.7258 51.557 76.726 51.557 76.7261 51.557C76.7262 51.557 76.7263 51.557 76.7264 51.557C76.7266 51.557 76.7267 51.557 76.7268 51.557C76.7269 51.557 76.727 51.557 76.7271 51.557C76.7273 51.557 76.7274 51.557 76.7275 51.557C76.7276 51.557 76.7277 51.557 76.7278 51.557C76.728 51.557 76.7281 51.557 76.7282 51.557C76.7283 51.557 76.7284 51.557 76.7285 51.557C76.7287 51.557 76.7288 51.557 76.7289 51.557C76.729 51.557 76.7291 51.557 76.7292 51.557C76.7294 51.557 76.7295 51.557 76.7296 51.557C76.7297 51.557 76.7298 51.557 76.7299 51.557C76.73 51.557 76.7302 51.557 76.7303 51.557C76.7304 51.557 76.7305 51.557 76.7306 51.557C76.7307 51.557 76.7309 51.557 76.731 51.557C76.7311 51.557 76.7312 51.557 76.7313 51.557C76.7314 51.557 76.7315 51.557 76.7317 51.557C76.7318 51.557 76.7319 51.557 76.732 51.557C76.7321 51.557 76.7322 51.557 76.7323 51.557C76.7325 51.557 76.7326 51.557 76.7327 51.557C76.7328 51.557 76.7329 51.557 76.733 51.557C76.7332 51.557 76.7333 51.557 76.7334 51.557C76.7335 51.557 76.7336 51.557 76.7337 51.557C76.7338 51.557 76.7339 51.557 76.7341 51.557C76.7342 51.557 76.7343 51.557 76.7344 51.557C76.7345 51.557 76.7346 51.557 76.7347 51.557C76.7349 51.557 76.735 51.557 76.7351 51.557C76.7352 51.557 76.7353 51.557 76.7354 51.557C76.7355 51.557 76.7356 51.557 76.7358 51.557C76.7359 51.557 76.736 51.557 76.7361 51.557C76.7362 51.557 76.7363 51.557 76.7364 51.557C76.7366 51.557 76.7367 51.557 76.7368 51.557C76.7369 51.557 76.737 51.557 76.7371 51.557C76.7372 51.557 76.7373 51.557 76.7374 51.557C76.7376 51.557 76.7377 51.557 76.7378 51.557C76.7379 51.557 76.738 51.557 76.7381 51.557C76.7382 51.557 76.7383 51.557 76.7385 51.557C76.7386 51.557 76.7387 51.557 76.7388 51.557C76.7389 51.557 76.739 51.557 76.7391 51.557C76.7392 51.557 76.7393 51.557 76.7395 51.557C76.7396 51.557 76.7397 51.557 76.7398 51.557C76.7399 51.557 76.74 51.557 76.7401 51.557C76.7402 51.557 76.7403 51.557 76.7405 51.557C76.7406 51.557 76.7407 51.557 76.7408 51.557C76.7409 51.557 76.741 51.557 76.7411 51.557C76.7412 51.557 76.7413 51.557 76.7414 51.557C76.7416 51.557 76.7417 51.557 76.7418 51.557C76.7419 51.557 76.742 51.557 76.7421 51.557C76.7422 51.557 76.7423 51.557 76.7424 51.557C76.7425 51.557 76.7427 51.557 76.7428 51.557C76.7429 51.557 76.743 51.557 76.7431 51.557C76.7432 51.557 76.7433 51.557 76.7434 51.557C76.7435 51.557 76.7436 51.557 76.7437 51.557C76.7439 51.557 76.744 51.557 76.7441 51.557C76.7442 51.557 76.7443 51.557 76.7444 51.557C76.7445 51.557 76.7446 51.557 76.7447 51.557C76.7448 51.557 76.7449 51.557 76.7451 51.557C76.7452 51.557 76.7453 51.557 76.7454 51.557C76.7455 51.557 76.7456 51.557 76.7457 51.557C76.7458 51.557 76.7459 51.557 76.746 51.557C76.7461 51.557 76.7462 51.557 76.7463 51.557C76.7465 51.557 76.7466 51.557 76.7467 51.557C76.7468 51.557 76.7469 51.557 76.747 51.557C76.7471 51.557 76.7472 51.557 76.7473 51.557C76.7474 51.557 76.7475 51.557 76.7476 51.557C76.7477 51.557 76.7478 51.557 76.748 51.557C76.7481 51.557 76.7482 51.557 76.7483 51.557C76.7484 51.557 76.7485 51.557 76.7486 51.557C76.7487 51.557 76.7488 51.557 76.7489 51.557C76.749 51.557 76.7491 51.557 76.7492 51.557C76.7493 51.557 76.7494 51.557 76.7495 51.557C76.7497 51.557 76.7498 51.557 76.7499 51.557C76.75 51.557 76.7501 51.557 76.7502 51.557C76.7503 51.557 76.7504 51.557 76.7505 51.557C76.7506 51.557 76.7507 51.557 76.7508 51.557C76.7509 51.557 76.751 51.557 76.7511 51.557C76.7512 51.557 76.7513 51.557 76.7514 51.557C76.7516 51.557 76.7517 51.557 76.7518 51.557C76.7519 51.557 76.752 51.557 76.7521 51.557C76.7522 51.557 76.7523 51.557 76.7524 51.557C76.7525 51.557 76.7526 51.557 76.7527 51.557C76.7528 51.557 76.7529 51.557 76.753 51.557C76.7531 51.557 76.7532 51.557 76.7533 51.557C76.7534 51.557 76.7535 51.557 76.7536 51.557C76.7537 51.557 76.7538 51.557 76.754 51.557C76.7541 51.557 76.7542 51.557 76.7543 51.557C76.7544 51.557 76.7545 51.557 76.7546 51.557C76.7547 51.557 76.7548 51.557 76.7549 51.557C76.755 51.557 76.7551 51.557 76.7552 51.557C76.7553 51.557 76.7554 51.557 76.7555 51.557C76.7556 51.557 76.7557 51.557 76.7558 51.557C76.7559 51.557 76.756 51.557 76.7561 51.557C76.7562 51.557 76.7563 51.557 76.7564 51.557C76.7565 51.557 76.7566 51.557 76.7567 51.557C76.7568 51.557 76.7569 51.557 76.757 51.557C76.7571 51.557 76.7572 51.557 76.7573 51.557C76.7574 51.557 76.7575 51.557 76.7576 51.557C76.7577 51.557 76.7579 51.557 76.758 51.557C76.7581 51.557 76.7582 51.557 76.7583 51.557C76.7584 51.557 76.7585 51.557 76.7586 51.557C76.7587 51.557 76.7588 51.557 76.7589 51.557C76.759 51.557 76.7591 51.557 76.7592 51.557C76.7593 51.557 76.7594 51.557 76.7595 51.557C76.7596 51.557 76.7597 51.557 76.7598 51.557C76.7599 51.557 76.76 51.557 76.7601 51.557C76.7602 51.557 76.7603 51.557 76.7604 51.557C76.7605 51.557 76.7606 51.557 76.7607 51.557C76.7608 51.557 76.7609 51.557 76.761 51.557C76.7611 51.557 76.7612 51.557 76.7613 51.557C76.7614 51.557 76.7615 51.557 76.7616 51.557C76.7617 51.557 76.7618 51.557 76.7619 51.557C76.762 51.557 76.7621 51.557 76.7622 51.557C76.7623 51.557 76.7624 51.557 76.7625 51.557C76.7626 51.557 76.7627 51.557 76.7628 51.557C76.7629 51.557 76.763 51.557 76.7631 51.557C76.7632 51.557 76.7633 51.557 76.7634 51.557C76.7635 51.557 76.7635 51.557 76.7636 51.557C76.7637 51.557 76.7638 51.557 76.7639 51.557C76.764 51.557 76.7641 51.557 76.7642 51.557C76.7643 51.557 76.7644 51.557 76.7645 51.557C76.7646 51.557 76.7647 51.557 76.7648 51.557C76.7649 51.557 76.765 51.557 76.7651 51.557C76.7652 51.557 76.7653 51.557 76.7654 51.557C76.7655 51.557 76.7656 51.557 76.7657 51.557C76.7658 51.557 76.7659 51.557 76.766 51.557C76.7661 51.557 76.7662 51.557 76.7663 51.557C76.7664 51.557 76.7665 51.557 76.7666 51.557C76.7667 51.557 76.7668 51.557 76.7669 51.557C76.767 51.557 76.7671 51.557 76.7672 51.557C76.7672 51.557 76.7673 51.557 76.7674 51.557C76.7675 51.557 76.7676 51.557 76.7677 51.557C76.7678 51.557 76.7679 51.557 76.768 51.557C76.7681 51.557 76.7682 51.557 76.7683 51.557C76.7684 51.557 76.7685 51.557 76.7686 51.557C76.7687 51.557 76.7688 51.557 76.7689 51.557C76.769 51.557 76.7691 51.557 76.7692 51.557C76.7693 51.557 76.7694 51.557 76.7694 51.557C76.7695 51.557 76.7696 51.557 76.7697 51.557C76.7698 51.557 76.7699 51.557 76.77 51.557C76.7701 51.557 76.7702 51.557 76.7703 51.557C76.7704 51.557 76.7705 51.557 76.7706 51.557C76.7707 51.557 76.7708 51.557 76.7709 51.557C76.771 51.557 76.7711 51.557 76.7712 51.557C76.7712 51.557 76.7713 51.557 76.7714 51.557C76.7715 51.557 76.7716 51.557 76.7717 51.557C76.7718 51.557 76.7719 51.557 76.772 51.557C76.7721 51.557 76.7722 51.557 76.7723 51.557C76.7724 51.557 76.7725 51.557 76.7726 51.557C76.7726 51.557 76.7727 51.557 76.7728 51.557C76.7729 51.557 76.773 51.557 76.7731 51.557C76.7732 51.557 76.7733 51.557 76.7734 51.557C76.7735 51.557 76.7736 51.557 76.7737 51.557C76.7738 51.557 76.7739 51.557 76.7739 51.557C76.774 51.557 76.7741 51.557 76.7742 51.557C76.7743 51.557 76.7744 51.557 76.7745 51.557C76.7746 51.557 76.7747 51.557 76.7748 51.557C76.7749 51.557 76.775 51.557 76.7751 51.557C76.7751 51.557 76.7752 51.557 76.7753 51.557C76.7754 51.557 76.7755 51.557 76.7756 51.557C76.7757 51.557 76.7758 51.557 76.7759 51.557C76.776 51.557 76.7761 51.557 76.7761 51.557C76.7762 51.557 76.7763 51.557 76.7764 51.557C76.7765 51.557 76.7766 51.557 76.7767 51.557C76.7768 51.557 76.7769 51.557 76.777 51.557C76.7771 51.557 76.7771 51.557 76.7772 51.557C76.7773 51.557 76.7774 51.557 76.7775 51.557C76.7776 51.557 76.7777 51.557 76.7778 51.557C76.7779 51.557 76.778 51.557 76.7781 51.557C76.7781 51.557 76.7782 51.557 76.7783 51.557C76.7784 51.557 76.7785 51.557 76.7786 51.557C76.7787 51.557 76.7788 51.557 76.7789 51.557C76.7789 51.557 76.779 51.557 76.7791 51.557C76.7792 51.557 76.7793 51.557 76.7794 51.557C76.7795 51.557 76.7796 51.557 76.7797 51.557C76.7797 51.557 76.7798 51.557 76.7799 51.557C76.78 51.557 76.7801 51.557 76.7802 51.557C76.7803 51.557 76.7804 51.557 76.7805 51.557C76.7805 51.557 76.7806 51.557 76.7807 51.557C76.7808 51.557 76.7809 51.557 76.781 51.557C76.7811 51.557 76.7812 51.557 76.7813 51.557C76.7813 51.557 76.7814 51.557 76.7815 51.557C76.7816 51.557 76.7817 51.557 76.7818 51.557C76.7819 51.557 76.782 51.557 76.782 51.557C76.7821 51.557 76.7822 51.557 76.7823 51.557C76.7824 51.557 76.7825 51.557 76.7826 51.557C76.7827 51.557 76.7827 51.557 76.7828 51.557C76.7829 51.557 76.783 51.557 76.7831 51.557C76.7832 51.557 76.7833 51.557 76.7833 51.557C76.7834 51.557 76.7835 51.557 76.7836 51.557C76.7837 51.557 76.7838 51.557 76.7839 51.557C76.784 51.557 76.784 51.557 76.7841 51.557C76.7842 51.557 76.7843 51.557 76.7844 51.557C76.7845 51.557 76.7846 51.557 76.7846 51.557C76.7847 51.557 76.7848 51.557 76.7849 51.557C76.785 51.557 76.7851 51.557 76.7852 51.557C76.7852 51.557 76.7853 51.557 76.7854 51.557C76.7855 51.557 76.7856 51.557 76.7857 51.557C76.7858 51.557 76.7858 51.557 76.7859 51.557C76.786 51.557 76.7861 51.557 76.7862 51.557C76.7863 51.557 76.7863 51.557 76.7864 51.557V49.557C76.7863 49.557 76.7863 49.557 76.7862 49.557C76.7861 49.557 76.786 49.557 76.7859 49.557C76.7858 49.557 76.7858 49.557 76.7857 49.557C76.7856 49.557 76.7855 49.557 76.7854 49.557C76.7853 49.557 76.7852 49.557 76.7852 49.557C76.7851 49.557 76.785 49.557 76.7849 49.557C76.7848 49.557 76.7847 49.557 76.7846 49.557C76.7846 49.557 76.7845 49.557 76.7844 49.557C76.7843 49.557 76.7842 49.557 76.7841 49.557C76.784 49.557 76.784 49.557 76.7839 49.557C76.7838 49.557 76.7837 49.557 76.7836 49.557C76.7835 49.557 76.7834 49.557 76.7833 49.557C76.7833 49.557 76.7832 49.557 76.7831 49.557C76.783 49.557 76.7829 49.557 76.7828 49.557C76.7827 49.557 76.7827 49.557 76.7826 49.557C76.7825 49.557 76.7824 49.557 76.7823 49.557C76.7822 49.557 76.7821 49.557 76.782 49.557C76.782 49.557 76.7819 49.557 76.7818 49.557C76.7817 49.557 76.7816 49.557 76.7815 49.557C76.7814 49.557 76.7813 49.557 76.7813 49.557C76.7812 49.557 76.7811 49.557 76.781 49.557C76.7809 49.557 76.7808 49.557 76.7807 49.557C76.7806 49.557 76.7805 49.557 76.7805 49.557C76.7804 49.557 76.7803 49.557 76.7802 49.557C76.7801 49.557 76.78 49.557 76.7799 49.557C76.7798 49.557 76.7797 49.557 76.7797 49.557C76.7796 49.557 76.7795 49.557 76.7794 49.557C76.7793 49.557 76.7792 49.557 76.7791 49.557C76.779 49.557 76.7789 49.557 76.7789 49.557C76.7788 49.557 76.7787 49.557 76.7786 49.557C76.7785 49.557 76.7784 49.557 76.7783 49.557C76.7782 49.557 76.7781 49.557 76.7781 49.557C76.778 49.557 76.7779 49.557 76.7778 49.557C76.7777 49.557 76.7776 49.557 76.7775 49.557C76.7774 49.557 76.7773 49.557 76.7772 49.557C76.7771 49.557 76.7771 49.557 76.777 49.557C76.7769 49.557 76.7768 49.557 76.7767 49.557C76.7766 49.557 76.7765 49.557 76.7764 49.557C76.7763 49.557 76.7762 49.557 76.7761 49.557C76.7761 49.557 76.776 49.557 76.7759 49.557C76.7758 49.557 76.7757 49.557 76.7756 49.557C76.7755 49.557 76.7754 49.557 76.7753 49.557C76.7752 49.557 76.7751 49.557 76.7751 49.557C76.775 49.557 76.7749 49.557 76.7748 49.557C76.7747 49.557 76.7746 49.557 76.7745 49.557C76.7744 49.557 76.7743 49.557 76.7742 49.557C76.7741 49.557 76.774 49.557 76.7739 49.557C76.7739 49.557 76.7738 49.557 76.7737 49.557C76.7736 49.557 76.7735 49.557 76.7734 49.557C76.7733 49.557 76.7732 49.557 76.7731 49.557C76.773 49.557 76.7729 49.557 76.7728 49.557C76.7727 49.557 76.7726 49.557 76.7726 49.557C76.7725 49.557 76.7724 49.557 76.7723 49.557C76.7722 49.557 76.7721 49.557 76.772 49.557C76.7719 49.557 76.7718 49.557 76.7717 49.557C76.7716 49.557 76.7715 49.557 76.7714 49.557C76.7713 49.557 76.7712 49.557 76.7712 49.557C76.7711 49.557 76.771 49.557 76.7709 49.557C76.7708 49.557 76.7707 49.557 76.7706 49.557C76.7705 49.557 76.7704 49.557 76.7703 49.557C76.7702 49.557 76.7701 49.557 76.77 49.557C76.7699 49.557 76.7698 49.557 76.7697 49.557C76.7696 49.557 76.7695 49.557 76.7694 49.557C76.7694 49.557 76.7693 49.557 76.7692 49.557C76.7691 49.557 76.769 49.557 76.7689 49.557C76.7688 49.557 76.7687 49.557 76.7686 49.557C76.7685 49.557 76.7684 49.557 76.7683 49.557C76.7682 49.557 76.7681 49.557 76.768 49.557C76.7679 49.557 76.7678 49.557 76.7677 49.557C76.7676 49.557 76.7675 49.557 76.7674 49.557C76.7673 49.557 76.7672 49.557 76.7672 49.557C76.7671 49.557 76.767 49.557 76.7669 49.557C76.7668 49.557 76.7667 49.557 76.7666 49.557C76.7665 49.557 76.7664 49.557 76.7663 49.557C76.7662 49.557 76.7661 49.557 76.766 49.557C76.7659 49.557 76.7658 49.557 76.7657 49.557C76.7656 49.557 76.7655 49.557 76.7654 49.557C76.7653 49.557 76.7652 49.557 76.7651 49.557C76.765 49.557 76.7649 49.557 76.7648 49.557C76.7647 49.557 76.7646 49.557 76.7645 49.557C76.7644 49.557 76.7643 49.557 76.7642 49.557C76.7641 49.557 76.764 49.557 76.7639 49.557C76.7638 49.557 76.7637 49.557 76.7636 49.557C76.7635 49.557 76.7635 49.557 76.7634 49.557C76.7633 49.557 76.7632 49.557 76.7631 49.557C76.763 49.557 76.7629 49.557 76.7628 49.557C76.7627 49.557 76.7626 49.557 76.7625 49.557C76.7624 49.557 76.7623 49.557 76.7622 49.557C76.7621 49.557 76.762 49.557 76.7619 49.557C76.7618 49.557 76.7617 49.557 76.7616 49.557C76.7615 49.557 76.7614 49.557 76.7613 49.557C76.7612 49.557 76.7611 49.557 76.761 49.557C76.7609 49.557 76.7608 49.557 76.7607 49.557C76.7606 49.557 76.7605 49.557 76.7604 49.557C76.7603 49.557 76.7602 49.557 76.7601 49.557C76.76 49.557 76.7599 49.557 76.7598 49.557C76.7597 49.557 76.7596 49.557 76.7595 49.557C76.7594 49.557 76.7593 49.557 76.7592 49.557C76.7591 49.557 76.759 49.557 76.7589 49.557C76.7588 49.557 76.7587 49.557 76.7586 49.557C76.7585 49.557 76.7584 49.557 76.7583 49.557C76.7582 49.557 76.7581 49.557 76.758 49.557C76.7579 49.557 76.7577 49.557 76.7576 49.557C76.7575 49.557 76.7574 49.557 76.7573 49.557C76.7572 49.557 76.7571 49.557 76.757 49.557C76.7569 49.557 76.7568 49.557 76.7567 49.557C76.7566 49.557 76.7565 49.557 76.7564 49.557C76.7563 49.557 76.7562 49.557 76.7561 49.557C76.756 49.557 76.7559 49.557 76.7558 49.557C76.7557 49.557 76.7556 49.557 76.7555 49.557C76.7554 49.557 76.7553 49.557 76.7552 49.557C76.7551 49.557 76.755 49.557 76.7549 49.557C76.7548 49.557 76.7547 49.557 76.7546 49.557C76.7545 49.557 76.7544 49.557 76.7543 49.557C76.7542 49.557 76.7541 49.557 76.754 49.557C76.7538 49.557 76.7537 49.557 76.7536 49.557C76.7535 49.557 76.7534 49.557 76.7533 49.557C76.7532 49.557 76.7531 49.557 76.753 49.557C76.7529 49.557 76.7528 49.557 76.7527 49.557C76.7526 49.557 76.7525 49.557 76.7524 49.557C76.7523 49.557 76.7522 49.557 76.7521 49.557C76.752 49.557 76.7519 49.557 76.7518 49.557C76.7517 49.557 76.7516 49.557 76.7514 49.557C76.7513 49.557 76.7512 49.557 76.7511 49.557C76.751 49.557 76.7509 49.557 76.7508 49.557C76.7507 49.557 76.7506 49.557 76.7505 49.557C76.7504 49.557 76.7503 49.557 76.7502 49.557C76.7501 49.557 76.75 49.557 76.7499 49.557C76.7498 49.557 76.7497 49.557 76.7495 49.557C76.7494 49.557 76.7493 49.557 76.7492 49.557C76.7491 49.557 76.749 49.557 76.7489 49.557C76.7488 49.557 76.7487 49.557 76.7486 49.557C76.7485 49.557 76.7484 49.557 76.7483 49.557C76.7482 49.557 76.7481 49.557 76.748 49.557C76.7478 49.557 76.7477 49.557 76.7476 49.557C76.7475 49.557 76.7474 49.557 76.7473 49.557C76.7472 49.557 76.7471 49.557 76.747 49.557C76.7469 49.557 76.7468 49.557 76.7467 49.557C76.7466 49.557 76.7465 49.557 76.7463 49.557C76.7462 49.557 76.7461 49.557 76.746 49.557C76.7459 49.557 76.7458 49.557 76.7457 49.557C76.7456 49.557 76.7455 49.557 76.7454 49.557C76.7453 49.557 76.7452 49.557 76.7451 49.557C76.7449 49.557 76.7448 49.557 76.7447 49.557C76.7446 49.557 76.7445 49.557 76.7444 49.557C76.7443 49.557 76.7442 49.557 76.7441 49.557C76.744 49.557 76.7439 49.557 76.7437 49.557C76.7436 49.557 76.7435 49.557 76.7434 49.557C76.7433 49.557 76.7432 49.557 76.7431 49.557C76.743 49.557 76.7429 49.557 76.7428 49.557C76.7427 49.557 76.7425 49.557 76.7424 49.557C76.7423 49.557 76.7422 49.557 76.7421 49.557C76.742 49.557 76.7419 49.557 76.7418 49.557C76.7417 49.557 76.7416 49.557 76.7414 49.557C76.7413 49.557 76.7412 49.557 76.7411 49.557C76.741 49.557 76.7409 49.557 76.7408 49.557C76.7407 49.557 76.7406 49.557 76.7405 49.557C76.7403 49.557 76.7402 49.557 76.7401 49.557C76.74 49.557 76.7399 49.557 76.7398 49.557C76.7397 49.557 76.7396 49.557 76.7395 49.557C76.7393 49.557 76.7392 49.557 76.7391 49.557C76.739 49.557 76.7389 49.557 76.7388 49.557C76.7387 49.557 76.7386 49.557 76.7385 49.557C76.7383 49.557 76.7382 49.557 76.7381 49.557C76.738 49.557 76.7379 49.557 76.7378 49.557C76.7377 49.557 76.7376 49.557 76.7374 49.557C76.7373 49.557 76.7372 49.557 76.7371 49.557C76.737 49.557 76.7369 49.557 76.7368 49.557C76.7367 49.557 76.7366 49.557 76.7364 49.557C76.7363 49.557 76.7362 49.557 76.7361 49.557C76.736 49.557 76.7359 49.557 76.7358 49.557C76.7356 49.557 76.7355 49.557 76.7354 49.557C76.7353 49.557 76.7352 49.557 76.7351 49.557C76.735 49.557 76.7349 49.557 76.7347 49.557C76.7346 49.557 76.7345 49.557 76.7344 49.557C76.7343 49.557 76.7342 49.557 76.7341 49.557C76.7339 49.557 76.7338 49.557 76.7337 49.557C76.7336 49.557 76.7335 49.557 76.7334 49.557C76.7333 49.557 76.7332 49.557 76.733 49.557C76.7329 49.557 76.7328 49.557 76.7327 49.557C76.7326 49.557 76.7325 49.557 76.7323 49.557C76.7322 49.557 76.7321 49.557 76.732 49.557C76.7319 49.557 76.7318 49.557 76.7317 49.557C76.7315 49.557 76.7314 49.557 76.7313 49.557C76.7312 49.557 76.7311 49.557 76.731 49.557C76.7309 49.557 76.7307 49.557 76.7306 49.557C76.7305 49.557 76.7304 49.557 76.7303 49.557C76.7302 49.557 76.73 49.557 76.7299 49.557C76.7298 49.557 76.7297 49.557 76.7296 49.557C76.7295 49.557 76.7294 49.557 76.7292 49.557C76.7291 49.557 76.729 49.557 76.7289 49.557C76.7288 49.557 76.7287 49.557 76.7285 49.557C76.7284 49.557 76.7283 49.557 76.7282 49.557C76.7281 49.557 76.728 49.557 76.7278 49.557C76.7277 49.557 76.7276 49.557 76.7275 49.557C76.7274 49.557 76.7273 49.557 76.7271 49.557C76.727 49.557 76.7269 49.557 76.7268 49.557C76.7267 49.557 76.7266 49.557 76.7264 49.557C76.7263 49.557 76.7262 49.557 76.7261 49.557C76.726 49.557 76.7258 49.557 76.7257 49.557C76.7256 49.557 76.7255 49.557 76.7254 49.557C76.7253 49.557 76.7251 49.557 76.725 49.557C76.7249 49.557 76.7248 49.557 76.7247 49.557C76.7246 49.557 76.7244 49.557 76.7243 49.557C76.7242 49.557 76.7241 49.557 76.724 49.557C76.7238 49.557 76.7237 49.557 76.7236 49.557C76.7235 49.557 76.7234 49.557 76.7232 49.557C76.7231 49.557 76.723 49.557 76.7229 49.557C76.7228 49.557 76.7227 49.557 76.7225 49.557C76.7224 49.557 76.7223 49.557 76.7222 49.557C76.7221 49.557 76.7219 49.557 76.7218 49.557C76.7217 49.557 76.7216 49.557 76.7215 49.557C76.7213 49.557 76.7212 49.557 76.7211 49.557C76.721 49.557 76.7209 49.557 76.7207 49.557C76.7206 49.557 76.7205 49.557 76.7204 49.557C76.7203 49.557 76.7201 49.557 76.72 49.557C76.7199 49.557 76.7198 49.557 76.7197 49.557C76.7195 49.557 76.7194 49.557 76.7193 49.557C76.7192 49.557 76.7191 49.557 76.7189 49.557C76.7188 49.557 76.7187 49.557 76.7186 49.557C76.7184 49.557 76.7183 49.557 76.7182 49.557C76.7181 49.557 76.718 49.557 76.7178 49.557C76.7177 49.557 76.7176 49.557 76.7175 49.557C76.7174 49.557 76.7172 49.557 76.7171 49.557C76.717 49.557 76.7169 49.557 76.7167 49.557C76.7166 49.557 76.7165 49.557 76.7164 49.557C76.7163 49.557 76.7161 49.557 76.716 49.557C76.7159 49.557 76.7158 49.557 76.7156 49.557C76.7155 49.557 76.7154 49.557 76.7153 49.557C76.7152 49.557 76.715 49.557 76.7149 49.557C76.7148 49.557 76.7147 49.557 76.7145 49.557C76.7144 49.557 76.7143 49.557 76.7142 49.557C76.7141 49.557 76.7139 49.557 76.7138 49.557C76.7137 49.557 76.7136 49.557 76.7134 49.557C76.7133 49.557 76.7132 49.557 76.7131 49.557C76.7129 49.557 76.7128 49.557 76.7127 49.557C76.7126 49.557 76.7125 49.557 76.7123 49.557C76.7122 49.557 76.7121 49.557 76.712 49.557C76.7118 49.557 76.7117 49.557 76.7116 49.557C76.7115 49.557 76.7113 49.557 76.7112 49.557C76.7111 49.557 76.711 49.557 76.7108 49.557C76.7107 49.557 76.7106 49.557 76.7105 49.557C76.7103 49.557 76.7102 49.557 76.7101 49.557C76.71 49.557 76.7098 49.557 76.7097 49.557C76.7096 49.557 76.7095 49.557 76.7093 49.557C76.7092 49.557 76.7091 49.557 76.709 49.557C76.7088 49.557 76.7087 49.557 76.7086 49.557C76.7085 49.557 76.7083 49.557 76.7082 49.557C76.7081 49.557 76.708 49.557 76.7078 49.557C76.7077 49.557 76.7076 49.557 76.7075 49.557C76.7073 49.557 76.7072 49.557 76.7071 49.557C76.707 49.557 76.7068 49.557 76.7067 49.557C76.7066 49.557 76.7064 49.557 76.7063 49.557C76.7062 49.557 76.7061 49.557 76.7059 49.557C76.7058 49.557 76.7057 49.557 76.7056 49.557C76.7054 49.557 76.7053 49.557 76.7052 49.557C76.7051 49.557 76.7049 49.557 76.7048 49.557C76.7047 49.557 76.7045 49.557 76.7044 49.557C76.7043 49.557 76.7042 49.557 76.704 49.557C76.7039 49.557 76.7038 49.557 76.7037 49.557C76.7035 49.557 76.7034 49.557 76.7033 49.557C76.7031 49.557 76.703 49.557 76.7029 49.557C76.7028 49.557 76.7026 49.557 76.7025 49.557C76.7024 49.557 76.7022 49.557 76.7021 49.557C76.702 49.557 76.7019 49.557 76.7017 49.557C76.7016 49.557 76.7015 49.557 76.7013 49.557C76.7012 49.557 76.7011 49.557 76.701 49.557C76.7008 49.557 76.7007 49.557 76.7006 49.557C76.7004 49.557 76.7003 49.557 76.7002 49.557C76.7001 49.557 76.6999 49.557 76.6998 49.557C76.6997 49.557 76.6995 49.557 76.6994 49.557C76.6993 49.557 76.6992 49.557 76.699 49.557C76.6989 49.557 76.6988 49.557 76.6986 49.557C76.6985 49.557 76.6984 49.557 76.6982 49.557C76.6981 49.557 76.698 49.557 76.6979 49.557C76.6977 49.557 76.6976 49.557 76.6975 49.557C76.6973 49.557 76.6972 49.557 76.6971 49.557C76.6969 49.557 76.6968 49.557 76.6967 49.557C76.6966 49.557 76.6964 49.557 76.6963 49.557C76.6962 49.557 76.696 49.557 76.6959 49.557C76.6958 49.557 76.6956 49.557 76.6955 49.557C76.6954 49.557 76.6952 49.557 76.6951 49.557C76.695 49.557 76.6948 49.557 76.6947 49.557C76.6946 49.557 76.6945 49.557 76.6943 49.557C76.6942 49.557 76.6941 49.557 76.6939 49.557C76.6938 49.557 76.6937 49.557 76.6935 49.557C76.6934 49.557 76.6933 49.557 76.6931 49.557C76.693 49.557 76.6929 49.557 76.6927 49.557C76.6926 49.557 76.6925 49.557 76.6923 49.557C76.6922 49.557 76.6921 49.557 76.6919 49.557C76.6918 49.557 76.6917 49.557 76.6915 49.557C76.6914 49.557 76.6913 49.557 76.6911 49.557C76.691 49.557 76.6909 49.557 76.6907 49.557C76.6906 49.557 76.6905 49.557 76.6903 49.557C76.6902 49.557 76.6901 49.557 76.6899 49.557C76.6898 49.557 76.6897 49.557 76.6895 49.557C76.6894 49.557 76.6893 49.557 76.6891 49.557C76.689 49.557 76.6889 49.557 76.6887 49.557C76.6886 49.557 76.6885 49.557 76.6883 49.557C76.6882 49.557 76.6881 49.557 76.6879 49.557C76.6878 49.557 76.6877 49.557 76.6875 49.557C76.6874 49.557 76.6873 49.557 76.6871 49.557C76.687 49.557 76.6869 49.557 76.6867 49.557C76.6866 49.557 76.6865 49.557 76.6863 49.557C76.6862 49.557 76.6861 49.557 76.6859 49.557C76.6858 49.557 76.6857 49.557 76.6855 49.557C76.6854 49.557 76.6852 49.557 76.6851 49.557C76.685 49.557 76.6848 49.557 76.6847 49.557C76.6846 49.557 76.6844 49.557 76.6843 49.557C76.6842 49.557 76.684 49.557 76.6839 49.557C76.6838 49.557 76.6836 49.557 76.6835 49.557C76.6833 49.557 76.6832 49.557 76.6831 49.557C76.6829 49.557 76.6828 49.557 76.6827 49.557C76.6825 49.557 76.6824 49.557 76.6823 49.557C76.6821 49.557 76.682 49.557 76.6818 49.557C76.6817 49.557 76.6816 49.557 76.6814 49.557C76.6813 49.557 76.6812 49.557 76.681 49.557C76.6809 49.557 76.6807 49.557 76.6806 49.557C76.6805 49.557 76.6803 49.557 76.6802 49.557C76.6801 49.557 76.6799 49.557 76.6798 49.557C76.6797 49.557 76.6795 49.557 76.6794 49.557C76.6792 49.557 76.6791 49.557 76.679 49.557C76.6788 49.557 76.6787 49.557 76.6785 49.557C76.6784 49.557 76.6783 49.557 76.6781 49.557C76.678 49.557 76.6779 49.557 76.6777 49.557C76.6776 49.557 76.6774 49.557 76.6773 49.557C76.6772 49.557 76.677 49.557 76.6769 49.557C76.6768 49.557 76.6766 49.557 76.6765 49.557C76.6763 49.557 76.6762 49.557 76.6761 49.557C76.6759 49.557 76.6758 49.557 76.6756 49.557C76.6755 49.557 76.6754 49.557 76.6752 49.557C76.6751 49.557 76.6749 49.557 76.6748 49.557C76.6747 49.557 76.6745 49.557 76.6744 49.557C76.6742 49.557 76.6741 49.557 76.674 49.557C76.6738 49.557 76.6737 49.557 76.6735 49.557C76.6734 49.557 76.6733 49.557 76.6731 49.557C76.673 49.557 76.6728 49.557 76.6727 49.557C76.6726 49.557 76.6724 49.557 76.6723 49.557C76.6721 49.557 76.672 49.557 76.6719 49.557C76.6717 49.557 76.6716 49.557 76.6714 49.557C76.6713 49.557 76.6712 49.557 76.671 49.557C76.6709 49.557 76.6707 49.557 76.6706 49.557C76.6705 49.557 76.6703 49.557 76.6702 49.557C76.67 49.557 76.6699 49.557 76.6697 49.557C76.6696 49.557 76.6695 49.557 76.6693 49.557C76.6692 49.557 76.669 49.557 76.6689 49.557C76.6688 49.557 76.6686 49.557 76.6685 49.557C76.6683 49.557 76.6682 49.557 76.668 49.557C76.6679 49.557 76.6678 49.557 76.6676 49.557C76.6675 49.557 76.6673 49.557 76.6672 49.557C76.667 49.557 76.6669 49.557 76.6668 49.557C76.6666 49.557 76.6665 49.557 76.6663 49.557C76.6662 49.557 76.666 49.557 76.6659 49.557C76.6658 49.557 76.6656 49.557 76.6655 49.557C76.6653 49.557 76.6652 49.557 76.665 49.557C76.6649 49.557 76.6648 49.557 76.6646 49.557C76.6645 49.557 76.6643 49.557 76.6642 49.557C76.664 49.557 76.6639 49.557 76.6638 49.557C76.6636 49.557 76.6635 49.557 76.6633 49.557C76.6632 49.557 76.663 49.557 76.6629 49.557C76.6627 49.557 76.6626 49.557 76.6625 49.557C76.6623 49.557 76.6622 49.557 76.662 49.557C76.6619 49.557 76.6617 49.557 76.6616 49.557C76.6614 49.557 76.6613 49.557 76.6612 49.557C76.661 49.557 76.6609 49.557 76.6607 49.557C76.6606 49.557 76.6604 49.557 76.6603 49.557C76.6601 49.557 76.66 49.557 76.6598 49.557C76.6597 49.557 76.6596 49.557 76.6594 49.557C76.6593 49.557 76.6591 49.557 76.659 49.557C76.6588 49.557 76.6587 49.557 76.6585 49.557C76.6584 49.557 76.6582 49.557 76.6581 49.557C76.658 49.557 76.6578 49.557 76.6577 49.557C76.6575 49.557 76.6574 49.557 76.6572 49.557C76.6571 49.557 76.6569 49.557 76.6568 49.557C76.6566 49.557 76.6565 49.557 76.6563 49.557C76.6562 49.557 76.6561 49.557 76.6559 49.557C76.6558 49.557 76.6556 49.557 76.6555 49.557C76.6553 49.557 76.6552 49.557 76.655 49.557C76.6549 49.557 76.6547 49.557 76.6546 49.557C76.6544 49.557 76.6543 49.557 76.6541 49.557C76.654 49.557 76.6538 49.557 76.6537 49.557C76.6536 49.557 76.6534 49.557 76.6533 49.557C76.6531 49.557 76.653 49.557 76.6528 49.557C76.6527 49.557 76.6525 49.557 76.6524 49.557C76.6522 49.557 76.6521 49.557 76.6519 49.557C76.6518 49.557 76.6516 49.557 76.6515 49.557C76.6513 49.557 76.6512 49.557 76.651 49.557C76.6509 49.557 76.6507 49.557 76.6506 49.557C76.6504 49.557 76.6503 49.557 76.6501 49.557C76.65 49.557 76.6498 49.557 76.6497 49.557C76.6495 49.557 76.6494 49.557 76.6492 49.557C76.6491 49.557 76.6489 49.557 76.6488 49.557C76.6486 49.557 76.6485 49.557 76.6483 49.557C76.6482 49.557 76.648 49.557 76.6479 49.557C76.6477 49.557 76.6476 49.557 76.6474 49.557C76.6473 49.557 76.6472 49.557 76.647 49.557C76.6468 49.557 76.6467 49.557 76.6465 49.557C76.6464 49.557 76.6462 49.557 76.6461 49.557C76.6459 49.557 76.6458 49.557 76.6456 49.557C76.6455 49.557 76.6453 49.557 76.6452 49.557C76.645 49.557 76.6449 49.557 76.6447 49.557C76.6446 49.557 76.6444 49.557 76.6443 49.557C76.6441 49.557 76.644 49.557 76.6438 49.557C76.6437 49.557 76.6435 49.557 76.6434 49.557C76.6432 49.557 76.6431 49.557 76.6429 49.557C76.6428 49.557 76.6426 49.557 76.6425 49.557C76.6423 49.557 76.6422 49.557 76.642 49.557C76.6419 49.557 76.6417 49.557 76.6416 49.557C76.6414 49.557 76.6413 49.557 76.6411 49.557C76.641 49.557 76.6408 49.557 76.6406 49.557C76.6405 49.557 76.6403 49.557 76.6402 49.557C76.64 49.557 76.6399 49.557 76.6397 49.557C76.6396 49.557 76.6394 49.557 76.6393 49.557C76.6391 49.557 76.639 49.557 76.6388 49.557C76.6387 49.557 76.6385 49.557 76.6384 49.557C76.6382 49.557 76.638 49.557 76.6379 49.557C76.6377 49.557 76.6376 49.557 76.6374 49.557C76.6373 49.557 76.6371 49.557 76.637 49.557C76.6368 49.557 76.6367 49.557 76.6365 49.557C76.6364 49.557 76.6362 49.557 76.636 49.557C76.6359 49.557 76.6357 49.557 76.6356 49.557C76.6354 49.557 76.6353 49.557 76.6351 49.557C76.635 49.557 76.6348 49.557 76.6347 49.557C76.6345 49.557 76.6344 49.557 76.6342 49.557C76.634 49.557 76.6339 49.557 76.6337 49.557C76.6336 49.557 76.6334 49.557 76.6333 49.557C76.6331 49.557 76.633 49.557 76.6328 49.557C76.6326 49.557 76.6325 49.557 76.6323 49.557C76.6322 49.557 76.632 49.557 76.6319 49.557C76.6317 49.557 76.6316 49.557 76.6314 49.557C76.6312 49.557 76.6311 49.557 76.6309 49.557C76.6308 49.557 76.6306 49.557 76.6305 49.557C76.6303 49.557 76.6302 49.557 76.63 49.557C76.6298 49.557 76.6297 49.557 76.6295 49.557C76.6294 49.557 76.6292 49.557 76.6291 49.557C76.6289 49.557 76.6287 49.557 76.6286 49.557C76.6284 49.557 76.6283 49.557 76.6281 49.557C76.628 49.557 76.6278 49.557 76.6276 49.557C76.6275 49.557 76.6273 49.557 76.6272 49.557C76.627 49.557 76.6269 49.557 76.6267 49.557C76.6265 49.557 76.6264 49.557 76.6262 49.557C76.6261 49.557 76.6259 49.557 76.6258 49.557C76.6256 49.557 76.6254 49.557 76.6253 49.557C76.6251 49.557 76.625 49.557 76.6248 49.557C76.6247 49.557 76.6245 49.557 76.6243 49.557C76.6242 49.557 76.624 49.557 76.6239 49.557C76.6237 49.557 76.6235 49.557 76.6234 49.557C76.6232 49.557 76.6231 49.557 76.6229 49.557C76.6228 49.557 76.6226 49.557 76.6224 49.557C76.6223 49.557 76.6221 49.557 76.622 49.557C76.6218 49.557 76.6216 49.557 76.6215 49.557C76.6213 49.557 76.6212 49.557 76.621 49.557C76.6208 49.557 76.6207 49.557 76.6205 49.557C76.6204 49.557 76.6202 49.557 76.62 49.557C76.6199 49.557 76.6197 49.557 76.6196 49.557C76.6194 49.557 76.6192 49.557 76.6191 49.557C76.6189 49.557 76.6188 49.557 76.6186 49.557C76.6185 49.557 76.6183 49.557 76.6181 49.557C76.618 49.557 76.6178 49.557 76.6176 49.557C76.6175 49.557 76.6173 49.557 76.6172 49.557C76.617 49.557 76.6168 49.557 76.6167 49.557C76.6165 49.557 76.6164 49.557 76.6162 49.557C76.616 49.557 76.6159 49.557 76.6157 49.557C76.6156 49.557 76.6154 49.557 76.6152 49.557C76.6151 49.557 76.6149 49.557 76.6147 49.557C76.6146 49.557 76.6144 49.557 76.6143 49.557C76.6141 49.557 76.6139 49.557 76.6138 49.557C76.6136 49.557 76.6135 49.557 76.6133 49.557C76.6131 49.557 76.613 49.557 76.6128 49.557C76.6126 49.557 76.6125 49.557 76.6123 49.557C76.6122 49.557 76.612 49.557 76.6118 49.557C76.6117 49.557 76.6115 49.557 76.6113 49.557C76.6112 49.557 76.611 49.557 76.6109 49.557C76.6107 49.557 76.6105 49.557 76.6104 49.557C76.6102 49.557 76.61 49.557 76.6099 49.557C76.6097 49.557 76.6096 49.557 76.6094 49.557C76.6092 49.557 76.6091 49.557 76.6089 49.557C76.6087 49.557 76.6086 49.557 76.6084 49.557C76.6082 49.557 76.6081 49.557 76.6079 49.557C76.6078 49.557 76.6076 49.557 76.6074 49.557C76.6073 49.557 76.6071 49.557 76.6069 49.557C76.6068 49.557 76.6066 49.557 76.6064 49.557C76.6063 49.557 76.6061 49.557 76.6059 49.557C76.6058 49.557 76.6056 49.557 76.6055 49.557C76.6053 49.557 76.6051 49.557 76.605 49.557C76.6048 49.557 76.6046 49.557 76.6045 49.557C76.6043 49.557 76.6041 49.557 76.604 49.557C76.6038 49.557 76.6036 49.557 76.6035 49.557C76.6033 49.557 76.6031 49.557 76.603 49.557C76.6028 49.557 76.6026 49.557 76.6025 49.557C76.6023 49.557 76.6021 49.557 76.602 49.557C76.6018 49.557 76.6017 49.557 76.6015 49.557C76.6013 49.557 76.6012 49.557 76.601 49.557C76.6008 49.557 76.6007 49.557 76.6005 49.557C76.6003 49.557 76.6002 49.557 76.6 49.557C76.5998 49.557 76.5997 49.557 76.5995 49.557C76.5993 49.557 76.5992 49.557 76.599 49.557C76.5988 49.557 76.5987 49.557 76.5985 49.557C76.5983 49.557 76.5982 49.557 76.598 49.557C76.5978 49.557 76.5977 49.557 76.5975 49.557C76.5973 49.557 76.5972 49.557 76.597 49.557C76.5968 49.557 76.5967 49.557 76.5965 49.557C76.5963 49.557 76.5961 49.557 76.596 49.557C76.5958 49.557 76.5956 49.557 76.5955 49.557C76.5953 49.557 76.5951 49.557 76.595 49.557C76.5948 49.557 76.5946 49.557 76.5945 49.557C76.5943 49.557 76.5941 49.557 76.594 49.557C76.5938 49.557 76.5936 49.557 76.5935 49.557C76.5933 49.557 76.5931 49.557 76.593 49.557C76.5928 49.557 76.5926 49.557 76.5924 49.557C76.5923 49.557 76.5921 49.557 76.5919 49.557C76.5918 49.557 76.5916 49.557 76.5914 49.557V51.557ZM76.7864 51.557C77.397 51.557 77.9858 51.4526 78.5002 51.1819L77.5687 49.4121C77.4244 49.488 77.1812 49.557 76.7864 49.557V51.557ZM78.5085 51.1775C78.9806 50.9233 79.3764 50.5743 79.667 50.1253L77.9879 49.0387C77.8971 49.179 77.7643 49.3067 77.5603 49.4165L78.5085 51.1775ZM79.6557 50.1423C79.9353 49.7289 80.1213 49.2663 80.2231 48.7684L78.2637 48.3676C78.2096 48.6324 78.1182 48.8457 77.9991 49.0217L79.6557 50.1423ZM80.224 48.7641C80.3152 48.308 80.3604 47.8436 80.3604 47.372H78.3604C78.3604 47.7151 78.3276 48.048 78.2628 48.3719L80.224 48.7641ZM80.3604 47.372C80.3604 46.9512 80.3193 46.5317 80.2379 46.1145L78.2749 46.4975C78.3322 46.7909 78.3604 47.0822 78.3604 47.372H80.3604ZM80.2388 46.1189C80.1464 45.6339 79.9689 45.182 79.6985 44.7763L78.0344 45.8857C78.1452 46.052 78.2278 46.2501 78.2741 46.4931L80.2388 46.1189ZM79.7101 44.7941C79.4328 44.3584 79.0561 44.0147 78.606 43.7593L77.6188 45.4987C77.8101 45.6073 77.9361 45.7316 78.0228 45.8679L79.7101 44.7941ZM78.606 43.7593C78.0923 43.4677 77.5008 43.356 76.8904 43.356V45.356C77.2681 45.356 77.4913 45.4263 77.6188 45.4987L78.606 43.7593ZM82.5124 42.9V41.9H81.5124V42.9H82.5124ZM87.9074 42.9H88.9074V41.9H87.9074V42.9ZM87.9074 44.486V45.486H88.9074V44.486H87.9074ZM84.2934 44.486V43.486H83.2934V44.486H84.2934ZM84.2934 46.605H83.2934V47.605H84.2934V46.605ZM87.5824 46.605H88.5824V45.605H87.5824V46.605ZM87.5824 48.191V49.191H88.5824V48.191H87.5824ZM84.2934 48.191V47.191H83.2934V48.191H84.2934ZM84.2934 50.414H83.2934V51.414H84.2934V50.414ZM87.9724 50.414H88.9724V49.414H87.9724V50.414ZM87.9724 52V53H88.9724V52H87.9724ZM82.5124 52H81.5124V53H82.5124V52ZM82.5124 43.9H87.9074V41.9H82.5124V43.9ZM86.9074 42.9V44.486H88.9074V42.9H86.9074ZM87.9074 43.486H84.2934V45.486H87.9074V43.486ZM83.2934 44.486V46.605H85.2934V44.486H83.2934ZM84.2934 47.605H87.5824V45.605H84.2934V47.605ZM86.5824 46.605V48.191H88.5824V46.605H86.5824ZM87.5824 47.191H84.2934V49.191H87.5824V47.191ZM83.2934 48.191V50.414H85.2934V48.191H83.2934ZM84.2934 51.414H87.9724V49.414H84.2934V51.414ZM86.9724 50.414V52H88.9724V50.414H86.9724ZM87.9724 51H82.5124V53H87.9724V51ZM83.5124 52V42.9H81.5124V52H83.5124Z" fill="url(#paint1_linear)"/>
</g>
<defs>
<filter id="filter0_d" x="0" y="0" width="140" height="92" filterUnits="userSpaceOnUse" color-interpolation-filters="sRGB">
<feFlood flood-opacity="0" result="BackgroundImageFix"/>
<feColorMatrix in="SourceAlpha" type="matrix" values="0 0 0 0 0 0 0 0 0 0 0 0 0 0 0 0 0 0 127 0"/>
<feOffset/>
<feGaussianBlur stdDeviation="15"/>
<feColorMatrix type="matrix" values="0 0 0 0 0 0 0 0 0 0 0 0 0 0 0 0 0 0 0.3 0"/>
<feBlend mode="normal" in2="BackgroundImageFix" result="effect1_dropShadow"/>
<feBlend mode="normal" in="SourceGraphic" in2="effect1_dropShadow" result="shape"/>
</filter>
<filter id="filter1_d" x="20.8604" y="12.7695" width="97.1116" height="69.373" filterUnits="userSpaceOnUse" color-interpolation-filters="sRGB">
<feFlood flood-opacity="0" result="BackgroundImageFix"/>
<feColorMatrix in="SourceAlpha" type="matrix" values="0 0 0 0 0 0 0 0 0 0 0 0 0 0 0 0 0 0 127 0"/>
<feOffset/>
<feGaussianBlur stdDeviation="15"/>
<feColorMatrix type="matrix" values="0 0 0 0 0 0 0 0 0 0 0 0 0 0 0 0 0 0 0.3 0"/>
<feBlend mode="normal" in2="BackgroundImageFix" result="effect1_dropShadow"/>
<feBlend mode="normal" in="SourceGraphic" in2="effect1_dropShadow" result="shape"/>
</filter>
<linearGradient id="paint0_linear" x1="30" y1="49.2" x2="112.504" y2="50.529" gradientUnits="userSpaceOnUse">
<stop stop-color="#00D46A"/>
<stop offset="1" stop-color="#1262FF"/>
</linearGradient>
<linearGradient id="paint1_linear" x1="50.6211" y1="49.2" x2="89.8127" y2="49.7645" gradientUnits="userSpaceOnUse">
<stop stop-color="#00D46A"/>
<stop offset="1" stop-color="#1262FF"/>
</linearGradient>
</defs>
</svg>
