<svg width="23" height="23" viewBox="0 0 23 23" fill="none" xmlns="http://www.w3.org/2000/svg">
<g clip-path="url(#clip0)">
<path d="M21.9901 4.66502C21.6367 4.8218 21.2733 4.95411 20.9019 5.06153C21.3416 4.56435 21.6767 3.97935 21.8813 3.33919C21.9272 3.1957 21.8797 3.03864 21.7617 2.94479C21.6439 2.85087 21.4803 2.83962 21.3506 2.91648C20.562 3.38419 19.7112 3.72031 18.8191 3.91686C17.9205 3.03878 16.7 2.53906 15.4382 2.53906C12.7749 2.53906 10.608 4.70581 10.608 7.36909C10.608 7.57884 10.6213 7.78744 10.6476 7.99313C7.34264 7.70296 4.27008 6.07853 2.16016 3.49038C2.08497 3.39813 1.96913 3.34841 1.85053 3.35792C1.73186 3.36721 1.62524 3.43413 1.56529 3.53697C1.13735 4.27127 0.91112 5.1111 0.91112 5.96559C0.91112 7.12943 1.32664 8.23367 2.06065 9.09651C1.83747 9.01921 1.62089 8.9226 1.41418 8.80785C1.3032 8.74609 1.16777 8.74703 1.05752 8.81025C0.947193 8.87347 0.878024 8.98974 0.87512 9.11683C0.874612 9.13824 0.874612 9.15965 0.874612 9.18135C0.874612 10.9186 1.8096 12.4826 3.23907 13.3351C3.11627 13.3228 2.99353 13.305 2.8716 13.2817C2.74589 13.2577 2.61662 13.3018 2.53185 13.3976C2.44693 13.4934 2.41884 13.627 2.45796 13.7489C2.98707 15.4009 4.34934 16.6159 5.99619 16.9864C4.6303 17.8419 3.06829 18.29 1.42855 18.29C1.0864 18.29 0.742298 18.2699 0.405523 18.2301C0.238225 18.2102 0.0782573 18.3089 0.0212815 18.468C-0.0356943 18.6272 0.0246928 18.8047 0.167023 18.8959C2.27353 20.2466 4.70927 20.9605 7.21076 20.9605C12.1284 20.9605 15.2047 18.6415 16.9194 16.6961C19.0577 14.2704 20.284 11.0597 20.284 7.88724C20.284 7.75471 20.2819 7.62087 20.2779 7.48747C21.1215 6.85188 21.8478 6.08267 22.4388 5.19856C22.5286 5.06429 22.5189 4.88683 22.4149 4.76322C22.311 4.63955 22.1379 4.59955 21.9901 4.66502Z" fill="#1DA1F2"/>
</g>
<defs>
<clipPath id="clip0">
<rect width="22.5" height="22.5" fill="white" transform="translate(0 0.5)"/>
</clipPath>
</defs>
</svg>
