<svg width="153" height="148" viewBox="0 0 153 148" fill="none" xmlns="http://www.w3.org/2000/svg">
<path opacity="0.5" d="M19.2392 29.3851C21.5925 23.0793 22.7691 19.9264 24.7395 17.4461C26.4829 15.2516 28.6681 13.448 31.1534 12.1523C33.9623 10.6879 37.2811 10.1304 43.9187 9.01545L86.3735 1.88418C93.0111 0.769252 96.33 0.211775 99.4631 0.67807C102.235 1.09065 104.89 2.0813 107.255 3.58578C109.927 5.28614 112.07 7.88158 116.354 13.0724L143.757 46.2738C148.042 51.4646 150.184 54.0601 151.347 57.0066C152.375 59.6137 152.845 62.408 152.724 65.2082C152.588 68.373 151.411 71.5259 149.058 77.8317L134.006 118.164C131.653 124.47 130.477 127.623 128.506 130.103C126.763 132.298 124.578 134.101 122.092 135.397C119.283 136.861 115.965 137.419 109.327 138.534L66.8722 145.665C60.2346 146.78 56.9158 147.338 53.7826 146.871C51.0103 146.459 48.3557 145.468 45.991 143.964C43.3183 142.263 41.1762 139.668 36.8918 134.477L9.48852 101.276C5.20416 96.0847 3.06197 93.4893 1.8992 90.5427C0.870385 87.9356 0.401025 85.1413 0.521564 82.3411C0.657795 79.1764 1.83442 76.0235 4.18765 69.7177L19.2392 29.3851Z" fill="url(#paint0_linear)"/>
<g clip-path="url(#clip0)">
<path d="M92.2244 54.668C92.9254 54.668 93.4939 54.0996 93.4939 53.3984C93.4939 52.6973 92.9254 52.1289 92.2244 52.1289H92.2171C91.5161 52.1289 90.9512 52.6973 90.9512 53.3984C90.9512 54.0996 91.5233 54.668 92.2244 54.668Z" fill="url(#paint1_linear)"/>
<path d="M99.0759 54.668C99.777 54.668 100.345 54.0996 100.345 53.3984C100.345 52.6973 99.777 52.1289 99.0759 52.1289H99.0687C98.3677 52.1289 97.8027 52.6973 97.8027 53.3984C97.8027 54.0996 98.3749 54.668 99.0759 54.668Z" fill="url(#paint2_linear)"/>
<path d="M85.3728 54.668C86.0739 54.668 86.6424 54.0996 86.6424 53.3984C86.6424 52.6973 86.0739 52.1289 85.3728 52.1289H85.3656C84.6646 52.1289 84.0996 52.6973 84.0996 53.3984C84.0996 54.0996 84.6717 54.668 85.3728 54.668Z" fill="url(#paint3_linear)"/>
<path d="M51.9199 54.668H70.9962C71.6972 54.668 72.2657 54.0996 72.2657 53.3984C72.2657 52.6973 71.6972 52.1289 70.9962 52.1289H51.9199C51.2189 52.1289 50.6504 52.6973 50.6504 53.3984C50.6504 54.0996 51.2188 54.668 51.9199 54.668Z" fill="url(#paint4_linear)"/>
<path d="M85.1277 76.6467C84.5904 76.1959 83.79 76.2661 83.3391 76.8032L65.713 97.8117C65.2623 98.3488 65.3325 99.1495 65.8695 99.6002C66.1074 99.7998 66.3969 99.8971 66.685 99.8971C67.0473 99.8971 67.4071 99.7429 67.6582 99.4435L85.2842 78.4351C85.7349 77.8981 85.6647 77.0974 85.1277 76.6467Z" fill="url(#paint5_linear)"/>
<path d="M82.2049 89.6387C79.854 89.6387 77.9414 91.5512 77.9414 93.9021V96.3419C77.9414 98.6928 79.854 100.605 82.2049 100.605C84.5559 100.605 86.4685 98.6928 86.4685 96.3419V93.9021C86.4685 91.5513 84.5559 89.6387 82.2049 89.6387ZM83.9294 96.342C83.9294 97.2929 83.1558 98.0665 82.2049 98.0665C81.2541 98.0665 80.4805 97.2928 80.4805 96.342V93.9023C80.4805 92.9514 81.2541 92.1779 82.2049 92.1779C83.1558 92.1779 83.9294 92.9515 83.9294 93.9023V96.342Z" fill="url(#paint6_linear)"/>
<path d="M68.7909 86.6034C71.1419 86.6034 73.0544 84.6909 73.0544 82.34V79.9002C73.0544 77.5493 71.1419 75.6367 68.7909 75.6367C66.4399 75.6367 64.5273 77.5493 64.5273 79.9002V82.34C64.5273 84.6908 66.44 86.6034 68.7909 86.6034ZM67.0664 79.9001C67.0664 78.9492 67.8401 78.1757 68.7909 78.1757C69.7417 78.1757 70.5153 78.9493 70.5153 79.9001V82.3398C70.5153 83.2907 69.7417 84.0643 68.7909 84.0643C67.8401 84.0643 67.0664 83.2906 67.0664 82.3398V79.9001Z" fill="url(#paint7_linear)"/>
<path d="M103.927 45.4453H47.0728C44.8271 45.4453 43 47.2724 43 49.5181V96.526C43 98.7718 44.8271 100.599 47.0728 100.599H58.2304C58.9162 101.572 59.6928 102.499 60.5623 103.369C64.5528 107.359 69.8577 109.557 75.4995 109.557C81.1415 109.557 86.4455 107.359 90.4341 103.369C91.2989 102.504 92.0788 101.578 92.7712 100.599H103.927C106.173 100.599 108 98.7718 108 96.526V49.5181C108 47.2724 106.173 45.4453 103.927 45.4453ZM47.0728 47.9844H103.927C104.773 47.9844 105.461 48.6723 105.461 49.5181V58.814H45.5391V49.5181C45.5391 48.6723 46.2271 47.9844 47.0728 47.9844ZM103.927 98.0599H94.3099C95.3753 95.9805 96.089 93.7252 96.4184 91.3552C97.0342 86.9246 96.2099 82.3282 94.0976 78.4128C93.7647 77.7956 92.9946 77.5653 92.3775 77.8982C91.7605 78.2311 91.5301 79.0012 91.863 79.6183C95.7277 86.782 94.4018 95.8102 88.6386 101.573C85.1294 105.084 80.4632 107.018 75.4995 107.018C70.5358 107.018 65.8687 105.084 62.3577 101.573C61.4417 100.657 60.6419 99.6683 59.9576 98.6253C59.956 98.6228 59.9545 98.6203 59.9528 98.6177C55.2308 91.4133 56.032 81.6212 62.3577 75.2926C68.1203 69.5298 77.1503 68.2042 84.3168 72.0685C84.934 72.4014 85.7041 72.1708 86.0367 71.5536C86.3695 70.9365 86.1391 70.1664 85.5218 69.8336C81.6045 67.7214 77.0064 66.897 72.5763 67.5128C67.995 68.1494 63.8406 70.2187 60.5621 73.4974C53.9281 80.1344 52.6408 90.1224 56.6971 98.0598H47.0728C46.2271 98.0598 45.5391 97.3717 45.5391 96.5259V61.353H105.461V96.5262C105.461 97.3718 104.773 98.0599 103.927 98.0599Z" fill="url(#paint8_linear)"/>
<path d="M90.4302 73.494C89.9344 72.9983 89.1324 72.9999 88.6366 73.4958C88.1408 73.9916 88.1425 74.7972 88.6384 75.2931C88.8863 75.541 89.2112 75.6649 89.5361 75.6649C89.8609 75.6649 90.1858 75.541 90.4338 75.2931C90.9295 74.7973 90.9295 73.9935 90.4338 73.4976L90.4302 73.494Z" fill="url(#paint9_linear)"/>
</g>
<defs>
<linearGradient id="paint0_linear" x1="158.652" y1="29.4554" x2="-58.1815" y2="116.916" gradientUnits="userSpaceOnUse">
<stop stop-color="#061C2E"/>
<stop offset="1" stop-color="#061C2E" stop-opacity="0"/>
</linearGradient>
<linearGradient id="paint1_linear" x1="92.2225" y1="52.1289" x2="92.2225" y2="54.668" gradientUnits="userSpaceOnUse">
<stop stop-color="#00D46A"/>
<stop offset="1" stop-color="#1262FF"/>
</linearGradient>
<linearGradient id="paint2_linear" x1="99.0741" y1="52.1289" x2="99.0741" y2="54.668" gradientUnits="userSpaceOnUse">
<stop stop-color="#00D46A"/>
<stop offset="1" stop-color="#1262FF"/>
</linearGradient>
<linearGradient id="paint3_linear" x1="85.371" y1="52.1289" x2="85.371" y2="54.668" gradientUnits="userSpaceOnUse">
<stop stop-color="#00D46A"/>
<stop offset="1" stop-color="#1262FF"/>
</linearGradient>
<linearGradient id="paint4_linear" x1="61.458" y1="52.1289" x2="61.458" y2="54.668" gradientUnits="userSpaceOnUse">
<stop stop-color="#00D46A"/>
<stop offset="1" stop-color="#1262FF"/>
</linearGradient>
<linearGradient id="paint5_linear" x1="75.4986" y1="76.3496" x2="75.4986" y2="99.8971" gradientUnits="userSpaceOnUse">
<stop stop-color="#00D46A"/>
<stop offset="1" stop-color="#1262FF"/>
</linearGradient>
<linearGradient id="paint6_linear" x1="82.2049" y1="89.6387" x2="82.2049" y2="100.605" gradientUnits="userSpaceOnUse">
<stop stop-color="#00D46A"/>
<stop offset="1" stop-color="#1262FF"/>
</linearGradient>
<linearGradient id="paint7_linear" x1="68.7909" y1="75.6367" x2="68.7909" y2="86.6034" gradientUnits="userSpaceOnUse">
<stop stop-color="#00D46A"/>
<stop offset="1" stop-color="#1262FF"/>
</linearGradient>
<linearGradient id="paint8_linear" x1="75.5" y1="45.4453" x2="75.5" y2="109.557" gradientUnits="userSpaceOnUse">
<stop stop-color="#00D46A"/>
<stop offset="1" stop-color="#1262FF"/>
</linearGradient>
<linearGradient id="paint9_linear" x1="89.5356" y1="73.123" x2="89.5356" y2="75.6649" gradientUnits="userSpaceOnUse">
<stop stop-color="#00D46A"/>
<stop offset="1" stop-color="#1262FF"/>
</linearGradient>
<clipPath id="clip0">
<rect width="65" height="65" fill="white" transform="translate(43 45)"/>
</clipPath>
</defs>
</svg>
