<svg width="152" height="151" viewBox="0 0 152 151" fill="none" xmlns="http://www.w3.org/2000/svg">
<path opacity="0.5" d="M79.9988 3.13139C86.5271 1.49376 89.7913 0.674948 92.9515 0.891389C95.7478 1.0829 98.4725 1.85999 100.949 3.17227C103.748 4.6554 106.089 7.07285 110.772 11.9077L140.721 42.8322C145.403 47.667 147.744 50.0845 149.137 52.9296C150.369 55.447 151.059 58.1952 151.161 60.9961C151.276 64.1617 150.353 67.398 148.507 73.8705L136.7 115.269C134.854 121.742 133.931 124.978 132.163 127.607C130.599 129.933 128.564 131.904 126.189 133.392C123.505 135.075 120.241 135.894 113.713 137.531L71.957 148.006C65.4287 149.643 62.1645 150.462 59.0043 150.246C56.208 150.054 53.4833 149.277 51.0067 147.965C48.2077 146.482 45.8665 144.064 41.1841 139.229L11.235 108.305C6.55262 103.47 4.21142 101.053 2.81872 98.2076C1.58646 95.6902 0.89706 92.942 0.795233 90.1411C0.68015 86.9755 1.60312 83.7392 3.44905 77.2667L15.2559 35.8678C17.1018 29.3953 18.0248 26.1591 19.7924 23.5304C21.3563 21.2045 23.3917 19.2334 25.7664 17.7447C28.4504 16.0623 31.7146 15.2435 38.2429 13.6058L79.9988 3.13139Z" fill="url(#paint0_linear)"/>
<path d="M100.649 107.109H59.9738C57.9675 107.107 56.0439 106.309 54.6252 104.89C53.2065 103.471 52.4085 101.548 52.4062 99.5412V48.4601C52.4085 46.4538 53.2065 44.5303 54.6252 43.1116C56.0439 41.6928 57.9675 40.8948 59.9738 40.8926H100.649C100.9 40.8926 101.141 40.9922 101.318 41.1696C101.496 41.347 101.595 41.5876 101.595 41.8385V92.9196H99.7035V42.7845H59.9738C58.4691 42.7862 57.0265 43.3848 55.9624 44.4488C54.8984 45.5128 54.2999 46.9554 54.2981 48.4601V99.5412C54.2999 101.046 54.8984 102.489 55.9624 103.553C57.0265 104.617 58.4691 105.215 59.9738 105.217H100.649V107.109Z" fill="url(#paint1_linear)"/>
<path d="M100.649 107.11H59.9738C57.9668 107.11 56.0419 106.312 54.6227 104.893C53.2035 103.474 52.4062 101.549 52.4062 99.5422C52.4062 97.5351 53.2035 95.6103 54.6227 94.1911C56.0419 92.7719 57.9668 91.9746 59.9738 91.9746H100.649C100.823 91.9748 100.994 92.0228 101.142 92.1133C101.29 92.2039 101.41 92.3335 101.49 92.488C101.569 92.6424 101.605 92.8158 101.592 92.9891C101.58 93.1623 101.519 93.3288 101.419 93.4701C100.153 95.242 99.473 97.3649 99.473 99.5422C99.473 101.719 100.153 103.842 101.419 105.614C101.519 105.756 101.58 105.922 101.592 106.095C101.605 106.269 101.569 106.442 101.49 106.596C101.41 106.751 101.29 106.88 101.142 106.971C100.994 107.062 100.823 107.11 100.649 107.11ZM59.9738 93.8665C58.4685 93.8665 57.0249 94.4645 55.9605 95.5289C54.8961 96.5933 54.2981 98.0369 54.2981 99.5422C54.2981 101.047 54.8961 102.491 55.9605 103.555C57.0249 104.62 58.4685 105.218 59.9738 105.218H98.9638C98.0556 103.464 97.5816 101.517 97.5816 99.5422C97.5816 97.5669 98.0556 95.6205 98.9638 93.8665H59.9738Z" fill="url(#paint2_linear)"/>
<path d="M63.7578 41.8379H65.6497V92.919H63.7578V41.8379Z" fill="url(#paint3_linear)"/>
<path d="M82.6756 78.73C80.4305 78.73 78.2358 78.0643 76.3691 76.817C74.5024 75.5697 73.0475 73.7969 72.1883 71.7227C71.3291 69.6485 71.1043 67.3661 71.5423 65.1642C71.9803 62.9622 73.0614 60.9396 74.649 59.3521C76.2365 57.7646 78.2591 56.6835 80.461 56.2455C82.663 55.8075 84.9454 56.0323 87.0195 56.8914C89.0937 57.7506 90.8666 59.2055 92.1139 61.0722C93.3612 62.9389 94.0269 65.1336 94.0269 67.3787C94.0237 70.3883 92.8267 73.2736 90.6986 75.4017C88.5705 77.5298 85.6851 78.7268 82.6756 78.73ZM82.6756 57.9192C80.8047 57.9192 78.9758 58.474 77.4202 59.5134C75.8646 60.5529 74.6521 62.0302 73.9362 63.7587C73.2202 65.4872 73.0329 67.3892 73.3979 69.2241C73.7629 71.0591 74.6638 72.7446 75.9867 74.0675C77.3097 75.3905 78.9952 76.2914 80.8301 76.6564C82.6651 77.0214 84.5671 76.8341 86.2956 76.1181C88.024 75.4021 89.5014 74.1897 90.5408 72.6341C91.5802 71.0785 92.135 69.2496 92.135 67.3787C92.1323 64.8707 91.1348 62.4663 89.3614 60.6929C87.588 58.9195 85.1835 57.922 82.6756 57.9192Z" fill="url(#paint4_linear)"/>
<path d="M80.7838 73.0549C80.533 73.0549 80.2924 72.9552 80.115 72.7778C79.9376 72.6004 79.8379 72.3598 79.8379 72.109V62.6495C79.8378 62.4696 79.889 62.2934 79.9856 62.1416C80.0821 61.9897 80.2199 61.8686 80.3829 61.7923C80.5458 61.716 80.7271 61.6878 80.9056 61.711C81.084 61.7341 81.2521 61.8077 81.3902 61.923L87.0659 66.6527C87.1723 66.7415 87.258 66.8526 87.3167 66.9782C87.3755 67.1037 87.406 67.2406 87.406 67.3792C87.406 67.5179 87.3755 67.6548 87.3167 67.7803C87.258 67.9059 87.1723 68.0169 87.0659 68.1057L81.3902 72.8355C81.22 72.9774 81.0054 73.055 80.7838 73.0549ZM81.7298 64.6691V70.0884L84.9819 67.3792L81.7298 64.6691Z" fill="url(#paint5_linear)"/>
<defs>
<linearGradient id="paint0_linear" x1="158.999" y1="118" x2="-36.001" y2="-11" gradientUnits="userSpaceOnUse">
<stop stop-color="#061C2E"/>
<stop offset="1" stop-color="#061C2E" stop-opacity="0"/>
</linearGradient>
<linearGradient id="paint1_linear" x1="77.0008" y1="40.8926" x2="77.0008" y2="107.109" gradientUnits="userSpaceOnUse">
<stop stop-color="#00D46A"/>
<stop offset="1" stop-color="#1262FF"/>
</linearGradient>
<linearGradient id="paint2_linear" x1="77.0004" y1="91.9746" x2="77.0004" y2="107.11" gradientUnits="userSpaceOnUse">
<stop stop-color="#00D46A"/>
<stop offset="1" stop-color="#1262FF"/>
</linearGradient>
<linearGradient id="paint3_linear" x1="64.7038" y1="41.8379" x2="64.7038" y2="92.919" gradientUnits="userSpaceOnUse">
<stop stop-color="#00D46A"/>
<stop offset="1" stop-color="#1262FF"/>
</linearGradient>
<linearGradient id="paint4_linear" x1="82.6756" y1="56.0273" x2="82.6756" y2="78.73" gradientUnits="userSpaceOnUse">
<stop stop-color="#00D46A"/>
<stop offset="1" stop-color="#1262FF"/>
</linearGradient>
<linearGradient id="paint5_linear" x1="83.6219" y1="61.7031" x2="83.6219" y2="73.0549" gradientUnits="userSpaceOnUse">
<stop stop-color="#00D46A"/>
<stop offset="1" stop-color="#1262FF"/>
</linearGradient>
</defs>
</svg>
