<svg width="151" height="151" viewBox="0 0 151 151" fill="none" xmlns="http://www.w3.org/2000/svg">
<path opacity="0.5" d="M41.8527 11.3584C46.6119 6.59917 48.9916 4.21955 51.814 2.78145C54.3113 1.50901 57.0482 0.775673 59.8471 0.628986C63.0104 0.463203 66.2611 1.3342 72.7623 3.07621L114.345 14.2183C120.846 15.9603 124.097 16.8313 126.754 18.5565C129.104 20.083 131.108 22.0865 132.634 24.4371C134.359 27.0938 135.23 30.3444 136.972 36.8457L148.115 78.4284C149.857 84.9296 150.728 88.1803 150.562 91.3436C150.415 94.1425 149.682 96.8794 148.409 99.3767C146.971 102.199 144.592 104.579 139.832 109.338L109.392 139.779C104.632 144.538 102.253 146.918 99.4303 148.356C96.933 149.628 94.1962 150.361 91.3972 150.508C88.2339 150.674 84.9833 149.803 78.482 148.061L36.8993 136.919C30.398 135.177 27.1474 134.306 24.4908 132.581C22.1402 131.054 20.1366 129.051 18.6101 126.7C16.8849 124.043 16.0139 120.793 14.2719 114.291L3.12983 72.7087C1.38783 66.2074 0.516825 62.9568 0.682608 59.7935C0.829296 56.9945 1.56263 54.2577 2.83507 51.7604C4.27317 48.9379 6.6528 46.5583 11.412 41.7991L41.8527 11.3584Z" fill="url(#paint0_linear)"/>
<path d="M76 42C94.7747 42 110 57.2253 110 76C110 94.7747 94.7747 110 76 110C57.2253 110 42 94.7747 42 76C42 57.2253 57.2253 42 76 42Z" stroke="url(#paint1_linear)" stroke-width="2"/>
<path d="M74.5586 90.7567V61.6367H77.7296V90.7567H74.5586Z" fill="url(#paint2_linear)"/>
<path d="M90.7005 71.3372L80.9075 73.9342L78.7235 63.7702L81.6355 63.1122L82.7835 67.9282C82.7835 67.9282 85.4295 63.5882 81.9015 59.0942C79.8225 56.7842 78.8355 56.6862 76.5045 56.3222C74.4535 56.0282 69.6865 56.7212 68.2655 62.2862C67.6635 65.8702 68.3425 68.5232 72.9625 71.9952L72.7035 75.8592C72.7035 75.8592 67.5445 72.2262 66.2145 69.6782C65.1855 67.6622 63.4215 63.6792 66.6065 58.1352C68.3215 55.3632 71.7025 52.7032 77.6595 52.9832C80.6555 53.1092 87.9705 56.7702 86.8365 65.3242C86.6405 66.9272 85.8075 69.0622 85.8075 69.0622L89.8255 68.1662L90.7005 71.3372Z" fill="url(#paint3_linear)"/>
<path d="M85.1061 94.1233C83.3141 96.8463 79.8631 99.4153 73.9201 98.9813C70.9241 98.7783 63.7141 94.9213 65.0721 86.4023C65.3101 84.8063 66.1991 82.6993 66.1991 82.6993L62.1601 83.4833L61.3691 80.2983L71.2321 77.9603L73.1501 88.1803L70.2171 88.7613L69.1951 83.9103C69.1951 83.9103 66.4371 88.1733 69.8391 92.7653C71.8551 95.1313 72.8351 95.2503 75.1661 95.6773C77.2031 96.0273 81.9911 95.4533 83.5591 89.9303C84.2521 86.3673 83.6431 83.6933 79.1211 80.0953L79.4851 76.2383C79.4851 76.2383 84.5461 80.0043 85.8061 82.5873C86.7721 84.6383 88.4311 88.6703 85.1061 94.1233Z" fill="url(#paint4_linear)"/>
<defs>
<linearGradient id="paint0_linear" x1="168.648" y1="69.3135" x2="-64.9248" y2="58.8369" gradientUnits="userSpaceOnUse">
<stop stop-color="#061C2E"/>
<stop offset="1" stop-color="#061C2E" stop-opacity="0"/>
</linearGradient>
<linearGradient id="paint1_linear" x1="76" y1="41" x2="76" y2="111" gradientUnits="userSpaceOnUse">
<stop stop-color="#00D46A"/>
<stop offset="1" stop-color="#1262FF"/>
</linearGradient>
<linearGradient id="paint2_linear" x1="76.1441" y1="61.6367" x2="76.1441" y2="90.7567" gradientUnits="userSpaceOnUse">
<stop stop-color="#00D46A"/>
<stop offset="1" stop-color="#1262FF"/>
</linearGradient>
<linearGradient id="paint3_linear" x1="77.7458" y1="52.9629" x2="77.7458" y2="75.8592" gradientUnits="userSpaceOnUse">
<stop stop-color="#00D46A"/>
<stop offset="1" stop-color="#1262FF"/>
</linearGradient>
<linearGradient id="paint4_linear" x1="74.2268" y1="76.2383" x2="74.2268" y2="99.0295" gradientUnits="userSpaceOnUse">
<stop stop-color="#00D46A"/>
<stop offset="1" stop-color="#1262FF"/>
</linearGradient>
</defs>
</svg>
