<svg width="70" height="70" viewBox="0 0 70 70" fill="none" xmlns="http://www.w3.org/2000/svg">
<g clip-path="url(#clip0)">
<path d="M35 0C15.6702 0 0 15.6702 0 35C0 54.3298 15.6702 70 35 70C36.0544 70 37.1049 69.9527 38.1502 69.8587C39.1221 69.7716 40.0854 69.6383 41.0413 69.4714L41.4087 69.4064C59.1804 66.0898 71.5028 49.7844 69.8405 31.782C68.1782 13.7795 53.0788 0.00569661 35 0V0ZM32.1881 67.543H32.1055C31.1981 67.4627 30.2974 67.3414 29.4048 67.1859C29.3535 67.1768 29.3022 67.1711 29.2521 67.1614C28.3794 67.0053 27.5158 66.8116 26.6607 66.5854L26.4539 66.5325C25.62 66.3063 24.7951 66.0437 23.9822 65.752C23.8979 65.7218 23.813 65.6951 23.7287 65.6637C22.9317 65.3709 22.149 65.0428 21.3783 64.6879C21.2826 64.6452 21.1868 64.6042 21.0911 64.5586C20.3352 64.2088 19.5941 63.8146 18.8672 63.3999C18.7646 63.3418 18.661 63.2837 18.5584 63.2262C17.8429 62.8086 17.144 62.3608 16.4581 61.888C16.3544 61.8157 16.2496 61.7456 16.1465 61.6733C15.4726 61.1953 14.8158 60.6877 14.176 60.1568L14 60.003V50.1667C14.0085 43.0824 19.749 37.3419 26.8333 37.3333H43.1667C50.251 37.3419 55.9915 43.0824 56 50.1667V60.0041L55.8451 60.1335C55.1928 60.6781 54.5234 61.193 53.8359 61.6795C53.7447 61.7433 53.6524 61.8043 53.5618 61.8669C52.868 62.3489 52.1571 62.8023 51.429 63.2284C51.3379 63.2814 51.2445 63.3315 51.1539 63.3839C50.4162 63.8038 49.6659 64.2003 48.9009 64.5574C48.8131 64.5985 48.7249 64.6366 48.636 64.6742C47.859 65.0325 47.0694 65.3624 46.2668 65.6575C46.187 65.6871 46.1067 65.7127 46.0332 65.7406C45.2163 66.0334 44.388 66.2983 43.5495 66.5256L43.3484 66.5758C42.4922 66.8019 41.628 66.9967 40.7542 67.1534C40.704 67.1625 40.6539 67.1688 40.6038 67.1768C39.71 67.3328 38.8082 67.4542 37.9001 67.5351H37.8175C36.8844 67.6154 35.9508 67.6587 35.0057 67.6587C34.0606 67.6587 33.1195 67.6234 32.1881 67.543ZM58.3333 57.8411V50.1667C58.3236 41.7943 51.539 35.0097 43.1667 35H26.8333C18.461 35.0097 11.6764 41.7943 11.6667 50.1667V57.84C-0.898926 45.0152 -0.758789 24.4533 11.98 11.8005C24.7188 -0.851644 45.2812 -0.851644 58.02 11.8005C70.7588 24.4533 70.8989 45.0152 58.3333 57.84V57.8411Z" fill="url(#paint0_linear)"/>
<path d="M34.9997 9.33203C28.5562 9.33203 23.333 14.5553 23.333 20.9987C23.333 27.4421 28.5562 32.6654 34.9997 32.6654C41.4431 32.6654 46.6663 27.4421 46.6663 20.9987C46.6595 14.5581 41.4403 9.33887 34.9997 9.33203ZM34.9997 30.332C29.8448 30.332 25.6663 26.1536 25.6663 20.9987C25.6663 15.8438 29.8448 11.6654 34.9997 11.6654C40.1545 11.6654 44.333 15.8438 44.333 20.9987C44.3273 26.1507 40.1517 30.3263 34.9997 30.332Z" fill="url(#paint1_linear)"/>
</g>
<defs>
<linearGradient id="paint0_linear" x1="34.9953" y1="0" x2="34.9953" y2="70" gradientUnits="userSpaceOnUse">
<stop stop-color="#00D46A"/>
<stop offset="1" stop-color="#1262FF"/>
</linearGradient>
<linearGradient id="paint1_linear" x1="34.9997" y1="9.33203" x2="34.9997" y2="32.6654" gradientUnits="userSpaceOnUse">
<stop stop-color="#00D46A"/>
<stop offset="1" stop-color="#1262FF"/>
</linearGradient>
<clipPath id="clip0">
<rect width="70" height="70" fill="white"/>
</clipPath>
</defs>
</svg>
