<svg width="23" height="23" viewBox="0 0 23 23" fill="none" xmlns="http://www.w3.org/2000/svg">
<g clip-path="url(#clip0)">
<path d="M22.5364 5.84981C22.277 4.88594 21.5171 4.12617 20.5534 3.86662C18.7927 3.38477 11.7498 3.38477 11.7498 3.38477C11.7498 3.38477 4.70706 3.38477 2.94634 3.84825C2.00117 4.10763 1.22269 4.88611 0.963312 5.84981C0.5 7.61036 0.5 11.2616 0.5 11.2616C0.5 11.2616 0.5 14.9312 0.963312 16.6734C1.22286 17.6371 1.98263 18.397 2.94651 18.6566C4.7256 19.1384 11.75 19.1384 11.75 19.1384C11.75 19.1384 18.7927 19.1384 20.5534 18.6749C21.5173 18.4155 22.277 17.6556 22.5366 16.6919C22.9999 14.9312 22.9999 11.2801 22.9999 11.2801C22.9999 11.2801 23.0184 7.61036 22.5364 5.84981Z" fill="#FF0000"/>
<path d="M9.50781 14.633L15.3644 11.2599L9.50781 7.88672V14.633Z" fill="white"/>
</g>
<defs>
<clipPath id="clip0">
<rect width="22.5" height="22.5" fill="white" transform="translate(0.5)"/>
</clipPath>
</defs>
</svg>
